M48
; DRILL file {KiCad 8.99.0-1678-gcd3e85b0b3} date 2024-09-01T20:16:52+0200
; FORMAT={-:-/ absolute / inch / decimal}
; #@! TF.CreationDate,2024-09-01T20:16:52+02:00
; #@! TF.GenerationSoftware,Kicad,Pcbnew,8.99.0-1678-gcd3e85b0b3
; #@! TF.FileFunction,Plated,1,2,PTH
FMAT,2
INCH
; #@! TA.AperFunction,Plated,PTH,ViaDrill
T1C0.0157
; #@! TA.AperFunction,Plated,PTH,ComponentDrill
T2C0.0276
; #@! TA.AperFunction,Plated,PTH,ComponentDrill
T3C0.0315
; #@! TA.AperFunction,Plated,PTH,ComponentDrill
T4C0.0354
; #@! TA.AperFunction,Plated,PTH,ComponentDrill
T5C0.0394
; #@! TA.AperFunction,Plated,PTH,ComponentDrill
T6C0.0433
; #@! TA.AperFunction,Plated,PTH,ComponentDrill
T7C0.0472
; #@! TA.AperFunction,Plated,PTH,ComponentDrill
T8C0.0512
; #@! TA.AperFunction,Plated,PTH,ComponentDrill
T9C0.0630
; #@! TA.AperFunction,Plated,PTH,ComponentDrill
T10C0.0669
; #@! TA.AperFunction,Plated,PTH,ComponentDrill
T11C0.0728
; #@! TA.AperFunction,Plated,PTH,ComponentDrill
T12C0.0787
; #@! TA.AperFunction,Plated,PTH,ComponentDrill
T13C0.1260
%
G90
G05
T1
X2.023Y-3.6599
X2.0781Y-3.6599
X2.1096Y-3.5969
X2.1333Y-3.6599
X2.1805Y-3.5969
X2.1884Y-3.6599
X2.2435Y-3.5969
X2.2435Y-3.6599
X2.2898Y-4.0979
X2.3104Y-3.7307
X2.3754Y-4.0113
X2.6233Y-3.7071
X2.6333Y-3.9926
X2.7081Y-4.1717
X2.7632Y-4.1717
X2.7829Y-3.8607
X2.8222Y-3.6048
X2.8262Y-4.1717
X2.8813Y-3.6048
X3.3203Y-5.3941
X3.3852Y-5.3941
X3.4443Y-5.3941
X3.5016Y-4.4294
X3.5075Y-4.5081
X3.6414Y-4.2089
X3.7516Y-4.4392
X4.4915Y-2.778
X4.4915Y-2.8607
X4.4915Y-2.9433
X4.4915Y-3.0221
X4.4955Y-2.6678
T2
X3.836Y-2.1874
X3.8951Y-1.9906
T3
X2.773Y-4.3036
X2.8715Y-4.3036
X3.1453Y-4.138
X3.1453Y-4.238
X3.1453Y-4.338
X3.4453Y-4.138
X3.4453Y-4.238
X3.4453Y-4.338
T4
X1.9246Y-2.9158
X1.9758Y-2.6205
T5
X1.8183Y-1.4985
X1.8183Y-1.6953
X2.0152Y-3.8311
X2.0152Y-4.1264
X2.0545Y-1.4788
X2.2514Y-1.4788
X2.3498Y-1.7544
X2.3498Y-2.6402
X2.4817Y-6.2189
X2.777Y-6.2189
X3.4915Y-1.7347
X3.4915Y-2.6205
X4.0919Y-3.6737
X4.0919Y-3.9689
T6
X1.59Y-2.5402
X1.59Y-2.7402
X1.7986Y-3.9378
X1.7986Y-4.0378
X1.7986Y-4.1378
X3.4008Y-5.7331
X3.4008Y-5.8331
X3.4008Y-5.9331
T7
X1.7002Y-1.9315
X1.7002Y-2.3252
X1.9364Y-1.8922
X1.9364Y-2.3646
X2.2321Y-3.8174
X2.3104Y-4.2741
X2.4321Y-3.8174
X2.5104Y-4.2741
X2.9407Y-6.2189
X3.1407Y-6.2189
X3.6603Y-4.8567
X3.7913Y-6.0634
X3.8571Y-4.8567
X3.9881Y-6.0634
X4.2356Y-5.5811
X4.2362Y-4.9591
X4.3183Y-3.0339
X4.3183Y-3.3292
X4.4325Y-5.5811
X4.433Y-4.9591
T8
X3.8577Y-5.4119
X3.8577Y-5.7268
T9
X2.7238Y-1.7741
X2.7238Y-2.5122
X3.1175Y-1.7741
X3.1175Y-2.5122
X4.1215Y-1.9874
X4.1215Y-2.1874
X4.1215Y-2.3874
X4.1215Y-2.5874
T10
X1.6116Y-2.9355
X1.6116Y-3.2473
X4.4364Y-4.049
X4.4364Y-4.2049
X4.4364Y-4.3608
X4.4364Y-4.5167
T11
X1.678Y-4.7581
X1.678Y-5.7581
X1.878Y-4.7581
X1.878Y-5.7581
X2.078Y-4.7581
X2.078Y-5.7581
X2.278Y-4.7581
X2.278Y-5.7581
X2.478Y-4.7581
X2.478Y-5.7581
X2.678Y-4.7581
X2.678Y-5.7581
X2.878Y-4.7581
X2.878Y-5.7581
T13
X1.5033Y-1.5378
X1.5033Y-6.2032
X4.4561Y-1.5378
X4.4561Y-6.2032
T12
G00X3.6028Y-5.3567
M15
G01X3.65Y-5.3567
M16
G05
G00X3.6028Y-6.3095
M15
G01X3.65Y-6.3095
M16
G05
M30
