%TF.GenerationSoftware,KiCad,Pcbnew,8.99.0-1678-gcd3e85b0b3*%
%TF.CreationDate,2024-09-01T20:16:47+02:00*%
%TF.ProjectId,ACDC120W19O5V,41434443-3132-4305-9731-394f35562e6b,rev?*%
%TF.SameCoordinates,Original*%
%TF.FileFunction,Copper,L1,Top*%
%TF.FilePolarity,Positive*%
%FSLAX46Y46*%
G04 Gerber Fmt 4.6, Leading zero omitted, Abs format (unit mm)*
G04 Created by KiCad (PCBNEW 8.99.0-1678-gcd3e85b0b3) date 2024-09-01 20:16:47*
%MOMM*%
%LPD*%
G01*
G04 APERTURE LIST*
G04 Aperture macros list*
%AMRoundRect*
0 Rectangle with rounded corners*
0 $1 Rounding radius*
0 $2 $3 $4 $5 $6 $7 $8 $9 X,Y pos of 4 corners*
0 Add a 4 corners polygon primitive as box body*
4,1,4,$2,$3,$4,$5,$6,$7,$8,$9,$2,$3,0*
0 Add four circle primitives for the rounded corners*
1,1,$1+$1,$2,$3*
1,1,$1+$1,$4,$5*
1,1,$1+$1,$6,$7*
1,1,$1+$1,$8,$9*
0 Add four rect primitives between the rounded corners*
20,1,$1+$1,$2,$3,$4,$5,0*
20,1,$1+$1,$4,$5,$6,$7,0*
20,1,$1+$1,$6,$7,$8,$9,0*
20,1,$1+$1,$8,$9,$2,$3,0*%
G04 Aperture macros list end*
%TA.AperFunction,SMDPad,CuDef*%
%ADD10RoundRect,0.200000X-0.275000X0.200000X-0.275000X-0.200000X0.275000X-0.200000X0.275000X0.200000X0*%
%TD*%
%TA.AperFunction,ComponentPad*%
%ADD11C,2.400000*%
%TD*%
%TA.AperFunction,ComponentPad*%
%ADD12O,2.400000X2.400000*%
%TD*%
%TA.AperFunction,SMDPad,CuDef*%
%ADD13RoundRect,0.200000X-0.200000X-0.275000X0.200000X-0.275000X0.200000X0.275000X-0.200000X0.275000X0*%
%TD*%
%TA.AperFunction,SMDPad,CuDef*%
%ADD14RoundRect,0.200000X0.275000X-0.200000X0.275000X0.200000X-0.275000X0.200000X-0.275000X-0.200000X0*%
%TD*%
%TA.AperFunction,ComponentPad*%
%ADD15C,3.600000*%
%TD*%
%TA.AperFunction,ConnectorPad*%
%ADD16C,5.600000*%
%TD*%
%TA.AperFunction,SMDPad,CuDef*%
%ADD17RoundRect,0.250000X-0.400000X-0.625000X0.400000X-0.625000X0.400000X0.625000X-0.400000X0.625000X0*%
%TD*%
%TA.AperFunction,ComponentPad*%
%ADD18R,3.200000X3.200000*%
%TD*%
%TA.AperFunction,ComponentPad*%
%ADD19C,3.200000*%
%TD*%
%TA.AperFunction,ComponentPad*%
%ADD20C,2.550000*%
%TD*%
%TA.AperFunction,ComponentPad*%
%ADD21C,1.800000*%
%TD*%
%TA.AperFunction,SMDPad,CuDef*%
%ADD22RoundRect,0.250000X0.475000X-0.337500X0.475000X0.337500X-0.475000X0.337500X-0.475000X-0.337500X0*%
%TD*%
%TA.AperFunction,SMDPad,CuDef*%
%ADD23RoundRect,0.225000X0.250000X-0.225000X0.250000X0.225000X-0.250000X0.225000X-0.250000X-0.225000X0*%
%TD*%
%TA.AperFunction,ComponentPad*%
%ADD24C,2.000000*%
%TD*%
%TA.AperFunction,SMDPad,CuDef*%
%ADD25RoundRect,0.225000X-0.250000X0.225000X-0.250000X-0.225000X0.250000X-0.225000X0.250000X0.225000X0*%
%TD*%
%TA.AperFunction,SMDPad,CuDef*%
%ADD26RoundRect,0.250000X-0.475000X0.337500X-0.475000X-0.337500X0.475000X-0.337500X0.475000X0.337500X0*%
%TD*%
%TA.AperFunction,ComponentPad*%
%ADD27R,2.400000X2.400000*%
%TD*%
%TA.AperFunction,ComponentPad*%
%ADD28C,1.700000*%
%TD*%
%TA.AperFunction,SMDPad,CuDef*%
%ADD29RoundRect,0.112500X-0.112500X0.187500X-0.112500X-0.187500X0.112500X-0.187500X0.112500X0.187500X0*%
%TD*%
%TA.AperFunction,SMDPad,CuDef*%
%ADD30RoundRect,0.249999X-0.450001X-1.425001X0.450001X-1.425001X0.450001X1.425001X-0.450001X1.425001X0*%
%TD*%
%TA.AperFunction,ComponentPad*%
%ADD31R,2.400000X1.600000*%
%TD*%
%TA.AperFunction,ComponentPad*%
%ADD32O,2.400000X1.600000*%
%TD*%
%TA.AperFunction,SMDPad,CuDef*%
%ADD33RoundRect,0.112500X-0.187500X-0.112500X0.187500X-0.112500X0.187500X0.112500X-0.187500X0.112500X0*%
%TD*%
%TA.AperFunction,ComponentPad*%
%ADD34C,1.600000*%
%TD*%
%TA.AperFunction,SMDPad,CuDef*%
%ADD35RoundRect,0.150000X0.150000X-0.587500X0.150000X0.587500X-0.150000X0.587500X-0.150000X-0.587500X0*%
%TD*%
%TA.AperFunction,ComponentPad*%
%ADD36C,2.300000*%
%TD*%
%TA.AperFunction,SMDPad,CuDef*%
%ADD37RoundRect,0.225000X-0.225000X-0.250000X0.225000X-0.250000X0.225000X0.250000X-0.225000X0.250000X0*%
%TD*%
%TA.AperFunction,ComponentPad*%
%ADD38O,4.200000X3.000000*%
%TD*%
%TA.AperFunction,ComponentPad*%
%ADD39RoundRect,0.250001X-1.099999X1.099999X-1.099999X-1.099999X1.099999X-1.099999X1.099999X1.099999X0*%
%TD*%
%TA.AperFunction,ComponentPad*%
%ADD40C,2.700000*%
%TD*%
%TA.AperFunction,SMDPad,CuDef*%
%ADD41RoundRect,0.250000X0.300000X0.300000X-0.300000X0.300000X-0.300000X-0.300000X0.300000X-0.300000X0*%
%TD*%
%TA.AperFunction,SMDPad,CuDef*%
%ADD42RoundRect,0.225000X0.225000X0.250000X-0.225000X0.250000X-0.225000X-0.250000X0.225000X-0.250000X0*%
%TD*%
%TA.AperFunction,SMDPad,CuDef*%
%ADD43RoundRect,0.200000X0.200000X0.275000X-0.200000X0.275000X-0.200000X-0.275000X0.200000X-0.275000X0*%
%TD*%
%TA.AperFunction,ComponentPad*%
%ADD44R,2.000000X1.905000*%
%TD*%
%TA.AperFunction,ComponentPad*%
%ADD45O,2.000000X1.905000*%
%TD*%
%TA.AperFunction,SMDPad,CuDef*%
%ADD46RoundRect,0.250000X1.000000X0.900000X-1.000000X0.900000X-1.000000X-0.900000X1.000000X-0.900000X0*%
%TD*%
%TA.AperFunction,SMDPad,CuDef*%
%ADD47RoundRect,0.112500X0.187500X0.112500X-0.187500X0.112500X-0.187500X-0.112500X0.187500X-0.112500X0*%
%TD*%
%TA.AperFunction,SMDPad,CuDef*%
%ADD48RoundRect,0.150000X-0.150000X0.825000X-0.150000X-0.825000X0.150000X-0.825000X0.150000X0.825000X0*%
%TD*%
%TA.AperFunction,ViaPad*%
%ADD49C,0.800000*%
%TD*%
%TA.AperFunction,Conductor*%
%ADD50C,0.200000*%
%TD*%
%TA.AperFunction,Conductor*%
%ADD51C,0.500000*%
%TD*%
%TA.AperFunction,Conductor*%
%ADD52C,0.300000*%
%TD*%
%TA.AperFunction,Conductor*%
%ADD53C,2.000000*%
%TD*%
G04 APERTURE END LIST*
D10*
%TO.P,R16,1*%
%TO.N,Net-(D5-K)*%
X96171200Y-114066200D03*
%TO.P,R16,2*%
%TO.N,/PS/19.5V_FLT*%
X96171200Y-115716200D03*
%TD*%
%TO.P,R18,1*%
%TO.N,Net-(U3-REF)*%
X97671200Y-111094200D03*
%TO.P,R18,2*%
%TO.N,Net-(R17-Pad1)*%
X97671200Y-112744200D03*
%TD*%
D11*
%TO.P,R21,1*%
%TO.N,Net-(C19-Pad2)*%
X56695000Y-96961000D03*
D12*
%TO.P,R21,2*%
%TO.N,/PS/AC_R_O*%
X61775000Y-96961000D03*
%TD*%
D13*
%TO.P,R13,1*%
%TO.N,Net-(R13-Pad1)*%
X89935000Y-111011000D03*
%TO.P,R13,2*%
%TO.N,Net-(D5-K)*%
X91585000Y-111011000D03*
%TD*%
D14*
%TO.P,R19,1*%
%TO.N,OUT_GND*%
X96171200Y-112744200D03*
%TO.P,R19,2*%
%TO.N,Net-(U3-REF)*%
X96171200Y-111094200D03*
%TD*%
D15*
%TO.P,H2,1,1*%
%TO.N,unconnected-(H2-Pad1)_2*%
X113185000Y-157561000D03*
D16*
%TO.N,unconnected-(H2-Pad1)*%
X113185000Y-157561000D03*
%TD*%
D17*
%TO.P,R6,1*%
%TO.N,Net-(R6-Pad1)*%
X93885000Y-92811000D03*
%TO.P,R6,2*%
%TO.N,/PS/AC_R_O*%
X96985000Y-92811000D03*
%TD*%
D18*
%TO.P,D6,1,+*%
%TO.N,/PS/AC_R_O*%
X104685000Y-65721000D03*
D19*
%TO.P,D6,2*%
%TO.N,/PS/AC_R_I_2*%
X104685000Y-60641000D03*
%TO.P,D6,3*%
%TO.N,/PS/AC_R_I_1*%
X104685000Y-55561000D03*
%TO.P,D6,4,-*%
%TO.N,DCR_GND*%
X104685000Y-50481000D03*
%TD*%
D20*
%TO.P,TR1,1,1*%
%TO.N,DCR_GND*%
X73102000Y-120857000D03*
%TO.P,TR1,2*%
%TO.N,N/C*%
X68022000Y-120857000D03*
%TO.P,TR1,3*%
X62942000Y-120857000D03*
%TO.P,TR1,4,4*%
%TO.N,/PS/AC_R_O*%
X57862000Y-120857000D03*
%TO.P,TR1,5*%
%TO.N,N/C*%
X52782000Y-120857000D03*
%TO.P,TR1,6,6*%
%TO.N,/PS/TR_SW*%
X47702000Y-120857000D03*
%TO.P,TR1,7,7*%
%TO.N,/PS/AUX*%
X42622000Y-120857000D03*
%TO.P,TR1,8,8*%
%TO.N,OUT_GND*%
X42622000Y-146257000D03*
%TO.P,TR1,9,9*%
X47702000Y-146257000D03*
%TO.P,TR1,10*%
%TO.N,N/C*%
X52782000Y-146257000D03*
%TO.P,TR1,11*%
X57862000Y-146257000D03*
%TO.P,TR1,12*%
X62942000Y-146257000D03*
%TO.P,TR1,13,13*%
%TO.N,Net-(D8A-A)*%
X68022000Y-146257000D03*
%TO.P,TR1,14,14*%
X73102000Y-146257000D03*
%TD*%
D21*
%TO.P,F1,1*%
%TO.N,/PS/AC_L*%
X40385000Y-69601000D03*
%TO.P,F1,2*%
%TO.N,Net-(F1-Pad2)*%
X40385000Y-64521000D03*
%TD*%
D22*
%TO.P,C17,1*%
%TO.N,/PS/19.5V_FLT*%
X100185000Y-109298500D03*
%TO.P,C17,2*%
%TO.N,OUT_GND*%
X100185000Y-107223500D03*
%TD*%
D21*
%TO.P,RV1,1*%
%TO.N,/PS/AC_L_SW*%
X50185000Y-66561000D03*
%TO.P,RV1,2*%
%TO.N,/PS/AC_N*%
X48885000Y-74061000D03*
%TD*%
D23*
%TO.P,C2,1*%
%TO.N,/PS/MOS_S*%
X71685000Y-94361000D03*
%TO.P,C2,2*%
%TO.N,GND_DC_S*%
X71685000Y-92811000D03*
%TD*%
D24*
%TO.P,SW1,1,1*%
%TO.N,Net-(F1-Pad2)*%
X43185000Y-49061000D03*
%TO.P,SW1,2,2*%
%TO.N,/PS/AC_L_SW*%
X49185000Y-48061000D03*
%TO.P,SW1,3,3*%
%TO.N,Net-(F1-Pad2)*%
X43185000Y-59061000D03*
%TO.P,SW1,4,4*%
%TO.N,/PS/AC_L_SW*%
X49185000Y-60061000D03*
%TD*%
D25*
%TO.P,C4,1*%
%TO.N,Net-(U1-VDD)*%
X70215000Y-103436000D03*
%TO.P,C4,2*%
%TO.N,GND_DC_P*%
X70215000Y-104986000D03*
%TD*%
D24*
%TO.P,C12,1*%
%TO.N,OUT_GND*%
X103935000Y-100811000D03*
%TO.P,C12,2*%
%TO.N,DCR_GND*%
X103935000Y-93311000D03*
%TD*%
D26*
%TO.P,C21,1*%
%TO.N,OUT_GND*%
X104235000Y-107223500D03*
%TO.P,C21,2*%
%TO.N,/PS/19.5V_FLT*%
X104235000Y-109298500D03*
%TD*%
D24*
%TO.P,C28,1*%
%TO.N,Net-(C28-Pad1)*%
X70535000Y-157961000D03*
%TO.P,C28,2*%
%TO.N,Net-(D8A-A)*%
X63035000Y-157961000D03*
%TD*%
D25*
%TO.P,C10,1*%
%TO.N,GND_DC_S*%
X73185000Y-92811000D03*
%TO.P,C10,2*%
%TO.N,/PS/OPT_C*%
X73185000Y-94361000D03*
%TD*%
D27*
%TO.P,C25,1*%
%TO.N,/PS/19.5V*%
X96298541Y-154011000D03*
D11*
%TO.P,C25,2*%
%TO.N,OUT_GND*%
X101298541Y-154011000D03*
%TD*%
D28*
%TO.P,C7,1*%
%TO.N,/PS/AC_L_SW*%
X59685000Y-44561000D03*
%TO.P,C7,2*%
%TO.N,/PS/AC_N*%
X59685000Y-67061000D03*
%TD*%
D13*
%TO.P,R3,1*%
%TO.N,Net-(Q1-G)*%
X55360000Y-101086000D03*
%TO.P,R3,2*%
%TO.N,Net-(D2-K)*%
X57010000Y-101086000D03*
%TD*%
%TO.P,R2,1*%
%TO.N,Net-(Q1-G)*%
X55360000Y-102561000D03*
%TO.P,R2,2*%
%TO.N,Net-(D1-A)*%
X57010000Y-102561000D03*
%TD*%
D25*
%TO.P,C5,1*%
%TO.N,Net-(U1-VDD)*%
X71685000Y-103436000D03*
%TO.P,C5,2*%
%TO.N,GND_DC_P*%
X71685000Y-104986000D03*
%TD*%
D29*
%TO.P,D4,1,K*%
%TO.N,Net-(D3-A)*%
X66935000Y-109761000D03*
%TO.P,D4,2,A*%
%TO.N,/PS/AUX*%
X66935000Y-111861000D03*
%TD*%
D27*
%TO.P,C24,1*%
%TO.N,/PS/19.5V*%
X107585000Y-141761000D03*
D11*
%TO.P,C24,2*%
%TO.N,OUT_GND*%
X112585000Y-141761000D03*
%TD*%
D30*
%TO.P,R5,1*%
%TO.N,Net-(Q1-S)*%
X45635000Y-90561000D03*
%TO.P,R5,2*%
%TO.N,GND_DC_P*%
X51735000Y-90561000D03*
%TD*%
D29*
%TO.P,D3,1,K*%
%TO.N,Net-(D3-K)*%
X66985000Y-106461000D03*
%TO.P,D3,2,A*%
%TO.N,Net-(D3-A)*%
X66985000Y-108561000D03*
%TD*%
D31*
%TO.P,U2,1*%
%TO.N,Net-(R13-Pad1)*%
X87510000Y-110186000D03*
D32*
%TO.P,U2,2*%
%TO.N,Net-(U3-K)*%
X87510000Y-107646000D03*
%TO.P,U2,3,NC*%
%TO.N,unconnected-(U2-NC-Pad3)*%
X87510000Y-105106000D03*
%TO.P,U2,4*%
%TO.N,GND_DC_S*%
X79890000Y-105106000D03*
%TO.P,U2,5*%
%TO.N,/PS/OPT_C*%
X79890000Y-107646000D03*
%TO.P,U2,6*%
%TO.N,unconnected-(U2-Pad6)*%
X79890000Y-110186000D03*
%TD*%
D28*
%TO.P,C11,1*%
%TO.N,Net-(C11-Pad1)*%
X88685000Y-44061000D03*
%TO.P,C11,2*%
%TO.N,/PS/AC_R_I_2*%
X88685000Y-66561000D03*
%TD*%
D27*
%TO.P,C16,1*%
%TO.N,/PS/AC_R_O*%
X109685000Y-77061000D03*
D11*
%TO.P,C16,2*%
%TO.N,DCR_GND*%
X109685000Y-84561000D03*
%TD*%
D26*
%TO.P,C27,1*%
%TO.N,OUT_GND*%
X84885000Y-138573500D03*
%TO.P,C27,2*%
%TO.N,/PS/19.5V*%
X84885000Y-140648500D03*
%TD*%
D33*
%TO.P,D2,1,K*%
%TO.N,Net-(D2-K)*%
X58235000Y-100886000D03*
%TO.P,D2,2,A*%
%TO.N,/PS/TR_GAT*%
X60335000Y-100886000D03*
%TD*%
D34*
%TO.P,C6,1*%
%TO.N,Net-(D3-A)*%
X70435000Y-109311000D03*
%TO.P,C6,2*%
%TO.N,GND_DC_P*%
X72935000Y-109311000D03*
%TD*%
D11*
%TO.P,R20,1*%
%TO.N,Net-(D7-K)*%
X58685000Y-108561000D03*
D12*
%TO.P,R20,2*%
%TO.N,/PS/AC_R_O*%
X63765000Y-108561000D03*
%TD*%
D27*
%TO.P,C23,1*%
%TO.N,/PS/19.5V_FLT*%
X97971459Y-123361000D03*
D11*
%TO.P,C23,2*%
%TO.N,OUT_GND*%
X92971459Y-123361000D03*
%TD*%
D35*
%TO.P,U3,1,K*%
%TO.N,Net-(U3-K)*%
X91560000Y-107698500D03*
%TO.P,U3,2,REF*%
%TO.N,Net-(U3-REF)*%
X93460000Y-107698500D03*
%TO.P,U3,3,A*%
%TO.N,OUT_GND*%
X92510000Y-105823500D03*
%TD*%
D36*
%TO.P,FL1,1,1*%
%TO.N,/PS/AC_N*%
X69185000Y-63811000D03*
%TO.P,FL1,2,2*%
%TO.N,/PS/AC_R_I_2*%
X79185000Y-63811000D03*
%TO.P,FL1,3,3*%
%TO.N,/PS/AC_L_SW*%
X69185000Y-45061000D03*
%TO.P,FL1,4,4*%
%TO.N,Net-(C11-Pad1)*%
X79185000Y-45061000D03*
%TD*%
D37*
%TO.P,C14,1*%
%TO.N,Net-(U3-K)*%
X91735000Y-103761000D03*
%TO.P,C14,2*%
%TO.N,Net-(U3-REF)*%
X93285000Y-103761000D03*
%TD*%
D17*
%TO.P,R8,1*%
%TO.N,Net-(U1-VDD)*%
X81885000Y-92811000D03*
%TO.P,R8,2*%
%TO.N,Net-(R7-Pad1)*%
X84985000Y-92811000D03*
%TD*%
D15*
%TO.P,H4,1,1*%
%TO.N,unconnected-(H4-Pad1)_1*%
X113185000Y-39061000D03*
D16*
%TO.N,unconnected-(H4-Pad1)_2*%
X113185000Y-39061000D03*
%TD*%
D24*
%TO.P,C9,1*%
%TO.N,/PS/AC_R_I_2*%
X46185000Y-43061000D03*
%TO.P,C9,2*%
%TO.N,EARTH*%
X46185000Y-38061000D03*
%TD*%
D22*
%TO.P,C26,1*%
%TO.N,/PS/19.5V*%
X86835000Y-140648500D03*
%TO.P,C26,2*%
%TO.N,OUT_GND*%
X86835000Y-138573500D03*
%TD*%
D38*
%TO.P,HS2,1*%
%TO.N,N/C*%
X92110000Y-136061000D03*
X92110000Y-160261000D03*
%TD*%
D23*
%TO.P,C1,1*%
%TO.N,Net-(U1-SS)*%
X74685000Y-94361000D03*
%TO.P,C1,2*%
%TO.N,GND_DC_S*%
X74685000Y-92811000D03*
%TD*%
D11*
%TO.P,R22,1*%
%TO.N,Net-(C28-Pad1)*%
X74695000Y-157961000D03*
D12*
%TO.P,R22,2*%
%TO.N,/PS/19.5V*%
X79775000Y-157961000D03*
%TD*%
D10*
%TO.P,R17,1*%
%TO.N,Net-(R17-Pad1)*%
X97671200Y-114066200D03*
%TO.P,R17,2*%
%TO.N,/PS/19.5V_FLT*%
X97671200Y-115716200D03*
%TD*%
D34*
%TO.P,TH1,1*%
%TO.N,/PS/AC_R_I_1*%
X97435000Y-55561000D03*
%TO.P,TH1,2*%
%TO.N,Net-(C11-Pad1)*%
X98935000Y-50561000D03*
%TD*%
D13*
%TO.P,R1,1*%
%TO.N,Net-(Q1-S)*%
X67960000Y-94161000D03*
%TO.P,R1,2*%
%TO.N,/PS/MOS_S*%
X69610000Y-94161000D03*
%TD*%
D39*
%TO.P,J1,1,Pin_1*%
%TO.N,/PS/AC_L*%
X40935000Y-74561000D03*
D40*
%TO.P,J1,2,Pin_2*%
%TO.N,/PS/AC_N*%
X40935000Y-82481000D03*
%TD*%
D37*
%TO.P,C15,1*%
%TO.N,Net-(C15-Pad1)*%
X96041200Y-109506200D03*
%TO.P,C15,2*%
%TO.N,Net-(U3-REF)*%
X97591200Y-109506200D03*
%TD*%
D17*
%TO.P,R7,1*%
%TO.N,Net-(R7-Pad1)*%
X87885000Y-92811000D03*
%TO.P,R7,2*%
%TO.N,Net-(R6-Pad1)*%
X90985000Y-92811000D03*
%TD*%
D22*
%TO.P,C20,1*%
%TO.N,/PS/19.5V_FLT*%
X106235000Y-109298500D03*
%TO.P,C20,2*%
%TO.N,OUT_GND*%
X106235000Y-107223500D03*
%TD*%
D24*
%TO.P,C8,1*%
%TO.N,Net-(C11-Pad1)*%
X57185000Y-37561000D03*
%TO.P,C8,2*%
%TO.N,EARTH*%
X52185000Y-37561000D03*
%TD*%
D13*
%TO.P,R4,1*%
%TO.N,Net-(Q1-G)*%
X55335000Y-104086000D03*
%TO.P,R4,2*%
%TO.N,GND_DC_P*%
X56985000Y-104086000D03*
%TD*%
D10*
%TO.P,R12,1*%
%TO.N,Net-(U1-OVP)*%
X74685000Y-103411000D03*
%TO.P,R12,2*%
%TO.N,GND_DC_S*%
X74685000Y-105061000D03*
%TD*%
D39*
%TO.P,J2,1,Pin_1*%
%TO.N,OUT_GND*%
X112685000Y-102843500D03*
D40*
%TO.P,J2,2,Pin_2*%
X112685000Y-106803500D03*
%TO.P,J2,3,Pin_3*%
%TO.N,/PS/19.5V_FLT*%
X112685000Y-110763500D03*
%TO.P,J2,4,Pin_4*%
X112685000Y-114723500D03*
%TD*%
D41*
%TO.P,D5,1,K*%
%TO.N,Net-(D5-K)*%
X92891200Y-114406200D03*
%TO.P,D5,2,A*%
%TO.N,OUT_GND*%
X90091200Y-114406200D03*
%TD*%
D24*
%TO.P,C19,1*%
%TO.N,Net-(D7-K)*%
X51185000Y-104811000D03*
%TO.P,C19,2*%
%TO.N,Net-(C19-Pad2)*%
X51185000Y-97311000D03*
%TD*%
D42*
%TO.P,C13,1*%
%TO.N,Net-(D5-K)*%
X91535000Y-112511000D03*
%TO.P,C13,2*%
%TO.N,OUT_GND*%
X89985000Y-112511000D03*
%TD*%
D43*
%TO.P,R14,1*%
%TO.N,Net-(U3-K)*%
X91585000Y-109511000D03*
%TO.P,R14,2*%
%TO.N,Net-(R13-Pad1)*%
X89935000Y-109511000D03*
%TD*%
D14*
%TO.P,R10,1*%
%TO.N,Net-(D3-K)*%
X66985000Y-105186000D03*
%TO.P,R10,2*%
%TO.N,Net-(U1-VDD)*%
X66985000Y-103536000D03*
%TD*%
D10*
%TO.P,R11,1*%
%TO.N,Net-(U1-OVP)*%
X73185000Y-103386000D03*
%TO.P,R11,2*%
%TO.N,/PS/AUX*%
X73185000Y-105036000D03*
%TD*%
D44*
%TO.P,D8,1,A*%
%TO.N,Net-(D8A-A)*%
X86380000Y-150701000D03*
D45*
%TO.P,D8,2,K*%
%TO.N,/PS/19.5V*%
X86380000Y-148161000D03*
%TO.P,D8,3,K*%
%TO.N,Net-(D8A-A)*%
X86380000Y-145621000D03*
%TD*%
D25*
%TO.P,C3,1*%
%TO.N,Net-(U1-VDD)*%
X68715000Y-103436000D03*
%TO.P,C3,2*%
%TO.N,GND_DC_P*%
X68715000Y-104986000D03*
%TD*%
D15*
%TO.P,H3,1,1*%
%TO.N,unconnected-(H3-Pad1)_2*%
X38185000Y-157561000D03*
D16*
%TO.N,unconnected-(H3-Pad1)*%
X38185000Y-157561000D03*
%TD*%
D26*
%TO.P,C18,1*%
%TO.N,OUT_GND*%
X102235000Y-107223500D03*
%TO.P,C18,2*%
%TO.N,/PS/19.5V_FLT*%
X102235000Y-109298500D03*
%TD*%
D27*
%TO.P,C22,1*%
%TO.N,/PS/19.5V_FLT*%
X107598541Y-125961000D03*
D11*
%TO.P,C22,2*%
%TO.N,OUT_GND*%
X112598541Y-125961000D03*
%TD*%
D43*
%TO.P,R15,1*%
%TO.N,Net-(C15-Pad1)*%
X94616200Y-109506200D03*
%TO.P,R15,2*%
%TO.N,Net-(U3-K)*%
X92966200Y-109506200D03*
%TD*%
D46*
%TO.P,D7,1,K*%
%TO.N,Net-(D7-K)*%
X53585000Y-109061000D03*
%TO.P,D7,2,A*%
%TO.N,/PS/TR_SW*%
X49285000Y-109061000D03*
%TD*%
D47*
%TO.P,D1,1,K*%
%TO.N,/PS/TR_GAT*%
X60335000Y-102786000D03*
%TO.P,D1,2,A*%
%TO.N,Net-(D1-A)*%
X58235000Y-102786000D03*
%TD*%
D24*
%TO.P,L1,1*%
%TO.N,/PS/19.5V_FLT*%
X97985000Y-137461000D03*
%TO.P,L1,2*%
%TO.N,/PS/19.5V*%
X97985000Y-145461000D03*
%TD*%
D48*
%TO.P,U1,1,SS*%
%TO.N,Net-(U1-SS)*%
X74120000Y-96461000D03*
%TO.P,U1,2,FB*%
%TO.N,/PS/OPT_C*%
X72850000Y-96461000D03*
%TO.P,U1,3,CS*%
%TO.N,/PS/MOS_S*%
X71580000Y-96461000D03*
%TO.P,U1,4,GND*%
%TO.N,GND_DC_S*%
X70310000Y-96461000D03*
%TO.P,U1,5,OUT*%
%TO.N,/PS/TR_GAT*%
X70310000Y-101411000D03*
%TO.P,U1,6,VDD*%
%TO.N,Net-(U1-VDD)*%
X71580000Y-101411000D03*
%TO.P,U1,7,OVP*%
%TO.N,Net-(U1-OVP)*%
X72850000Y-101411000D03*
%TO.P,U1,8,STATUS*%
%TO.N,unconnected-(U1-STATUS-Pad8)*%
X74120000Y-101411000D03*
%TD*%
D44*
%TO.P,Q1,1,G*%
%TO.N,Net-(Q1-G)*%
X45685000Y-105101000D03*
D45*
%TO.P,Q1,2,D*%
%TO.N,/PS/TR_SW*%
X45685000Y-102561000D03*
%TO.P,Q1,3,S*%
%TO.N,Net-(Q1-S)*%
X45685000Y-100021000D03*
%TD*%
D15*
%TO.P,H1,1,1*%
%TO.N,EARTH*%
X38185000Y-39061000D03*
D16*
X38185000Y-39061000D03*
%TD*%
D49*
%TO.N,/PS/TR_GAT*%
X66887000Y-101411000D03*
X60335000Y-101886000D03*
%TO.N,Net-(Q1-S)*%
X66633000Y-94161000D03*
X58685000Y-94761000D03*
%TO.N,DCR_GND*%
X114085000Y-74761000D03*
X114185000Y-67761000D03*
X114085000Y-76761000D03*
X114085000Y-72661000D03*
X114085000Y-70561000D03*
%TO.N,OUT_GND*%
X87485000Y-137011000D03*
X88941200Y-112506200D03*
X85985000Y-137011000D03*
X92491200Y-106906200D03*
X84335000Y-137011000D03*
X89091200Y-114506200D03*
X95291200Y-112756200D03*
%TO.N,GND_DC_S*%
X71685000Y-91561000D03*
X73185000Y-91561000D03*
X70685000Y-98061000D03*
%TO.N,GND_DC_P*%
X71785000Y-105961000D03*
X53585000Y-91361000D03*
X70185000Y-105961000D03*
X52785000Y-92961000D03*
X56985000Y-92961000D03*
X55585000Y-92961000D03*
X58160000Y-104086000D03*
X55385000Y-91361000D03*
X51385000Y-92961000D03*
X68785000Y-105961000D03*
X56985000Y-91361000D03*
X54185000Y-92961000D03*
%TD*%
D50*
%TO.N,EARTH*%
X46185000Y-38061000D02*
X39185000Y-38061000D01*
X52185000Y-38061000D02*
X46185000Y-38061000D01*
D51*
%TO.N,/PS/19.5V_FLT*%
X97671200Y-115716200D02*
X96171200Y-115716200D01*
X97671200Y-115716200D02*
X100429800Y-115716200D01*
X100429800Y-115716200D02*
X100435000Y-115711000D01*
%TO.N,/PS/AC_R_O*%
X96985000Y-78461000D02*
X98135000Y-77311000D01*
X96985000Y-92811000D02*
X96985000Y-78461000D01*
X98135000Y-77311000D02*
X101435000Y-77311000D01*
%TO.N,/PS/AUX*%
X71685000Y-110661000D02*
X70485000Y-111861000D01*
X42622000Y-124898000D02*
X43585000Y-125861000D01*
X66935000Y-116311000D02*
X66935000Y-111861000D01*
X65585000Y-117661000D02*
X66935000Y-116311000D01*
X70485000Y-111861000D02*
X66935000Y-111861000D01*
X73185000Y-106361000D02*
X71685000Y-107861000D01*
X63585000Y-125861000D02*
X65585000Y-123861000D01*
X42622000Y-120857000D02*
X42622000Y-124898000D01*
X71685000Y-107861000D02*
X71685000Y-110661000D01*
X73185000Y-105036000D02*
X73185000Y-106361000D01*
X43585000Y-125861000D02*
X63585000Y-125861000D01*
X65585000Y-123861000D02*
X65585000Y-117661000D01*
%TO.N,/PS/TR_GAT*%
X60335000Y-102786000D02*
X60335000Y-100886000D01*
X66887000Y-101411000D02*
X70310000Y-101411000D01*
X60335000Y-101886000D02*
X60335000Y-100886000D01*
%TO.N,Net-(U3-REF)*%
X93460000Y-103936000D02*
X93285000Y-103761000D01*
X96983500Y-107698500D02*
X97591200Y-108306200D01*
X97591200Y-108306200D02*
X97591200Y-109506200D01*
X97671200Y-111094200D02*
X96171200Y-111094200D01*
X97671200Y-111094200D02*
X97671200Y-109586200D01*
X93460000Y-107698500D02*
X93460000Y-103936000D01*
X93460000Y-107698500D02*
X96983500Y-107698500D01*
%TO.N,/PS/MOS_S*%
X71580000Y-96461000D02*
X71580000Y-94466000D01*
D52*
X69810000Y-94361000D02*
X69610000Y-94161000D01*
X71685000Y-94361000D02*
X69810000Y-94361000D01*
%TO.N,/PS/OPT_C*%
X76785000Y-106761000D02*
X77670000Y-107646000D01*
X76785000Y-99761000D02*
X76785000Y-106761000D01*
X72850000Y-96461000D02*
X72850000Y-94696000D01*
X75585000Y-98561000D02*
X76785000Y-99761000D01*
X72850000Y-96461000D02*
X72850000Y-97826000D01*
X72850000Y-97826000D02*
X73585000Y-98561000D01*
X77670000Y-107646000D02*
X79890000Y-107646000D01*
X73585000Y-98561000D02*
X75585000Y-98561000D01*
D51*
%TO.N,Net-(U3-K)*%
X91585000Y-107723500D02*
X91560000Y-107698500D01*
X91560000Y-107698500D02*
X91560000Y-103936000D01*
X87562500Y-107698500D02*
X91560000Y-107698500D01*
X91589800Y-109506200D02*
X91585000Y-109511000D01*
X92966200Y-109506200D02*
X91589800Y-109506200D01*
X91585000Y-109511000D02*
X91585000Y-107723500D01*
X91560000Y-103936000D02*
X91735000Y-103761000D01*
X87510000Y-107646000D02*
X87562500Y-107698500D01*
D50*
%TO.N,Net-(Q1-S)*%
X66633000Y-94161000D02*
X67960000Y-94161000D01*
X47385000Y-94761000D02*
X46785000Y-94161000D01*
X58685000Y-94761000D02*
X47385000Y-94761000D01*
D51*
%TO.N,OUT_GND*%
X88946000Y-112511000D02*
X88941200Y-112506200D01*
X89985000Y-112511000D02*
X88946000Y-112511000D01*
X92510000Y-106887400D02*
X92491200Y-106906200D01*
X90110000Y-114511000D02*
X89096000Y-114511000D01*
X92510000Y-105823500D02*
X92510000Y-106887400D01*
X89991200Y-114506200D02*
X90091200Y-114406200D01*
X95303200Y-112744200D02*
X95291200Y-112756200D01*
X96171200Y-112744200D02*
X95303200Y-112744200D01*
X89096000Y-114511000D02*
X89091200Y-114506200D01*
X89091200Y-114506200D02*
X89991200Y-114506200D01*
%TO.N,Net-(D5-K)*%
X91585000Y-111011000D02*
X91585000Y-112461000D01*
X91535000Y-112511000D02*
X92096000Y-112511000D01*
X92910000Y-114511000D02*
X94286400Y-114511000D01*
X94286400Y-114511000D02*
X94731200Y-114066200D01*
X92910000Y-113325000D02*
X92910000Y-114511000D01*
X94731200Y-114066200D02*
X96171200Y-114066200D01*
X91585000Y-112461000D02*
X91535000Y-112511000D01*
X92096000Y-112511000D02*
X92910000Y-113325000D01*
%TO.N,Net-(U1-SS)*%
X74120000Y-94926000D02*
X74685000Y-94361000D01*
X74120000Y-96461000D02*
X74120000Y-94926000D01*
D52*
%TO.N,Net-(U1-VDD)*%
X68785000Y-91461000D02*
X68785000Y-97641001D01*
D51*
X68615000Y-103536000D02*
X68715000Y-103436000D01*
X68715000Y-103436000D02*
X70215000Y-103436000D01*
D52*
X77985000Y-90361000D02*
X69885000Y-90361000D01*
D51*
X70215000Y-103436000D02*
X71715000Y-103436000D01*
X71580000Y-101411000D02*
X71580000Y-103301000D01*
D52*
X68785000Y-97641001D02*
X71580000Y-100436001D01*
D51*
X66985000Y-103536000D02*
X68615000Y-103536000D01*
X71580000Y-103301000D02*
X71715000Y-103436000D01*
D52*
X69885000Y-90361000D02*
X68785000Y-91461000D01*
X81885000Y-92811000D02*
X80435000Y-92811000D01*
X80435000Y-92811000D02*
X77985000Y-90361000D01*
X71580000Y-100436001D02*
X71580000Y-101411000D01*
%TO.N,Net-(D2-K)*%
X58235000Y-100886000D02*
X57210000Y-100886000D01*
D50*
%TO.N,Net-(C11-Pad1)*%
X79185000Y-40061000D02*
X79185000Y-45061000D01*
X57185000Y-37561000D02*
X76685000Y-37561000D01*
X76685000Y-37561000D02*
X79185000Y-40061000D01*
D53*
%TO.N,Net-(D7-K)*%
X53585000Y-106961000D02*
X51435000Y-104811000D01*
X53585000Y-109061000D02*
X53585000Y-106961000D01*
X58685000Y-108561000D02*
X54085000Y-108561000D01*
X54085000Y-108561000D02*
X53585000Y-109061000D01*
D52*
%TO.N,Net-(D1-A)*%
X58235000Y-102786000D02*
X57235000Y-102786000D01*
D51*
%TO.N,Net-(U1-OVP)*%
X72850000Y-103051000D02*
X73185000Y-103386000D01*
X72850000Y-101411000D02*
X72850000Y-103051000D01*
X73185000Y-103386000D02*
X74660000Y-103386000D01*
D53*
%TO.N,Net-(D8A-A)*%
X63035000Y-156511000D02*
X68385000Y-151161000D01*
X63035000Y-157961000D02*
X63035000Y-156511000D01*
X68385000Y-151161000D02*
X70585000Y-151161000D01*
D51*
%TO.N,Net-(C15-Pad1)*%
X94616200Y-109506200D02*
X96041200Y-109506200D01*
%TO.N,Net-(R6-Pad1)*%
X93885000Y-92811000D02*
X90985000Y-92811000D01*
%TO.N,Net-(Q1-G)*%
X46848554Y-105101000D02*
X45685000Y-105101000D01*
X50863554Y-101086000D02*
X46848554Y-105101000D01*
X55335000Y-102586000D02*
X55360000Y-102561000D01*
X55360000Y-102561000D02*
X55360000Y-101086000D01*
X55335000Y-104086000D02*
X55335000Y-102586000D01*
X55360000Y-101086000D02*
X50863554Y-101086000D01*
D52*
%TO.N,GND_DC_S*%
X72185000Y-99561000D02*
X70685000Y-98061000D01*
X74685000Y-105061000D02*
X75435000Y-105061000D01*
X75435000Y-105061000D02*
X75935000Y-104561000D01*
X70310000Y-97686000D02*
X70685000Y-98061000D01*
X75185000Y-99561000D02*
X72185000Y-99561000D01*
X70310000Y-96461000D02*
X70310000Y-97686000D01*
X75935000Y-104561000D02*
X75935000Y-100311000D01*
X75935000Y-100311000D02*
X75185000Y-99561000D01*
%TO.N,GND_DC_P*%
X71785000Y-105961000D02*
X71785000Y-105056000D01*
X68715000Y-105891000D02*
X68785000Y-105961000D01*
D51*
X56985000Y-104086000D02*
X58160000Y-104086000D01*
D52*
X68715000Y-104986000D02*
X68715000Y-105891000D01*
X70185000Y-105961000D02*
X70185000Y-105016000D01*
D51*
X68715000Y-104986000D02*
X71715000Y-104986000D01*
D53*
%TO.N,Net-(C19-Pad2)*%
X51785000Y-96961000D02*
X51435000Y-97311000D01*
X56695000Y-96961000D02*
X51785000Y-96961000D01*
D51*
%TO.N,Net-(R7-Pad1)*%
X87885000Y-92811000D02*
X84985000Y-92811000D01*
D53*
%TO.N,/PS/19.5V*%
X92335000Y-154011000D02*
X96298541Y-154011000D01*
X88385000Y-157961000D02*
X92335000Y-154011000D01*
X79775000Y-157961000D02*
X88385000Y-157961000D01*
%TO.N,Net-(C28-Pad1)*%
X70535000Y-157961000D02*
X74695000Y-157961000D01*
D51*
%TO.N,Net-(D3-K)*%
X66985000Y-106461000D02*
X66985000Y-105186000D01*
%TO.N,Net-(D3-A)*%
X66935000Y-108611000D02*
X66985000Y-108561000D01*
X67085000Y-109311000D02*
X66935000Y-109161000D01*
X66935000Y-109161000D02*
X66935000Y-108611000D01*
X66935000Y-109761000D02*
X66935000Y-109161000D01*
X70435000Y-109311000D02*
X67085000Y-109311000D01*
%TO.N,Net-(R13-Pad1)*%
X89935000Y-111011000D02*
X89935000Y-109511000D01*
X87510000Y-110186000D02*
X88035000Y-109661000D01*
X88035000Y-109661000D02*
X89785000Y-109661000D01*
X89785000Y-109661000D02*
X89935000Y-109511000D01*
%TO.N,Net-(R17-Pad1)*%
X97671200Y-114066200D02*
X97671200Y-112744200D01*
%TD*%
%TA.AperFunction,Conductor*%
%TO.N,Net-(Q1-S)*%
G36*
X47193059Y-87312061D02*
G01*
X47298223Y-87325906D01*
X47329491Y-87334284D01*
X47419918Y-87371740D01*
X47447952Y-87387925D01*
X47525602Y-87447509D01*
X47548491Y-87470398D01*
X47608074Y-87548048D01*
X47624259Y-87576081D01*
X47661715Y-87666508D01*
X47670093Y-87697775D01*
X47683939Y-87802939D01*
X47685000Y-87819125D01*
X47685000Y-99652874D01*
X47683939Y-99669060D01*
X47670093Y-99774224D01*
X47661715Y-99805491D01*
X47624259Y-99895918D01*
X47608074Y-99923951D01*
X47548491Y-100001601D01*
X47525601Y-100024491D01*
X47447951Y-100084074D01*
X47419918Y-100100259D01*
X47329491Y-100137715D01*
X47298224Y-100146093D01*
X47204398Y-100158446D01*
X47193058Y-100159939D01*
X47176874Y-100161000D01*
X40693126Y-100161000D01*
X40676941Y-100159939D01*
X40663917Y-100158224D01*
X40571775Y-100146093D01*
X40540508Y-100137715D01*
X40450081Y-100100259D01*
X40422048Y-100084074D01*
X40344398Y-100024491D01*
X40321508Y-100001601D01*
X40261925Y-99923951D01*
X40245740Y-99895918D01*
X40208284Y-99805491D01*
X40199906Y-99774223D01*
X40186061Y-99669059D01*
X40185000Y-99652874D01*
X40185000Y-87819125D01*
X40186061Y-87802940D01*
X40199906Y-87697776D01*
X40208284Y-87666508D01*
X40245740Y-87576081D01*
X40261923Y-87548050D01*
X40321513Y-87470392D01*
X40344392Y-87447513D01*
X40422050Y-87387923D01*
X40450079Y-87371740D01*
X40540509Y-87334283D01*
X40571775Y-87325906D01*
X40676941Y-87312061D01*
X40693126Y-87311000D01*
X47176874Y-87311000D01*
X47193059Y-87312061D01*
G37*
%TD.AperFunction*%
%TD*%
%TA.AperFunction,Conductor*%
%TO.N,Net-(D8A-A)*%
G36*
X79693059Y-137562061D02*
G01*
X79798223Y-137575906D01*
X79829491Y-137584284D01*
X79919918Y-137621740D01*
X79947952Y-137637925D01*
X80025602Y-137697509D01*
X80048491Y-137720398D01*
X80108074Y-137798048D01*
X80124259Y-137826081D01*
X80161715Y-137916508D01*
X80170093Y-137947775D01*
X80183939Y-138052939D01*
X80185000Y-138069125D01*
X80185000Y-141710993D01*
X80185001Y-141711009D01*
X80202036Y-141840408D01*
X80202038Y-141840413D01*
X80251984Y-141960995D01*
X80251984Y-141960996D01*
X80251986Y-141960999D01*
X80251987Y-141961000D01*
X80331447Y-142064553D01*
X80435000Y-142144013D01*
X80435003Y-142144014D01*
X80435004Y-142144015D01*
X80495295Y-142168988D01*
X80555590Y-142193963D01*
X80685000Y-142211000D01*
X87947500Y-142211000D01*
X88014539Y-142230685D01*
X88060294Y-142283489D01*
X88071500Y-142335000D01*
X88071500Y-146023500D01*
X88051815Y-146090539D01*
X87999011Y-146136294D01*
X87947500Y-146147500D01*
X87505028Y-146147500D01*
X87450122Y-146150443D01*
X87423789Y-146153275D01*
X87423756Y-146153279D01*
X87369522Y-146162067D01*
X87369518Y-146162068D01*
X87232570Y-146213148D01*
X87171254Y-146246629D01*
X87054248Y-146334220D01*
X87051643Y-146336825D01*
X87036862Y-146349446D01*
X86931999Y-146425633D01*
X86915409Y-146435800D01*
X86799904Y-146494653D01*
X86781927Y-146502099D01*
X86711073Y-146525120D01*
X86711063Y-146525125D01*
X86658651Y-146542154D01*
X86639733Y-146546696D01*
X86542712Y-146562063D01*
X86511713Y-146566973D01*
X86492317Y-146568500D01*
X86267682Y-146568500D01*
X86248284Y-146566973D01*
X86120270Y-146546697D01*
X86101349Y-146542155D01*
X86047590Y-146524687D01*
X86047589Y-146524687D01*
X86047583Y-146524685D01*
X85978064Y-146502096D01*
X85960091Y-146494651D01*
X85847608Y-146437338D01*
X85847594Y-146437332D01*
X85844610Y-146435812D01*
X85828007Y-146425639D01*
X85720708Y-146347682D01*
X85712312Y-146340704D01*
X85708828Y-146337871D01*
X85588772Y-146254513D01*
X85526299Y-146223241D01*
X85526293Y-146223238D01*
X85526292Y-146223238D01*
X85526289Y-146223237D01*
X85526279Y-146223233D01*
X85387619Y-146177082D01*
X85241553Y-146171864D01*
X85241552Y-146171864D01*
X85178688Y-146178622D01*
X85177026Y-146178711D01*
X85172078Y-146179332D01*
X85030466Y-146215477D01*
X85030457Y-146215480D01*
X84953574Y-146247326D01*
X84893344Y-146277028D01*
X84893316Y-146277043D01*
X84865288Y-146293225D01*
X84809458Y-146330529D01*
X84809443Y-146330540D01*
X84731793Y-146390125D01*
X84731782Y-146390133D01*
X84687105Y-146429316D01*
X84681293Y-146434414D01*
X84681287Y-146434419D01*
X84681265Y-146434440D01*
X84658440Y-146457265D01*
X84658409Y-146457299D01*
X84614133Y-146507782D01*
X84614125Y-146507793D01*
X84554542Y-146585440D01*
X84517209Y-146641315D01*
X84501025Y-146669347D01*
X84471334Y-146729559D01*
X84471324Y-146729579D01*
X84433875Y-146819991D01*
X84433871Y-146820002D01*
X84412280Y-146883606D01*
X84403901Y-146914877D01*
X84390798Y-146980755D01*
X84376955Y-147085904D01*
X84373661Y-147119342D01*
X84372600Y-147135533D01*
X84371500Y-147169138D01*
X84371500Y-149202860D01*
X84372600Y-149236466D01*
X84373661Y-149252654D01*
X84376955Y-149286095D01*
X84380938Y-149316352D01*
X84401866Y-149408592D01*
X84410878Y-149436216D01*
X84415972Y-149451831D01*
X84453462Y-149538668D01*
X84541050Y-149655674D01*
X84541053Y-149655677D01*
X84541058Y-149655683D01*
X84590447Y-149705073D01*
X84590455Y-149705080D01*
X84590458Y-149705083D01*
X84707463Y-149792672D01*
X84844405Y-149843749D01*
X84912678Y-149858601D01*
X85034118Y-149867287D01*
X85058454Y-149869028D01*
X85058454Y-149869027D01*
X85058456Y-149869028D01*
X85201273Y-149837963D01*
X85266738Y-149813547D01*
X85266748Y-149813543D01*
X85275114Y-149808974D01*
X85348928Y-149768669D01*
X85408356Y-149753500D01*
X87291000Y-149753500D01*
X87358039Y-149773185D01*
X87403794Y-149825989D01*
X87405560Y-149830044D01*
X87407615Y-149835006D01*
X87414939Y-149851831D01*
X87493955Y-149974781D01*
X87493961Y-149974788D01*
X87539706Y-150027581D01*
X87539709Y-150027584D01*
X87650162Y-150123294D01*
X87650164Y-150123295D01*
X87650166Y-150123297D01*
X87783114Y-150184014D01*
X87850153Y-150203699D01*
X87850157Y-150203700D01*
X87994827Y-150224500D01*
X88147500Y-150224500D01*
X88214539Y-150244185D01*
X88260294Y-150296989D01*
X88271500Y-150348500D01*
X88271500Y-153637000D01*
X88251815Y-153704039D01*
X88199011Y-153749794D01*
X88147500Y-153761000D01*
X65693126Y-153761000D01*
X65676941Y-153759939D01*
X65663917Y-153758224D01*
X65571775Y-153746093D01*
X65540508Y-153737715D01*
X65450081Y-153700259D01*
X65422048Y-153684074D01*
X65344398Y-153624491D01*
X65321508Y-153601601D01*
X65261925Y-153523951D01*
X65245740Y-153495918D01*
X65208284Y-153405491D01*
X65199906Y-153374223D01*
X65186061Y-153269059D01*
X65185000Y-153252874D01*
X65185000Y-138069125D01*
X65186061Y-138052940D01*
X65199906Y-137947776D01*
X65208284Y-137916508D01*
X65245740Y-137826081D01*
X65261923Y-137798050D01*
X65321513Y-137720392D01*
X65344392Y-137697513D01*
X65422050Y-137637923D01*
X65450079Y-137621740D01*
X65540509Y-137584283D01*
X65571775Y-137575906D01*
X65676941Y-137562061D01*
X65693126Y-137561000D01*
X79676874Y-137561000D01*
X79693059Y-137562061D01*
G37*
%TD.AperFunction*%
%TD*%
%TA.AperFunction,Conductor*%
%TO.N,/PS/AC_R_O*%
G36*
X108572707Y-64063381D02*
G01*
X108651354Y-64079024D01*
X108696046Y-64097537D01*
X108762714Y-64142083D01*
X108781504Y-64157504D01*
X111106495Y-66482495D01*
X111121916Y-66501285D01*
X111158602Y-66556189D01*
X111179480Y-66622866D01*
X111179500Y-66625080D01*
X111179500Y-70846638D01*
X111187830Y-70991021D01*
X111187834Y-70991064D01*
X111191110Y-71019361D01*
X111201151Y-71076853D01*
X111203000Y-71098186D01*
X111203000Y-71161000D01*
X99685000Y-71161000D01*
X99685000Y-64373210D01*
X99687381Y-64349029D01*
X99703025Y-64270379D01*
X99721534Y-64225693D01*
X99759168Y-64169370D01*
X99793370Y-64135168D01*
X99849693Y-64097534D01*
X99894381Y-64079024D01*
X99945377Y-64068881D01*
X99969560Y-64066500D01*
X107372775Y-64066500D01*
X107372789Y-64066500D01*
X107481690Y-64061149D01*
X107487775Y-64061000D01*
X108548525Y-64061000D01*
X108572707Y-64063381D01*
G37*
%TD.AperFunction*%
%TD*%
%TA.AperFunction,Conductor*%
%TO.N,OUT_GND*%
G36*
X88928039Y-136380685D02*
G01*
X88973794Y-136433489D01*
X88985000Y-136485000D01*
X88985000Y-139037000D01*
X88965315Y-139104039D01*
X88912511Y-139149794D01*
X88861000Y-139161000D01*
X83109000Y-139161000D01*
X83041961Y-139141315D01*
X82996206Y-139088511D01*
X82985000Y-139037000D01*
X82985000Y-136562362D01*
X83004685Y-136495323D01*
X83021319Y-136474681D01*
X83098681Y-136397319D01*
X83160004Y-136363834D01*
X83186362Y-136361000D01*
X88861000Y-136361000D01*
X88928039Y-136380685D01*
G37*
%TD.AperFunction*%
%TD*%
%TA.AperFunction,Conductor*%
%TO.N,/PS/19.5V*%
G36*
X88985000Y-141561000D02*
G01*
X88485000Y-141561000D01*
X84493126Y-141561000D01*
X84476941Y-141559939D01*
X84463917Y-141558224D01*
X84371775Y-141546093D01*
X84340508Y-141537715D01*
X84250081Y-141500259D01*
X84222048Y-141484074D01*
X84144398Y-141424491D01*
X84121508Y-141401601D01*
X84061925Y-141323951D01*
X84045740Y-141295918D01*
X84008284Y-141205491D01*
X83999906Y-141174223D01*
X83986061Y-141069059D01*
X83985000Y-141052874D01*
X83985000Y-140669125D01*
X83986061Y-140652940D01*
X83999906Y-140547776D01*
X84008284Y-140516508D01*
X84045740Y-140426081D01*
X84061923Y-140398050D01*
X84121513Y-140320392D01*
X84144392Y-140297513D01*
X84222050Y-140237923D01*
X84250079Y-140221740D01*
X84340509Y-140184283D01*
X84371775Y-140175906D01*
X84476941Y-140162061D01*
X84493126Y-140161000D01*
X88985000Y-140161000D01*
X88985000Y-141561000D01*
G37*
%TD.AperFunction*%
%TD*%
%TA.AperFunction,Conductor*%
%TO.N,/PS/AC_R_O*%
G36*
X111217124Y-71179103D02*
G01*
X111216241Y-71179468D01*
X111232166Y-71208633D01*
X111235000Y-71234991D01*
X111235000Y-79348789D01*
X111232617Y-79372982D01*
X111224588Y-79413344D01*
X111206072Y-79458043D01*
X111190122Y-79481913D01*
X111155913Y-79516122D01*
X111132043Y-79532072D01*
X111087344Y-79550588D01*
X111070841Y-79553870D01*
X111046978Y-79558617D01*
X111022789Y-79561000D01*
X93267838Y-79561000D01*
X93191308Y-79576222D01*
X93191304Y-79576224D01*
X93126425Y-79619575D01*
X93126417Y-79619581D01*
X84452215Y-88293784D01*
X84433425Y-88309205D01*
X84399201Y-88332073D01*
X84354501Y-88350588D01*
X84314137Y-88358617D01*
X84289946Y-88361000D01*
X68467838Y-88361000D01*
X68391308Y-88376222D01*
X68391304Y-88376224D01*
X68326425Y-88419575D01*
X68326417Y-88419581D01*
X66263581Y-90482417D01*
X66263575Y-90482425D01*
X66220224Y-90547304D01*
X66220222Y-90547308D01*
X66205000Y-90623838D01*
X66205000Y-92469169D01*
X66185315Y-92536208D01*
X66132511Y-92581963D01*
X66125883Y-92584544D01*
X66125891Y-92584563D01*
X66121392Y-92586426D01*
X66121390Y-92586427D01*
X66071894Y-92606928D01*
X65881376Y-92685843D01*
X65659859Y-92821588D01*
X65462311Y-92990311D01*
X65293588Y-93187859D01*
X65157843Y-93409376D01*
X65058427Y-93649389D01*
X64997778Y-93902009D01*
X64977396Y-94161000D01*
X64997778Y-94419990D01*
X65058427Y-94672610D01*
X65157843Y-94912623D01*
X65157845Y-94912627D01*
X65157846Y-94912628D01*
X65293588Y-95134140D01*
X65462311Y-95331689D01*
X65659860Y-95500412D01*
X65881372Y-95636154D01*
X65881374Y-95636154D01*
X65881376Y-95636156D01*
X65997294Y-95684171D01*
X66121390Y-95735573D01*
X66121392Y-95735573D01*
X66125891Y-95737437D01*
X66125257Y-95738965D01*
X66176981Y-95774321D01*
X66204190Y-95838676D01*
X66205000Y-95852830D01*
X66205000Y-99824381D01*
X66185315Y-99891420D01*
X66139347Y-99933009D01*
X66139526Y-99933301D01*
X66137974Y-99934251D01*
X66137299Y-99934863D01*
X66135387Y-99935837D01*
X65913859Y-100071588D01*
X65716311Y-100240311D01*
X65547588Y-100437859D01*
X65411843Y-100659376D01*
X65312427Y-100899389D01*
X65251778Y-101152009D01*
X65231396Y-101411000D01*
X65251778Y-101669990D01*
X65312427Y-101922610D01*
X65411845Y-102162628D01*
X65529461Y-102354559D01*
X65547706Y-102422005D01*
X65527562Y-102485539D01*
X65528092Y-102485855D01*
X65526746Y-102488112D01*
X65526590Y-102488607D01*
X65525609Y-102490021D01*
X65402419Y-102696759D01*
X65402417Y-102696763D01*
X65315040Y-102920689D01*
X65315037Y-102920699D01*
X65265706Y-103155967D01*
X65265705Y-103155970D01*
X65259500Y-103255922D01*
X65259500Y-103816055D01*
X65259501Y-103816078D01*
X65265706Y-103916031D01*
X65315037Y-104151300D01*
X65315041Y-104151310D01*
X65379273Y-104315925D01*
X65385305Y-104385534D01*
X65379273Y-104406075D01*
X65315041Y-104570689D01*
X65315037Y-104570699D01*
X65265706Y-104805967D01*
X65265705Y-104805970D01*
X65259500Y-104905922D01*
X65259500Y-105466055D01*
X65259501Y-105466078D01*
X65265706Y-105566031D01*
X65315037Y-105801300D01*
X65315040Y-105801310D01*
X65402416Y-106025235D01*
X65402418Y-106025238D01*
X65467022Y-106133657D01*
X65484500Y-106197130D01*
X65484500Y-106579097D01*
X65508142Y-106728365D01*
X65509494Y-106741184D01*
X65512269Y-106793414D01*
X65512269Y-106793415D01*
X65548785Y-106982222D01*
X65556325Y-107021208D01*
X65592775Y-107117793D01*
X65638244Y-107238280D01*
X65638249Y-107238292D01*
X65755671Y-107438385D01*
X65756390Y-107439402D01*
X65756561Y-107439902D01*
X65758338Y-107442930D01*
X65757722Y-107443291D01*
X65779027Y-107505502D01*
X65762334Y-107573349D01*
X65756390Y-107582598D01*
X65755671Y-107583614D01*
X65638249Y-107783707D01*
X65638244Y-107783719D01*
X65556322Y-108000799D01*
X65556251Y-108001169D01*
X65556061Y-108001718D01*
X65554887Y-108005867D01*
X65554658Y-108005802D01*
X65546177Y-108030468D01*
X65546293Y-108030516D01*
X65545518Y-108032384D01*
X65545002Y-108033888D01*
X65544434Y-108035002D01*
X65544430Y-108035012D01*
X65471447Y-108259627D01*
X65471447Y-108259630D01*
X65434500Y-108492902D01*
X65434500Y-109879097D01*
X65458142Y-110028365D01*
X65459494Y-110041184D01*
X65462269Y-110093414D01*
X65462269Y-110093415D01*
X65490967Y-110241799D01*
X65506325Y-110321208D01*
X65556014Y-110452876D01*
X65588244Y-110538280D01*
X65588249Y-110538292D01*
X65705671Y-110738385D01*
X65706390Y-110739402D01*
X65706561Y-110739902D01*
X65708338Y-110742930D01*
X65707722Y-110743291D01*
X65729027Y-110805502D01*
X65712334Y-110873349D01*
X65706390Y-110882598D01*
X65705671Y-110883614D01*
X65588249Y-111083707D01*
X65588244Y-111083719D01*
X65568326Y-111136500D01*
X65506325Y-111300792D01*
X65506324Y-111300794D01*
X65506324Y-111300796D01*
X65462269Y-111528584D01*
X65462269Y-111528585D01*
X65459494Y-111580815D01*
X65458142Y-111593633D01*
X65434500Y-111742902D01*
X65434500Y-115638111D01*
X65414815Y-115705150D01*
X65398181Y-115725792D01*
X64440485Y-116683487D01*
X64440484Y-116683488D01*
X64301657Y-116874565D01*
X64222288Y-117030337D01*
X64194433Y-117085003D01*
X64121446Y-117309631D01*
X64084500Y-117542902D01*
X64084500Y-118410642D01*
X64064815Y-118477681D01*
X64012011Y-118523436D01*
X63942853Y-118533380D01*
X63914853Y-118525935D01*
X63723960Y-118450356D01*
X63416163Y-118371327D01*
X63100902Y-118331500D01*
X63100891Y-118331500D01*
X62783109Y-118331500D01*
X62783097Y-118331500D01*
X62467836Y-118371327D01*
X62160034Y-118450357D01*
X62160031Y-118450358D01*
X61864576Y-118567336D01*
X61864575Y-118567337D01*
X61586094Y-118720434D01*
X61586090Y-118720436D01*
X61329004Y-118907220D01*
X61329001Y-118907223D01*
X61097352Y-119124756D01*
X60894784Y-119369618D01*
X60724513Y-119637923D01*
X60724510Y-119637929D01*
X60589209Y-119925456D01*
X60589207Y-119925461D01*
X60491008Y-120227687D01*
X60431460Y-120539848D01*
X60431459Y-120539855D01*
X60411507Y-120856994D01*
X60411507Y-120857005D01*
X60431459Y-121174144D01*
X60431460Y-121174151D01*
X60491008Y-121486312D01*
X60589207Y-121788538D01*
X60589209Y-121788543D01*
X60724510Y-122076070D01*
X60724513Y-122076076D01*
X60894784Y-122344381D01*
X60894787Y-122344385D01*
X60894788Y-122344386D01*
X61097350Y-122589242D01*
X61329003Y-122806778D01*
X61586094Y-122993566D01*
X61864568Y-123146659D01*
X61864573Y-123146661D01*
X61864575Y-123146662D01*
X61864576Y-123146663D01*
X62160031Y-123263641D01*
X62160034Y-123263642D01*
X62467836Y-123342672D01*
X62783097Y-123382499D01*
X62783106Y-123382499D01*
X62783109Y-123382500D01*
X62783111Y-123382500D01*
X63100889Y-123382500D01*
X63100891Y-123382500D01*
X63100894Y-123382499D01*
X63100902Y-123382499D01*
X63416163Y-123342672D01*
X63416167Y-123342671D01*
X63723965Y-123263642D01*
X63724056Y-123263605D01*
X63724085Y-123263603D01*
X63727675Y-123262437D01*
X63727938Y-123263249D01*
X63793632Y-123257220D01*
X63855617Y-123289464D01*
X63890329Y-123350101D01*
X63886748Y-123419878D01*
X63857399Y-123466573D01*
X63345292Y-123978681D01*
X63283969Y-124012166D01*
X63257611Y-124015000D01*
X55161211Y-124015000D01*
X55137020Y-124012617D01*
X55121744Y-124009578D01*
X55096656Y-124004588D01*
X55051956Y-123986072D01*
X55028086Y-123970122D01*
X54993877Y-123935913D01*
X54977927Y-123912043D01*
X54959412Y-123867346D01*
X54951381Y-123826971D01*
X54949000Y-123802789D01*
X54949000Y-122191656D01*
X54968303Y-122125214D01*
X54986345Y-122096784D01*
X54999488Y-122076074D01*
X55134793Y-121788537D01*
X55232993Y-121486308D01*
X55292539Y-121174155D01*
X55294730Y-121139337D01*
X55312493Y-120857005D01*
X55312493Y-120856994D01*
X55292540Y-120539855D01*
X55292539Y-120539848D01*
X55292539Y-120539845D01*
X55232993Y-120227692D01*
X55134793Y-119925463D01*
X54999488Y-119637926D01*
X54999485Y-119637922D01*
X54999482Y-119637915D01*
X54968303Y-119588784D01*
X54949000Y-119522343D01*
X54949000Y-112307210D01*
X54951381Y-112283029D01*
X54959412Y-112242651D01*
X54977927Y-112197956D01*
X54993877Y-112174086D01*
X55028086Y-112139877D01*
X55051956Y-112123927D01*
X55096653Y-112105412D01*
X55137027Y-112097381D01*
X55161211Y-112095000D01*
X59835001Y-112095000D01*
X59835002Y-112094999D01*
X59854395Y-112091142D01*
X59911535Y-112079777D01*
X59911535Y-112079776D01*
X59911537Y-112079776D01*
X59976421Y-112036421D01*
X60019776Y-111971537D01*
X60019776Y-111971535D01*
X60019777Y-111971535D01*
X60034999Y-111895004D01*
X60035000Y-111895001D01*
X60035000Y-110672333D01*
X60054685Y-110605294D01*
X60086115Y-110572015D01*
X60170241Y-110510894D01*
X60250096Y-110452876D01*
X60474869Y-110241799D01*
X60671416Y-110004216D01*
X60836635Y-109743871D01*
X60967922Y-109464873D01*
X61063206Y-109171619D01*
X61120984Y-108868736D01*
X61126347Y-108783500D01*
X61140345Y-108561005D01*
X61140345Y-108560994D01*
X61120985Y-108253274D01*
X61120984Y-108253267D01*
X61120984Y-108253264D01*
X61063206Y-107950381D01*
X60967922Y-107657127D01*
X60956046Y-107631889D01*
X60836637Y-107378132D01*
X60836633Y-107378126D01*
X60671422Y-107117793D01*
X60671420Y-107117791D01*
X60671416Y-107117784D01*
X60474869Y-106880201D01*
X60250096Y-106669124D01*
X60209148Y-106639373D01*
X60086114Y-106549983D01*
X60043449Y-106494652D01*
X60035000Y-106449665D01*
X60035000Y-104402874D01*
X60054685Y-104335835D01*
X60107489Y-104290080D01*
X60176647Y-104280136D01*
X60178399Y-104280401D01*
X60216904Y-104286500D01*
X60216908Y-104286500D01*
X60453096Y-104286500D01*
X60518183Y-104276190D01*
X60602379Y-104262855D01*
X60615186Y-104261505D01*
X60615280Y-104261500D01*
X60667412Y-104258731D01*
X60895208Y-104214675D01*
X61112282Y-104132755D01*
X61183285Y-104091088D01*
X61312385Y-104015329D01*
X61312388Y-104015327D01*
X61489770Y-103865772D01*
X61489772Y-103865770D01*
X61639327Y-103688388D01*
X61639329Y-103688385D01*
X61756749Y-103488292D01*
X61756755Y-103488282D01*
X61838675Y-103271208D01*
X61882731Y-103043412D01*
X61885500Y-102991280D01*
X61885500Y-102580720D01*
X61882731Y-102528588D01*
X61881081Y-102520057D01*
X61887675Y-102450501D01*
X61888264Y-102449053D01*
X61909573Y-102397610D01*
X61970221Y-102144994D01*
X61990604Y-101886000D01*
X61970221Y-101627006D01*
X61909573Y-101374390D01*
X61875077Y-101291112D01*
X61867609Y-101221645D01*
X61867867Y-101220262D01*
X61882731Y-101143412D01*
X61885500Y-101091280D01*
X61885500Y-100680720D01*
X61882731Y-100628588D01*
X61838675Y-100400792D01*
X61756755Y-100183718D01*
X61756749Y-100183707D01*
X61639329Y-99983614D01*
X61639327Y-99983611D01*
X61489772Y-99806229D01*
X61489770Y-99806227D01*
X61312388Y-99656672D01*
X61312385Y-99656670D01*
X61112292Y-99539250D01*
X61112280Y-99539244D01*
X61065259Y-99521499D01*
X60895208Y-99457325D01*
X60895203Y-99457324D01*
X60667414Y-99413269D01*
X60615184Y-99410494D01*
X60602365Y-99409142D01*
X60453097Y-99385500D01*
X60453092Y-99385500D01*
X60216908Y-99385500D01*
X60216907Y-99385500D01*
X60178396Y-99391599D01*
X60109103Y-99382643D01*
X60055652Y-99337646D01*
X60035013Y-99270894D01*
X60035000Y-99269125D01*
X60035000Y-95751832D01*
X60053272Y-95687043D01*
X60160154Y-95512628D01*
X60259573Y-95272610D01*
X60320221Y-95019994D01*
X60340604Y-94761000D01*
X60320221Y-94502006D01*
X60259573Y-94249390D01*
X60160154Y-94009372D01*
X60117269Y-93939390D01*
X60053272Y-93834954D01*
X60035000Y-93770165D01*
X60035000Y-86235521D01*
X60037636Y-86210090D01*
X60037768Y-86209459D01*
X60046497Y-86167804D01*
X60066915Y-86121223D01*
X60092008Y-86086052D01*
X60108923Y-86066881D01*
X76219064Y-71221757D01*
X76237372Y-71207796D01*
X76270551Y-71187068D01*
X76313296Y-71170378D01*
X76331510Y-71166948D01*
X76351725Y-71163142D01*
X76374672Y-71161000D01*
X99485001Y-71161000D01*
X111209626Y-71161000D01*
X111217124Y-71179103D01*
G37*
%TD.AperFunction*%
%TD*%
%TA.AperFunction,Conductor*%
%TO.N,OUT_GND*%
G36*
X115178039Y-99580685D02*
G01*
X115223794Y-99633489D01*
X115235000Y-99685000D01*
X115235000Y-107687000D01*
X115215315Y-107754039D01*
X115162511Y-107799794D01*
X115111000Y-107811000D01*
X99409000Y-107811000D01*
X99341961Y-107791315D01*
X99296206Y-107738511D01*
X99285000Y-107687000D01*
X99285000Y-101362362D01*
X99304685Y-101295323D01*
X99321319Y-101274681D01*
X100998681Y-99597319D01*
X101060004Y-99563834D01*
X101086362Y-99561000D01*
X115111000Y-99561000D01*
X115178039Y-99580685D01*
G37*
%TD.AperFunction*%
%TD*%
%TA.AperFunction,Conductor*%
%TO.N,/PS/19.5V*%
G36*
X109693059Y-140162061D02*
G01*
X109798223Y-140175906D01*
X109829491Y-140184284D01*
X109919918Y-140221740D01*
X109947952Y-140237925D01*
X110025602Y-140297509D01*
X110048491Y-140320398D01*
X110108074Y-140398048D01*
X110124259Y-140426081D01*
X110161715Y-140516508D01*
X110170093Y-140547775D01*
X110183939Y-140652939D01*
X110185000Y-140669125D01*
X110185000Y-148052874D01*
X110183939Y-148069060D01*
X110170093Y-148174224D01*
X110161715Y-148205491D01*
X110124259Y-148295918D01*
X110108074Y-148323951D01*
X110048491Y-148401601D01*
X110025601Y-148424491D01*
X109947951Y-148484074D01*
X109919918Y-148500259D01*
X109829491Y-148537715D01*
X109798224Y-148546093D01*
X109704398Y-148558446D01*
X109693058Y-148559939D01*
X109676874Y-148561000D01*
X99685000Y-148561000D01*
X99684994Y-148561000D01*
X99684990Y-148561001D01*
X99555591Y-148578036D01*
X99555586Y-148578038D01*
X99435004Y-148627984D01*
X99435003Y-148627984D01*
X99331447Y-148707447D01*
X99251984Y-148811003D01*
X99251984Y-148811004D01*
X99202038Y-148931586D01*
X99202036Y-148931591D01*
X99185001Y-149060990D01*
X99185000Y-149061006D01*
X99185000Y-159102874D01*
X99183939Y-159119060D01*
X99170093Y-159224224D01*
X99161715Y-159255491D01*
X99124259Y-159345918D01*
X99108074Y-159373951D01*
X99048491Y-159451601D01*
X99025601Y-159474491D01*
X98947951Y-159534074D01*
X98919918Y-159550259D01*
X98829491Y-159587715D01*
X98798224Y-159596093D01*
X98704398Y-159608446D01*
X98693058Y-159609939D01*
X98676874Y-159611000D01*
X94697600Y-159611000D01*
X94630561Y-159591315D01*
X94584806Y-159538511D01*
X94583039Y-159534453D01*
X94571227Y-159505937D01*
X94515234Y-159370757D01*
X94515232Y-159370754D01*
X94515230Y-159370749D01*
X94383590Y-159142743D01*
X94223312Y-158933863D01*
X94223306Y-158933856D01*
X94037143Y-158747693D01*
X94037136Y-158747687D01*
X93828256Y-158587409D01*
X93600250Y-158455769D01*
X93600234Y-158455761D01*
X93356995Y-158355009D01*
X93102678Y-158286865D01*
X92841653Y-158252501D01*
X92841650Y-158252500D01*
X92841644Y-158252500D01*
X91378356Y-158252500D01*
X91378350Y-158252500D01*
X91378346Y-158252501D01*
X91117321Y-158286865D01*
X90863004Y-158355009D01*
X90619765Y-158455761D01*
X90619749Y-158455769D01*
X90391743Y-158587409D01*
X90182863Y-158747687D01*
X90182856Y-158747693D01*
X89996693Y-158933856D01*
X89996687Y-158933863D01*
X89836409Y-159142743D01*
X89704769Y-159370749D01*
X89704764Y-159370760D01*
X89671279Y-159451601D01*
X89648773Y-159505937D01*
X89636961Y-159534453D01*
X89593120Y-159588856D01*
X89526826Y-159610921D01*
X89522400Y-159611000D01*
X89293126Y-159611000D01*
X89276941Y-159609939D01*
X89263917Y-159608224D01*
X89171775Y-159596093D01*
X89140508Y-159587715D01*
X89050081Y-159550259D01*
X89022048Y-159534074D01*
X88944398Y-159474491D01*
X88921508Y-159451601D01*
X88861925Y-159373951D01*
X88845740Y-159345918D01*
X88808284Y-159255491D01*
X88799906Y-159224223D01*
X88786061Y-159119059D01*
X88785000Y-159102874D01*
X88785000Y-150211006D01*
X88785000Y-150211000D01*
X88767963Y-150081590D01*
X88718015Y-149961004D01*
X88718015Y-149961003D01*
X88718013Y-149961000D01*
X88638553Y-149857447D01*
X88535000Y-149777987D01*
X88534997Y-149777986D01*
X88534995Y-149777984D01*
X88414413Y-149728038D01*
X88414408Y-149728036D01*
X88285009Y-149711001D01*
X88285006Y-149711000D01*
X88285000Y-149711000D01*
X88284993Y-149711000D01*
X87994827Y-149711000D01*
X87927788Y-149691315D01*
X87882033Y-149638511D01*
X87878646Y-149630334D01*
X87830889Y-149502296D01*
X87743261Y-149385239D01*
X87626204Y-149297611D01*
X87612710Y-149292578D01*
X87489203Y-149246511D01*
X87428654Y-149240000D01*
X87428638Y-149240000D01*
X85331362Y-149240000D01*
X85331345Y-149240000D01*
X85270797Y-149246511D01*
X85270795Y-149246511D01*
X85133795Y-149297611D01*
X85087296Y-149332420D01*
X85021831Y-149356836D01*
X84953558Y-149341984D01*
X84904153Y-149292578D01*
X84890047Y-149249337D01*
X84886061Y-149219059D01*
X84885000Y-149202874D01*
X84885000Y-147169125D01*
X84886061Y-147152940D01*
X84899906Y-147047776D01*
X84908284Y-147016508D01*
X84945740Y-146926081D01*
X84961923Y-146898050D01*
X85021513Y-146820392D01*
X85044392Y-146797513D01*
X85122050Y-146737923D01*
X85150079Y-146721740D01*
X85226972Y-146689890D01*
X85296439Y-146682422D01*
X85358918Y-146713697D01*
X85362104Y-146716771D01*
X85380722Y-146735389D01*
X85566769Y-146870560D01*
X85620722Y-146898050D01*
X85771666Y-146974960D01*
X85771668Y-146974960D01*
X85771671Y-146974962D01*
X85888904Y-147013053D01*
X85990381Y-147046026D01*
X86217512Y-147082000D01*
X86217517Y-147082000D01*
X86542488Y-147082000D01*
X86769618Y-147046026D01*
X86860464Y-147016508D01*
X86988329Y-146974962D01*
X87193231Y-146870560D01*
X87379278Y-146735389D01*
X87417348Y-146697319D01*
X87478671Y-146663834D01*
X87505029Y-146661000D01*
X88084993Y-146661000D01*
X88085000Y-146661000D01*
X88214410Y-146643963D01*
X88334995Y-146594015D01*
X88334996Y-146594015D01*
X88334996Y-146594014D01*
X88335000Y-146594013D01*
X88438553Y-146514553D01*
X88518013Y-146411000D01*
X88567963Y-146290410D01*
X88585000Y-146161000D01*
X88585000Y-142061000D01*
X88585000Y-140661000D01*
X88585000Y-140161000D01*
X109676874Y-140161000D01*
X109693059Y-140162061D01*
G37*
%TD.AperFunction*%
%TD*%
%TA.AperFunction,Conductor*%
%TO.N,GND_DC_S*%
G36*
X76700677Y-91080685D02*
G01*
X76721319Y-91097319D01*
X80648681Y-95024681D01*
X80682166Y-95086004D01*
X80685000Y-95112362D01*
X80685000Y-105937000D01*
X80665315Y-106004039D01*
X80612511Y-106049794D01*
X80561000Y-106061000D01*
X77809000Y-106061000D01*
X77741961Y-106041315D01*
X77696206Y-105988511D01*
X77685000Y-105937000D01*
X77685000Y-94811000D01*
X76135000Y-93261000D01*
X71309000Y-93261000D01*
X71241961Y-93241315D01*
X71196206Y-93188511D01*
X71185000Y-93137000D01*
X71185000Y-91185000D01*
X71204685Y-91117961D01*
X71257489Y-91072206D01*
X71309000Y-91061000D01*
X76633638Y-91061000D01*
X76700677Y-91080685D01*
G37*
%TD.AperFunction*%
%TD*%
%TA.AperFunction,Conductor*%
%TO.N,DCR_GND*%
G36*
X112435000Y-82561000D02*
G01*
X107935000Y-82561000D01*
X107935000Y-87111000D01*
X115385000Y-87111000D01*
X116685000Y-85811000D01*
X116685000Y-87567525D01*
X116682617Y-87591716D01*
X116666976Y-87670348D01*
X116648461Y-87715048D01*
X116603916Y-87781714D01*
X116588495Y-87800504D01*
X110112504Y-94276495D01*
X110093714Y-94291916D01*
X110027048Y-94336461D01*
X109982348Y-94354976D01*
X109903716Y-94370617D01*
X109879525Y-94373000D01*
X101497211Y-94373000D01*
X101473020Y-94370617D01*
X101394387Y-94354976D01*
X101349689Y-94336462D01*
X101293373Y-94298833D01*
X101259166Y-94264626D01*
X101221535Y-94208308D01*
X101203024Y-94163618D01*
X101187381Y-94084971D01*
X101185000Y-94060789D01*
X101185000Y-81823210D01*
X101187381Y-81799029D01*
X101203025Y-81720379D01*
X101221534Y-81675693D01*
X101259168Y-81619370D01*
X101293370Y-81585168D01*
X101349693Y-81547534D01*
X101394379Y-81529025D01*
X101473028Y-81513381D01*
X101497211Y-81511000D01*
X112135001Y-81511000D01*
X112435000Y-81511000D01*
X112435000Y-82561000D01*
G37*
%TD.AperFunction*%
%TD*%
%TA.AperFunction,Conductor*%
%TO.N,/PS/19.5V_FLT*%
G36*
X112609064Y-108661316D02*
G01*
X112684999Y-108666747D01*
X112685000Y-108666747D01*
X112685001Y-108666747D01*
X112760936Y-108661316D01*
X112769782Y-108661000D01*
X114626874Y-108661000D01*
X114643059Y-108662061D01*
X114748223Y-108675906D01*
X114779491Y-108684284D01*
X114869918Y-108721740D01*
X114897952Y-108737925D01*
X114975602Y-108797509D01*
X114998491Y-108820398D01*
X115058074Y-108898048D01*
X115074259Y-108926081D01*
X115111715Y-109016508D01*
X115120093Y-109047775D01*
X115133939Y-109152939D01*
X115135000Y-109169125D01*
X115135000Y-119395767D01*
X115133939Y-119411953D01*
X115120093Y-119517117D01*
X115111715Y-119548383D01*
X115074260Y-119638808D01*
X115058075Y-119666842D01*
X114993496Y-119751003D01*
X114982801Y-119763198D01*
X110281451Y-124464547D01*
X110281445Y-124464554D01*
X110201987Y-124568106D01*
X110201984Y-124568111D01*
X110152038Y-124688693D01*
X110152036Y-124688698D01*
X110135001Y-124818097D01*
X110135000Y-124818113D01*
X110135000Y-139052874D01*
X110133939Y-139069060D01*
X110120093Y-139174224D01*
X110111715Y-139205491D01*
X110074259Y-139295918D01*
X110058074Y-139323951D01*
X109998491Y-139401601D01*
X109975601Y-139424491D01*
X109897951Y-139484074D01*
X109869918Y-139500259D01*
X109779491Y-139537715D01*
X109748224Y-139546093D01*
X109654398Y-139558446D01*
X109643058Y-139559939D01*
X109626874Y-139561000D01*
X95643126Y-139561000D01*
X95626941Y-139559939D01*
X95613917Y-139558224D01*
X95521775Y-139546093D01*
X95490508Y-139537715D01*
X95400081Y-139500259D01*
X95372048Y-139484074D01*
X95294398Y-139424491D01*
X95271508Y-139401601D01*
X95211925Y-139323951D01*
X95195740Y-139295918D01*
X95158284Y-139205491D01*
X95149906Y-139174223D01*
X95136061Y-139069059D01*
X95135000Y-139052874D01*
X95135000Y-119267529D01*
X95136119Y-119250910D01*
X95150716Y-119142980D01*
X95159544Y-119110938D01*
X95198984Y-119018507D01*
X95216008Y-118989962D01*
X95278583Y-118911330D01*
X95302575Y-118888333D01*
X95390605Y-118824184D01*
X95404679Y-118815310D01*
X99022653Y-116860774D01*
X99130974Y-116781838D01*
X99214434Y-116676963D01*
X99267036Y-116553685D01*
X99285000Y-116420863D01*
X99285000Y-109169125D01*
X99286061Y-109152940D01*
X99299906Y-109047776D01*
X99308284Y-109016508D01*
X99345740Y-108926081D01*
X99361923Y-108898050D01*
X99421513Y-108820392D01*
X99444392Y-108797513D01*
X99522050Y-108737923D01*
X99550079Y-108721740D01*
X99640509Y-108684283D01*
X99671775Y-108675906D01*
X99776941Y-108662061D01*
X99793126Y-108661000D01*
X112600218Y-108661000D01*
X112609064Y-108661316D01*
G37*
%TD.AperFunction*%
%TD*%
%TA.AperFunction,Conductor*%
%TO.N,GND_DC_P*%
G36*
X56300677Y-87430685D02*
G01*
X56321319Y-87447319D01*
X57898681Y-89024681D01*
X57932166Y-89086004D01*
X57935000Y-89112362D01*
X57935000Y-93537000D01*
X57915315Y-93604039D01*
X57862511Y-93649794D01*
X57811000Y-93661000D01*
X50809000Y-93661000D01*
X50741961Y-93641315D01*
X50696206Y-93588511D01*
X50685000Y-93537000D01*
X50685000Y-87535000D01*
X50704685Y-87467961D01*
X50757489Y-87422206D01*
X50809000Y-87411000D01*
X56233638Y-87411000D01*
X56300677Y-87430685D01*
G37*
%TD.AperFunction*%
%TD*%
%TA.AperFunction,Conductor*%
%TO.N,GND_DC_S*%
G36*
X71052284Y-97912565D02*
G01*
X71058602Y-97918912D01*
X71058757Y-97919309D01*
X71105044Y-98044596D01*
X71105285Y-98045322D01*
X71136801Y-98151500D01*
X71160794Y-98232330D01*
X71217860Y-98354805D01*
X71217869Y-98354820D01*
X71273712Y-98430678D01*
X71273722Y-98430691D01*
X71349124Y-98512358D01*
X71352219Y-98520761D01*
X71348801Y-98528568D01*
X71152489Y-98724880D01*
X71144216Y-98728307D01*
X71136366Y-98725283D01*
X71036823Y-98635212D01*
X71036817Y-98635208D01*
X70947746Y-98575665D01*
X70864830Y-98539676D01*
X70864825Y-98539674D01*
X70775486Y-98512796D01*
X70745022Y-98504199D01*
X70744377Y-98503997D01*
X70543640Y-98434601D01*
X70536941Y-98428659D01*
X70536405Y-98419720D01*
X70536643Y-98419091D01*
X70682437Y-98064802D01*
X70688753Y-98058457D01*
X71043332Y-97912544D01*
X71052284Y-97912565D01*
G37*
%TD.AperFunction*%
%TD*%
%TA.AperFunction,Conductor*%
%TO.N,/PS/AC_R_I_1*%
G36*
X104313134Y-53562752D02*
G01*
X104316837Y-53563381D01*
X104337307Y-53566859D01*
X104685000Y-53586385D01*
X105032693Y-53566859D01*
X105053554Y-53563314D01*
X105056866Y-53562752D01*
X105077637Y-53561000D01*
X107372789Y-53561000D01*
X107396971Y-53563381D01*
X107475618Y-53579024D01*
X107520308Y-53597535D01*
X107576626Y-53635166D01*
X107610833Y-53669373D01*
X107648462Y-53725688D01*
X107666976Y-53770387D01*
X107682617Y-53849019D01*
X107685000Y-53873210D01*
X107685000Y-57748789D01*
X107682617Y-57772980D01*
X107666976Y-57851612D01*
X107648462Y-57896311D01*
X107610836Y-57952623D01*
X107576623Y-57986836D01*
X107520311Y-58024462D01*
X107475612Y-58042976D01*
X107396980Y-58058617D01*
X107372789Y-58061000D01*
X106446317Y-58061000D01*
X106379278Y-58041315D01*
X106374562Y-58038130D01*
X106337164Y-58011595D01*
X106032374Y-57843144D01*
X105965741Y-57815544D01*
X105710644Y-57709879D01*
X105543328Y-57661676D01*
X105376017Y-57613474D01*
X105376009Y-57613472D01*
X105032700Y-57555142D01*
X105032688Y-57555140D01*
X104685000Y-57535615D01*
X104337311Y-57555140D01*
X104337299Y-57555142D01*
X103993990Y-57613472D01*
X103993982Y-57613474D01*
X103659359Y-57709878D01*
X103659356Y-57709879D01*
X103565419Y-57748789D01*
X103337625Y-57843144D01*
X103032835Y-58011595D01*
X102995438Y-58038130D01*
X102929372Y-58060869D01*
X102923683Y-58061000D01*
X95497211Y-58061000D01*
X95473020Y-58058617D01*
X95394387Y-58042976D01*
X95349689Y-58024462D01*
X95293373Y-57986833D01*
X95259166Y-57952626D01*
X95221535Y-57896308D01*
X95203024Y-57851618D01*
X95187381Y-57772971D01*
X95185000Y-57748789D01*
X95185000Y-53873210D01*
X95187381Y-53849029D01*
X95203025Y-53770379D01*
X95221534Y-53725693D01*
X95259168Y-53669370D01*
X95293370Y-53635168D01*
X95349693Y-53597534D01*
X95394379Y-53579025D01*
X95473028Y-53563381D01*
X95497211Y-53561000D01*
X104292363Y-53561000D01*
X104313134Y-53562752D01*
G37*
%TD.AperFunction*%
%TD*%
%TA.AperFunction,Conductor*%
%TO.N,/PS/AC_R_I_2*%
G36*
X94028967Y-58830685D02*
G01*
X94056380Y-58854659D01*
X94194601Y-59017157D01*
X94194609Y-59017166D01*
X94194617Y-59017175D01*
X94194625Y-59017183D01*
X94228818Y-59051377D01*
X94266987Y-59088224D01*
X94266992Y-59088229D01*
X94410320Y-59201688D01*
X94456964Y-59238612D01*
X94513280Y-59276241D01*
X94557916Y-59304941D01*
X94773573Y-59415368D01*
X94818271Y-59433882D01*
X94867624Y-59453313D01*
X95100680Y-59519549D01*
X95100695Y-59519552D01*
X95100699Y-59519553D01*
X95179308Y-59535189D01*
X95179313Y-59535190D01*
X95325431Y-59556865D01*
X95349622Y-59559248D01*
X95497211Y-59566500D01*
X95497225Y-59566500D01*
X102923667Y-59566500D01*
X102923683Y-59566500D01*
X102958341Y-59566101D01*
X102964030Y-59565970D01*
X103184638Y-59544570D01*
X103419335Y-59484409D01*
X103485401Y-59461670D01*
X103658399Y-59389801D01*
X103747275Y-59336940D01*
X103750679Y-59334988D01*
X103761071Y-59329244D01*
X103761072Y-59329245D01*
X103985782Y-59205051D01*
X103998300Y-59199023D01*
X104141547Y-59139690D01*
X104141549Y-59139690D01*
X104150952Y-59135794D01*
X104164066Y-59131205D01*
X104322837Y-59085463D01*
X104336384Y-59082371D01*
X104499275Y-59054695D01*
X104513073Y-59053141D01*
X104678054Y-59043877D01*
X104691944Y-59043877D01*
X104856922Y-59053141D01*
X104870724Y-59054696D01*
X105001007Y-59076832D01*
X105033604Y-59082371D01*
X105047161Y-59085465D01*
X105126548Y-59108336D01*
X105126547Y-59108336D01*
X105177746Y-59123085D01*
X105205921Y-59131203D01*
X105205932Y-59131206D01*
X105219057Y-59135799D01*
X105371700Y-59199025D01*
X105384230Y-59205059D01*
X105554482Y-59299155D01*
X105556145Y-59300091D01*
X105728895Y-59399082D01*
X105955118Y-59485828D01*
X106022157Y-59505513D01*
X106204818Y-59547004D01*
X106446317Y-59566500D01*
X106446326Y-59566500D01*
X107372775Y-59566500D01*
X107372789Y-59566500D01*
X107520378Y-59559248D01*
X107544569Y-59556865D01*
X107544635Y-59556855D01*
X107545757Y-59556717D01*
X107545876Y-59556736D01*
X107546085Y-59556716D01*
X107546090Y-59556771D01*
X107614708Y-59568012D01*
X107666607Y-59614791D01*
X107685000Y-59679777D01*
X107685000Y-62248789D01*
X107682617Y-62272980D01*
X107666976Y-62351612D01*
X107648462Y-62396311D01*
X107610836Y-62452623D01*
X107576623Y-62486836D01*
X107520311Y-62524462D01*
X107475612Y-62542976D01*
X107396980Y-62558617D01*
X107372789Y-62561000D01*
X96484995Y-62561000D01*
X96370197Y-62583834D01*
X96370196Y-62583835D01*
X96272868Y-62648868D01*
X96207835Y-62746196D01*
X96207834Y-62746197D01*
X96185000Y-62860995D01*
X96185000Y-68498789D01*
X96182617Y-68522980D01*
X96166976Y-68601612D01*
X96148462Y-68646311D01*
X96110836Y-68702623D01*
X96076623Y-68736836D01*
X96020311Y-68774462D01*
X95975612Y-68792976D01*
X95896980Y-68808617D01*
X95872789Y-68811000D01*
X75997211Y-68811000D01*
X75973020Y-68808617D01*
X75894387Y-68792976D01*
X75849689Y-68774462D01*
X75793373Y-68736833D01*
X75759166Y-68702626D01*
X75721535Y-68646308D01*
X75703024Y-68601618D01*
X75687381Y-68522971D01*
X75685000Y-68498789D01*
X75685000Y-59123210D01*
X75687381Y-59099029D01*
X75703025Y-59020379D01*
X75721534Y-58975693D01*
X75759168Y-58919370D01*
X75793370Y-58885168D01*
X75849693Y-58847534D01*
X75894379Y-58829025D01*
X75973028Y-58813381D01*
X75997211Y-58811000D01*
X93961928Y-58811000D01*
X94028967Y-58830685D01*
G37*
%TD.AperFunction*%
%TD*%
%TA.AperFunction,Conductor*%
%TO.N,Net-(C11-Pad1)*%
G36*
X100396971Y-41063381D02*
G01*
X100475618Y-41079024D01*
X100520308Y-41097535D01*
X100576626Y-41135166D01*
X100610833Y-41169373D01*
X100648462Y-41225688D01*
X100666976Y-41270387D01*
X100682617Y-41349019D01*
X100685000Y-41373210D01*
X100685000Y-51748789D01*
X100682617Y-51772980D01*
X100666976Y-51851612D01*
X100648462Y-51896311D01*
X100610836Y-51952623D01*
X100576623Y-51986836D01*
X100520311Y-52024462D01*
X100475612Y-52042976D01*
X100396980Y-52058617D01*
X100372789Y-52061000D01*
X76997211Y-52061000D01*
X76973020Y-52058617D01*
X76894387Y-52042976D01*
X76849689Y-52024462D01*
X76793373Y-51986833D01*
X76759166Y-51952626D01*
X76721535Y-51896308D01*
X76703024Y-51851618D01*
X76687381Y-51772971D01*
X76685000Y-51748789D01*
X76685000Y-41373210D01*
X76687381Y-41349029D01*
X76703025Y-41270379D01*
X76721534Y-41225693D01*
X76759168Y-41169370D01*
X76793370Y-41135168D01*
X76849693Y-41097534D01*
X76894379Y-41079025D01*
X76973028Y-41063381D01*
X76997211Y-41061000D01*
X100372789Y-41061000D01*
X100396971Y-41063381D01*
G37*
%TD.AperFunction*%
%TD*%
%TA.AperFunction,Conductor*%
%TO.N,/PS/TR_SW*%
G36*
X40333182Y-101375990D02*
G01*
X40407896Y-101390852D01*
X40500038Y-101402983D01*
X40513032Y-101404694D01*
X40594814Y-101412750D01*
X40610999Y-101413811D01*
X40693126Y-101416500D01*
X43870333Y-101416500D01*
X43937372Y-101436185D01*
X43968708Y-101465013D01*
X43977638Y-101476651D01*
X43977647Y-101476661D01*
X44181838Y-101680852D01*
X44181844Y-101680857D01*
X44410953Y-101856658D01*
X44571689Y-101949459D01*
X44661039Y-102001046D01*
X44661044Y-102001048D01*
X44661047Y-102001050D01*
X44788421Y-102053810D01*
X44927846Y-102111562D01*
X44927847Y-102111562D01*
X44927849Y-102111563D01*
X45206794Y-102186306D01*
X45493108Y-102224000D01*
X45493115Y-102224000D01*
X45876885Y-102224000D01*
X45876892Y-102224000D01*
X46163206Y-102186306D01*
X46442151Y-102111563D01*
X46563547Y-102061278D01*
X46633016Y-102053810D01*
X46695496Y-102085085D01*
X46731148Y-102145174D01*
X46735000Y-102175840D01*
X46735000Y-102774000D01*
X46715315Y-102841039D01*
X46662511Y-102886794D01*
X46611000Y-102898000D01*
X44620791Y-102898000D01*
X44620776Y-102898001D01*
X44488586Y-102908404D01*
X44488579Y-102908405D01*
X44270321Y-102963402D01*
X44270318Y-102963403D01*
X44065377Y-103056491D01*
X44065367Y-103056497D01*
X43880354Y-103184674D01*
X43880342Y-103184684D01*
X43721184Y-103343842D01*
X43721174Y-103343854D01*
X43592997Y-103528867D01*
X43592991Y-103528877D01*
X43499903Y-103733818D01*
X43499902Y-103733821D01*
X43444905Y-103952079D01*
X43444904Y-103952086D01*
X43434500Y-104084277D01*
X43434500Y-106117708D01*
X43434501Y-106117723D01*
X43444904Y-106249913D01*
X43444905Y-106249920D01*
X43499902Y-106468178D01*
X43499903Y-106468181D01*
X43592991Y-106673122D01*
X43592997Y-106673132D01*
X43721174Y-106858145D01*
X43721178Y-106858150D01*
X43721181Y-106858154D01*
X43880346Y-107017319D01*
X43880350Y-107017322D01*
X43880354Y-107017325D01*
X44019603Y-107113797D01*
X44065374Y-107145507D01*
X44270317Y-107238596D01*
X44270321Y-107238597D01*
X44488579Y-107293594D01*
X44488581Y-107293594D01*
X44488588Y-107293596D01*
X44620783Y-107304000D01*
X46749216Y-107303999D01*
X46881412Y-107293596D01*
X47099683Y-107238596D01*
X47304626Y-107145507D01*
X47489654Y-107017319D01*
X47648819Y-106858154D01*
X47777007Y-106673126D01*
X47870096Y-106468183D01*
X47925096Y-106249912D01*
X47930342Y-106183250D01*
X47955224Y-106117966D01*
X47966271Y-106105308D01*
X48787787Y-105283792D01*
X48849108Y-105250309D01*
X48918800Y-105255293D01*
X48974733Y-105297165D01*
X48997083Y-105347284D01*
X49006517Y-105394714D01*
X49006521Y-105394729D01*
X49101349Y-105674080D01*
X49231825Y-105938660D01*
X49231829Y-105938667D01*
X49395725Y-106183955D01*
X49590241Y-106405758D01*
X49812044Y-106600274D01*
X50057332Y-106764170D01*
X50057339Y-106764174D01*
X50321922Y-106894652D01*
X50323105Y-106895142D01*
X50323638Y-106895498D01*
X50325564Y-106896448D01*
X50325438Y-106896701D01*
X50363336Y-106922023D01*
X51099828Y-107658515D01*
X51133313Y-107719838D01*
X51133508Y-107771642D01*
X51090919Y-107974757D01*
X51090918Y-107974764D01*
X51084500Y-108078149D01*
X51084500Y-110043850D01*
X51090918Y-110147235D01*
X51090919Y-110147238D01*
X51141950Y-110390615D01*
X51141952Y-110390621D01*
X51176517Y-110479200D01*
X51185000Y-110524276D01*
X51185000Y-118838540D01*
X51165315Y-118905579D01*
X51145884Y-118928932D01*
X50937352Y-119124756D01*
X50734784Y-119369618D01*
X50564513Y-119637923D01*
X50564510Y-119637929D01*
X50429209Y-119925456D01*
X50429207Y-119925461D01*
X50331008Y-120227687D01*
X50271460Y-120539848D01*
X50271459Y-120539855D01*
X50251507Y-120856994D01*
X50251507Y-120857005D01*
X50271459Y-121174144D01*
X50271460Y-121174151D01*
X50331008Y-121486312D01*
X50429207Y-121788538D01*
X50429209Y-121788543D01*
X50564510Y-122076070D01*
X50564513Y-122076076D01*
X50734784Y-122344381D01*
X50734787Y-122344385D01*
X50734788Y-122344386D01*
X50937350Y-122589242D01*
X51142406Y-122781801D01*
X51177799Y-122842041D01*
X51180460Y-122888378D01*
X51170093Y-122967117D01*
X51161715Y-122998383D01*
X51124260Y-123088808D01*
X51108075Y-123116842D01*
X51043496Y-123201003D01*
X51032801Y-123213198D01*
X50337198Y-123908801D01*
X50325003Y-123919496D01*
X50240842Y-123984075D01*
X50212808Y-124000260D01*
X50122383Y-124037715D01*
X50091117Y-124046093D01*
X49997291Y-124058446D01*
X49985951Y-124059939D01*
X49969767Y-124061000D01*
X45900233Y-124061000D01*
X45884048Y-124059939D01*
X45871024Y-124058224D01*
X45778882Y-124046093D01*
X45747616Y-124037715D01*
X45657191Y-124000260D01*
X45629157Y-123984075D01*
X45544996Y-123919496D01*
X45532801Y-123908801D01*
X44837198Y-123213198D01*
X44826503Y-123201003D01*
X44761924Y-123116842D01*
X44745739Y-123088808D01*
X44708284Y-122998383D01*
X44699906Y-122967116D01*
X44686061Y-122861952D01*
X44685000Y-122845767D01*
X44685000Y-122355534D01*
X44704303Y-122289092D01*
X44748501Y-122219445D01*
X44839488Y-122076074D01*
X44974793Y-121788537D01*
X45072993Y-121486308D01*
X45132539Y-121174155D01*
X45152493Y-120857000D01*
X45132539Y-120539845D01*
X45072993Y-120227692D01*
X44974793Y-119925463D01*
X44839488Y-119637926D01*
X44669212Y-119369614D01*
X44466650Y-119124758D01*
X44234997Y-118907222D01*
X44234995Y-118907220D01*
X43977909Y-118720436D01*
X43977908Y-118720435D01*
X43977906Y-118720434D01*
X43699432Y-118567341D01*
X43699429Y-118567339D01*
X43699424Y-118567337D01*
X43699423Y-118567336D01*
X43403969Y-118450359D01*
X43281277Y-118418857D01*
X43224434Y-118386434D01*
X40337198Y-115499198D01*
X40326503Y-115487003D01*
X40261924Y-115402842D01*
X40245739Y-115374808D01*
X40208284Y-115284383D01*
X40199906Y-115253116D01*
X40186061Y-115147952D01*
X40185000Y-115131767D01*
X40185000Y-101497609D01*
X40204685Y-101430570D01*
X40257489Y-101384815D01*
X40326647Y-101374871D01*
X40333182Y-101375990D01*
G37*
%TD.AperFunction*%
%TD*%
%TA.AperFunction,Conductor*%
%TO.N,/PS/AC_N*%
G36*
X71896971Y-61063381D02*
G01*
X71975618Y-61079024D01*
X72020308Y-61097535D01*
X72076626Y-61135166D01*
X72110833Y-61169373D01*
X72148462Y-61225688D01*
X72166976Y-61270387D01*
X72182617Y-61349019D01*
X72185000Y-61373210D01*
X72185000Y-67174525D01*
X72182617Y-67198716D01*
X72166976Y-67277348D01*
X72148461Y-67322048D01*
X72103916Y-67388714D01*
X72088495Y-67407504D01*
X54031504Y-85464495D01*
X54012714Y-85479916D01*
X53946048Y-85524461D01*
X53901348Y-85542976D01*
X53822716Y-85558617D01*
X53798525Y-85561000D01*
X35497211Y-85561000D01*
X35473020Y-85558617D01*
X35394387Y-85542976D01*
X35349689Y-85524462D01*
X35293373Y-85486833D01*
X35259166Y-85452626D01*
X35221535Y-85396308D01*
X35203024Y-85351618D01*
X35187381Y-85272971D01*
X35185000Y-85248789D01*
X35185000Y-79373210D01*
X35187381Y-79349029D01*
X35203025Y-79270379D01*
X35221534Y-79225693D01*
X35259168Y-79169370D01*
X35293370Y-79135168D01*
X35349693Y-79097534D01*
X35394379Y-79079025D01*
X35473028Y-79063381D01*
X35497211Y-79061000D01*
X45635001Y-79061000D01*
X45635002Y-79060999D01*
X45673612Y-79053319D01*
X45749802Y-79038165D01*
X45749802Y-79038164D01*
X45749805Y-79038164D01*
X45847132Y-78973132D01*
X45912164Y-78875805D01*
X45935000Y-78761000D01*
X45935000Y-71623210D01*
X45937381Y-71599029D01*
X45953025Y-71520379D01*
X45971534Y-71475693D01*
X46009168Y-71419370D01*
X46043370Y-71385168D01*
X46099693Y-71347534D01*
X46144379Y-71329025D01*
X46223028Y-71313381D01*
X46247211Y-71311000D01*
X55885001Y-71311000D01*
X55885002Y-71310999D01*
X55923612Y-71303319D01*
X55999802Y-71288165D01*
X55999802Y-71288164D01*
X55999805Y-71288164D01*
X56097132Y-71223132D01*
X56162164Y-71125805D01*
X56185000Y-71011000D01*
X56185000Y-61373210D01*
X56187381Y-61349029D01*
X56203025Y-61270379D01*
X56221534Y-61225693D01*
X56259168Y-61169370D01*
X56293370Y-61135168D01*
X56349693Y-61097534D01*
X56394379Y-61079025D01*
X56473028Y-61063381D01*
X56497211Y-61061000D01*
X71872789Y-61061000D01*
X71896971Y-61063381D01*
G37*
%TD.AperFunction*%
%TD*%
%TA.AperFunction,Conductor*%
%TO.N,Net-(F1-Pad2)*%
G36*
X45396971Y-47063381D02*
G01*
X45475618Y-47079024D01*
X45520308Y-47097535D01*
X45576626Y-47135166D01*
X45610833Y-47169373D01*
X45648462Y-47225688D01*
X45666976Y-47270387D01*
X45682617Y-47349019D01*
X45685000Y-47373210D01*
X45685000Y-61908525D01*
X45682617Y-61932716D01*
X45666976Y-62011348D01*
X45648461Y-62056048D01*
X45603916Y-62122714D01*
X45588495Y-62141504D01*
X42265504Y-65464495D01*
X42246714Y-65479916D01*
X42180048Y-65524461D01*
X42135348Y-65542976D01*
X42056716Y-65558617D01*
X42032525Y-65561000D01*
X35497211Y-65561000D01*
X35473020Y-65558617D01*
X35394387Y-65542976D01*
X35349689Y-65524462D01*
X35293373Y-65486833D01*
X35259166Y-65452626D01*
X35221535Y-65396308D01*
X35203024Y-65351618D01*
X35187381Y-65272971D01*
X35185000Y-65248789D01*
X35185000Y-47373210D01*
X35187381Y-47349029D01*
X35203025Y-47270379D01*
X35221534Y-47225693D01*
X35259168Y-47169370D01*
X35293370Y-47135168D01*
X35349693Y-47097534D01*
X35394379Y-47079025D01*
X35473028Y-47063381D01*
X35497211Y-47061000D01*
X45372789Y-47061000D01*
X45396971Y-47063381D01*
G37*
%TD.AperFunction*%
%TD*%
%TA.AperFunction,Conductor*%
%TO.N,/PS/AC_L_SW*%
G36*
X72388971Y-42071381D02*
G01*
X72467618Y-42087024D01*
X72512308Y-42105535D01*
X72568626Y-42143166D01*
X72602833Y-42177373D01*
X72640462Y-42233688D01*
X72658976Y-42278387D01*
X72674617Y-42357019D01*
X72677000Y-42381210D01*
X72677000Y-50748789D01*
X72674617Y-50772980D01*
X72658976Y-50851612D01*
X72640462Y-50896311D01*
X72602836Y-50952623D01*
X72568623Y-50986836D01*
X72512311Y-51024462D01*
X72467612Y-51042976D01*
X72388980Y-51058617D01*
X72364789Y-51061000D01*
X53984995Y-51061000D01*
X53870197Y-51083834D01*
X53870196Y-51083835D01*
X53772868Y-51148868D01*
X53707835Y-51246196D01*
X53707834Y-51246197D01*
X53685000Y-51360995D01*
X53685000Y-69248789D01*
X53682617Y-69272980D01*
X53666976Y-69351612D01*
X53648462Y-69396311D01*
X53610836Y-69452623D01*
X53576623Y-69486836D01*
X53520311Y-69524462D01*
X53475612Y-69542976D01*
X53396980Y-69558617D01*
X53372789Y-69561000D01*
X47497211Y-69561000D01*
X47473020Y-69558617D01*
X47394387Y-69542976D01*
X47349689Y-69524462D01*
X47293373Y-69486833D01*
X47259166Y-69452626D01*
X47221535Y-69396308D01*
X47203024Y-69351618D01*
X47187381Y-69272971D01*
X47185000Y-69248789D01*
X47185000Y-46220602D01*
X47186478Y-46201514D01*
X47196244Y-46138827D01*
X47207856Y-46102463D01*
X47231885Y-46054405D01*
X47254008Y-46023299D01*
X47298300Y-45977872D01*
X47312677Y-45965242D01*
X52419672Y-42134995D01*
X52436518Y-42124362D01*
X52438450Y-42123349D01*
X52494975Y-42093733D01*
X52532659Y-42081171D01*
X52574184Y-42074433D01*
X52597802Y-42070601D01*
X52617663Y-42069000D01*
X72364789Y-42069000D01*
X72388971Y-42071381D01*
G37*
%TD.AperFunction*%
%TD*%
%TA.AperFunction,Conductor*%
%TO.N,DCR_GND*%
G36*
X107322707Y-46563381D02*
G01*
X107401354Y-46579024D01*
X107446046Y-46597537D01*
X107512714Y-46642083D01*
X107531504Y-46657504D01*
X116588495Y-55714495D01*
X116603916Y-55733285D01*
X116648461Y-55799951D01*
X116666976Y-55844651D01*
X116682617Y-55923283D01*
X116685000Y-55947474D01*
X116685000Y-85811000D01*
X115385000Y-87111000D01*
X115260736Y-87111000D01*
X108235000Y-87111000D01*
X107935000Y-87111000D01*
X107935000Y-82561000D01*
X112135000Y-82561000D01*
X112249805Y-82538164D01*
X112347132Y-82473132D01*
X112412164Y-82375805D01*
X112435000Y-82261000D01*
X112435000Y-79747405D01*
X112440041Y-79712408D01*
X112455961Y-79658295D01*
X112463990Y-79617933D01*
X112482070Y-79496053D01*
X112484453Y-79471860D01*
X112490500Y-79348789D01*
X112490500Y-71234991D01*
X112483305Y-71100774D01*
X112480471Y-71074416D01*
X112475251Y-71032506D01*
X112438280Y-70874967D01*
X112435000Y-70846637D01*
X112435000Y-56185263D01*
X112434999Y-56185259D01*
X112412165Y-56070461D01*
X112412163Y-56070457D01*
X112347135Y-55973136D01*
X112347129Y-55973128D01*
X109022871Y-52648870D01*
X109022863Y-52648864D01*
X108925542Y-52583836D01*
X108925538Y-52583834D01*
X108810740Y-52561000D01*
X108810736Y-52561000D01*
X108680544Y-52561000D01*
X108613505Y-52541315D01*
X108603580Y-52534224D01*
X108413049Y-52383397D01*
X108413045Y-52383394D01*
X108356727Y-52345763D01*
X108338468Y-52334023D01*
X108312091Y-52317062D01*
X108096447Y-52206639D01*
X108096440Y-52206636D01*
X108096432Y-52206632D01*
X108051742Y-52188121D01*
X108051741Y-52188120D01*
X108051713Y-52188109D01*
X108002371Y-52168683D01*
X108002360Y-52168680D01*
X107769312Y-52102449D01*
X107690682Y-52086808D01*
X107690668Y-52086806D01*
X107544508Y-52065127D01*
X107544489Y-52065125D01*
X107520317Y-52062745D01*
X107465960Y-52060075D01*
X107372789Y-52055500D01*
X105077637Y-52055500D01*
X105077630Y-52055500D01*
X104951101Y-52060826D01*
X104930331Y-52062578D01*
X104904116Y-52065902D01*
X104895471Y-52066692D01*
X104691951Y-52078121D01*
X104678046Y-52078121D01*
X104474499Y-52066690D01*
X104465849Y-52065899D01*
X104439681Y-52062579D01*
X104418891Y-52060825D01*
X104292370Y-52055500D01*
X104292363Y-52055500D01*
X102559000Y-52055500D01*
X102491961Y-52035815D01*
X102446206Y-51983011D01*
X102435000Y-51931500D01*
X102435000Y-46947474D01*
X102437381Y-46923293D01*
X102453025Y-46844643D01*
X102471536Y-46799955D01*
X102516088Y-46733278D01*
X102531499Y-46714500D01*
X102588500Y-46657499D01*
X102607278Y-46642088D01*
X102673955Y-46597536D01*
X102718643Y-46579025D01*
X102797292Y-46563381D01*
X102821475Y-46561000D01*
X107298525Y-46561000D01*
X107322707Y-46563381D01*
G37*
%TD.AperFunction*%
%TD*%
%TA.AperFunction,Conductor*%
%TO.N,/PS/AC_L*%
G36*
X44396971Y-68563381D02*
G01*
X44475618Y-68579024D01*
X44520308Y-68597535D01*
X44576626Y-68635166D01*
X44610833Y-68669373D01*
X44648462Y-68725688D01*
X44666976Y-68770387D01*
X44682617Y-68849019D01*
X44685000Y-68873210D01*
X44685000Y-70665843D01*
X44671372Y-70722359D01*
X44580622Y-70899586D01*
X44562130Y-70944232D01*
X44542688Y-70993614D01*
X44476452Y-71226676D01*
X44476451Y-71226680D01*
X44460803Y-71305348D01*
X44439127Y-71451494D01*
X44436746Y-71475675D01*
X44436746Y-71475683D01*
X44429500Y-71623210D01*
X44429500Y-71623223D01*
X44429500Y-76937000D01*
X44409815Y-77004039D01*
X44357011Y-77049794D01*
X44305500Y-77061000D01*
X35497211Y-77061000D01*
X35473020Y-77058617D01*
X35394387Y-77042976D01*
X35349689Y-77024462D01*
X35293373Y-76986833D01*
X35259166Y-76952626D01*
X35221535Y-76896308D01*
X35203024Y-76851618D01*
X35187381Y-76772971D01*
X35185000Y-76748789D01*
X35185000Y-68873210D01*
X35187381Y-68849029D01*
X35203025Y-68770379D01*
X35221534Y-68725693D01*
X35259168Y-68669370D01*
X35293370Y-68635168D01*
X35349693Y-68597534D01*
X35394379Y-68579025D01*
X35473028Y-68563381D01*
X35497211Y-68561000D01*
X44372789Y-68561000D01*
X44396971Y-68563381D01*
G37*
%TD.AperFunction*%
%TD*%
M02*
