%TF.GenerationSoftware,KiCad,Pcbnew,8.99.0-1678-gcd3e85b0b3*%
%TF.CreationDate,2024-09-01T20:16:48+02:00*%
%TF.ProjectId,ACDC120W19O5V,41434443-3132-4305-9731-394f35562e6b,rev?*%
%TF.SameCoordinates,Original*%
%TF.FileFunction,Legend,Top*%
%TF.FilePolarity,Positive*%
%FSLAX46Y46*%
G04 Gerber Fmt 4.6, Leading zero omitted, Abs format (unit mm)*
G04 Created by KiCad (PCBNEW 8.99.0-1678-gcd3e85b0b3) date 2024-09-01 20:16:48*
%MOMM*%
%LPD*%
G01*
G04 APERTURE LIST*
%ADD10C,0.150000*%
%ADD11C,0.360000*%
%ADD12C,0.200000*%
%ADD13C,0.300000*%
%ADD14C,0.120000*%
G04 APERTURE END LIST*
D10*
X68035000Y-106711000D02*
X68035000Y-107711000D01*
D11*
G36*
X116772535Y-117572127D02*
G01*
X114648024Y-117572127D01*
X114648024Y-116474756D01*
X114848024Y-116474756D01*
X114848024Y-116544988D01*
X114874900Y-116609875D01*
X114924562Y-116659537D01*
X114989449Y-116686413D01*
X115024565Y-116689872D01*
X115530280Y-116689872D01*
X115530280Y-117195586D01*
X115533739Y-117230702D01*
X115560615Y-117295589D01*
X115610277Y-117345251D01*
X115675164Y-117372127D01*
X115745396Y-117372127D01*
X115810283Y-117345251D01*
X115859945Y-117295589D01*
X115886821Y-117230702D01*
X115890280Y-117195586D01*
X115890280Y-116689872D01*
X116395994Y-116689872D01*
X116431110Y-116686413D01*
X116495997Y-116659537D01*
X116545659Y-116609875D01*
X116572535Y-116544988D01*
X116572535Y-116474756D01*
X116545659Y-116409869D01*
X116495997Y-116360207D01*
X116431110Y-116333331D01*
X116395994Y-116329872D01*
X115890280Y-116329872D01*
X115890280Y-115824158D01*
X115886821Y-115789042D01*
X115859945Y-115724155D01*
X115810283Y-115674493D01*
X115745396Y-115647617D01*
X115675164Y-115647617D01*
X115610277Y-115674493D01*
X115560615Y-115724155D01*
X115533739Y-115789042D01*
X115530280Y-115824158D01*
X115530280Y-116329872D01*
X115024565Y-116329872D01*
X114989449Y-116333331D01*
X114924562Y-116360207D01*
X114874900Y-116409869D01*
X114848024Y-116474756D01*
X114648024Y-116474756D01*
X114648024Y-115447617D01*
X116772535Y-115447617D01*
X116772535Y-117572127D01*
G37*
D12*
X36348673Y-44184409D02*
X36682006Y-44184409D01*
X36824863Y-44708219D02*
X36348673Y-44708219D01*
X36348673Y-44708219D02*
X36348673Y-43708219D01*
X36348673Y-43708219D02*
X36824863Y-43708219D01*
X37205816Y-44422504D02*
X37682006Y-44422504D01*
X37110578Y-44708219D02*
X37443911Y-43708219D01*
X37443911Y-43708219D02*
X37777244Y-44708219D01*
X38682006Y-44708219D02*
X38348673Y-44232028D01*
X38110578Y-44708219D02*
X38110578Y-43708219D01*
X38110578Y-43708219D02*
X38491530Y-43708219D01*
X38491530Y-43708219D02*
X38586768Y-43755838D01*
X38586768Y-43755838D02*
X38634387Y-43803457D01*
X38634387Y-43803457D02*
X38682006Y-43898695D01*
X38682006Y-43898695D02*
X38682006Y-44041552D01*
X38682006Y-44041552D02*
X38634387Y-44136790D01*
X38634387Y-44136790D02*
X38586768Y-44184409D01*
X38586768Y-44184409D02*
X38491530Y-44232028D01*
X38491530Y-44232028D02*
X38110578Y-44232028D01*
X38967721Y-43708219D02*
X39539149Y-43708219D01*
X39253435Y-44708219D02*
X39253435Y-43708219D01*
X39872483Y-44708219D02*
X39872483Y-43708219D01*
X39872483Y-44184409D02*
X40443911Y-44184409D01*
X40443911Y-44708219D02*
X40443911Y-43708219D01*
D11*
G36*
X36008984Y-84701555D02*
G01*
X34220413Y-84701555D01*
X34220413Y-82521994D01*
X34420413Y-82521994D01*
X34420413Y-84321994D01*
X34423872Y-84357110D01*
X34450748Y-84421997D01*
X34500410Y-84471659D01*
X34565297Y-84498535D01*
X34635529Y-84498535D01*
X34700416Y-84471659D01*
X34750078Y-84421997D01*
X34776954Y-84357110D01*
X34780413Y-84321994D01*
X34780413Y-83199796D01*
X35472700Y-84411299D01*
X35477952Y-84418698D01*
X35479319Y-84421997D01*
X35482681Y-84425359D01*
X35493126Y-84440072D01*
X35512049Y-84454727D01*
X35528981Y-84471659D01*
X35539581Y-84476049D01*
X35548654Y-84483076D01*
X35571756Y-84489376D01*
X35593868Y-84498535D01*
X35605338Y-84498535D01*
X35616412Y-84501555D01*
X35640166Y-84498535D01*
X35664100Y-84498535D01*
X35674700Y-84494144D01*
X35686084Y-84492697D01*
X35706865Y-84480821D01*
X35728987Y-84471659D01*
X35737103Y-84463542D01*
X35747062Y-84457852D01*
X35761717Y-84438928D01*
X35778649Y-84421997D01*
X35783039Y-84411396D01*
X35790066Y-84402324D01*
X35796366Y-84379220D01*
X35805525Y-84357110D01*
X35807293Y-84339155D01*
X35808545Y-84334567D01*
X35808094Y-84331023D01*
X35808984Y-84321994D01*
X35808984Y-82521994D01*
X35805525Y-82486878D01*
X35778649Y-82421991D01*
X35728987Y-82372329D01*
X35664100Y-82345453D01*
X35593868Y-82345453D01*
X35528981Y-82372329D01*
X35479319Y-82421991D01*
X35452443Y-82486878D01*
X35448984Y-82521994D01*
X35448984Y-83644191D01*
X34756697Y-82432689D01*
X34751444Y-82425289D01*
X34750078Y-82421991D01*
X34746715Y-82418628D01*
X34736271Y-82403916D01*
X34717347Y-82389260D01*
X34700416Y-82372329D01*
X34689815Y-82367938D01*
X34680743Y-82360912D01*
X34657640Y-82354611D01*
X34635529Y-82345453D01*
X34624059Y-82345453D01*
X34612985Y-82342433D01*
X34589231Y-82345453D01*
X34565297Y-82345453D01*
X34554696Y-82349843D01*
X34543313Y-82351291D01*
X34522531Y-82363166D01*
X34500410Y-82372329D01*
X34492293Y-82380445D01*
X34482335Y-82386136D01*
X34467679Y-82405059D01*
X34450748Y-82421991D01*
X34446357Y-82432591D01*
X34439331Y-82441664D01*
X34433030Y-82464766D01*
X34423872Y-82486878D01*
X34422103Y-82504833D01*
X34420852Y-82509422D01*
X34421302Y-82512964D01*
X34420413Y-82521994D01*
X34220413Y-82521994D01*
X34220413Y-73828297D01*
X34420413Y-73828297D01*
X34420413Y-75628297D01*
X34423872Y-75663413D01*
X34450748Y-75728300D01*
X34500410Y-75777962D01*
X34565297Y-75804838D01*
X34600413Y-75808297D01*
X35457556Y-75808297D01*
X35492672Y-75804838D01*
X35557559Y-75777962D01*
X35607221Y-75728300D01*
X35634097Y-75663413D01*
X35634097Y-75593181D01*
X35607221Y-75528294D01*
X35557559Y-75478632D01*
X35492672Y-75451756D01*
X35457556Y-75448297D01*
X34780413Y-75448297D01*
X34780413Y-73828297D01*
X34776954Y-73793181D01*
X34750078Y-73728294D01*
X34700416Y-73678632D01*
X34635529Y-73651756D01*
X34565297Y-73651756D01*
X34500410Y-73678632D01*
X34450748Y-73728294D01*
X34423872Y-73793181D01*
X34420413Y-73828297D01*
X34220413Y-73828297D01*
X34220413Y-73451756D01*
X36008984Y-73451756D01*
X36008984Y-84701555D01*
G37*
D13*
X62790653Y-39815828D02*
X62290653Y-39101542D01*
X61933510Y-39815828D02*
X61933510Y-38315828D01*
X61933510Y-38315828D02*
X62504939Y-38315828D01*
X62504939Y-38315828D02*
X62647796Y-38387257D01*
X62647796Y-38387257D02*
X62719225Y-38458685D01*
X62719225Y-38458685D02*
X62790653Y-38601542D01*
X62790653Y-38601542D02*
X62790653Y-38815828D01*
X62790653Y-38815828D02*
X62719225Y-38958685D01*
X62719225Y-38958685D02*
X62647796Y-39030114D01*
X62647796Y-39030114D02*
X62504939Y-39101542D01*
X62504939Y-39101542D02*
X61933510Y-39101542D01*
X64219225Y-39815828D02*
X63362082Y-39815828D01*
X63790653Y-39815828D02*
X63790653Y-38315828D01*
X63790653Y-38315828D02*
X63647796Y-38530114D01*
X63647796Y-38530114D02*
X63504939Y-38672971D01*
X63504939Y-38672971D02*
X63362082Y-38744400D01*
X64862081Y-39672971D02*
X64933510Y-39744400D01*
X64933510Y-39744400D02*
X64862081Y-39815828D01*
X64862081Y-39815828D02*
X64790653Y-39744400D01*
X64790653Y-39744400D02*
X64862081Y-39672971D01*
X64862081Y-39672971D02*
X64862081Y-39815828D01*
X65862082Y-38315828D02*
X66004939Y-38315828D01*
X66004939Y-38315828D02*
X66147796Y-38387257D01*
X66147796Y-38387257D02*
X66219225Y-38458685D01*
X66219225Y-38458685D02*
X66290653Y-38601542D01*
X66290653Y-38601542D02*
X66362082Y-38887257D01*
X66362082Y-38887257D02*
X66362082Y-39244400D01*
X66362082Y-39244400D02*
X66290653Y-39530114D01*
X66290653Y-39530114D02*
X66219225Y-39672971D01*
X66219225Y-39672971D02*
X66147796Y-39744400D01*
X66147796Y-39744400D02*
X66004939Y-39815828D01*
X66004939Y-39815828D02*
X65862082Y-39815828D01*
X65862082Y-39815828D02*
X65719225Y-39744400D01*
X65719225Y-39744400D02*
X65647796Y-39672971D01*
X65647796Y-39672971D02*
X65576367Y-39530114D01*
X65576367Y-39530114D02*
X65504939Y-39244400D01*
X65504939Y-39244400D02*
X65504939Y-38887257D01*
X65504939Y-38887257D02*
X65576367Y-38601542D01*
X65576367Y-38601542D02*
X65647796Y-38458685D01*
X65647796Y-38458685D02*
X65719225Y-38387257D01*
X65719225Y-38387257D02*
X65862082Y-38315828D01*
X61862082Y-37101257D02*
X62576368Y-37101257D01*
X61719225Y-37529828D02*
X62219225Y-36029828D01*
X62219225Y-36029828D02*
X62719225Y-37529828D01*
X64076367Y-37386971D02*
X64004939Y-37458400D01*
X64004939Y-37458400D02*
X63790653Y-37529828D01*
X63790653Y-37529828D02*
X63647796Y-37529828D01*
X63647796Y-37529828D02*
X63433510Y-37458400D01*
X63433510Y-37458400D02*
X63290653Y-37315542D01*
X63290653Y-37315542D02*
X63219224Y-37172685D01*
X63219224Y-37172685D02*
X63147796Y-36886971D01*
X63147796Y-36886971D02*
X63147796Y-36672685D01*
X63147796Y-36672685D02*
X63219224Y-36386971D01*
X63219224Y-36386971D02*
X63290653Y-36244114D01*
X63290653Y-36244114D02*
X63433510Y-36101257D01*
X63433510Y-36101257D02*
X63647796Y-36029828D01*
X63647796Y-36029828D02*
X63790653Y-36029828D01*
X63790653Y-36029828D02*
X64004939Y-36101257D01*
X64004939Y-36101257D02*
X64076367Y-36172685D01*
X64719224Y-37529828D02*
X64719224Y-36029828D01*
X64719224Y-36029828D02*
X65076367Y-36029828D01*
X65076367Y-36029828D02*
X65290653Y-36101257D01*
X65290653Y-36101257D02*
X65433510Y-36244114D01*
X65433510Y-36244114D02*
X65504939Y-36386971D01*
X65504939Y-36386971D02*
X65576367Y-36672685D01*
X65576367Y-36672685D02*
X65576367Y-36886971D01*
X65576367Y-36886971D02*
X65504939Y-37172685D01*
X65504939Y-37172685D02*
X65433510Y-37315542D01*
X65433510Y-37315542D02*
X65290653Y-37458400D01*
X65290653Y-37458400D02*
X65076367Y-37529828D01*
X65076367Y-37529828D02*
X64719224Y-37529828D01*
X67076367Y-37386971D02*
X67004939Y-37458400D01*
X67004939Y-37458400D02*
X66790653Y-37529828D01*
X66790653Y-37529828D02*
X66647796Y-37529828D01*
X66647796Y-37529828D02*
X66433510Y-37458400D01*
X66433510Y-37458400D02*
X66290653Y-37315542D01*
X66290653Y-37315542D02*
X66219224Y-37172685D01*
X66219224Y-37172685D02*
X66147796Y-36886971D01*
X66147796Y-36886971D02*
X66147796Y-36672685D01*
X66147796Y-36672685D02*
X66219224Y-36386971D01*
X66219224Y-36386971D02*
X66290653Y-36244114D01*
X66290653Y-36244114D02*
X66433510Y-36101257D01*
X66433510Y-36101257D02*
X66647796Y-36029828D01*
X66647796Y-36029828D02*
X66790653Y-36029828D01*
X66790653Y-36029828D02*
X67004939Y-36101257D01*
X67004939Y-36101257D02*
X67076367Y-36172685D01*
X67719224Y-36958400D02*
X68862082Y-36958400D01*
X70362082Y-37529828D02*
X69504939Y-37529828D01*
X69933510Y-37529828D02*
X69933510Y-36029828D01*
X69933510Y-36029828D02*
X69790653Y-36244114D01*
X69790653Y-36244114D02*
X69647796Y-36386971D01*
X69647796Y-36386971D02*
X69504939Y-36458400D01*
X70933510Y-36172685D02*
X71004938Y-36101257D01*
X71004938Y-36101257D02*
X71147796Y-36029828D01*
X71147796Y-36029828D02*
X71504938Y-36029828D01*
X71504938Y-36029828D02*
X71647796Y-36101257D01*
X71647796Y-36101257D02*
X71719224Y-36172685D01*
X71719224Y-36172685D02*
X71790653Y-36315542D01*
X71790653Y-36315542D02*
X71790653Y-36458400D01*
X71790653Y-36458400D02*
X71719224Y-36672685D01*
X71719224Y-36672685D02*
X70862081Y-37529828D01*
X70862081Y-37529828D02*
X71790653Y-37529828D01*
X72719224Y-36029828D02*
X72862081Y-36029828D01*
X72862081Y-36029828D02*
X73004938Y-36101257D01*
X73004938Y-36101257D02*
X73076367Y-36172685D01*
X73076367Y-36172685D02*
X73147795Y-36315542D01*
X73147795Y-36315542D02*
X73219224Y-36601257D01*
X73219224Y-36601257D02*
X73219224Y-36958400D01*
X73219224Y-36958400D02*
X73147795Y-37244114D01*
X73147795Y-37244114D02*
X73076367Y-37386971D01*
X73076367Y-37386971D02*
X73004938Y-37458400D01*
X73004938Y-37458400D02*
X72862081Y-37529828D01*
X72862081Y-37529828D02*
X72719224Y-37529828D01*
X72719224Y-37529828D02*
X72576367Y-37458400D01*
X72576367Y-37458400D02*
X72504938Y-37386971D01*
X72504938Y-37386971D02*
X72433509Y-37244114D01*
X72433509Y-37244114D02*
X72362081Y-36958400D01*
X72362081Y-36958400D02*
X72362081Y-36601257D01*
X72362081Y-36601257D02*
X72433509Y-36315542D01*
X72433509Y-36315542D02*
X72504938Y-36172685D01*
X72504938Y-36172685D02*
X72576367Y-36101257D01*
X72576367Y-36101257D02*
X72719224Y-36029828D01*
X73862080Y-36958400D02*
X75004938Y-36958400D01*
X75647795Y-36172685D02*
X75719223Y-36101257D01*
X75719223Y-36101257D02*
X75862081Y-36029828D01*
X75862081Y-36029828D02*
X76219223Y-36029828D01*
X76219223Y-36029828D02*
X76362081Y-36101257D01*
X76362081Y-36101257D02*
X76433509Y-36172685D01*
X76433509Y-36172685D02*
X76504938Y-36315542D01*
X76504938Y-36315542D02*
X76504938Y-36458400D01*
X76504938Y-36458400D02*
X76433509Y-36672685D01*
X76433509Y-36672685D02*
X75576366Y-37529828D01*
X75576366Y-37529828D02*
X76504938Y-37529828D01*
X77790652Y-36529828D02*
X77790652Y-37529828D01*
X77433509Y-35958400D02*
X77076366Y-37029828D01*
X77076366Y-37029828D02*
X78004937Y-37029828D01*
D10*
X100631819Y-117642057D02*
X100155628Y-117975390D01*
X100631819Y-118213485D02*
X99631819Y-118213485D01*
X99631819Y-118213485D02*
X99631819Y-117832533D01*
X99631819Y-117832533D02*
X99679438Y-117737295D01*
X99679438Y-117737295D02*
X99727057Y-117689676D01*
X99727057Y-117689676D02*
X99822295Y-117642057D01*
X99822295Y-117642057D02*
X99965152Y-117642057D01*
X99965152Y-117642057D02*
X100060390Y-117689676D01*
X100060390Y-117689676D02*
X100108009Y-117737295D01*
X100108009Y-117737295D02*
X100155628Y-117832533D01*
X100155628Y-117832533D02*
X100155628Y-118213485D01*
X100631819Y-116689676D02*
X100631819Y-117261104D01*
X100631819Y-116975390D02*
X99631819Y-116975390D01*
X99631819Y-116975390D02*
X99774676Y-117070628D01*
X99774676Y-117070628D02*
X99869914Y-117165866D01*
X99869914Y-117165866D02*
X99917533Y-117261104D01*
X99631819Y-115832533D02*
X99631819Y-116023009D01*
X99631819Y-116023009D02*
X99679438Y-116118247D01*
X99679438Y-116118247D02*
X99727057Y-116165866D01*
X99727057Y-116165866D02*
X99869914Y-116261104D01*
X99869914Y-116261104D02*
X100060390Y-116308723D01*
X100060390Y-116308723D02*
X100441342Y-116308723D01*
X100441342Y-116308723D02*
X100536580Y-116261104D01*
X100536580Y-116261104D02*
X100584200Y-116213485D01*
X100584200Y-116213485D02*
X100631819Y-116118247D01*
X100631819Y-116118247D02*
X100631819Y-115927771D01*
X100631819Y-115927771D02*
X100584200Y-115832533D01*
X100584200Y-115832533D02*
X100536580Y-115784914D01*
X100536580Y-115784914D02*
X100441342Y-115737295D01*
X100441342Y-115737295D02*
X100203247Y-115737295D01*
X100203247Y-115737295D02*
X100108009Y-115784914D01*
X100108009Y-115784914D02*
X100060390Y-115832533D01*
X100060390Y-115832533D02*
X100012771Y-115927771D01*
X100012771Y-115927771D02*
X100012771Y-116118247D01*
X100012771Y-116118247D02*
X100060390Y-116213485D01*
X100060390Y-116213485D02*
X100108009Y-116261104D01*
X100108009Y-116261104D02*
X100203247Y-116308723D01*
X101901819Y-114848057D02*
X101425628Y-115181390D01*
X101901819Y-115419485D02*
X100901819Y-115419485D01*
X100901819Y-115419485D02*
X100901819Y-115038533D01*
X100901819Y-115038533D02*
X100949438Y-114943295D01*
X100949438Y-114943295D02*
X100997057Y-114895676D01*
X100997057Y-114895676D02*
X101092295Y-114848057D01*
X101092295Y-114848057D02*
X101235152Y-114848057D01*
X101235152Y-114848057D02*
X101330390Y-114895676D01*
X101330390Y-114895676D02*
X101378009Y-114943295D01*
X101378009Y-114943295D02*
X101425628Y-115038533D01*
X101425628Y-115038533D02*
X101425628Y-115419485D01*
X101901819Y-113895676D02*
X101901819Y-114467104D01*
X101901819Y-114181390D02*
X100901819Y-114181390D01*
X100901819Y-114181390D02*
X101044676Y-114276628D01*
X101044676Y-114276628D02*
X101139914Y-114371866D01*
X101139914Y-114371866D02*
X101187533Y-114467104D01*
X101330390Y-113324247D02*
X101282771Y-113419485D01*
X101282771Y-113419485D02*
X101235152Y-113467104D01*
X101235152Y-113467104D02*
X101139914Y-113514723D01*
X101139914Y-113514723D02*
X101092295Y-113514723D01*
X101092295Y-113514723D02*
X100997057Y-113467104D01*
X100997057Y-113467104D02*
X100949438Y-113419485D01*
X100949438Y-113419485D02*
X100901819Y-113324247D01*
X100901819Y-113324247D02*
X100901819Y-113133771D01*
X100901819Y-113133771D02*
X100949438Y-113038533D01*
X100949438Y-113038533D02*
X100997057Y-112990914D01*
X100997057Y-112990914D02*
X101092295Y-112943295D01*
X101092295Y-112943295D02*
X101139914Y-112943295D01*
X101139914Y-112943295D02*
X101235152Y-112990914D01*
X101235152Y-112990914D02*
X101282771Y-113038533D01*
X101282771Y-113038533D02*
X101330390Y-113133771D01*
X101330390Y-113133771D02*
X101330390Y-113324247D01*
X101330390Y-113324247D02*
X101378009Y-113419485D01*
X101378009Y-113419485D02*
X101425628Y-113467104D01*
X101425628Y-113467104D02*
X101520866Y-113514723D01*
X101520866Y-113514723D02*
X101711342Y-113514723D01*
X101711342Y-113514723D02*
X101806580Y-113467104D01*
X101806580Y-113467104D02*
X101854200Y-113419485D01*
X101854200Y-113419485D02*
X101901819Y-113324247D01*
X101901819Y-113324247D02*
X101901819Y-113133771D01*
X101901819Y-113133771D02*
X101854200Y-113038533D01*
X101854200Y-113038533D02*
X101806580Y-112990914D01*
X101806580Y-112990914D02*
X101711342Y-112943295D01*
X101711342Y-112943295D02*
X101520866Y-112943295D01*
X101520866Y-112943295D02*
X101425628Y-112990914D01*
X101425628Y-112990914D02*
X101378009Y-113038533D01*
X101378009Y-113038533D02*
X101330390Y-113133771D01*
X60042142Y-95515819D02*
X59708809Y-95039628D01*
X59470714Y-95515819D02*
X59470714Y-94515819D01*
X59470714Y-94515819D02*
X59851666Y-94515819D01*
X59851666Y-94515819D02*
X59946904Y-94563438D01*
X59946904Y-94563438D02*
X59994523Y-94611057D01*
X59994523Y-94611057D02*
X60042142Y-94706295D01*
X60042142Y-94706295D02*
X60042142Y-94849152D01*
X60042142Y-94849152D02*
X59994523Y-94944390D01*
X59994523Y-94944390D02*
X59946904Y-94992009D01*
X59946904Y-94992009D02*
X59851666Y-95039628D01*
X59851666Y-95039628D02*
X59470714Y-95039628D01*
X60423095Y-94611057D02*
X60470714Y-94563438D01*
X60470714Y-94563438D02*
X60565952Y-94515819D01*
X60565952Y-94515819D02*
X60804047Y-94515819D01*
X60804047Y-94515819D02*
X60899285Y-94563438D01*
X60899285Y-94563438D02*
X60946904Y-94611057D01*
X60946904Y-94611057D02*
X60994523Y-94706295D01*
X60994523Y-94706295D02*
X60994523Y-94801533D01*
X60994523Y-94801533D02*
X60946904Y-94944390D01*
X60946904Y-94944390D02*
X60375476Y-95515819D01*
X60375476Y-95515819D02*
X60994523Y-95515819D01*
X61946904Y-95515819D02*
X61375476Y-95515819D01*
X61661190Y-95515819D02*
X61661190Y-94515819D01*
X61661190Y-94515819D02*
X61565952Y-94658676D01*
X61565952Y-94658676D02*
X61470714Y-94753914D01*
X61470714Y-94753914D02*
X61375476Y-94801533D01*
X86542142Y-116515819D02*
X86208809Y-116039628D01*
X85970714Y-116515819D02*
X85970714Y-115515819D01*
X85970714Y-115515819D02*
X86351666Y-115515819D01*
X86351666Y-115515819D02*
X86446904Y-115563438D01*
X86446904Y-115563438D02*
X86494523Y-115611057D01*
X86494523Y-115611057D02*
X86542142Y-115706295D01*
X86542142Y-115706295D02*
X86542142Y-115849152D01*
X86542142Y-115849152D02*
X86494523Y-115944390D01*
X86494523Y-115944390D02*
X86446904Y-115992009D01*
X86446904Y-115992009D02*
X86351666Y-116039628D01*
X86351666Y-116039628D02*
X85970714Y-116039628D01*
X87494523Y-116515819D02*
X86923095Y-116515819D01*
X87208809Y-116515819D02*
X87208809Y-115515819D01*
X87208809Y-115515819D02*
X87113571Y-115658676D01*
X87113571Y-115658676D02*
X87018333Y-115753914D01*
X87018333Y-115753914D02*
X86923095Y-115801533D01*
X87827857Y-115515819D02*
X88446904Y-115515819D01*
X88446904Y-115515819D02*
X88113571Y-115896771D01*
X88113571Y-115896771D02*
X88256428Y-115896771D01*
X88256428Y-115896771D02*
X88351666Y-115944390D01*
X88351666Y-115944390D02*
X88399285Y-115992009D01*
X88399285Y-115992009D02*
X88446904Y-116087247D01*
X88446904Y-116087247D02*
X88446904Y-116325342D01*
X88446904Y-116325342D02*
X88399285Y-116420580D01*
X88399285Y-116420580D02*
X88351666Y-116468200D01*
X88351666Y-116468200D02*
X88256428Y-116515819D01*
X88256428Y-116515819D02*
X87970714Y-116515819D01*
X87970714Y-116515819D02*
X87875476Y-116468200D01*
X87875476Y-116468200D02*
X87827857Y-116420580D01*
X100504819Y-114848057D02*
X100028628Y-115181390D01*
X100504819Y-115419485D02*
X99504819Y-115419485D01*
X99504819Y-115419485D02*
X99504819Y-115038533D01*
X99504819Y-115038533D02*
X99552438Y-114943295D01*
X99552438Y-114943295D02*
X99600057Y-114895676D01*
X99600057Y-114895676D02*
X99695295Y-114848057D01*
X99695295Y-114848057D02*
X99838152Y-114848057D01*
X99838152Y-114848057D02*
X99933390Y-114895676D01*
X99933390Y-114895676D02*
X99981009Y-114943295D01*
X99981009Y-114943295D02*
X100028628Y-115038533D01*
X100028628Y-115038533D02*
X100028628Y-115419485D01*
X100504819Y-113895676D02*
X100504819Y-114467104D01*
X100504819Y-114181390D02*
X99504819Y-114181390D01*
X99504819Y-114181390D02*
X99647676Y-114276628D01*
X99647676Y-114276628D02*
X99742914Y-114371866D01*
X99742914Y-114371866D02*
X99790533Y-114467104D01*
X100504819Y-113419485D02*
X100504819Y-113229009D01*
X100504819Y-113229009D02*
X100457200Y-113133771D01*
X100457200Y-113133771D02*
X100409580Y-113086152D01*
X100409580Y-113086152D02*
X100266723Y-112990914D01*
X100266723Y-112990914D02*
X100076247Y-112943295D01*
X100076247Y-112943295D02*
X99695295Y-112943295D01*
X99695295Y-112943295D02*
X99600057Y-112990914D01*
X99600057Y-112990914D02*
X99552438Y-113038533D01*
X99552438Y-113038533D02*
X99504819Y-113133771D01*
X99504819Y-113133771D02*
X99504819Y-113324247D01*
X99504819Y-113324247D02*
X99552438Y-113419485D01*
X99552438Y-113419485D02*
X99600057Y-113467104D01*
X99600057Y-113467104D02*
X99695295Y-113514723D01*
X99695295Y-113514723D02*
X99933390Y-113514723D01*
X99933390Y-113514723D02*
X100028628Y-113467104D01*
X100028628Y-113467104D02*
X100076247Y-113419485D01*
X100076247Y-113419485D02*
X100123866Y-113324247D01*
X100123866Y-113324247D02*
X100123866Y-113133771D01*
X100123866Y-113133771D02*
X100076247Y-113038533D01*
X100076247Y-113038533D02*
X100028628Y-112990914D01*
X100028628Y-112990914D02*
X99933390Y-112943295D01*
X95259333Y-95067819D02*
X94926000Y-94591628D01*
X94687905Y-95067819D02*
X94687905Y-94067819D01*
X94687905Y-94067819D02*
X95068857Y-94067819D01*
X95068857Y-94067819D02*
X95164095Y-94115438D01*
X95164095Y-94115438D02*
X95211714Y-94163057D01*
X95211714Y-94163057D02*
X95259333Y-94258295D01*
X95259333Y-94258295D02*
X95259333Y-94401152D01*
X95259333Y-94401152D02*
X95211714Y-94496390D01*
X95211714Y-94496390D02*
X95164095Y-94544009D01*
X95164095Y-94544009D02*
X95068857Y-94591628D01*
X95068857Y-94591628D02*
X94687905Y-94591628D01*
X96116476Y-94067819D02*
X95926000Y-94067819D01*
X95926000Y-94067819D02*
X95830762Y-94115438D01*
X95830762Y-94115438D02*
X95783143Y-94163057D01*
X95783143Y-94163057D02*
X95687905Y-94305914D01*
X95687905Y-94305914D02*
X95640286Y-94496390D01*
X95640286Y-94496390D02*
X95640286Y-94877342D01*
X95640286Y-94877342D02*
X95687905Y-94972580D01*
X95687905Y-94972580D02*
X95735524Y-95020200D01*
X95735524Y-95020200D02*
X95830762Y-95067819D01*
X95830762Y-95067819D02*
X96021238Y-95067819D01*
X96021238Y-95067819D02*
X96116476Y-95020200D01*
X96116476Y-95020200D02*
X96164095Y-94972580D01*
X96164095Y-94972580D02*
X96211714Y-94877342D01*
X96211714Y-94877342D02*
X96211714Y-94639247D01*
X96211714Y-94639247D02*
X96164095Y-94544009D01*
X96164095Y-94544009D02*
X96116476Y-94496390D01*
X96116476Y-94496390D02*
X96021238Y-94448771D01*
X96021238Y-94448771D02*
X95830762Y-94448771D01*
X95830762Y-94448771D02*
X95735524Y-94496390D01*
X95735524Y-94496390D02*
X95687905Y-94544009D01*
X95687905Y-94544009D02*
X95640286Y-94639247D01*
X102804905Y-46438819D02*
X102804905Y-45438819D01*
X102804905Y-45438819D02*
X103043000Y-45438819D01*
X103043000Y-45438819D02*
X103185857Y-45486438D01*
X103185857Y-45486438D02*
X103281095Y-45581676D01*
X103281095Y-45581676D02*
X103328714Y-45676914D01*
X103328714Y-45676914D02*
X103376333Y-45867390D01*
X103376333Y-45867390D02*
X103376333Y-46010247D01*
X103376333Y-46010247D02*
X103328714Y-46200723D01*
X103328714Y-46200723D02*
X103281095Y-46295961D01*
X103281095Y-46295961D02*
X103185857Y-46391200D01*
X103185857Y-46391200D02*
X103043000Y-46438819D01*
X103043000Y-46438819D02*
X102804905Y-46438819D01*
X104233476Y-45438819D02*
X104043000Y-45438819D01*
X104043000Y-45438819D02*
X103947762Y-45486438D01*
X103947762Y-45486438D02*
X103900143Y-45534057D01*
X103900143Y-45534057D02*
X103804905Y-45676914D01*
X103804905Y-45676914D02*
X103757286Y-45867390D01*
X103757286Y-45867390D02*
X103757286Y-46248342D01*
X103757286Y-46248342D02*
X103804905Y-46343580D01*
X103804905Y-46343580D02*
X103852524Y-46391200D01*
X103852524Y-46391200D02*
X103947762Y-46438819D01*
X103947762Y-46438819D02*
X104138238Y-46438819D01*
X104138238Y-46438819D02*
X104233476Y-46391200D01*
X104233476Y-46391200D02*
X104281095Y-46343580D01*
X104281095Y-46343580D02*
X104328714Y-46248342D01*
X104328714Y-46248342D02*
X104328714Y-46010247D01*
X104328714Y-46010247D02*
X104281095Y-45915009D01*
X104281095Y-45915009D02*
X104233476Y-45867390D01*
X104233476Y-45867390D02*
X104138238Y-45819771D01*
X104138238Y-45819771D02*
X103947762Y-45819771D01*
X103947762Y-45819771D02*
X103852524Y-45867390D01*
X103852524Y-45867390D02*
X103804905Y-45915009D01*
X103804905Y-45915009D02*
X103757286Y-46010247D01*
X79997180Y-117055095D02*
X79997180Y-117626523D01*
X78997180Y-117340809D02*
X79997180Y-117340809D01*
X78997180Y-118531285D02*
X79473371Y-118197952D01*
X78997180Y-117959857D02*
X79997180Y-117959857D01*
X79997180Y-117959857D02*
X79997180Y-118340809D01*
X79997180Y-118340809D02*
X79949561Y-118436047D01*
X79949561Y-118436047D02*
X79901942Y-118483666D01*
X79901942Y-118483666D02*
X79806704Y-118531285D01*
X79806704Y-118531285D02*
X79663847Y-118531285D01*
X79663847Y-118531285D02*
X79568609Y-118483666D01*
X79568609Y-118483666D02*
X79520990Y-118436047D01*
X79520990Y-118436047D02*
X79473371Y-118340809D01*
X79473371Y-118340809D02*
X79473371Y-117959857D01*
X78997180Y-119483666D02*
X78997180Y-118912238D01*
X78997180Y-119197952D02*
X79997180Y-119197952D01*
X79997180Y-119197952D02*
X79854323Y-119102714D01*
X79854323Y-119102714D02*
X79759085Y-119007476D01*
X79759085Y-119007476D02*
X79711466Y-118912238D01*
X35645666Y-70807009D02*
X35312333Y-70807009D01*
X35312333Y-71330819D02*
X35312333Y-70330819D01*
X35312333Y-70330819D02*
X35788523Y-70330819D01*
X36693285Y-71330819D02*
X36121857Y-71330819D01*
X36407571Y-71330819D02*
X36407571Y-70330819D01*
X36407571Y-70330819D02*
X36312333Y-70473676D01*
X36312333Y-70473676D02*
X36217095Y-70568914D01*
X36217095Y-70568914D02*
X36121857Y-70616533D01*
X102544580Y-105203857D02*
X102592200Y-105251476D01*
X102592200Y-105251476D02*
X102639819Y-105394333D01*
X102639819Y-105394333D02*
X102639819Y-105489571D01*
X102639819Y-105489571D02*
X102592200Y-105632428D01*
X102592200Y-105632428D02*
X102496961Y-105727666D01*
X102496961Y-105727666D02*
X102401723Y-105775285D01*
X102401723Y-105775285D02*
X102211247Y-105822904D01*
X102211247Y-105822904D02*
X102068390Y-105822904D01*
X102068390Y-105822904D02*
X101877914Y-105775285D01*
X101877914Y-105775285D02*
X101782676Y-105727666D01*
X101782676Y-105727666D02*
X101687438Y-105632428D01*
X101687438Y-105632428D02*
X101639819Y-105489571D01*
X101639819Y-105489571D02*
X101639819Y-105394333D01*
X101639819Y-105394333D02*
X101687438Y-105251476D01*
X101687438Y-105251476D02*
X101735057Y-105203857D01*
X102639819Y-104251476D02*
X102639819Y-104822904D01*
X102639819Y-104537190D02*
X101639819Y-104537190D01*
X101639819Y-104537190D02*
X101782676Y-104632428D01*
X101782676Y-104632428D02*
X101877914Y-104727666D01*
X101877914Y-104727666D02*
X101925533Y-104822904D01*
X101639819Y-103918142D02*
X101639819Y-103251476D01*
X101639819Y-103251476D02*
X102639819Y-103680047D01*
X46559761Y-80220819D02*
X46226428Y-79744628D01*
X45988333Y-80220819D02*
X45988333Y-79220819D01*
X45988333Y-79220819D02*
X46369285Y-79220819D01*
X46369285Y-79220819D02*
X46464523Y-79268438D01*
X46464523Y-79268438D02*
X46512142Y-79316057D01*
X46512142Y-79316057D02*
X46559761Y-79411295D01*
X46559761Y-79411295D02*
X46559761Y-79554152D01*
X46559761Y-79554152D02*
X46512142Y-79649390D01*
X46512142Y-79649390D02*
X46464523Y-79697009D01*
X46464523Y-79697009D02*
X46369285Y-79744628D01*
X46369285Y-79744628D02*
X45988333Y-79744628D01*
X46845476Y-79220819D02*
X47178809Y-80220819D01*
X47178809Y-80220819D02*
X47512142Y-79220819D01*
X48369285Y-80220819D02*
X47797857Y-80220819D01*
X48083571Y-80220819D02*
X48083571Y-79220819D01*
X48083571Y-79220819D02*
X47988333Y-79363676D01*
X47988333Y-79363676D02*
X47893095Y-79458914D01*
X47893095Y-79458914D02*
X47797857Y-79506533D01*
X76544580Y-94727666D02*
X76592200Y-94775285D01*
X76592200Y-94775285D02*
X76639819Y-94918142D01*
X76639819Y-94918142D02*
X76639819Y-95013380D01*
X76639819Y-95013380D02*
X76592200Y-95156237D01*
X76592200Y-95156237D02*
X76496961Y-95251475D01*
X76496961Y-95251475D02*
X76401723Y-95299094D01*
X76401723Y-95299094D02*
X76211247Y-95346713D01*
X76211247Y-95346713D02*
X76068390Y-95346713D01*
X76068390Y-95346713D02*
X75877914Y-95299094D01*
X75877914Y-95299094D02*
X75782676Y-95251475D01*
X75782676Y-95251475D02*
X75687438Y-95156237D01*
X75687438Y-95156237D02*
X75639819Y-95013380D01*
X75639819Y-95013380D02*
X75639819Y-94918142D01*
X75639819Y-94918142D02*
X75687438Y-94775285D01*
X75687438Y-94775285D02*
X75735057Y-94727666D01*
X75735057Y-94346713D02*
X75687438Y-94299094D01*
X75687438Y-94299094D02*
X75639819Y-94203856D01*
X75639819Y-94203856D02*
X75639819Y-93965761D01*
X75639819Y-93965761D02*
X75687438Y-93870523D01*
X75687438Y-93870523D02*
X75735057Y-93822904D01*
X75735057Y-93822904D02*
X75830295Y-93775285D01*
X75830295Y-93775285D02*
X75925533Y-93775285D01*
X75925533Y-93775285D02*
X76068390Y-93822904D01*
X76068390Y-93822904D02*
X76639819Y-94394332D01*
X76639819Y-94394332D02*
X76639819Y-93775285D01*
X50520667Y-46137200D02*
X50663524Y-46184819D01*
X50663524Y-46184819D02*
X50901619Y-46184819D01*
X50901619Y-46184819D02*
X50996857Y-46137200D01*
X50996857Y-46137200D02*
X51044476Y-46089580D01*
X51044476Y-46089580D02*
X51092095Y-45994342D01*
X51092095Y-45994342D02*
X51092095Y-45899104D01*
X51092095Y-45899104D02*
X51044476Y-45803866D01*
X51044476Y-45803866D02*
X50996857Y-45756247D01*
X50996857Y-45756247D02*
X50901619Y-45708628D01*
X50901619Y-45708628D02*
X50711143Y-45661009D01*
X50711143Y-45661009D02*
X50615905Y-45613390D01*
X50615905Y-45613390D02*
X50568286Y-45565771D01*
X50568286Y-45565771D02*
X50520667Y-45470533D01*
X50520667Y-45470533D02*
X50520667Y-45375295D01*
X50520667Y-45375295D02*
X50568286Y-45280057D01*
X50568286Y-45280057D02*
X50615905Y-45232438D01*
X50615905Y-45232438D02*
X50711143Y-45184819D01*
X50711143Y-45184819D02*
X50949238Y-45184819D01*
X50949238Y-45184819D02*
X51092095Y-45232438D01*
X51425429Y-45184819D02*
X51663524Y-46184819D01*
X51663524Y-46184819D02*
X51854000Y-45470533D01*
X51854000Y-45470533D02*
X52044476Y-46184819D01*
X52044476Y-46184819D02*
X52282572Y-45184819D01*
X53187333Y-46184819D02*
X52615905Y-46184819D01*
X52901619Y-46184819D02*
X52901619Y-45184819D01*
X52901619Y-45184819D02*
X52806381Y-45327676D01*
X52806381Y-45327676D02*
X52711143Y-45422914D01*
X52711143Y-45422914D02*
X52615905Y-45470533D01*
X77406580Y-101727666D02*
X77454200Y-101775285D01*
X77454200Y-101775285D02*
X77501819Y-101918142D01*
X77501819Y-101918142D02*
X77501819Y-102013380D01*
X77501819Y-102013380D02*
X77454200Y-102156237D01*
X77454200Y-102156237D02*
X77358961Y-102251475D01*
X77358961Y-102251475D02*
X77263723Y-102299094D01*
X77263723Y-102299094D02*
X77073247Y-102346713D01*
X77073247Y-102346713D02*
X76930390Y-102346713D01*
X76930390Y-102346713D02*
X76739914Y-102299094D01*
X76739914Y-102299094D02*
X76644676Y-102251475D01*
X76644676Y-102251475D02*
X76549438Y-102156237D01*
X76549438Y-102156237D02*
X76501819Y-102013380D01*
X76501819Y-102013380D02*
X76501819Y-101918142D01*
X76501819Y-101918142D02*
X76549438Y-101775285D01*
X76549438Y-101775285D02*
X76597057Y-101727666D01*
X76835152Y-100870523D02*
X77501819Y-100870523D01*
X76454200Y-101108618D02*
X77168485Y-101346713D01*
X77168485Y-101346713D02*
X77168485Y-100727666D01*
X100865580Y-93816857D02*
X100913200Y-93864476D01*
X100913200Y-93864476D02*
X100960819Y-94007333D01*
X100960819Y-94007333D02*
X100960819Y-94102571D01*
X100960819Y-94102571D02*
X100913200Y-94245428D01*
X100913200Y-94245428D02*
X100817961Y-94340666D01*
X100817961Y-94340666D02*
X100722723Y-94388285D01*
X100722723Y-94388285D02*
X100532247Y-94435904D01*
X100532247Y-94435904D02*
X100389390Y-94435904D01*
X100389390Y-94435904D02*
X100198914Y-94388285D01*
X100198914Y-94388285D02*
X100103676Y-94340666D01*
X100103676Y-94340666D02*
X100008438Y-94245428D01*
X100008438Y-94245428D02*
X99960819Y-94102571D01*
X99960819Y-94102571D02*
X99960819Y-94007333D01*
X99960819Y-94007333D02*
X100008438Y-93864476D01*
X100008438Y-93864476D02*
X100056057Y-93816857D01*
X100960819Y-92864476D02*
X100960819Y-93435904D01*
X100960819Y-93150190D02*
X99960819Y-93150190D01*
X99960819Y-93150190D02*
X100103676Y-93245428D01*
X100103676Y-93245428D02*
X100198914Y-93340666D01*
X100198914Y-93340666D02*
X100246533Y-93435904D01*
X100056057Y-92483523D02*
X100008438Y-92435904D01*
X100008438Y-92435904D02*
X99960819Y-92340666D01*
X99960819Y-92340666D02*
X99960819Y-92102571D01*
X99960819Y-92102571D02*
X100008438Y-92007333D01*
X100008438Y-92007333D02*
X100056057Y-91959714D01*
X100056057Y-91959714D02*
X100151295Y-91912095D01*
X100151295Y-91912095D02*
X100246533Y-91912095D01*
X100246533Y-91912095D02*
X100389390Y-91959714D01*
X100389390Y-91959714D02*
X100960819Y-92531142D01*
X100960819Y-92531142D02*
X100960819Y-91912095D01*
X105544580Y-105203857D02*
X105592200Y-105251476D01*
X105592200Y-105251476D02*
X105639819Y-105394333D01*
X105639819Y-105394333D02*
X105639819Y-105489571D01*
X105639819Y-105489571D02*
X105592200Y-105632428D01*
X105592200Y-105632428D02*
X105496961Y-105727666D01*
X105496961Y-105727666D02*
X105401723Y-105775285D01*
X105401723Y-105775285D02*
X105211247Y-105822904D01*
X105211247Y-105822904D02*
X105068390Y-105822904D01*
X105068390Y-105822904D02*
X104877914Y-105775285D01*
X104877914Y-105775285D02*
X104782676Y-105727666D01*
X104782676Y-105727666D02*
X104687438Y-105632428D01*
X104687438Y-105632428D02*
X104639819Y-105489571D01*
X104639819Y-105489571D02*
X104639819Y-105394333D01*
X104639819Y-105394333D02*
X104687438Y-105251476D01*
X104687438Y-105251476D02*
X104735057Y-105203857D01*
X104735057Y-104822904D02*
X104687438Y-104775285D01*
X104687438Y-104775285D02*
X104639819Y-104680047D01*
X104639819Y-104680047D02*
X104639819Y-104441952D01*
X104639819Y-104441952D02*
X104687438Y-104346714D01*
X104687438Y-104346714D02*
X104735057Y-104299095D01*
X104735057Y-104299095D02*
X104830295Y-104251476D01*
X104830295Y-104251476D02*
X104925533Y-104251476D01*
X104925533Y-104251476D02*
X105068390Y-104299095D01*
X105068390Y-104299095D02*
X105639819Y-104870523D01*
X105639819Y-104870523D02*
X105639819Y-104251476D01*
X105639819Y-103299095D02*
X105639819Y-103870523D01*
X105639819Y-103584809D02*
X104639819Y-103584809D01*
X104639819Y-103584809D02*
X104782676Y-103680047D01*
X104782676Y-103680047D02*
X104877914Y-103775285D01*
X104877914Y-103775285D02*
X104925533Y-103870523D01*
X60542142Y-156120580D02*
X60494523Y-156168200D01*
X60494523Y-156168200D02*
X60351666Y-156215819D01*
X60351666Y-156215819D02*
X60256428Y-156215819D01*
X60256428Y-156215819D02*
X60113571Y-156168200D01*
X60113571Y-156168200D02*
X60018333Y-156072961D01*
X60018333Y-156072961D02*
X59970714Y-155977723D01*
X59970714Y-155977723D02*
X59923095Y-155787247D01*
X59923095Y-155787247D02*
X59923095Y-155644390D01*
X59923095Y-155644390D02*
X59970714Y-155453914D01*
X59970714Y-155453914D02*
X60018333Y-155358676D01*
X60018333Y-155358676D02*
X60113571Y-155263438D01*
X60113571Y-155263438D02*
X60256428Y-155215819D01*
X60256428Y-155215819D02*
X60351666Y-155215819D01*
X60351666Y-155215819D02*
X60494523Y-155263438D01*
X60494523Y-155263438D02*
X60542142Y-155311057D01*
X60923095Y-155311057D02*
X60970714Y-155263438D01*
X60970714Y-155263438D02*
X61065952Y-155215819D01*
X61065952Y-155215819D02*
X61304047Y-155215819D01*
X61304047Y-155215819D02*
X61399285Y-155263438D01*
X61399285Y-155263438D02*
X61446904Y-155311057D01*
X61446904Y-155311057D02*
X61494523Y-155406295D01*
X61494523Y-155406295D02*
X61494523Y-155501533D01*
X61494523Y-155501533D02*
X61446904Y-155644390D01*
X61446904Y-155644390D02*
X60875476Y-156215819D01*
X60875476Y-156215819D02*
X61494523Y-156215819D01*
X62065952Y-155644390D02*
X61970714Y-155596771D01*
X61970714Y-155596771D02*
X61923095Y-155549152D01*
X61923095Y-155549152D02*
X61875476Y-155453914D01*
X61875476Y-155453914D02*
X61875476Y-155406295D01*
X61875476Y-155406295D02*
X61923095Y-155311057D01*
X61923095Y-155311057D02*
X61970714Y-155263438D01*
X61970714Y-155263438D02*
X62065952Y-155215819D01*
X62065952Y-155215819D02*
X62256428Y-155215819D01*
X62256428Y-155215819D02*
X62351666Y-155263438D01*
X62351666Y-155263438D02*
X62399285Y-155311057D01*
X62399285Y-155311057D02*
X62446904Y-155406295D01*
X62446904Y-155406295D02*
X62446904Y-155453914D01*
X62446904Y-155453914D02*
X62399285Y-155549152D01*
X62399285Y-155549152D02*
X62351666Y-155596771D01*
X62351666Y-155596771D02*
X62256428Y-155644390D01*
X62256428Y-155644390D02*
X62065952Y-155644390D01*
X62065952Y-155644390D02*
X61970714Y-155692009D01*
X61970714Y-155692009D02*
X61923095Y-155739628D01*
X61923095Y-155739628D02*
X61875476Y-155834866D01*
X61875476Y-155834866D02*
X61875476Y-156025342D01*
X61875476Y-156025342D02*
X61923095Y-156120580D01*
X61923095Y-156120580D02*
X61970714Y-156168200D01*
X61970714Y-156168200D02*
X62065952Y-156215819D01*
X62065952Y-156215819D02*
X62256428Y-156215819D01*
X62256428Y-156215819D02*
X62351666Y-156168200D01*
X62351666Y-156168200D02*
X62399285Y-156120580D01*
X62399285Y-156120580D02*
X62446904Y-156025342D01*
X62446904Y-156025342D02*
X62446904Y-155834866D01*
X62446904Y-155834866D02*
X62399285Y-155739628D01*
X62399285Y-155739628D02*
X62351666Y-155692009D01*
X62351666Y-155692009D02*
X62256428Y-155644390D01*
X78044580Y-94703857D02*
X78092200Y-94751476D01*
X78092200Y-94751476D02*
X78139819Y-94894333D01*
X78139819Y-94894333D02*
X78139819Y-94989571D01*
X78139819Y-94989571D02*
X78092200Y-95132428D01*
X78092200Y-95132428D02*
X77996961Y-95227666D01*
X77996961Y-95227666D02*
X77901723Y-95275285D01*
X77901723Y-95275285D02*
X77711247Y-95322904D01*
X77711247Y-95322904D02*
X77568390Y-95322904D01*
X77568390Y-95322904D02*
X77377914Y-95275285D01*
X77377914Y-95275285D02*
X77282676Y-95227666D01*
X77282676Y-95227666D02*
X77187438Y-95132428D01*
X77187438Y-95132428D02*
X77139819Y-94989571D01*
X77139819Y-94989571D02*
X77139819Y-94894333D01*
X77139819Y-94894333D02*
X77187438Y-94751476D01*
X77187438Y-94751476D02*
X77235057Y-94703857D01*
X78139819Y-93751476D02*
X78139819Y-94322904D01*
X78139819Y-94037190D02*
X77139819Y-94037190D01*
X77139819Y-94037190D02*
X77282676Y-94132428D01*
X77282676Y-94132428D02*
X77377914Y-94227666D01*
X77377914Y-94227666D02*
X77425533Y-94322904D01*
X77139819Y-93132428D02*
X77139819Y-93037190D01*
X77139819Y-93037190D02*
X77187438Y-92941952D01*
X77187438Y-92941952D02*
X77235057Y-92894333D01*
X77235057Y-92894333D02*
X77330295Y-92846714D01*
X77330295Y-92846714D02*
X77520771Y-92799095D01*
X77520771Y-92799095D02*
X77758866Y-92799095D01*
X77758866Y-92799095D02*
X77949342Y-92846714D01*
X77949342Y-92846714D02*
X78044580Y-92894333D01*
X78044580Y-92894333D02*
X78092200Y-92941952D01*
X78092200Y-92941952D02*
X78139819Y-93037190D01*
X78139819Y-93037190D02*
X78139819Y-93132428D01*
X78139819Y-93132428D02*
X78092200Y-93227666D01*
X78092200Y-93227666D02*
X78044580Y-93275285D01*
X78044580Y-93275285D02*
X77949342Y-93322904D01*
X77949342Y-93322904D02*
X77758866Y-93370523D01*
X77758866Y-93370523D02*
X77520771Y-93370523D01*
X77520771Y-93370523D02*
X77330295Y-93322904D01*
X77330295Y-93322904D02*
X77235057Y-93275285D01*
X77235057Y-93275285D02*
X77187438Y-93227666D01*
X77187438Y-93227666D02*
X77139819Y-93132428D01*
X91942142Y-148720580D02*
X91894523Y-148768200D01*
X91894523Y-148768200D02*
X91751666Y-148815819D01*
X91751666Y-148815819D02*
X91656428Y-148815819D01*
X91656428Y-148815819D02*
X91513571Y-148768200D01*
X91513571Y-148768200D02*
X91418333Y-148672961D01*
X91418333Y-148672961D02*
X91370714Y-148577723D01*
X91370714Y-148577723D02*
X91323095Y-148387247D01*
X91323095Y-148387247D02*
X91323095Y-148244390D01*
X91323095Y-148244390D02*
X91370714Y-148053914D01*
X91370714Y-148053914D02*
X91418333Y-147958676D01*
X91418333Y-147958676D02*
X91513571Y-147863438D01*
X91513571Y-147863438D02*
X91656428Y-147815819D01*
X91656428Y-147815819D02*
X91751666Y-147815819D01*
X91751666Y-147815819D02*
X91894523Y-147863438D01*
X91894523Y-147863438D02*
X91942142Y-147911057D01*
X92323095Y-147911057D02*
X92370714Y-147863438D01*
X92370714Y-147863438D02*
X92465952Y-147815819D01*
X92465952Y-147815819D02*
X92704047Y-147815819D01*
X92704047Y-147815819D02*
X92799285Y-147863438D01*
X92799285Y-147863438D02*
X92846904Y-147911057D01*
X92846904Y-147911057D02*
X92894523Y-148006295D01*
X92894523Y-148006295D02*
X92894523Y-148101533D01*
X92894523Y-148101533D02*
X92846904Y-148244390D01*
X92846904Y-148244390D02*
X92275476Y-148815819D01*
X92275476Y-148815819D02*
X92894523Y-148815819D01*
X93799285Y-147815819D02*
X93323095Y-147815819D01*
X93323095Y-147815819D02*
X93275476Y-148292009D01*
X93275476Y-148292009D02*
X93323095Y-148244390D01*
X93323095Y-148244390D02*
X93418333Y-148196771D01*
X93418333Y-148196771D02*
X93656428Y-148196771D01*
X93656428Y-148196771D02*
X93751666Y-148244390D01*
X93751666Y-148244390D02*
X93799285Y-148292009D01*
X93799285Y-148292009D02*
X93846904Y-148387247D01*
X93846904Y-148387247D02*
X93846904Y-148625342D01*
X93846904Y-148625342D02*
X93799285Y-148720580D01*
X93799285Y-148720580D02*
X93751666Y-148768200D01*
X93751666Y-148768200D02*
X93656428Y-148815819D01*
X93656428Y-148815819D02*
X93418333Y-148815819D01*
X93418333Y-148815819D02*
X93323095Y-148768200D01*
X93323095Y-148768200D02*
X93275476Y-148720580D01*
X54608333Y-70092580D02*
X54560714Y-70140200D01*
X54560714Y-70140200D02*
X54417857Y-70187819D01*
X54417857Y-70187819D02*
X54322619Y-70187819D01*
X54322619Y-70187819D02*
X54179762Y-70140200D01*
X54179762Y-70140200D02*
X54084524Y-70044961D01*
X54084524Y-70044961D02*
X54036905Y-69949723D01*
X54036905Y-69949723D02*
X53989286Y-69759247D01*
X53989286Y-69759247D02*
X53989286Y-69616390D01*
X53989286Y-69616390D02*
X54036905Y-69425914D01*
X54036905Y-69425914D02*
X54084524Y-69330676D01*
X54084524Y-69330676D02*
X54179762Y-69235438D01*
X54179762Y-69235438D02*
X54322619Y-69187819D01*
X54322619Y-69187819D02*
X54417857Y-69187819D01*
X54417857Y-69187819D02*
X54560714Y-69235438D01*
X54560714Y-69235438D02*
X54608333Y-69283057D01*
X54941667Y-69187819D02*
X55608333Y-69187819D01*
X55608333Y-69187819D02*
X55179762Y-70187819D01*
X62018333Y-101015819D02*
X61685000Y-100539628D01*
X61446905Y-101015819D02*
X61446905Y-100015819D01*
X61446905Y-100015819D02*
X61827857Y-100015819D01*
X61827857Y-100015819D02*
X61923095Y-100063438D01*
X61923095Y-100063438D02*
X61970714Y-100111057D01*
X61970714Y-100111057D02*
X62018333Y-100206295D01*
X62018333Y-100206295D02*
X62018333Y-100349152D01*
X62018333Y-100349152D02*
X61970714Y-100444390D01*
X61970714Y-100444390D02*
X61923095Y-100492009D01*
X61923095Y-100492009D02*
X61827857Y-100539628D01*
X61827857Y-100539628D02*
X61446905Y-100539628D01*
X62351667Y-100015819D02*
X62970714Y-100015819D01*
X62970714Y-100015819D02*
X62637381Y-100396771D01*
X62637381Y-100396771D02*
X62780238Y-100396771D01*
X62780238Y-100396771D02*
X62875476Y-100444390D01*
X62875476Y-100444390D02*
X62923095Y-100492009D01*
X62923095Y-100492009D02*
X62970714Y-100587247D01*
X62970714Y-100587247D02*
X62970714Y-100825342D01*
X62970714Y-100825342D02*
X62923095Y-100920580D01*
X62923095Y-100920580D02*
X62875476Y-100968200D01*
X62875476Y-100968200D02*
X62780238Y-101015819D01*
X62780238Y-101015819D02*
X62494524Y-101015819D01*
X62494524Y-101015819D02*
X62399286Y-100968200D01*
X62399286Y-100968200D02*
X62351667Y-100920580D01*
X62018333Y-102515819D02*
X61685000Y-102039628D01*
X61446905Y-102515819D02*
X61446905Y-101515819D01*
X61446905Y-101515819D02*
X61827857Y-101515819D01*
X61827857Y-101515819D02*
X61923095Y-101563438D01*
X61923095Y-101563438D02*
X61970714Y-101611057D01*
X61970714Y-101611057D02*
X62018333Y-101706295D01*
X62018333Y-101706295D02*
X62018333Y-101849152D01*
X62018333Y-101849152D02*
X61970714Y-101944390D01*
X61970714Y-101944390D02*
X61923095Y-101992009D01*
X61923095Y-101992009D02*
X61827857Y-102039628D01*
X61827857Y-102039628D02*
X61446905Y-102039628D01*
X62399286Y-101611057D02*
X62446905Y-101563438D01*
X62446905Y-101563438D02*
X62542143Y-101515819D01*
X62542143Y-101515819D02*
X62780238Y-101515819D01*
X62780238Y-101515819D02*
X62875476Y-101563438D01*
X62875476Y-101563438D02*
X62923095Y-101611057D01*
X62923095Y-101611057D02*
X62970714Y-101706295D01*
X62970714Y-101706295D02*
X62970714Y-101801533D01*
X62970714Y-101801533D02*
X62923095Y-101944390D01*
X62923095Y-101944390D02*
X62351667Y-102515819D01*
X62351667Y-102515819D02*
X62970714Y-102515819D01*
X73474580Y-104377666D02*
X73522200Y-104425285D01*
X73522200Y-104425285D02*
X73569819Y-104568142D01*
X73569819Y-104568142D02*
X73569819Y-104663380D01*
X73569819Y-104663380D02*
X73522200Y-104806237D01*
X73522200Y-104806237D02*
X73426961Y-104901475D01*
X73426961Y-104901475D02*
X73331723Y-104949094D01*
X73331723Y-104949094D02*
X73141247Y-104996713D01*
X73141247Y-104996713D02*
X72998390Y-104996713D01*
X72998390Y-104996713D02*
X72807914Y-104949094D01*
X72807914Y-104949094D02*
X72712676Y-104901475D01*
X72712676Y-104901475D02*
X72617438Y-104806237D01*
X72617438Y-104806237D02*
X72569819Y-104663380D01*
X72569819Y-104663380D02*
X72569819Y-104568142D01*
X72569819Y-104568142D02*
X72617438Y-104425285D01*
X72617438Y-104425285D02*
X72665057Y-104377666D01*
X72569819Y-103472904D02*
X72569819Y-103949094D01*
X72569819Y-103949094D02*
X73046009Y-103996713D01*
X73046009Y-103996713D02*
X72998390Y-103949094D01*
X72998390Y-103949094D02*
X72950771Y-103853856D01*
X72950771Y-103853856D02*
X72950771Y-103615761D01*
X72950771Y-103615761D02*
X72998390Y-103520523D01*
X72998390Y-103520523D02*
X73046009Y-103472904D01*
X73046009Y-103472904D02*
X73141247Y-103425285D01*
X73141247Y-103425285D02*
X73379342Y-103425285D01*
X73379342Y-103425285D02*
X73474580Y-103472904D01*
X73474580Y-103472904D02*
X73522200Y-103520523D01*
X73522200Y-103520523D02*
X73569819Y-103615761D01*
X73569819Y-103615761D02*
X73569819Y-103853856D01*
X73569819Y-103853856D02*
X73522200Y-103949094D01*
X73522200Y-103949094D02*
X73474580Y-103996713D01*
X66946905Y-101515819D02*
X66946905Y-100515819D01*
X66946905Y-100515819D02*
X67185000Y-100515819D01*
X67185000Y-100515819D02*
X67327857Y-100563438D01*
X67327857Y-100563438D02*
X67423095Y-100658676D01*
X67423095Y-100658676D02*
X67470714Y-100753914D01*
X67470714Y-100753914D02*
X67518333Y-100944390D01*
X67518333Y-100944390D02*
X67518333Y-101087247D01*
X67518333Y-101087247D02*
X67470714Y-101277723D01*
X67470714Y-101277723D02*
X67423095Y-101372961D01*
X67423095Y-101372961D02*
X67327857Y-101468200D01*
X67327857Y-101468200D02*
X67185000Y-101515819D01*
X67185000Y-101515819D02*
X66946905Y-101515819D01*
X68375476Y-100849152D02*
X68375476Y-101515819D01*
X68137381Y-100468200D02*
X67899286Y-101182485D01*
X67899286Y-101182485D02*
X68518333Y-101182485D01*
X109328601Y-134620580D02*
X109280982Y-134668200D01*
X109280982Y-134668200D02*
X109138125Y-134715819D01*
X109138125Y-134715819D02*
X109042887Y-134715819D01*
X109042887Y-134715819D02*
X108900030Y-134668200D01*
X108900030Y-134668200D02*
X108804792Y-134572961D01*
X108804792Y-134572961D02*
X108757173Y-134477723D01*
X108757173Y-134477723D02*
X108709554Y-134287247D01*
X108709554Y-134287247D02*
X108709554Y-134144390D01*
X108709554Y-134144390D02*
X108757173Y-133953914D01*
X108757173Y-133953914D02*
X108804792Y-133858676D01*
X108804792Y-133858676D02*
X108900030Y-133763438D01*
X108900030Y-133763438D02*
X109042887Y-133715819D01*
X109042887Y-133715819D02*
X109138125Y-133715819D01*
X109138125Y-133715819D02*
X109280982Y-133763438D01*
X109280982Y-133763438D02*
X109328601Y-133811057D01*
X109709554Y-133811057D02*
X109757173Y-133763438D01*
X109757173Y-133763438D02*
X109852411Y-133715819D01*
X109852411Y-133715819D02*
X110090506Y-133715819D01*
X110090506Y-133715819D02*
X110185744Y-133763438D01*
X110185744Y-133763438D02*
X110233363Y-133811057D01*
X110233363Y-133811057D02*
X110280982Y-133906295D01*
X110280982Y-133906295D02*
X110280982Y-134001533D01*
X110280982Y-134001533D02*
X110233363Y-134144390D01*
X110233363Y-134144390D02*
X109661935Y-134715819D01*
X109661935Y-134715819D02*
X110280982Y-134715819D01*
X111138125Y-134049152D02*
X111138125Y-134715819D01*
X110900030Y-133668200D02*
X110661935Y-134382485D01*
X110661935Y-134382485D02*
X111280982Y-134382485D01*
X48518333Y-88515819D02*
X48185000Y-88039628D01*
X47946905Y-88515819D02*
X47946905Y-87515819D01*
X47946905Y-87515819D02*
X48327857Y-87515819D01*
X48327857Y-87515819D02*
X48423095Y-87563438D01*
X48423095Y-87563438D02*
X48470714Y-87611057D01*
X48470714Y-87611057D02*
X48518333Y-87706295D01*
X48518333Y-87706295D02*
X48518333Y-87849152D01*
X48518333Y-87849152D02*
X48470714Y-87944390D01*
X48470714Y-87944390D02*
X48423095Y-87992009D01*
X48423095Y-87992009D02*
X48327857Y-88039628D01*
X48327857Y-88039628D02*
X47946905Y-88039628D01*
X49423095Y-87515819D02*
X48946905Y-87515819D01*
X48946905Y-87515819D02*
X48899286Y-87992009D01*
X48899286Y-87992009D02*
X48946905Y-87944390D01*
X48946905Y-87944390D02*
X49042143Y-87896771D01*
X49042143Y-87896771D02*
X49280238Y-87896771D01*
X49280238Y-87896771D02*
X49375476Y-87944390D01*
X49375476Y-87944390D02*
X49423095Y-87992009D01*
X49423095Y-87992009D02*
X49470714Y-88087247D01*
X49470714Y-88087247D02*
X49470714Y-88325342D01*
X49470714Y-88325342D02*
X49423095Y-88420580D01*
X49423095Y-88420580D02*
X49375476Y-88468200D01*
X49375476Y-88468200D02*
X49280238Y-88515819D01*
X49280238Y-88515819D02*
X49042143Y-88515819D01*
X49042143Y-88515819D02*
X48946905Y-88468200D01*
X48946905Y-88468200D02*
X48899286Y-88420580D01*
X66966905Y-101840819D02*
X66966905Y-100840819D01*
X66966905Y-100840819D02*
X67205000Y-100840819D01*
X67205000Y-100840819D02*
X67347857Y-100888438D01*
X67347857Y-100888438D02*
X67443095Y-100983676D01*
X67443095Y-100983676D02*
X67490714Y-101078914D01*
X67490714Y-101078914D02*
X67538333Y-101269390D01*
X67538333Y-101269390D02*
X67538333Y-101412247D01*
X67538333Y-101412247D02*
X67490714Y-101602723D01*
X67490714Y-101602723D02*
X67443095Y-101697961D01*
X67443095Y-101697961D02*
X67347857Y-101793200D01*
X67347857Y-101793200D02*
X67205000Y-101840819D01*
X67205000Y-101840819D02*
X66966905Y-101840819D01*
X67871667Y-100840819D02*
X68490714Y-100840819D01*
X68490714Y-100840819D02*
X68157381Y-101221771D01*
X68157381Y-101221771D02*
X68300238Y-101221771D01*
X68300238Y-101221771D02*
X68395476Y-101269390D01*
X68395476Y-101269390D02*
X68443095Y-101317009D01*
X68443095Y-101317009D02*
X68490714Y-101412247D01*
X68490714Y-101412247D02*
X68490714Y-101650342D01*
X68490714Y-101650342D02*
X68443095Y-101745580D01*
X68443095Y-101745580D02*
X68395476Y-101793200D01*
X68395476Y-101793200D02*
X68300238Y-101840819D01*
X68300238Y-101840819D02*
X68014524Y-101840819D01*
X68014524Y-101840819D02*
X67919286Y-101793200D01*
X67919286Y-101793200D02*
X67871667Y-101745580D01*
X86059095Y-112015819D02*
X86059095Y-112825342D01*
X86059095Y-112825342D02*
X86106714Y-112920580D01*
X86106714Y-112920580D02*
X86154333Y-112968200D01*
X86154333Y-112968200D02*
X86249571Y-113015819D01*
X86249571Y-113015819D02*
X86440047Y-113015819D01*
X86440047Y-113015819D02*
X86535285Y-112968200D01*
X86535285Y-112968200D02*
X86582904Y-112920580D01*
X86582904Y-112920580D02*
X86630523Y-112825342D01*
X86630523Y-112825342D02*
X86630523Y-112015819D01*
X87059095Y-112111057D02*
X87106714Y-112063438D01*
X87106714Y-112063438D02*
X87201952Y-112015819D01*
X87201952Y-112015819D02*
X87440047Y-112015819D01*
X87440047Y-112015819D02*
X87535285Y-112063438D01*
X87535285Y-112063438D02*
X87582904Y-112111057D01*
X87582904Y-112111057D02*
X87630523Y-112206295D01*
X87630523Y-112206295D02*
X87630523Y-112301533D01*
X87630523Y-112301533D02*
X87582904Y-112444390D01*
X87582904Y-112444390D02*
X87011476Y-113015819D01*
X87011476Y-113015819D02*
X87630523Y-113015819D01*
X83596142Y-69457580D02*
X83548523Y-69505200D01*
X83548523Y-69505200D02*
X83405666Y-69552819D01*
X83405666Y-69552819D02*
X83310428Y-69552819D01*
X83310428Y-69552819D02*
X83167571Y-69505200D01*
X83167571Y-69505200D02*
X83072333Y-69409961D01*
X83072333Y-69409961D02*
X83024714Y-69314723D01*
X83024714Y-69314723D02*
X82977095Y-69124247D01*
X82977095Y-69124247D02*
X82977095Y-68981390D01*
X82977095Y-68981390D02*
X83024714Y-68790914D01*
X83024714Y-68790914D02*
X83072333Y-68695676D01*
X83072333Y-68695676D02*
X83167571Y-68600438D01*
X83167571Y-68600438D02*
X83310428Y-68552819D01*
X83310428Y-68552819D02*
X83405666Y-68552819D01*
X83405666Y-68552819D02*
X83548523Y-68600438D01*
X83548523Y-68600438D02*
X83596142Y-68648057D01*
X84548523Y-69552819D02*
X83977095Y-69552819D01*
X84262809Y-69552819D02*
X84262809Y-68552819D01*
X84262809Y-68552819D02*
X84167571Y-68695676D01*
X84167571Y-68695676D02*
X84072333Y-68790914D01*
X84072333Y-68790914D02*
X83977095Y-68838533D01*
X85500904Y-69552819D02*
X84929476Y-69552819D01*
X85215190Y-69552819D02*
X85215190Y-68552819D01*
X85215190Y-68552819D02*
X85119952Y-68695676D01*
X85119952Y-68695676D02*
X85024714Y-68790914D01*
X85024714Y-68790914D02*
X84929476Y-68838533D01*
X89144580Y-141003857D02*
X89192200Y-141051476D01*
X89192200Y-141051476D02*
X89239819Y-141194333D01*
X89239819Y-141194333D02*
X89239819Y-141289571D01*
X89239819Y-141289571D02*
X89192200Y-141432428D01*
X89192200Y-141432428D02*
X89096961Y-141527666D01*
X89096961Y-141527666D02*
X89001723Y-141575285D01*
X89001723Y-141575285D02*
X88811247Y-141622904D01*
X88811247Y-141622904D02*
X88668390Y-141622904D01*
X88668390Y-141622904D02*
X88477914Y-141575285D01*
X88477914Y-141575285D02*
X88382676Y-141527666D01*
X88382676Y-141527666D02*
X88287438Y-141432428D01*
X88287438Y-141432428D02*
X88239819Y-141289571D01*
X88239819Y-141289571D02*
X88239819Y-141194333D01*
X88239819Y-141194333D02*
X88287438Y-141051476D01*
X88287438Y-141051476D02*
X88335057Y-141003857D01*
X88335057Y-140622904D02*
X88287438Y-140575285D01*
X88287438Y-140575285D02*
X88239819Y-140480047D01*
X88239819Y-140480047D02*
X88239819Y-140241952D01*
X88239819Y-140241952D02*
X88287438Y-140146714D01*
X88287438Y-140146714D02*
X88335057Y-140099095D01*
X88335057Y-140099095D02*
X88430295Y-140051476D01*
X88430295Y-140051476D02*
X88525533Y-140051476D01*
X88525533Y-140051476D02*
X88668390Y-140099095D01*
X88668390Y-140099095D02*
X89239819Y-140670523D01*
X89239819Y-140670523D02*
X89239819Y-140051476D01*
X88239819Y-139718142D02*
X88239819Y-139051476D01*
X88239819Y-139051476D02*
X89239819Y-139480047D01*
X63446905Y-102515819D02*
X63446905Y-101515819D01*
X63446905Y-101515819D02*
X63685000Y-101515819D01*
X63685000Y-101515819D02*
X63827857Y-101563438D01*
X63827857Y-101563438D02*
X63923095Y-101658676D01*
X63923095Y-101658676D02*
X63970714Y-101753914D01*
X63970714Y-101753914D02*
X64018333Y-101944390D01*
X64018333Y-101944390D02*
X64018333Y-102087247D01*
X64018333Y-102087247D02*
X63970714Y-102277723D01*
X63970714Y-102277723D02*
X63923095Y-102372961D01*
X63923095Y-102372961D02*
X63827857Y-102468200D01*
X63827857Y-102468200D02*
X63685000Y-102515819D01*
X63685000Y-102515819D02*
X63446905Y-102515819D01*
X64399286Y-101611057D02*
X64446905Y-101563438D01*
X64446905Y-101563438D02*
X64542143Y-101515819D01*
X64542143Y-101515819D02*
X64780238Y-101515819D01*
X64780238Y-101515819D02*
X64875476Y-101563438D01*
X64875476Y-101563438D02*
X64923095Y-101611057D01*
X64923095Y-101611057D02*
X64970714Y-101706295D01*
X64970714Y-101706295D02*
X64970714Y-101801533D01*
X64970714Y-101801533D02*
X64923095Y-101944390D01*
X64923095Y-101944390D02*
X64351667Y-102515819D01*
X64351667Y-102515819D02*
X64970714Y-102515819D01*
X75402334Y-111970579D02*
X75354715Y-112018199D01*
X75354715Y-112018199D02*
X75211858Y-112065818D01*
X75211858Y-112065818D02*
X75116620Y-112065818D01*
X75116620Y-112065818D02*
X74973763Y-112018199D01*
X74973763Y-112018199D02*
X74878525Y-111922960D01*
X74878525Y-111922960D02*
X74830906Y-111827722D01*
X74830906Y-111827722D02*
X74783287Y-111637246D01*
X74783287Y-111637246D02*
X74783287Y-111494389D01*
X74783287Y-111494389D02*
X74830906Y-111303913D01*
X74830906Y-111303913D02*
X74878525Y-111208675D01*
X74878525Y-111208675D02*
X74973763Y-111113437D01*
X74973763Y-111113437D02*
X75116620Y-111065818D01*
X75116620Y-111065818D02*
X75211858Y-111065818D01*
X75211858Y-111065818D02*
X75354715Y-111113437D01*
X75354715Y-111113437D02*
X75402334Y-111161056D01*
X76259477Y-111065818D02*
X76069001Y-111065818D01*
X76069001Y-111065818D02*
X75973763Y-111113437D01*
X75973763Y-111113437D02*
X75926144Y-111161056D01*
X75926144Y-111161056D02*
X75830906Y-111303913D01*
X75830906Y-111303913D02*
X75783287Y-111494389D01*
X75783287Y-111494389D02*
X75783287Y-111875341D01*
X75783287Y-111875341D02*
X75830906Y-111970579D01*
X75830906Y-111970579D02*
X75878525Y-112018199D01*
X75878525Y-112018199D02*
X75973763Y-112065818D01*
X75973763Y-112065818D02*
X76164239Y-112065818D01*
X76164239Y-112065818D02*
X76259477Y-112018199D01*
X76259477Y-112018199D02*
X76307096Y-111970579D01*
X76307096Y-111970579D02*
X76354715Y-111875341D01*
X76354715Y-111875341D02*
X76354715Y-111637246D01*
X76354715Y-111637246D02*
X76307096Y-111542008D01*
X76307096Y-111542008D02*
X76259477Y-111494389D01*
X76259477Y-111494389D02*
X76164239Y-111446770D01*
X76164239Y-111446770D02*
X75973763Y-111446770D01*
X75973763Y-111446770D02*
X75878525Y-111494389D01*
X75878525Y-111494389D02*
X75830906Y-111542008D01*
X75830906Y-111542008D02*
X75783287Y-111637246D01*
X61418142Y-106515819D02*
X61084809Y-106039628D01*
X60846714Y-106515819D02*
X60846714Y-105515819D01*
X60846714Y-105515819D02*
X61227666Y-105515819D01*
X61227666Y-105515819D02*
X61322904Y-105563438D01*
X61322904Y-105563438D02*
X61370523Y-105611057D01*
X61370523Y-105611057D02*
X61418142Y-105706295D01*
X61418142Y-105706295D02*
X61418142Y-105849152D01*
X61418142Y-105849152D02*
X61370523Y-105944390D01*
X61370523Y-105944390D02*
X61322904Y-105992009D01*
X61322904Y-105992009D02*
X61227666Y-106039628D01*
X61227666Y-106039628D02*
X60846714Y-106039628D01*
X61799095Y-105611057D02*
X61846714Y-105563438D01*
X61846714Y-105563438D02*
X61941952Y-105515819D01*
X61941952Y-105515819D02*
X62180047Y-105515819D01*
X62180047Y-105515819D02*
X62275285Y-105563438D01*
X62275285Y-105563438D02*
X62322904Y-105611057D01*
X62322904Y-105611057D02*
X62370523Y-105706295D01*
X62370523Y-105706295D02*
X62370523Y-105801533D01*
X62370523Y-105801533D02*
X62322904Y-105944390D01*
X62322904Y-105944390D02*
X61751476Y-106515819D01*
X61751476Y-106515819D02*
X62370523Y-106515819D01*
X62989571Y-105515819D02*
X63084809Y-105515819D01*
X63084809Y-105515819D02*
X63180047Y-105563438D01*
X63180047Y-105563438D02*
X63227666Y-105611057D01*
X63227666Y-105611057D02*
X63275285Y-105706295D01*
X63275285Y-105706295D02*
X63322904Y-105896771D01*
X63322904Y-105896771D02*
X63322904Y-106134866D01*
X63322904Y-106134866D02*
X63275285Y-106325342D01*
X63275285Y-106325342D02*
X63227666Y-106420580D01*
X63227666Y-106420580D02*
X63180047Y-106468200D01*
X63180047Y-106468200D02*
X63084809Y-106515819D01*
X63084809Y-106515819D02*
X62989571Y-106515819D01*
X62989571Y-106515819D02*
X62894333Y-106468200D01*
X62894333Y-106468200D02*
X62846714Y-106420580D01*
X62846714Y-106420580D02*
X62799095Y-106325342D01*
X62799095Y-106325342D02*
X62751476Y-106134866D01*
X62751476Y-106134866D02*
X62751476Y-105896771D01*
X62751476Y-105896771D02*
X62799095Y-105706295D01*
X62799095Y-105706295D02*
X62846714Y-105611057D01*
X62846714Y-105611057D02*
X62894333Y-105563438D01*
X62894333Y-105563438D02*
X62989571Y-105515819D01*
X94942142Y-116107039D02*
X94894523Y-116154659D01*
X94894523Y-116154659D02*
X94751666Y-116202278D01*
X94751666Y-116202278D02*
X94656428Y-116202278D01*
X94656428Y-116202278D02*
X94513571Y-116154659D01*
X94513571Y-116154659D02*
X94418333Y-116059420D01*
X94418333Y-116059420D02*
X94370714Y-115964182D01*
X94370714Y-115964182D02*
X94323095Y-115773706D01*
X94323095Y-115773706D02*
X94323095Y-115630849D01*
X94323095Y-115630849D02*
X94370714Y-115440373D01*
X94370714Y-115440373D02*
X94418333Y-115345135D01*
X94418333Y-115345135D02*
X94513571Y-115249897D01*
X94513571Y-115249897D02*
X94656428Y-115202278D01*
X94656428Y-115202278D02*
X94751666Y-115202278D01*
X94751666Y-115202278D02*
X94894523Y-115249897D01*
X94894523Y-115249897D02*
X94942142Y-115297516D01*
X95323095Y-115297516D02*
X95370714Y-115249897D01*
X95370714Y-115249897D02*
X95465952Y-115202278D01*
X95465952Y-115202278D02*
X95704047Y-115202278D01*
X95704047Y-115202278D02*
X95799285Y-115249897D01*
X95799285Y-115249897D02*
X95846904Y-115297516D01*
X95846904Y-115297516D02*
X95894523Y-115392754D01*
X95894523Y-115392754D02*
X95894523Y-115487992D01*
X95894523Y-115487992D02*
X95846904Y-115630849D01*
X95846904Y-115630849D02*
X95275476Y-116202278D01*
X95275476Y-116202278D02*
X95894523Y-116202278D01*
X96227857Y-115202278D02*
X96846904Y-115202278D01*
X96846904Y-115202278D02*
X96513571Y-115583230D01*
X96513571Y-115583230D02*
X96656428Y-115583230D01*
X96656428Y-115583230D02*
X96751666Y-115630849D01*
X96751666Y-115630849D02*
X96799285Y-115678468D01*
X96799285Y-115678468D02*
X96846904Y-115773706D01*
X96846904Y-115773706D02*
X96846904Y-116011801D01*
X96846904Y-116011801D02*
X96799285Y-116107039D01*
X96799285Y-116107039D02*
X96751666Y-116154659D01*
X96751666Y-116154659D02*
X96656428Y-116202278D01*
X96656428Y-116202278D02*
X96370714Y-116202278D01*
X96370714Y-116202278D02*
X96275476Y-116154659D01*
X96275476Y-116154659D02*
X96227857Y-116107039D01*
X94508095Y-105135819D02*
X94508095Y-105945342D01*
X94508095Y-105945342D02*
X94555714Y-106040580D01*
X94555714Y-106040580D02*
X94603333Y-106088200D01*
X94603333Y-106088200D02*
X94698571Y-106135819D01*
X94698571Y-106135819D02*
X94889047Y-106135819D01*
X94889047Y-106135819D02*
X94984285Y-106088200D01*
X94984285Y-106088200D02*
X95031904Y-106040580D01*
X95031904Y-106040580D02*
X95079523Y-105945342D01*
X95079523Y-105945342D02*
X95079523Y-105135819D01*
X95460476Y-105135819D02*
X96079523Y-105135819D01*
X96079523Y-105135819D02*
X95746190Y-105516771D01*
X95746190Y-105516771D02*
X95889047Y-105516771D01*
X95889047Y-105516771D02*
X95984285Y-105564390D01*
X95984285Y-105564390D02*
X96031904Y-105612009D01*
X96031904Y-105612009D02*
X96079523Y-105707247D01*
X96079523Y-105707247D02*
X96079523Y-105945342D01*
X96079523Y-105945342D02*
X96031904Y-106040580D01*
X96031904Y-106040580D02*
X95984285Y-106088200D01*
X95984285Y-106088200D02*
X95889047Y-106135819D01*
X95889047Y-106135819D02*
X95603333Y-106135819D01*
X95603333Y-106135819D02*
X95508095Y-106088200D01*
X95508095Y-106088200D02*
X95460476Y-106040580D01*
X66736904Y-67378009D02*
X66403571Y-67378009D01*
X66403571Y-67901819D02*
X66403571Y-66901819D01*
X66403571Y-66901819D02*
X66879761Y-66901819D01*
X67736904Y-67901819D02*
X67260714Y-67901819D01*
X67260714Y-67901819D02*
X67260714Y-66901819D01*
X68594047Y-67901819D02*
X68022619Y-67901819D01*
X68308333Y-67901819D02*
X68308333Y-66901819D01*
X68308333Y-66901819D02*
X68213095Y-67044676D01*
X68213095Y-67044676D02*
X68117857Y-67139914D01*
X68117857Y-67139914D02*
X68022619Y-67187533D01*
X94881142Y-104135580D02*
X94833523Y-104183200D01*
X94833523Y-104183200D02*
X94690666Y-104230819D01*
X94690666Y-104230819D02*
X94595428Y-104230819D01*
X94595428Y-104230819D02*
X94452571Y-104183200D01*
X94452571Y-104183200D02*
X94357333Y-104087961D01*
X94357333Y-104087961D02*
X94309714Y-103992723D01*
X94309714Y-103992723D02*
X94262095Y-103802247D01*
X94262095Y-103802247D02*
X94262095Y-103659390D01*
X94262095Y-103659390D02*
X94309714Y-103468914D01*
X94309714Y-103468914D02*
X94357333Y-103373676D01*
X94357333Y-103373676D02*
X94452571Y-103278438D01*
X94452571Y-103278438D02*
X94595428Y-103230819D01*
X94595428Y-103230819D02*
X94690666Y-103230819D01*
X94690666Y-103230819D02*
X94833523Y-103278438D01*
X94833523Y-103278438D02*
X94881142Y-103326057D01*
X95833523Y-104230819D02*
X95262095Y-104230819D01*
X95547809Y-104230819D02*
X95547809Y-103230819D01*
X95547809Y-103230819D02*
X95452571Y-103373676D01*
X95452571Y-103373676D02*
X95357333Y-103468914D01*
X95357333Y-103468914D02*
X95262095Y-103516533D01*
X96690666Y-103564152D02*
X96690666Y-104230819D01*
X96452571Y-103183200D02*
X96214476Y-103897485D01*
X96214476Y-103897485D02*
X96833523Y-103897485D01*
X83259333Y-95067819D02*
X82926000Y-94591628D01*
X82687905Y-95067819D02*
X82687905Y-94067819D01*
X82687905Y-94067819D02*
X83068857Y-94067819D01*
X83068857Y-94067819D02*
X83164095Y-94115438D01*
X83164095Y-94115438D02*
X83211714Y-94163057D01*
X83211714Y-94163057D02*
X83259333Y-94258295D01*
X83259333Y-94258295D02*
X83259333Y-94401152D01*
X83259333Y-94401152D02*
X83211714Y-94496390D01*
X83211714Y-94496390D02*
X83164095Y-94544009D01*
X83164095Y-94544009D02*
X83068857Y-94591628D01*
X83068857Y-94591628D02*
X82687905Y-94591628D01*
X83830762Y-94496390D02*
X83735524Y-94448771D01*
X83735524Y-94448771D02*
X83687905Y-94401152D01*
X83687905Y-94401152D02*
X83640286Y-94305914D01*
X83640286Y-94305914D02*
X83640286Y-94258295D01*
X83640286Y-94258295D02*
X83687905Y-94163057D01*
X83687905Y-94163057D02*
X83735524Y-94115438D01*
X83735524Y-94115438D02*
X83830762Y-94067819D01*
X83830762Y-94067819D02*
X84021238Y-94067819D01*
X84021238Y-94067819D02*
X84116476Y-94115438D01*
X84116476Y-94115438D02*
X84164095Y-94163057D01*
X84164095Y-94163057D02*
X84211714Y-94258295D01*
X84211714Y-94258295D02*
X84211714Y-94305914D01*
X84211714Y-94305914D02*
X84164095Y-94401152D01*
X84164095Y-94401152D02*
X84116476Y-94448771D01*
X84116476Y-94448771D02*
X84021238Y-94496390D01*
X84021238Y-94496390D02*
X83830762Y-94496390D01*
X83830762Y-94496390D02*
X83735524Y-94544009D01*
X83735524Y-94544009D02*
X83687905Y-94591628D01*
X83687905Y-94591628D02*
X83640286Y-94686866D01*
X83640286Y-94686866D02*
X83640286Y-94877342D01*
X83640286Y-94877342D02*
X83687905Y-94972580D01*
X83687905Y-94972580D02*
X83735524Y-95020200D01*
X83735524Y-95020200D02*
X83830762Y-95067819D01*
X83830762Y-95067819D02*
X84021238Y-95067819D01*
X84021238Y-95067819D02*
X84116476Y-95020200D01*
X84116476Y-95020200D02*
X84164095Y-94972580D01*
X84164095Y-94972580D02*
X84211714Y-94877342D01*
X84211714Y-94877342D02*
X84211714Y-94686866D01*
X84211714Y-94686866D02*
X84164095Y-94591628D01*
X84164095Y-94591628D02*
X84116476Y-94544009D01*
X84116476Y-94544009D02*
X84021238Y-94496390D01*
X42162334Y-35929579D02*
X42114715Y-35977199D01*
X42114715Y-35977199D02*
X41971858Y-36024818D01*
X41971858Y-36024818D02*
X41876620Y-36024818D01*
X41876620Y-36024818D02*
X41733763Y-35977199D01*
X41733763Y-35977199D02*
X41638525Y-35881960D01*
X41638525Y-35881960D02*
X41590906Y-35786722D01*
X41590906Y-35786722D02*
X41543287Y-35596246D01*
X41543287Y-35596246D02*
X41543287Y-35453389D01*
X41543287Y-35453389D02*
X41590906Y-35262913D01*
X41590906Y-35262913D02*
X41638525Y-35167675D01*
X41638525Y-35167675D02*
X41733763Y-35072437D01*
X41733763Y-35072437D02*
X41876620Y-35024818D01*
X41876620Y-35024818D02*
X41971858Y-35024818D01*
X41971858Y-35024818D02*
X42114715Y-35072437D01*
X42114715Y-35072437D02*
X42162334Y-35120056D01*
X42638525Y-36024818D02*
X42829001Y-36024818D01*
X42829001Y-36024818D02*
X42924239Y-35977199D01*
X42924239Y-35977199D02*
X42971858Y-35929579D01*
X42971858Y-35929579D02*
X43067096Y-35786722D01*
X43067096Y-35786722D02*
X43114715Y-35596246D01*
X43114715Y-35596246D02*
X43114715Y-35215294D01*
X43114715Y-35215294D02*
X43067096Y-35120056D01*
X43067096Y-35120056D02*
X43019477Y-35072437D01*
X43019477Y-35072437D02*
X42924239Y-35024818D01*
X42924239Y-35024818D02*
X42733763Y-35024818D01*
X42733763Y-35024818D02*
X42638525Y-35072437D01*
X42638525Y-35072437D02*
X42590906Y-35120056D01*
X42590906Y-35120056D02*
X42543287Y-35215294D01*
X42543287Y-35215294D02*
X42543287Y-35453389D01*
X42543287Y-35453389D02*
X42590906Y-35548627D01*
X42590906Y-35548627D02*
X42638525Y-35596246D01*
X42638525Y-35596246D02*
X42733763Y-35643865D01*
X42733763Y-35643865D02*
X42924239Y-35643865D01*
X42924239Y-35643865D02*
X43019477Y-35596246D01*
X43019477Y-35596246D02*
X43067096Y-35548627D01*
X43067096Y-35548627D02*
X43114715Y-35453389D01*
X90544580Y-141003857D02*
X90592200Y-141051476D01*
X90592200Y-141051476D02*
X90639819Y-141194333D01*
X90639819Y-141194333D02*
X90639819Y-141289571D01*
X90639819Y-141289571D02*
X90592200Y-141432428D01*
X90592200Y-141432428D02*
X90496961Y-141527666D01*
X90496961Y-141527666D02*
X90401723Y-141575285D01*
X90401723Y-141575285D02*
X90211247Y-141622904D01*
X90211247Y-141622904D02*
X90068390Y-141622904D01*
X90068390Y-141622904D02*
X89877914Y-141575285D01*
X89877914Y-141575285D02*
X89782676Y-141527666D01*
X89782676Y-141527666D02*
X89687438Y-141432428D01*
X89687438Y-141432428D02*
X89639819Y-141289571D01*
X89639819Y-141289571D02*
X89639819Y-141194333D01*
X89639819Y-141194333D02*
X89687438Y-141051476D01*
X89687438Y-141051476D02*
X89735057Y-141003857D01*
X89735057Y-140622904D02*
X89687438Y-140575285D01*
X89687438Y-140575285D02*
X89639819Y-140480047D01*
X89639819Y-140480047D02*
X89639819Y-140241952D01*
X89639819Y-140241952D02*
X89687438Y-140146714D01*
X89687438Y-140146714D02*
X89735057Y-140099095D01*
X89735057Y-140099095D02*
X89830295Y-140051476D01*
X89830295Y-140051476D02*
X89925533Y-140051476D01*
X89925533Y-140051476D02*
X90068390Y-140099095D01*
X90068390Y-140099095D02*
X90639819Y-140670523D01*
X90639819Y-140670523D02*
X90639819Y-140051476D01*
X89639819Y-139194333D02*
X89639819Y-139384809D01*
X89639819Y-139384809D02*
X89687438Y-139480047D01*
X89687438Y-139480047D02*
X89735057Y-139527666D01*
X89735057Y-139527666D02*
X89877914Y-139622904D01*
X89877914Y-139622904D02*
X90068390Y-139670523D01*
X90068390Y-139670523D02*
X90449342Y-139670523D01*
X90449342Y-139670523D02*
X90544580Y-139622904D01*
X90544580Y-139622904D02*
X90592200Y-139575285D01*
X90592200Y-139575285D02*
X90639819Y-139480047D01*
X90639819Y-139480047D02*
X90639819Y-139289571D01*
X90639819Y-139289571D02*
X90592200Y-139194333D01*
X90592200Y-139194333D02*
X90544580Y-139146714D01*
X90544580Y-139146714D02*
X90449342Y-139099095D01*
X90449342Y-139099095D02*
X90211247Y-139099095D01*
X90211247Y-139099095D02*
X90116009Y-139146714D01*
X90116009Y-139146714D02*
X90068390Y-139194333D01*
X90068390Y-139194333D02*
X90020771Y-139289571D01*
X90020771Y-139289571D02*
X90020771Y-139480047D01*
X90020771Y-139480047D02*
X90068390Y-139575285D01*
X90068390Y-139575285D02*
X90116009Y-139622904D01*
X90116009Y-139622904D02*
X90211247Y-139670523D01*
X81946905Y-135115819D02*
X81946905Y-134115819D01*
X81946905Y-134592009D02*
X82518333Y-134592009D01*
X82518333Y-135115819D02*
X82518333Y-134115819D01*
X82946905Y-135068200D02*
X83089762Y-135115819D01*
X83089762Y-135115819D02*
X83327857Y-135115819D01*
X83327857Y-135115819D02*
X83423095Y-135068200D01*
X83423095Y-135068200D02*
X83470714Y-135020580D01*
X83470714Y-135020580D02*
X83518333Y-134925342D01*
X83518333Y-134925342D02*
X83518333Y-134830104D01*
X83518333Y-134830104D02*
X83470714Y-134734866D01*
X83470714Y-134734866D02*
X83423095Y-134687247D01*
X83423095Y-134687247D02*
X83327857Y-134639628D01*
X83327857Y-134639628D02*
X83137381Y-134592009D01*
X83137381Y-134592009D02*
X83042143Y-134544390D01*
X83042143Y-134544390D02*
X82994524Y-134496771D01*
X82994524Y-134496771D02*
X82946905Y-134401533D01*
X82946905Y-134401533D02*
X82946905Y-134306295D01*
X82946905Y-134306295D02*
X82994524Y-134211057D01*
X82994524Y-134211057D02*
X83042143Y-134163438D01*
X83042143Y-134163438D02*
X83137381Y-134115819D01*
X83137381Y-134115819D02*
X83375476Y-134115819D01*
X83375476Y-134115819D02*
X83518333Y-134163438D01*
X83899286Y-134211057D02*
X83946905Y-134163438D01*
X83946905Y-134163438D02*
X84042143Y-134115819D01*
X84042143Y-134115819D02*
X84280238Y-134115819D01*
X84280238Y-134115819D02*
X84375476Y-134163438D01*
X84375476Y-134163438D02*
X84423095Y-134211057D01*
X84423095Y-134211057D02*
X84470714Y-134306295D01*
X84470714Y-134306295D02*
X84470714Y-134401533D01*
X84470714Y-134401533D02*
X84423095Y-134544390D01*
X84423095Y-134544390D02*
X83851667Y-135115819D01*
X83851667Y-135115819D02*
X84470714Y-135115819D01*
X79544580Y-94727666D02*
X79592200Y-94775285D01*
X79592200Y-94775285D02*
X79639819Y-94918142D01*
X79639819Y-94918142D02*
X79639819Y-95013380D01*
X79639819Y-95013380D02*
X79592200Y-95156237D01*
X79592200Y-95156237D02*
X79496961Y-95251475D01*
X79496961Y-95251475D02*
X79401723Y-95299094D01*
X79401723Y-95299094D02*
X79211247Y-95346713D01*
X79211247Y-95346713D02*
X79068390Y-95346713D01*
X79068390Y-95346713D02*
X78877914Y-95299094D01*
X78877914Y-95299094D02*
X78782676Y-95251475D01*
X78782676Y-95251475D02*
X78687438Y-95156237D01*
X78687438Y-95156237D02*
X78639819Y-95013380D01*
X78639819Y-95013380D02*
X78639819Y-94918142D01*
X78639819Y-94918142D02*
X78687438Y-94775285D01*
X78687438Y-94775285D02*
X78735057Y-94727666D01*
X79639819Y-93775285D02*
X79639819Y-94346713D01*
X79639819Y-94060999D02*
X78639819Y-94060999D01*
X78639819Y-94060999D02*
X78782676Y-94156237D01*
X78782676Y-94156237D02*
X78877914Y-94251475D01*
X78877914Y-94251475D02*
X78925533Y-94346713D01*
X77782142Y-156415819D02*
X77448809Y-155939628D01*
X77210714Y-156415819D02*
X77210714Y-155415819D01*
X77210714Y-155415819D02*
X77591666Y-155415819D01*
X77591666Y-155415819D02*
X77686904Y-155463438D01*
X77686904Y-155463438D02*
X77734523Y-155511057D01*
X77734523Y-155511057D02*
X77782142Y-155606295D01*
X77782142Y-155606295D02*
X77782142Y-155749152D01*
X77782142Y-155749152D02*
X77734523Y-155844390D01*
X77734523Y-155844390D02*
X77686904Y-155892009D01*
X77686904Y-155892009D02*
X77591666Y-155939628D01*
X77591666Y-155939628D02*
X77210714Y-155939628D01*
X78163095Y-155511057D02*
X78210714Y-155463438D01*
X78210714Y-155463438D02*
X78305952Y-155415819D01*
X78305952Y-155415819D02*
X78544047Y-155415819D01*
X78544047Y-155415819D02*
X78639285Y-155463438D01*
X78639285Y-155463438D02*
X78686904Y-155511057D01*
X78686904Y-155511057D02*
X78734523Y-155606295D01*
X78734523Y-155606295D02*
X78734523Y-155701533D01*
X78734523Y-155701533D02*
X78686904Y-155844390D01*
X78686904Y-155844390D02*
X78115476Y-156415819D01*
X78115476Y-156415819D02*
X78734523Y-156415819D01*
X79115476Y-155511057D02*
X79163095Y-155463438D01*
X79163095Y-155463438D02*
X79258333Y-155415819D01*
X79258333Y-155415819D02*
X79496428Y-155415819D01*
X79496428Y-155415819D02*
X79591666Y-155463438D01*
X79591666Y-155463438D02*
X79639285Y-155511057D01*
X79639285Y-155511057D02*
X79686904Y-155606295D01*
X79686904Y-155606295D02*
X79686904Y-155701533D01*
X79686904Y-155701533D02*
X79639285Y-155844390D01*
X79639285Y-155844390D02*
X79067857Y-156415819D01*
X79067857Y-156415819D02*
X79686904Y-156415819D01*
X101901819Y-117642057D02*
X101425628Y-117975390D01*
X101901819Y-118213485D02*
X100901819Y-118213485D01*
X100901819Y-118213485D02*
X100901819Y-117832533D01*
X100901819Y-117832533D02*
X100949438Y-117737295D01*
X100949438Y-117737295D02*
X100997057Y-117689676D01*
X100997057Y-117689676D02*
X101092295Y-117642057D01*
X101092295Y-117642057D02*
X101235152Y-117642057D01*
X101235152Y-117642057D02*
X101330390Y-117689676D01*
X101330390Y-117689676D02*
X101378009Y-117737295D01*
X101378009Y-117737295D02*
X101425628Y-117832533D01*
X101425628Y-117832533D02*
X101425628Y-118213485D01*
X101901819Y-116689676D02*
X101901819Y-117261104D01*
X101901819Y-116975390D02*
X100901819Y-116975390D01*
X100901819Y-116975390D02*
X101044676Y-117070628D01*
X101044676Y-117070628D02*
X101139914Y-117165866D01*
X101139914Y-117165866D02*
X101187533Y-117261104D01*
X100901819Y-116356342D02*
X100901819Y-115689676D01*
X100901819Y-115689676D02*
X101901819Y-116118247D01*
X94891287Y-46962818D02*
X95462715Y-46962818D01*
X95177001Y-47962818D02*
X95177001Y-46962818D01*
X95796049Y-47962818D02*
X95796049Y-46962818D01*
X95796049Y-47439008D02*
X96367477Y-47439008D01*
X96367477Y-47962818D02*
X96367477Y-46962818D01*
X97367477Y-47962818D02*
X96796049Y-47962818D01*
X97081763Y-47962818D02*
X97081763Y-46962818D01*
X97081763Y-46962818D02*
X96986525Y-47105675D01*
X96986525Y-47105675D02*
X96891287Y-47200913D01*
X96891287Y-47200913D02*
X96796049Y-47248532D01*
X68018333Y-93015819D02*
X67685000Y-92539628D01*
X67446905Y-93015819D02*
X67446905Y-92015819D01*
X67446905Y-92015819D02*
X67827857Y-92015819D01*
X67827857Y-92015819D02*
X67923095Y-92063438D01*
X67923095Y-92063438D02*
X67970714Y-92111057D01*
X67970714Y-92111057D02*
X68018333Y-92206295D01*
X68018333Y-92206295D02*
X68018333Y-92349152D01*
X68018333Y-92349152D02*
X67970714Y-92444390D01*
X67970714Y-92444390D02*
X67923095Y-92492009D01*
X67923095Y-92492009D02*
X67827857Y-92539628D01*
X67827857Y-92539628D02*
X67446905Y-92539628D01*
X68970714Y-93015819D02*
X68399286Y-93015819D01*
X68685000Y-93015819D02*
X68685000Y-92015819D01*
X68685000Y-92015819D02*
X68589762Y-92158676D01*
X68589762Y-92158676D02*
X68494524Y-92253914D01*
X68494524Y-92253914D02*
X68399286Y-92301533D01*
X35645666Y-85316819D02*
X35645666Y-86031104D01*
X35645666Y-86031104D02*
X35598047Y-86173961D01*
X35598047Y-86173961D02*
X35502809Y-86269200D01*
X35502809Y-86269200D02*
X35359952Y-86316819D01*
X35359952Y-86316819D02*
X35264714Y-86316819D01*
X36645666Y-86316819D02*
X36074238Y-86316819D01*
X36359952Y-86316819D02*
X36359952Y-85316819D01*
X36359952Y-85316819D02*
X36264714Y-85459676D01*
X36264714Y-85459676D02*
X36169476Y-85554914D01*
X36169476Y-85554914D02*
X36074238Y-85602533D01*
X100042142Y-112532780D02*
X99994523Y-112580400D01*
X99994523Y-112580400D02*
X99851666Y-112628019D01*
X99851666Y-112628019D02*
X99756428Y-112628019D01*
X99756428Y-112628019D02*
X99613571Y-112580400D01*
X99613571Y-112580400D02*
X99518333Y-112485161D01*
X99518333Y-112485161D02*
X99470714Y-112389923D01*
X99470714Y-112389923D02*
X99423095Y-112199447D01*
X99423095Y-112199447D02*
X99423095Y-112056590D01*
X99423095Y-112056590D02*
X99470714Y-111866114D01*
X99470714Y-111866114D02*
X99518333Y-111770876D01*
X99518333Y-111770876D02*
X99613571Y-111675638D01*
X99613571Y-111675638D02*
X99756428Y-111628019D01*
X99756428Y-111628019D02*
X99851666Y-111628019D01*
X99851666Y-111628019D02*
X99994523Y-111675638D01*
X99994523Y-111675638D02*
X100042142Y-111723257D01*
X100994523Y-112628019D02*
X100423095Y-112628019D01*
X100708809Y-112628019D02*
X100708809Y-111628019D01*
X100708809Y-111628019D02*
X100613571Y-111770876D01*
X100613571Y-111770876D02*
X100518333Y-111866114D01*
X100518333Y-111866114D02*
X100423095Y-111913733D01*
X101899285Y-111628019D02*
X101423095Y-111628019D01*
X101423095Y-111628019D02*
X101375476Y-112104209D01*
X101375476Y-112104209D02*
X101423095Y-112056590D01*
X101423095Y-112056590D02*
X101518333Y-112008971D01*
X101518333Y-112008971D02*
X101756428Y-112008971D01*
X101756428Y-112008971D02*
X101851666Y-112056590D01*
X101851666Y-112056590D02*
X101899285Y-112104209D01*
X101899285Y-112104209D02*
X101946904Y-112199447D01*
X101946904Y-112199447D02*
X101946904Y-112437542D01*
X101946904Y-112437542D02*
X101899285Y-112532780D01*
X101899285Y-112532780D02*
X101851666Y-112580400D01*
X101851666Y-112580400D02*
X101756428Y-112628019D01*
X101756428Y-112628019D02*
X101518333Y-112628019D01*
X101518333Y-112628019D02*
X101423095Y-112580400D01*
X101423095Y-112580400D02*
X101375476Y-112532780D01*
X89259333Y-95067819D02*
X88926000Y-94591628D01*
X88687905Y-95067819D02*
X88687905Y-94067819D01*
X88687905Y-94067819D02*
X89068857Y-94067819D01*
X89068857Y-94067819D02*
X89164095Y-94115438D01*
X89164095Y-94115438D02*
X89211714Y-94163057D01*
X89211714Y-94163057D02*
X89259333Y-94258295D01*
X89259333Y-94258295D02*
X89259333Y-94401152D01*
X89259333Y-94401152D02*
X89211714Y-94496390D01*
X89211714Y-94496390D02*
X89164095Y-94544009D01*
X89164095Y-94544009D02*
X89068857Y-94591628D01*
X89068857Y-94591628D02*
X88687905Y-94591628D01*
X89592667Y-94067819D02*
X90259333Y-94067819D01*
X90259333Y-94067819D02*
X89830762Y-95067819D01*
X107044580Y-105203857D02*
X107092200Y-105251476D01*
X107092200Y-105251476D02*
X107139819Y-105394333D01*
X107139819Y-105394333D02*
X107139819Y-105489571D01*
X107139819Y-105489571D02*
X107092200Y-105632428D01*
X107092200Y-105632428D02*
X106996961Y-105727666D01*
X106996961Y-105727666D02*
X106901723Y-105775285D01*
X106901723Y-105775285D02*
X106711247Y-105822904D01*
X106711247Y-105822904D02*
X106568390Y-105822904D01*
X106568390Y-105822904D02*
X106377914Y-105775285D01*
X106377914Y-105775285D02*
X106282676Y-105727666D01*
X106282676Y-105727666D02*
X106187438Y-105632428D01*
X106187438Y-105632428D02*
X106139819Y-105489571D01*
X106139819Y-105489571D02*
X106139819Y-105394333D01*
X106139819Y-105394333D02*
X106187438Y-105251476D01*
X106187438Y-105251476D02*
X106235057Y-105203857D01*
X106235057Y-104822904D02*
X106187438Y-104775285D01*
X106187438Y-104775285D02*
X106139819Y-104680047D01*
X106139819Y-104680047D02*
X106139819Y-104441952D01*
X106139819Y-104441952D02*
X106187438Y-104346714D01*
X106187438Y-104346714D02*
X106235057Y-104299095D01*
X106235057Y-104299095D02*
X106330295Y-104251476D01*
X106330295Y-104251476D02*
X106425533Y-104251476D01*
X106425533Y-104251476D02*
X106568390Y-104299095D01*
X106568390Y-104299095D02*
X107139819Y-104870523D01*
X107139819Y-104870523D02*
X107139819Y-104251476D01*
X106139819Y-103632428D02*
X106139819Y-103537190D01*
X106139819Y-103537190D02*
X106187438Y-103441952D01*
X106187438Y-103441952D02*
X106235057Y-103394333D01*
X106235057Y-103394333D02*
X106330295Y-103346714D01*
X106330295Y-103346714D02*
X106520771Y-103299095D01*
X106520771Y-103299095D02*
X106758866Y-103299095D01*
X106758866Y-103299095D02*
X106949342Y-103346714D01*
X106949342Y-103346714D02*
X107044580Y-103394333D01*
X107044580Y-103394333D02*
X107092200Y-103441952D01*
X107092200Y-103441952D02*
X107139819Y-103537190D01*
X107139819Y-103537190D02*
X107139819Y-103632428D01*
X107139819Y-103632428D02*
X107092200Y-103727666D01*
X107092200Y-103727666D02*
X107044580Y-103775285D01*
X107044580Y-103775285D02*
X106949342Y-103822904D01*
X106949342Y-103822904D02*
X106758866Y-103870523D01*
X106758866Y-103870523D02*
X106520771Y-103870523D01*
X106520771Y-103870523D02*
X106330295Y-103822904D01*
X106330295Y-103822904D02*
X106235057Y-103775285D01*
X106235057Y-103775285D02*
X106187438Y-103727666D01*
X106187438Y-103727666D02*
X106139819Y-103632428D01*
X49782333Y-41517580D02*
X49734714Y-41565200D01*
X49734714Y-41565200D02*
X49591857Y-41612819D01*
X49591857Y-41612819D02*
X49496619Y-41612819D01*
X49496619Y-41612819D02*
X49353762Y-41565200D01*
X49353762Y-41565200D02*
X49258524Y-41469961D01*
X49258524Y-41469961D02*
X49210905Y-41374723D01*
X49210905Y-41374723D02*
X49163286Y-41184247D01*
X49163286Y-41184247D02*
X49163286Y-41041390D01*
X49163286Y-41041390D02*
X49210905Y-40850914D01*
X49210905Y-40850914D02*
X49258524Y-40755676D01*
X49258524Y-40755676D02*
X49353762Y-40660438D01*
X49353762Y-40660438D02*
X49496619Y-40612819D01*
X49496619Y-40612819D02*
X49591857Y-40612819D01*
X49591857Y-40612819D02*
X49734714Y-40660438D01*
X49734714Y-40660438D02*
X49782333Y-40708057D01*
X50353762Y-41041390D02*
X50258524Y-40993771D01*
X50258524Y-40993771D02*
X50210905Y-40946152D01*
X50210905Y-40946152D02*
X50163286Y-40850914D01*
X50163286Y-40850914D02*
X50163286Y-40803295D01*
X50163286Y-40803295D02*
X50210905Y-40708057D01*
X50210905Y-40708057D02*
X50258524Y-40660438D01*
X50258524Y-40660438D02*
X50353762Y-40612819D01*
X50353762Y-40612819D02*
X50544238Y-40612819D01*
X50544238Y-40612819D02*
X50639476Y-40660438D01*
X50639476Y-40660438D02*
X50687095Y-40708057D01*
X50687095Y-40708057D02*
X50734714Y-40803295D01*
X50734714Y-40803295D02*
X50734714Y-40850914D01*
X50734714Y-40850914D02*
X50687095Y-40946152D01*
X50687095Y-40946152D02*
X50639476Y-40993771D01*
X50639476Y-40993771D02*
X50544238Y-41041390D01*
X50544238Y-41041390D02*
X50353762Y-41041390D01*
X50353762Y-41041390D02*
X50258524Y-41089009D01*
X50258524Y-41089009D02*
X50210905Y-41136628D01*
X50210905Y-41136628D02*
X50163286Y-41231866D01*
X50163286Y-41231866D02*
X50163286Y-41422342D01*
X50163286Y-41422342D02*
X50210905Y-41517580D01*
X50210905Y-41517580D02*
X50258524Y-41565200D01*
X50258524Y-41565200D02*
X50353762Y-41612819D01*
X50353762Y-41612819D02*
X50544238Y-41612819D01*
X50544238Y-41612819D02*
X50639476Y-41565200D01*
X50639476Y-41565200D02*
X50687095Y-41517580D01*
X50687095Y-41517580D02*
X50734714Y-41422342D01*
X50734714Y-41422342D02*
X50734714Y-41231866D01*
X50734714Y-41231866D02*
X50687095Y-41136628D01*
X50687095Y-41136628D02*
X50639476Y-41089009D01*
X50639476Y-41089009D02*
X50544238Y-41041390D01*
X62018333Y-104015819D02*
X61685000Y-103539628D01*
X61446905Y-104015819D02*
X61446905Y-103015819D01*
X61446905Y-103015819D02*
X61827857Y-103015819D01*
X61827857Y-103015819D02*
X61923095Y-103063438D01*
X61923095Y-103063438D02*
X61970714Y-103111057D01*
X61970714Y-103111057D02*
X62018333Y-103206295D01*
X62018333Y-103206295D02*
X62018333Y-103349152D01*
X62018333Y-103349152D02*
X61970714Y-103444390D01*
X61970714Y-103444390D02*
X61923095Y-103492009D01*
X61923095Y-103492009D02*
X61827857Y-103539628D01*
X61827857Y-103539628D02*
X61446905Y-103539628D01*
X62875476Y-103349152D02*
X62875476Y-104015819D01*
X62637381Y-102968200D02*
X62399286Y-103682485D01*
X62399286Y-103682485D02*
X63018333Y-103682485D01*
X81311819Y-101703857D02*
X80835628Y-102037190D01*
X81311819Y-102275285D02*
X80311819Y-102275285D01*
X80311819Y-102275285D02*
X80311819Y-101894333D01*
X80311819Y-101894333D02*
X80359438Y-101799095D01*
X80359438Y-101799095D02*
X80407057Y-101751476D01*
X80407057Y-101751476D02*
X80502295Y-101703857D01*
X80502295Y-101703857D02*
X80645152Y-101703857D01*
X80645152Y-101703857D02*
X80740390Y-101751476D01*
X80740390Y-101751476D02*
X80788009Y-101799095D01*
X80788009Y-101799095D02*
X80835628Y-101894333D01*
X80835628Y-101894333D02*
X80835628Y-102275285D01*
X81311819Y-100751476D02*
X81311819Y-101322904D01*
X81311819Y-101037190D02*
X80311819Y-101037190D01*
X80311819Y-101037190D02*
X80454676Y-101132428D01*
X80454676Y-101132428D02*
X80549914Y-101227666D01*
X80549914Y-101227666D02*
X80597533Y-101322904D01*
X80407057Y-100370523D02*
X80359438Y-100322904D01*
X80359438Y-100322904D02*
X80311819Y-100227666D01*
X80311819Y-100227666D02*
X80311819Y-99989571D01*
X80311819Y-99989571D02*
X80359438Y-99894333D01*
X80359438Y-99894333D02*
X80407057Y-99846714D01*
X80407057Y-99846714D02*
X80502295Y-99799095D01*
X80502295Y-99799095D02*
X80597533Y-99799095D01*
X80597533Y-99799095D02*
X80740390Y-99846714D01*
X80740390Y-99846714D02*
X81311819Y-100418142D01*
X81311819Y-100418142D02*
X81311819Y-99799095D01*
X115260219Y-101372433D02*
X115974504Y-101372433D01*
X115974504Y-101372433D02*
X116117361Y-101420052D01*
X116117361Y-101420052D02*
X116212600Y-101515290D01*
X116212600Y-101515290D02*
X116260219Y-101658147D01*
X116260219Y-101658147D02*
X116260219Y-101753385D01*
X115355457Y-100943861D02*
X115307838Y-100896242D01*
X115307838Y-100896242D02*
X115260219Y-100801004D01*
X115260219Y-100801004D02*
X115260219Y-100562909D01*
X115260219Y-100562909D02*
X115307838Y-100467671D01*
X115307838Y-100467671D02*
X115355457Y-100420052D01*
X115355457Y-100420052D02*
X115450695Y-100372433D01*
X115450695Y-100372433D02*
X115545933Y-100372433D01*
X115545933Y-100372433D02*
X115688790Y-100420052D01*
X115688790Y-100420052D02*
X116260219Y-100991480D01*
X116260219Y-100991480D02*
X116260219Y-100372433D01*
X85920105Y-119515819D02*
X85920105Y-118515819D01*
X85920105Y-118515819D02*
X86158200Y-118515819D01*
X86158200Y-118515819D02*
X86301057Y-118563438D01*
X86301057Y-118563438D02*
X86396295Y-118658676D01*
X86396295Y-118658676D02*
X86443914Y-118753914D01*
X86443914Y-118753914D02*
X86491533Y-118944390D01*
X86491533Y-118944390D02*
X86491533Y-119087247D01*
X86491533Y-119087247D02*
X86443914Y-119277723D01*
X86443914Y-119277723D02*
X86396295Y-119372961D01*
X86396295Y-119372961D02*
X86301057Y-119468200D01*
X86301057Y-119468200D02*
X86158200Y-119515819D01*
X86158200Y-119515819D02*
X85920105Y-119515819D01*
X87396295Y-118515819D02*
X86920105Y-118515819D01*
X86920105Y-118515819D02*
X86872486Y-118992009D01*
X86872486Y-118992009D02*
X86920105Y-118944390D01*
X86920105Y-118944390D02*
X87015343Y-118896771D01*
X87015343Y-118896771D02*
X87253438Y-118896771D01*
X87253438Y-118896771D02*
X87348676Y-118944390D01*
X87348676Y-118944390D02*
X87396295Y-118992009D01*
X87396295Y-118992009D02*
X87443914Y-119087247D01*
X87443914Y-119087247D02*
X87443914Y-119325342D01*
X87443914Y-119325342D02*
X87396295Y-119420580D01*
X87396295Y-119420580D02*
X87348676Y-119468200D01*
X87348676Y-119468200D02*
X87253438Y-119515819D01*
X87253438Y-119515819D02*
X87015343Y-119515819D01*
X87015343Y-119515819D02*
X86920105Y-119468200D01*
X86920105Y-119468200D02*
X86872486Y-119420580D01*
X49042142Y-95920580D02*
X48994523Y-95968200D01*
X48994523Y-95968200D02*
X48851666Y-96015819D01*
X48851666Y-96015819D02*
X48756428Y-96015819D01*
X48756428Y-96015819D02*
X48613571Y-95968200D01*
X48613571Y-95968200D02*
X48518333Y-95872961D01*
X48518333Y-95872961D02*
X48470714Y-95777723D01*
X48470714Y-95777723D02*
X48423095Y-95587247D01*
X48423095Y-95587247D02*
X48423095Y-95444390D01*
X48423095Y-95444390D02*
X48470714Y-95253914D01*
X48470714Y-95253914D02*
X48518333Y-95158676D01*
X48518333Y-95158676D02*
X48613571Y-95063438D01*
X48613571Y-95063438D02*
X48756428Y-95015819D01*
X48756428Y-95015819D02*
X48851666Y-95015819D01*
X48851666Y-95015819D02*
X48994523Y-95063438D01*
X48994523Y-95063438D02*
X49042142Y-95111057D01*
X49994523Y-96015819D02*
X49423095Y-96015819D01*
X49708809Y-96015819D02*
X49708809Y-95015819D01*
X49708809Y-95015819D02*
X49613571Y-95158676D01*
X49613571Y-95158676D02*
X49518333Y-95253914D01*
X49518333Y-95253914D02*
X49423095Y-95301533D01*
X50470714Y-96015819D02*
X50661190Y-96015819D01*
X50661190Y-96015819D02*
X50756428Y-95968200D01*
X50756428Y-95968200D02*
X50804047Y-95920580D01*
X50804047Y-95920580D02*
X50899285Y-95777723D01*
X50899285Y-95777723D02*
X50946904Y-95587247D01*
X50946904Y-95587247D02*
X50946904Y-95206295D01*
X50946904Y-95206295D02*
X50899285Y-95111057D01*
X50899285Y-95111057D02*
X50851666Y-95063438D01*
X50851666Y-95063438D02*
X50756428Y-95015819D01*
X50756428Y-95015819D02*
X50565952Y-95015819D01*
X50565952Y-95015819D02*
X50470714Y-95063438D01*
X50470714Y-95063438D02*
X50423095Y-95111057D01*
X50423095Y-95111057D02*
X50375476Y-95206295D01*
X50375476Y-95206295D02*
X50375476Y-95444390D01*
X50375476Y-95444390D02*
X50423095Y-95539628D01*
X50423095Y-95539628D02*
X50470714Y-95587247D01*
X50470714Y-95587247D02*
X50565952Y-95634866D01*
X50565952Y-95634866D02*
X50756428Y-95634866D01*
X50756428Y-95634866D02*
X50851666Y-95587247D01*
X50851666Y-95587247D02*
X50899285Y-95539628D01*
X50899285Y-95539628D02*
X50946904Y-95444390D01*
X86542142Y-117920580D02*
X86494523Y-117968200D01*
X86494523Y-117968200D02*
X86351666Y-118015819D01*
X86351666Y-118015819D02*
X86256428Y-118015819D01*
X86256428Y-118015819D02*
X86113571Y-117968200D01*
X86113571Y-117968200D02*
X86018333Y-117872961D01*
X86018333Y-117872961D02*
X85970714Y-117777723D01*
X85970714Y-117777723D02*
X85923095Y-117587247D01*
X85923095Y-117587247D02*
X85923095Y-117444390D01*
X85923095Y-117444390D02*
X85970714Y-117253914D01*
X85970714Y-117253914D02*
X86018333Y-117158676D01*
X86018333Y-117158676D02*
X86113571Y-117063438D01*
X86113571Y-117063438D02*
X86256428Y-117015819D01*
X86256428Y-117015819D02*
X86351666Y-117015819D01*
X86351666Y-117015819D02*
X86494523Y-117063438D01*
X86494523Y-117063438D02*
X86542142Y-117111057D01*
X87494523Y-118015819D02*
X86923095Y-118015819D01*
X87208809Y-118015819D02*
X87208809Y-117015819D01*
X87208809Y-117015819D02*
X87113571Y-117158676D01*
X87113571Y-117158676D02*
X87018333Y-117253914D01*
X87018333Y-117253914D02*
X86923095Y-117301533D01*
X87827857Y-117015819D02*
X88446904Y-117015819D01*
X88446904Y-117015819D02*
X88113571Y-117396771D01*
X88113571Y-117396771D02*
X88256428Y-117396771D01*
X88256428Y-117396771D02*
X88351666Y-117444390D01*
X88351666Y-117444390D02*
X88399285Y-117492009D01*
X88399285Y-117492009D02*
X88446904Y-117587247D01*
X88446904Y-117587247D02*
X88446904Y-117825342D01*
X88446904Y-117825342D02*
X88399285Y-117920580D01*
X88399285Y-117920580D02*
X88351666Y-117968200D01*
X88351666Y-117968200D02*
X88256428Y-118015819D01*
X88256428Y-118015819D02*
X87970714Y-118015819D01*
X87970714Y-118015819D02*
X87875476Y-117968200D01*
X87875476Y-117968200D02*
X87827857Y-117920580D01*
X86542142Y-115015819D02*
X86208809Y-114539628D01*
X85970714Y-115015819D02*
X85970714Y-114015819D01*
X85970714Y-114015819D02*
X86351666Y-114015819D01*
X86351666Y-114015819D02*
X86446904Y-114063438D01*
X86446904Y-114063438D02*
X86494523Y-114111057D01*
X86494523Y-114111057D02*
X86542142Y-114206295D01*
X86542142Y-114206295D02*
X86542142Y-114349152D01*
X86542142Y-114349152D02*
X86494523Y-114444390D01*
X86494523Y-114444390D02*
X86446904Y-114492009D01*
X86446904Y-114492009D02*
X86351666Y-114539628D01*
X86351666Y-114539628D02*
X85970714Y-114539628D01*
X87494523Y-115015819D02*
X86923095Y-115015819D01*
X87208809Y-115015819D02*
X87208809Y-114015819D01*
X87208809Y-114015819D02*
X87113571Y-114158676D01*
X87113571Y-114158676D02*
X87018333Y-114253914D01*
X87018333Y-114253914D02*
X86923095Y-114301533D01*
X88351666Y-114349152D02*
X88351666Y-115015819D01*
X88113571Y-113968200D02*
X87875476Y-114682485D01*
X87875476Y-114682485D02*
X88494523Y-114682485D01*
X67062142Y-96940819D02*
X66728809Y-96464628D01*
X66490714Y-96940819D02*
X66490714Y-95940819D01*
X66490714Y-95940819D02*
X66871666Y-95940819D01*
X66871666Y-95940819D02*
X66966904Y-95988438D01*
X66966904Y-95988438D02*
X67014523Y-96036057D01*
X67014523Y-96036057D02*
X67062142Y-96131295D01*
X67062142Y-96131295D02*
X67062142Y-96274152D01*
X67062142Y-96274152D02*
X67014523Y-96369390D01*
X67014523Y-96369390D02*
X66966904Y-96417009D01*
X66966904Y-96417009D02*
X66871666Y-96464628D01*
X66871666Y-96464628D02*
X66490714Y-96464628D01*
X68014523Y-96940819D02*
X67443095Y-96940819D01*
X67728809Y-96940819D02*
X67728809Y-95940819D01*
X67728809Y-95940819D02*
X67633571Y-96083676D01*
X67633571Y-96083676D02*
X67538333Y-96178914D01*
X67538333Y-96178914D02*
X67443095Y-96226533D01*
X68633571Y-95940819D02*
X68728809Y-95940819D01*
X68728809Y-95940819D02*
X68824047Y-95988438D01*
X68824047Y-95988438D02*
X68871666Y-96036057D01*
X68871666Y-96036057D02*
X68919285Y-96131295D01*
X68919285Y-96131295D02*
X68966904Y-96321771D01*
X68966904Y-96321771D02*
X68966904Y-96559866D01*
X68966904Y-96559866D02*
X68919285Y-96750342D01*
X68919285Y-96750342D02*
X68871666Y-96845580D01*
X68871666Y-96845580D02*
X68824047Y-96893200D01*
X68824047Y-96893200D02*
X68728809Y-96940819D01*
X68728809Y-96940819D02*
X68633571Y-96940819D01*
X68633571Y-96940819D02*
X68538333Y-96893200D01*
X68538333Y-96893200D02*
X68490714Y-96845580D01*
X68490714Y-96845580D02*
X68443095Y-96750342D01*
X68443095Y-96750342D02*
X68395476Y-96559866D01*
X68395476Y-96559866D02*
X68395476Y-96321771D01*
X68395476Y-96321771D02*
X68443095Y-96131295D01*
X68443095Y-96131295D02*
X68490714Y-96036057D01*
X68490714Y-96036057D02*
X68538333Y-95988438D01*
X68538333Y-95988438D02*
X68633571Y-95940819D01*
X80041819Y-101703857D02*
X79565628Y-102037190D01*
X80041819Y-102275285D02*
X79041819Y-102275285D01*
X79041819Y-102275285D02*
X79041819Y-101894333D01*
X79041819Y-101894333D02*
X79089438Y-101799095D01*
X79089438Y-101799095D02*
X79137057Y-101751476D01*
X79137057Y-101751476D02*
X79232295Y-101703857D01*
X79232295Y-101703857D02*
X79375152Y-101703857D01*
X79375152Y-101703857D02*
X79470390Y-101751476D01*
X79470390Y-101751476D02*
X79518009Y-101799095D01*
X79518009Y-101799095D02*
X79565628Y-101894333D01*
X79565628Y-101894333D02*
X79565628Y-102275285D01*
X80041819Y-100751476D02*
X80041819Y-101322904D01*
X80041819Y-101037190D02*
X79041819Y-101037190D01*
X79041819Y-101037190D02*
X79184676Y-101132428D01*
X79184676Y-101132428D02*
X79279914Y-101227666D01*
X79279914Y-101227666D02*
X79327533Y-101322904D01*
X80041819Y-99799095D02*
X80041819Y-100370523D01*
X80041819Y-100084809D02*
X79041819Y-100084809D01*
X79041819Y-100084809D02*
X79184676Y-100180047D01*
X79184676Y-100180047D02*
X79279914Y-100275285D01*
X79279914Y-100275285D02*
X79327533Y-100370523D01*
X86393905Y-154578819D02*
X86393905Y-153578819D01*
X86393905Y-153578819D02*
X86632000Y-153578819D01*
X86632000Y-153578819D02*
X86774857Y-153626438D01*
X86774857Y-153626438D02*
X86870095Y-153721676D01*
X86870095Y-153721676D02*
X86917714Y-153816914D01*
X86917714Y-153816914D02*
X86965333Y-154007390D01*
X86965333Y-154007390D02*
X86965333Y-154150247D01*
X86965333Y-154150247D02*
X86917714Y-154340723D01*
X86917714Y-154340723D02*
X86870095Y-154435961D01*
X86870095Y-154435961D02*
X86774857Y-154531200D01*
X86774857Y-154531200D02*
X86632000Y-154578819D01*
X86632000Y-154578819D02*
X86393905Y-154578819D01*
X87536762Y-154007390D02*
X87441524Y-153959771D01*
X87441524Y-153959771D02*
X87393905Y-153912152D01*
X87393905Y-153912152D02*
X87346286Y-153816914D01*
X87346286Y-153816914D02*
X87346286Y-153769295D01*
X87346286Y-153769295D02*
X87393905Y-153674057D01*
X87393905Y-153674057D02*
X87441524Y-153626438D01*
X87441524Y-153626438D02*
X87536762Y-153578819D01*
X87536762Y-153578819D02*
X87727238Y-153578819D01*
X87727238Y-153578819D02*
X87822476Y-153626438D01*
X87822476Y-153626438D02*
X87870095Y-153674057D01*
X87870095Y-153674057D02*
X87917714Y-153769295D01*
X87917714Y-153769295D02*
X87917714Y-153816914D01*
X87917714Y-153816914D02*
X87870095Y-153912152D01*
X87870095Y-153912152D02*
X87822476Y-153959771D01*
X87822476Y-153959771D02*
X87727238Y-154007390D01*
X87727238Y-154007390D02*
X87536762Y-154007390D01*
X87536762Y-154007390D02*
X87441524Y-154055009D01*
X87441524Y-154055009D02*
X87393905Y-154102628D01*
X87393905Y-154102628D02*
X87346286Y-154197866D01*
X87346286Y-154197866D02*
X87346286Y-154388342D01*
X87346286Y-154388342D02*
X87393905Y-154483580D01*
X87393905Y-154483580D02*
X87441524Y-154531200D01*
X87441524Y-154531200D02*
X87536762Y-154578819D01*
X87536762Y-154578819D02*
X87727238Y-154578819D01*
X87727238Y-154578819D02*
X87822476Y-154531200D01*
X87822476Y-154531200D02*
X87870095Y-154483580D01*
X87870095Y-154483580D02*
X87917714Y-154388342D01*
X87917714Y-154388342D02*
X87917714Y-154197866D01*
X87917714Y-154197866D02*
X87870095Y-154102628D01*
X87870095Y-154102628D02*
X87822476Y-154055009D01*
X87822476Y-154055009D02*
X87727238Y-154007390D01*
X76044580Y-101727666D02*
X76092200Y-101775285D01*
X76092200Y-101775285D02*
X76139819Y-101918142D01*
X76139819Y-101918142D02*
X76139819Y-102013380D01*
X76139819Y-102013380D02*
X76092200Y-102156237D01*
X76092200Y-102156237D02*
X75996961Y-102251475D01*
X75996961Y-102251475D02*
X75901723Y-102299094D01*
X75901723Y-102299094D02*
X75711247Y-102346713D01*
X75711247Y-102346713D02*
X75568390Y-102346713D01*
X75568390Y-102346713D02*
X75377914Y-102299094D01*
X75377914Y-102299094D02*
X75282676Y-102251475D01*
X75282676Y-102251475D02*
X75187438Y-102156237D01*
X75187438Y-102156237D02*
X75139819Y-102013380D01*
X75139819Y-102013380D02*
X75139819Y-101918142D01*
X75139819Y-101918142D02*
X75187438Y-101775285D01*
X75187438Y-101775285D02*
X75235057Y-101727666D01*
X75139819Y-101394332D02*
X75139819Y-100775285D01*
X75139819Y-100775285D02*
X75520771Y-101108618D01*
X75520771Y-101108618D02*
X75520771Y-100965761D01*
X75520771Y-100965761D02*
X75568390Y-100870523D01*
X75568390Y-100870523D02*
X75616009Y-100822904D01*
X75616009Y-100822904D02*
X75711247Y-100775285D01*
X75711247Y-100775285D02*
X75949342Y-100775285D01*
X75949342Y-100775285D02*
X76044580Y-100822904D01*
X76044580Y-100822904D02*
X76092200Y-100870523D01*
X76092200Y-100870523D02*
X76139819Y-100965761D01*
X76139819Y-100965761D02*
X76139819Y-101251475D01*
X76139819Y-101251475D02*
X76092200Y-101346713D01*
X76092200Y-101346713D02*
X76044580Y-101394332D01*
X104044580Y-105203857D02*
X104092200Y-105251476D01*
X104092200Y-105251476D02*
X104139819Y-105394333D01*
X104139819Y-105394333D02*
X104139819Y-105489571D01*
X104139819Y-105489571D02*
X104092200Y-105632428D01*
X104092200Y-105632428D02*
X103996961Y-105727666D01*
X103996961Y-105727666D02*
X103901723Y-105775285D01*
X103901723Y-105775285D02*
X103711247Y-105822904D01*
X103711247Y-105822904D02*
X103568390Y-105822904D01*
X103568390Y-105822904D02*
X103377914Y-105775285D01*
X103377914Y-105775285D02*
X103282676Y-105727666D01*
X103282676Y-105727666D02*
X103187438Y-105632428D01*
X103187438Y-105632428D02*
X103139819Y-105489571D01*
X103139819Y-105489571D02*
X103139819Y-105394333D01*
X103139819Y-105394333D02*
X103187438Y-105251476D01*
X103187438Y-105251476D02*
X103235057Y-105203857D01*
X104139819Y-104251476D02*
X104139819Y-104822904D01*
X104139819Y-104537190D02*
X103139819Y-104537190D01*
X103139819Y-104537190D02*
X103282676Y-104632428D01*
X103282676Y-104632428D02*
X103377914Y-104727666D01*
X103377914Y-104727666D02*
X103425533Y-104822904D01*
X103568390Y-103680047D02*
X103520771Y-103775285D01*
X103520771Y-103775285D02*
X103473152Y-103822904D01*
X103473152Y-103822904D02*
X103377914Y-103870523D01*
X103377914Y-103870523D02*
X103330295Y-103870523D01*
X103330295Y-103870523D02*
X103235057Y-103822904D01*
X103235057Y-103822904D02*
X103187438Y-103775285D01*
X103187438Y-103775285D02*
X103139819Y-103680047D01*
X103139819Y-103680047D02*
X103139819Y-103489571D01*
X103139819Y-103489571D02*
X103187438Y-103394333D01*
X103187438Y-103394333D02*
X103235057Y-103346714D01*
X103235057Y-103346714D02*
X103330295Y-103299095D01*
X103330295Y-103299095D02*
X103377914Y-103299095D01*
X103377914Y-103299095D02*
X103473152Y-103346714D01*
X103473152Y-103346714D02*
X103520771Y-103394333D01*
X103520771Y-103394333D02*
X103568390Y-103489571D01*
X103568390Y-103489571D02*
X103568390Y-103680047D01*
X103568390Y-103680047D02*
X103616009Y-103775285D01*
X103616009Y-103775285D02*
X103663628Y-103822904D01*
X103663628Y-103822904D02*
X103758866Y-103870523D01*
X103758866Y-103870523D02*
X103949342Y-103870523D01*
X103949342Y-103870523D02*
X104044580Y-103822904D01*
X104044580Y-103822904D02*
X104092200Y-103775285D01*
X104092200Y-103775285D02*
X104139819Y-103680047D01*
X104139819Y-103680047D02*
X104139819Y-103489571D01*
X104139819Y-103489571D02*
X104092200Y-103394333D01*
X104092200Y-103394333D02*
X104044580Y-103346714D01*
X104044580Y-103346714D02*
X103949342Y-103299095D01*
X103949342Y-103299095D02*
X103758866Y-103299095D01*
X103758866Y-103299095D02*
X103663628Y-103346714D01*
X103663628Y-103346714D02*
X103616009Y-103394333D01*
X103616009Y-103394333D02*
X103568390Y-103489571D01*
X109342142Y-118820580D02*
X109294523Y-118868200D01*
X109294523Y-118868200D02*
X109151666Y-118915819D01*
X109151666Y-118915819D02*
X109056428Y-118915819D01*
X109056428Y-118915819D02*
X108913571Y-118868200D01*
X108913571Y-118868200D02*
X108818333Y-118772961D01*
X108818333Y-118772961D02*
X108770714Y-118677723D01*
X108770714Y-118677723D02*
X108723095Y-118487247D01*
X108723095Y-118487247D02*
X108723095Y-118344390D01*
X108723095Y-118344390D02*
X108770714Y-118153914D01*
X108770714Y-118153914D02*
X108818333Y-118058676D01*
X108818333Y-118058676D02*
X108913571Y-117963438D01*
X108913571Y-117963438D02*
X109056428Y-117915819D01*
X109056428Y-117915819D02*
X109151666Y-117915819D01*
X109151666Y-117915819D02*
X109294523Y-117963438D01*
X109294523Y-117963438D02*
X109342142Y-118011057D01*
X109723095Y-118011057D02*
X109770714Y-117963438D01*
X109770714Y-117963438D02*
X109865952Y-117915819D01*
X109865952Y-117915819D02*
X110104047Y-117915819D01*
X110104047Y-117915819D02*
X110199285Y-117963438D01*
X110199285Y-117963438D02*
X110246904Y-118011057D01*
X110246904Y-118011057D02*
X110294523Y-118106295D01*
X110294523Y-118106295D02*
X110294523Y-118201533D01*
X110294523Y-118201533D02*
X110246904Y-118344390D01*
X110246904Y-118344390D02*
X109675476Y-118915819D01*
X109675476Y-118915819D02*
X110294523Y-118915819D01*
X110675476Y-118011057D02*
X110723095Y-117963438D01*
X110723095Y-117963438D02*
X110818333Y-117915819D01*
X110818333Y-117915819D02*
X111056428Y-117915819D01*
X111056428Y-117915819D02*
X111151666Y-117963438D01*
X111151666Y-117963438D02*
X111199285Y-118011057D01*
X111199285Y-118011057D02*
X111246904Y-118106295D01*
X111246904Y-118106295D02*
X111246904Y-118201533D01*
X111246904Y-118201533D02*
X111199285Y-118344390D01*
X111199285Y-118344390D02*
X110627857Y-118915819D01*
X110627857Y-118915819D02*
X111246904Y-118915819D01*
X93042142Y-111515819D02*
X92708809Y-111039628D01*
X92470714Y-111515819D02*
X92470714Y-110515819D01*
X92470714Y-110515819D02*
X92851666Y-110515819D01*
X92851666Y-110515819D02*
X92946904Y-110563438D01*
X92946904Y-110563438D02*
X92994523Y-110611057D01*
X92994523Y-110611057D02*
X93042142Y-110706295D01*
X93042142Y-110706295D02*
X93042142Y-110849152D01*
X93042142Y-110849152D02*
X92994523Y-110944390D01*
X92994523Y-110944390D02*
X92946904Y-110992009D01*
X92946904Y-110992009D02*
X92851666Y-111039628D01*
X92851666Y-111039628D02*
X92470714Y-111039628D01*
X93994523Y-111515819D02*
X93423095Y-111515819D01*
X93708809Y-111515819D02*
X93708809Y-110515819D01*
X93708809Y-110515819D02*
X93613571Y-110658676D01*
X93613571Y-110658676D02*
X93518333Y-110753914D01*
X93518333Y-110753914D02*
X93423095Y-110801533D01*
X94899285Y-110515819D02*
X94423095Y-110515819D01*
X94423095Y-110515819D02*
X94375476Y-110992009D01*
X94375476Y-110992009D02*
X94423095Y-110944390D01*
X94423095Y-110944390D02*
X94518333Y-110896771D01*
X94518333Y-110896771D02*
X94756428Y-110896771D01*
X94756428Y-110896771D02*
X94851666Y-110944390D01*
X94851666Y-110944390D02*
X94899285Y-110992009D01*
X94899285Y-110992009D02*
X94946904Y-111087247D01*
X94946904Y-111087247D02*
X94946904Y-111325342D01*
X94946904Y-111325342D02*
X94899285Y-111420580D01*
X94899285Y-111420580D02*
X94851666Y-111468200D01*
X94851666Y-111468200D02*
X94756428Y-111515819D01*
X94756428Y-111515819D02*
X94518333Y-111515819D01*
X94518333Y-111515819D02*
X94423095Y-111468200D01*
X94423095Y-111468200D02*
X94375476Y-111420580D01*
X45946905Y-111015819D02*
X45946905Y-110015819D01*
X45946905Y-110015819D02*
X46185000Y-110015819D01*
X46185000Y-110015819D02*
X46327857Y-110063438D01*
X46327857Y-110063438D02*
X46423095Y-110158676D01*
X46423095Y-110158676D02*
X46470714Y-110253914D01*
X46470714Y-110253914D02*
X46518333Y-110444390D01*
X46518333Y-110444390D02*
X46518333Y-110587247D01*
X46518333Y-110587247D02*
X46470714Y-110777723D01*
X46470714Y-110777723D02*
X46423095Y-110872961D01*
X46423095Y-110872961D02*
X46327857Y-110968200D01*
X46327857Y-110968200D02*
X46185000Y-111015819D01*
X46185000Y-111015819D02*
X45946905Y-111015819D01*
X46851667Y-110015819D02*
X47518333Y-110015819D01*
X47518333Y-110015819D02*
X47089762Y-111015819D01*
X63446905Y-101015819D02*
X63446905Y-100015819D01*
X63446905Y-100015819D02*
X63685000Y-100015819D01*
X63685000Y-100015819D02*
X63827857Y-100063438D01*
X63827857Y-100063438D02*
X63923095Y-100158676D01*
X63923095Y-100158676D02*
X63970714Y-100253914D01*
X63970714Y-100253914D02*
X64018333Y-100444390D01*
X64018333Y-100444390D02*
X64018333Y-100587247D01*
X64018333Y-100587247D02*
X63970714Y-100777723D01*
X63970714Y-100777723D02*
X63923095Y-100872961D01*
X63923095Y-100872961D02*
X63827857Y-100968200D01*
X63827857Y-100968200D02*
X63685000Y-101015819D01*
X63685000Y-101015819D02*
X63446905Y-101015819D01*
X64970714Y-101015819D02*
X64399286Y-101015819D01*
X64685000Y-101015819D02*
X64685000Y-100015819D01*
X64685000Y-100015819D02*
X64589762Y-100158676D01*
X64589762Y-100158676D02*
X64494524Y-100253914D01*
X64494524Y-100253914D02*
X64399286Y-100301533D01*
X97818333Y-135215819D02*
X97342143Y-135215819D01*
X97342143Y-135215819D02*
X97342143Y-134215819D01*
X98675476Y-135215819D02*
X98104048Y-135215819D01*
X98389762Y-135215819D02*
X98389762Y-134215819D01*
X98389762Y-134215819D02*
X98294524Y-134358676D01*
X98294524Y-134358676D02*
X98199286Y-134453914D01*
X98199286Y-134453914D02*
X98104048Y-134501533D01*
X68139819Y-96822904D02*
X68949342Y-96822904D01*
X68949342Y-96822904D02*
X69044580Y-96775285D01*
X69044580Y-96775285D02*
X69092200Y-96727666D01*
X69092200Y-96727666D02*
X69139819Y-96632428D01*
X69139819Y-96632428D02*
X69139819Y-96441952D01*
X69139819Y-96441952D02*
X69092200Y-96346714D01*
X69092200Y-96346714D02*
X69044580Y-96299095D01*
X69044580Y-96299095D02*
X68949342Y-96251476D01*
X68949342Y-96251476D02*
X68139819Y-96251476D01*
X69139819Y-95251476D02*
X69139819Y-95822904D01*
X69139819Y-95537190D02*
X68139819Y-95537190D01*
X68139819Y-95537190D02*
X68282676Y-95632428D01*
X68282676Y-95632428D02*
X68377914Y-95727666D01*
X68377914Y-95727666D02*
X68425533Y-95822904D01*
X43589761Y-109611057D02*
X43494523Y-109563438D01*
X43494523Y-109563438D02*
X43399285Y-109468200D01*
X43399285Y-109468200D02*
X43256428Y-109325342D01*
X43256428Y-109325342D02*
X43161190Y-109277723D01*
X43161190Y-109277723D02*
X43065952Y-109277723D01*
X43113571Y-109515819D02*
X43018333Y-109468200D01*
X43018333Y-109468200D02*
X42923095Y-109372961D01*
X42923095Y-109372961D02*
X42875476Y-109182485D01*
X42875476Y-109182485D02*
X42875476Y-108849152D01*
X42875476Y-108849152D02*
X42923095Y-108658676D01*
X42923095Y-108658676D02*
X43018333Y-108563438D01*
X43018333Y-108563438D02*
X43113571Y-108515819D01*
X43113571Y-108515819D02*
X43304047Y-108515819D01*
X43304047Y-108515819D02*
X43399285Y-108563438D01*
X43399285Y-108563438D02*
X43494523Y-108658676D01*
X43494523Y-108658676D02*
X43542142Y-108849152D01*
X43542142Y-108849152D02*
X43542142Y-109182485D01*
X43542142Y-109182485D02*
X43494523Y-109372961D01*
X43494523Y-109372961D02*
X43399285Y-109468200D01*
X43399285Y-109468200D02*
X43304047Y-109515819D01*
X43304047Y-109515819D02*
X43113571Y-109515819D01*
X44494523Y-109515819D02*
X43923095Y-109515819D01*
X44208809Y-109515819D02*
X44208809Y-108515819D01*
X44208809Y-108515819D02*
X44113571Y-108658676D01*
X44113571Y-108658676D02*
X44018333Y-108753914D01*
X44018333Y-108753914D02*
X43923095Y-108801533D01*
D14*
%TO.C,R16*%
X95648700Y-114653942D02*
X95648700Y-115128458D01*
X96693700Y-114653942D02*
X96693700Y-115128458D01*
%TO.C,R18*%
X97148700Y-111681942D02*
X97148700Y-112156458D01*
X98193700Y-111681942D02*
X98193700Y-112156458D01*
%TO.C,R21*%
X59315000Y-96961000D02*
X60275000Y-96961000D01*
X59315000Y-96961000D02*
G75*
G02*
X54075000Y-96961000I-2620000J0D01*
G01*
X54075000Y-96961000D02*
G75*
G02*
X59315000Y-96961000I2620000J0D01*
G01*
%TO.C,R13*%
X90522742Y-110488500D02*
X90997258Y-110488500D01*
X90522742Y-111533500D02*
X90997258Y-111533500D01*
%TO.C,R19*%
X95648700Y-112156458D02*
X95648700Y-111681942D01*
X96693700Y-112156458D02*
X96693700Y-111681942D01*
%TO.C,R6*%
X94707936Y-91901000D02*
X96162064Y-91901000D01*
X94707936Y-93721000D02*
X96162064Y-93721000D01*
%TO.C,D6*%
X103485000Y-46921000D02*
X107085000Y-46921000D01*
X103485000Y-48921000D02*
X103485000Y-46921000D01*
X103485000Y-54021000D02*
X103485000Y-52021000D01*
X103485000Y-59021000D02*
X103485000Y-57121000D01*
X103485000Y-63721000D02*
X103485000Y-62221000D01*
X103485000Y-69221000D02*
X103485000Y-67721000D01*
X107085000Y-46921000D02*
X107085000Y-69221000D01*
X107085000Y-66021000D02*
X106585000Y-66021000D01*
X107085000Y-69221000D02*
X103485000Y-69221000D01*
%TO.C,TR1*%
D12*
X80722000Y-113237000D02*
X35002000Y-113237000D01*
X35002000Y-153877000D01*
X80722000Y-153877000D01*
X80722000Y-113237000D01*
D14*
X73102000Y-115777000D02*
X71832000Y-113872000D01*
X74372000Y-113872000D01*
X73102000Y-115777000D01*
G36*
X73102000Y-115777000D02*
G01*
X71832000Y-113872000D01*
X74372000Y-113872000D01*
X73102000Y-115777000D01*
G37*
%TO.C,F1*%
X44885000Y-67061000D02*
G75*
G02*
X35885000Y-67061000I-4500000J0D01*
G01*
X35885000Y-67061000D02*
G75*
G02*
X44885000Y-67061000I4500000J0D01*
G01*
%TO.C,C17*%
X99450000Y-108522252D02*
X99450000Y-107999748D01*
X100920000Y-108522252D02*
X100920000Y-107999748D01*
D10*
%TO.C,RV1*%
X46035000Y-61911000D02*
X46035000Y-78711000D01*
X53035000Y-61911000D02*
X46035000Y-61911000D01*
X53035000Y-61911000D02*
X53035000Y-78711000D01*
X53035000Y-78711000D02*
X46035000Y-78711000D01*
D14*
%TO.C,C2*%
X71175000Y-93726580D02*
X71175000Y-93445420D01*
X72195000Y-93726580D02*
X72195000Y-93445420D01*
%TO.C,SW1*%
X53185000Y-46661000D02*
X21685000Y-46661000D01*
X21685000Y-61461000D01*
X53185000Y-61461000D01*
X53185000Y-46661000D01*
%TO.C,C4*%
X69705000Y-104070420D02*
X69705000Y-104351580D01*
X70725000Y-104070420D02*
X70725000Y-104351580D01*
%TO.C,C12*%
X101315000Y-93191000D02*
X102679000Y-93191000D01*
X101315000Y-100931000D02*
X101315000Y-93191000D01*
X101315000Y-100931000D02*
X102679000Y-100931000D01*
X105191000Y-93191000D02*
X106555000Y-93191000D01*
X105191000Y-100931000D02*
X106555000Y-100931000D01*
X106555000Y-100931000D02*
X106555000Y-93191000D01*
%TO.C,C21*%
X103500000Y-107999748D02*
X103500000Y-108522252D01*
X104970000Y-107999748D02*
X104970000Y-108522252D01*
%TO.C,C28*%
X62915000Y-156705000D02*
X62915000Y-155341000D01*
X62915000Y-160581000D02*
X62915000Y-159217000D01*
X70655000Y-155341000D02*
X62915000Y-155341000D01*
X70655000Y-156705000D02*
X70655000Y-155341000D01*
X70655000Y-160581000D02*
X62915000Y-160581000D01*
X70655000Y-160581000D02*
X70655000Y-159217000D01*
%TO.C,C10*%
X72675000Y-93445420D02*
X72675000Y-93726580D01*
X73695000Y-93445420D02*
X73695000Y-93726580D01*
%TO.C,C25*%
X91981459Y-149636000D02*
X93231459Y-149636000D01*
X92606459Y-149011000D02*
X92606459Y-150261000D01*
X98798541Y-147681000D02*
X98798541Y-160341000D01*
X98838541Y-147681000D02*
X98838541Y-160341000D01*
X98878541Y-147681000D02*
X98878541Y-160341000D01*
X98918541Y-147682000D02*
X98918541Y-160340000D01*
X98958541Y-147683000D02*
X98958541Y-160339000D01*
X98998541Y-147684000D02*
X98998541Y-160338000D01*
X99038541Y-147685000D02*
X99038541Y-160337000D01*
X99078541Y-147687000D02*
X99078541Y-160335000D01*
X99118541Y-147689000D02*
X99118541Y-160333000D01*
X99158541Y-147691000D02*
X99158541Y-160331000D01*
X99198541Y-147693000D02*
X99198541Y-160329000D01*
X99238541Y-147696000D02*
X99238541Y-160326000D01*
X99278541Y-147699000D02*
X99278541Y-160323000D01*
X99318541Y-147702000D02*
X99318541Y-160320000D01*
X99358541Y-147705000D02*
X99358541Y-160317000D01*
X99398541Y-147709000D02*
X99398541Y-160313000D01*
X99438541Y-147713000D02*
X99438541Y-160309000D01*
X99478541Y-147717000D02*
X99478541Y-160305000D01*
X99519541Y-147721000D02*
X99519541Y-160301000D01*
X99559541Y-147726000D02*
X99559541Y-160296000D01*
X99599541Y-147731000D02*
X99599541Y-160291000D01*
X99639541Y-147736000D02*
X99639541Y-160286000D01*
X99679541Y-147742000D02*
X99679541Y-160280000D01*
X99719541Y-147747000D02*
X99719541Y-160275000D01*
X99759541Y-147753000D02*
X99759541Y-160269000D01*
X99799541Y-147759000D02*
X99799541Y-160263000D01*
X99839541Y-147766000D02*
X99839541Y-160256000D01*
X99879541Y-147773000D02*
X99879541Y-152571000D01*
X99879541Y-155451000D02*
X99879541Y-160249000D01*
X99919541Y-147780000D02*
X99919541Y-152571000D01*
X99919541Y-155451000D02*
X99919541Y-160242000D01*
X99959541Y-147787000D02*
X99959541Y-152571000D01*
X99959541Y-155451000D02*
X99959541Y-160235000D01*
X99999541Y-147795000D02*
X99999541Y-152571000D01*
X99999541Y-155451000D02*
X99999541Y-160227000D01*
X100039541Y-147802000D02*
X100039541Y-152571000D01*
X100039541Y-155451000D02*
X100039541Y-160220000D01*
X100079541Y-147810000D02*
X100079541Y-152571000D01*
X100079541Y-155451000D02*
X100079541Y-160212000D01*
X100119541Y-147819000D02*
X100119541Y-152571000D01*
X100119541Y-155451000D02*
X100119541Y-160203000D01*
X100159541Y-147827000D02*
X100159541Y-152571000D01*
X100159541Y-155451000D02*
X100159541Y-160195000D01*
X100199541Y-147836000D02*
X100199541Y-152571000D01*
X100199541Y-155451000D02*
X100199541Y-160186000D01*
X100239541Y-147845000D02*
X100239541Y-152571000D01*
X100239541Y-155451000D02*
X100239541Y-160177000D01*
X100279541Y-147855000D02*
X100279541Y-152571000D01*
X100279541Y-155451000D02*
X100279541Y-160167000D01*
X100319541Y-147865000D02*
X100319541Y-152571000D01*
X100319541Y-155451000D02*
X100319541Y-160157000D01*
X100359541Y-147874000D02*
X100359541Y-152571000D01*
X100359541Y-155451000D02*
X100359541Y-160148000D01*
X100399541Y-147885000D02*
X100399541Y-152571000D01*
X100399541Y-155451000D02*
X100399541Y-160137000D01*
X100439541Y-147895000D02*
X100439541Y-152571000D01*
X100439541Y-155451000D02*
X100439541Y-160127000D01*
X100479541Y-147906000D02*
X100479541Y-152571000D01*
X100479541Y-155451000D02*
X100479541Y-160116000D01*
X100519541Y-147917000D02*
X100519541Y-152571000D01*
X100519541Y-155451000D02*
X100519541Y-160105000D01*
X100559541Y-147928000D02*
X100559541Y-152571000D01*
X100559541Y-155451000D02*
X100559541Y-160094000D01*
X100599541Y-147940000D02*
X100599541Y-152571000D01*
X100599541Y-155451000D02*
X100599541Y-160082000D01*
X100639541Y-147952000D02*
X100639541Y-152571000D01*
X100639541Y-155451000D02*
X100639541Y-160070000D01*
X100679541Y-147964000D02*
X100679541Y-152571000D01*
X100679541Y-155451000D02*
X100679541Y-160058000D01*
X100719541Y-147977000D02*
X100719541Y-152571000D01*
X100719541Y-155451000D02*
X100719541Y-160045000D01*
X100759541Y-147990000D02*
X100759541Y-152571000D01*
X100759541Y-155451000D02*
X100759541Y-160032000D01*
X100799541Y-148003000D02*
X100799541Y-152571000D01*
X100799541Y-155451000D02*
X100799541Y-160019000D01*
X100839541Y-148016000D02*
X100839541Y-152571000D01*
X100839541Y-155451000D02*
X100839541Y-160006000D01*
X100879541Y-148030000D02*
X100879541Y-152571000D01*
X100879541Y-155451000D02*
X100879541Y-159992000D01*
X100919541Y-148044000D02*
X100919541Y-152571000D01*
X100919541Y-155451000D02*
X100919541Y-159978000D01*
X100959541Y-148058000D02*
X100959541Y-152571000D01*
X100959541Y-155451000D02*
X100959541Y-159964000D01*
X100999541Y-148072000D02*
X100999541Y-152571000D01*
X100999541Y-155451000D02*
X100999541Y-159950000D01*
X101039541Y-148087000D02*
X101039541Y-152571000D01*
X101039541Y-155451000D02*
X101039541Y-159935000D01*
X101079541Y-148103000D02*
X101079541Y-152571000D01*
X101079541Y-155451000D02*
X101079541Y-159919000D01*
X101119541Y-148118000D02*
X101119541Y-152571000D01*
X101119541Y-155451000D02*
X101119541Y-159904000D01*
X101159541Y-148134000D02*
X101159541Y-152571000D01*
X101159541Y-155451000D02*
X101159541Y-159888000D01*
X101199541Y-148150000D02*
X101199541Y-152571000D01*
X101199541Y-155451000D02*
X101199541Y-159872000D01*
X101239541Y-148166000D02*
X101239541Y-152571000D01*
X101239541Y-155451000D02*
X101239541Y-159856000D01*
X101279541Y-148183000D02*
X101279541Y-152571000D01*
X101279541Y-155451000D02*
X101279541Y-159839000D01*
X101319541Y-148200000D02*
X101319541Y-152571000D01*
X101319541Y-155451000D02*
X101319541Y-159822000D01*
X101359541Y-148218000D02*
X101359541Y-152571000D01*
X101359541Y-155451000D02*
X101359541Y-159804000D01*
X101399541Y-148235000D02*
X101399541Y-152571000D01*
X101399541Y-155451000D02*
X101399541Y-159787000D01*
X101439541Y-148253000D02*
X101439541Y-152571000D01*
X101439541Y-155451000D02*
X101439541Y-159769000D01*
X101479541Y-148272000D02*
X101479541Y-152571000D01*
X101479541Y-155451000D02*
X101479541Y-159750000D01*
X101519541Y-148290000D02*
X101519541Y-152571000D01*
X101519541Y-155451000D02*
X101519541Y-159732000D01*
X101559541Y-148309000D02*
X101559541Y-152571000D01*
X101559541Y-155451000D02*
X101559541Y-159713000D01*
X101599541Y-148329000D02*
X101599541Y-152571000D01*
X101599541Y-155451000D02*
X101599541Y-159693000D01*
X101639541Y-148349000D02*
X101639541Y-152571000D01*
X101639541Y-155451000D02*
X101639541Y-159673000D01*
X101679541Y-148369000D02*
X101679541Y-152571000D01*
X101679541Y-155451000D02*
X101679541Y-159653000D01*
X101719541Y-148389000D02*
X101719541Y-152571000D01*
X101719541Y-155451000D02*
X101719541Y-159633000D01*
X101759541Y-148410000D02*
X101759541Y-152571000D01*
X101759541Y-155451000D02*
X101759541Y-159612000D01*
X101799541Y-148431000D02*
X101799541Y-152571000D01*
X101799541Y-155451000D02*
X101799541Y-159591000D01*
X101839541Y-148453000D02*
X101839541Y-152571000D01*
X101839541Y-155451000D02*
X101839541Y-159569000D01*
X101879541Y-148475000D02*
X101879541Y-152571000D01*
X101879541Y-155451000D02*
X101879541Y-159547000D01*
X101919541Y-148497000D02*
X101919541Y-152571000D01*
X101919541Y-155451000D02*
X101919541Y-159525000D01*
X101959541Y-148520000D02*
X101959541Y-152571000D01*
X101959541Y-155451000D02*
X101959541Y-159502000D01*
X101999541Y-148543000D02*
X101999541Y-152571000D01*
X101999541Y-155451000D02*
X101999541Y-159479000D01*
X102039541Y-148566000D02*
X102039541Y-152571000D01*
X102039541Y-155451000D02*
X102039541Y-159456000D01*
X102079541Y-148590000D02*
X102079541Y-152571000D01*
X102079541Y-155451000D02*
X102079541Y-159432000D01*
X102119541Y-148614000D02*
X102119541Y-152571000D01*
X102119541Y-155451000D02*
X102119541Y-159408000D01*
X102159541Y-148639000D02*
X102159541Y-152571000D01*
X102159541Y-155451000D02*
X102159541Y-159383000D01*
X102199541Y-148664000D02*
X102199541Y-152571000D01*
X102199541Y-155451000D02*
X102199541Y-159358000D01*
X102239541Y-148689000D02*
X102239541Y-152571000D01*
X102239541Y-155451000D02*
X102239541Y-159333000D01*
X102279541Y-148715000D02*
X102279541Y-152571000D01*
X102279541Y-155451000D02*
X102279541Y-159307000D01*
X102319541Y-148741000D02*
X102319541Y-152571000D01*
X102319541Y-155451000D02*
X102319541Y-159281000D01*
X102359541Y-148768000D02*
X102359541Y-152571000D01*
X102359541Y-155451000D02*
X102359541Y-159254000D01*
X102399541Y-148795000D02*
X102399541Y-152571000D01*
X102399541Y-155451000D02*
X102399541Y-159227000D01*
X102439541Y-148823000D02*
X102439541Y-152571000D01*
X102439541Y-155451000D02*
X102439541Y-159199000D01*
X102479541Y-148851000D02*
X102479541Y-152571000D01*
X102479541Y-155451000D02*
X102479541Y-159171000D01*
X102519541Y-148880000D02*
X102519541Y-152571000D01*
X102519541Y-155451000D02*
X102519541Y-159142000D01*
X102559541Y-148909000D02*
X102559541Y-152571000D01*
X102559541Y-155451000D02*
X102559541Y-159113000D01*
X102599541Y-148938000D02*
X102599541Y-152571000D01*
X102599541Y-155451000D02*
X102599541Y-159084000D01*
X102639541Y-148968000D02*
X102639541Y-152571000D01*
X102639541Y-155451000D02*
X102639541Y-159054000D01*
X102679541Y-148999000D02*
X102679541Y-152571000D01*
X102679541Y-155451000D02*
X102679541Y-159023000D01*
X102719541Y-149029000D02*
X102719541Y-152571000D01*
X102719541Y-155451000D02*
X102719541Y-158993000D01*
X102759541Y-149061000D02*
X102759541Y-158961000D01*
X102799541Y-149093000D02*
X102799541Y-158929000D01*
X102839541Y-149126000D02*
X102839541Y-158896000D01*
X102879541Y-149159000D02*
X102879541Y-158863000D01*
X102919541Y-149192000D02*
X102919541Y-158830000D01*
X102959541Y-149226000D02*
X102959541Y-158796000D01*
X102999541Y-149261000D02*
X102999541Y-158761000D01*
X103039541Y-149297000D02*
X103039541Y-158725000D01*
X103079541Y-149333000D02*
X103079541Y-158689000D01*
X103119541Y-149369000D02*
X103119541Y-158653000D01*
X103159541Y-149406000D02*
X103159541Y-158616000D01*
X103199541Y-149444000D02*
X103199541Y-158578000D01*
X103239541Y-149483000D02*
X103239541Y-158539000D01*
X103279541Y-149522000D02*
X103279541Y-158500000D01*
X103319541Y-149562000D02*
X103319541Y-158460000D01*
X103359541Y-149603000D02*
X103359541Y-158419000D01*
X103399541Y-149644000D02*
X103399541Y-158378000D01*
X103439541Y-149686000D02*
X103439541Y-158336000D01*
X103479541Y-149729000D02*
X103479541Y-158293000D01*
X103519541Y-149773000D02*
X103519541Y-158249000D01*
X103559541Y-149817000D02*
X103559541Y-158205000D01*
X103599541Y-149863000D02*
X103599541Y-158159000D01*
X103639541Y-149909000D02*
X103639541Y-158113000D01*
X103679541Y-149956000D02*
X103679541Y-158066000D01*
X103719541Y-150004000D02*
X103719541Y-158018000D01*
X103759541Y-150054000D02*
X103759541Y-157968000D01*
X103799541Y-150104000D02*
X103799541Y-157918000D01*
X103839541Y-150155000D02*
X103839541Y-157867000D01*
X103879541Y-150207000D02*
X103879541Y-157815000D01*
X103919541Y-150261000D02*
X103919541Y-157761000D01*
X103959541Y-150315000D02*
X103959541Y-157707000D01*
X103999541Y-150371000D02*
X103999541Y-157651000D01*
X104039541Y-150428000D02*
X104039541Y-157594000D01*
X104079541Y-150487000D02*
X104079541Y-157535000D01*
X104119541Y-150547000D02*
X104119541Y-157475000D01*
X104159541Y-150609000D02*
X104159541Y-157413000D01*
X104199541Y-150672000D02*
X104199541Y-157350000D01*
X104239541Y-150736000D02*
X104239541Y-157286000D01*
X104279541Y-150803000D02*
X104279541Y-157219000D01*
X104319541Y-150871000D02*
X104319541Y-157151000D01*
X104359541Y-150942000D02*
X104359541Y-157080000D01*
X104399541Y-151015000D02*
X104399541Y-157007000D01*
X104439541Y-151090000D02*
X104439541Y-156932000D01*
X104479541Y-151167000D02*
X104479541Y-156855000D01*
X104519541Y-151247000D02*
X104519541Y-156775000D01*
X104559541Y-151330000D02*
X104559541Y-156692000D01*
X104599541Y-151417000D02*
X104599541Y-156605000D01*
X104639541Y-151507000D02*
X104639541Y-156515000D01*
X104679541Y-151601000D02*
X104679541Y-156421000D01*
X104719541Y-151699000D02*
X104719541Y-156323000D01*
X104759541Y-151802000D02*
X104759541Y-156220000D01*
X104799541Y-151911000D02*
X104799541Y-156111000D01*
X104839541Y-152027000D02*
X104839541Y-155995000D01*
X104879541Y-152150000D02*
X104879541Y-155872000D01*
X104919541Y-152283000D02*
X104919541Y-155739000D01*
X104959541Y-152428000D02*
X104959541Y-155594000D01*
X104999541Y-152589000D02*
X104999541Y-155433000D01*
X105039541Y-152770000D02*
X105039541Y-155252000D01*
X105079541Y-152983000D02*
X105079541Y-155039000D01*
X105119541Y-153254000D02*
X105119541Y-154768000D01*
X105159541Y-153694000D02*
X105159541Y-154328000D01*
D13*
X105298541Y-154011000D02*
G75*
G02*
X92298541Y-154011000I-6500000J0D01*
G01*
X92298541Y-154011000D02*
G75*
G02*
X105298541Y-154011000I6500000J0D01*
G01*
%TO.C,C7*%
D14*
X65185000Y-42811000D02*
X54185000Y-42811000D01*
X54185000Y-68811000D01*
X65185000Y-68811000D01*
X65185000Y-42811000D01*
%TO.C,R3*%
X55947742Y-100563500D02*
X56422258Y-100563500D01*
X55947742Y-101608500D02*
X56422258Y-101608500D01*
%TO.C,R2*%
X55947742Y-102038500D02*
X56422258Y-102038500D01*
X55947742Y-103083500D02*
X56422258Y-103083500D01*
%TO.C,C5*%
X71175000Y-104070420D02*
X71175000Y-104351580D01*
X72195000Y-104070420D02*
X72195000Y-104351580D01*
%TO.C,D4*%
X66085000Y-109201000D02*
X66085000Y-111861000D01*
X67785000Y-109201000D02*
X66085000Y-109201000D01*
X67785000Y-109201000D02*
X67785000Y-111861000D01*
%TO.C,C24*%
X103267918Y-137386000D02*
X104517918Y-137386000D01*
X103892918Y-136761000D02*
X103892918Y-138011000D01*
X110085000Y-135431000D02*
X110085000Y-148091000D01*
X110125000Y-135431000D02*
X110125000Y-148091000D01*
X110165000Y-135431000D02*
X110165000Y-148091000D01*
X110205000Y-135432000D02*
X110205000Y-148090000D01*
X110245000Y-135433000D02*
X110245000Y-148089000D01*
X110285000Y-135434000D02*
X110285000Y-148088000D01*
X110325000Y-135435000D02*
X110325000Y-148087000D01*
X110365000Y-135437000D02*
X110365000Y-148085000D01*
X110405000Y-135439000D02*
X110405000Y-148083000D01*
X110445000Y-135441000D02*
X110445000Y-148081000D01*
X110485000Y-135443000D02*
X110485000Y-148079000D01*
X110525000Y-135446000D02*
X110525000Y-148076000D01*
X110565000Y-135449000D02*
X110565000Y-148073000D01*
X110605000Y-135452000D02*
X110605000Y-148070000D01*
X110645000Y-135455000D02*
X110645000Y-148067000D01*
X110685000Y-135459000D02*
X110685000Y-148063000D01*
X110725000Y-135463000D02*
X110725000Y-148059000D01*
X110765000Y-135467000D02*
X110765000Y-148055000D01*
X110806000Y-135471000D02*
X110806000Y-148051000D01*
X110846000Y-135476000D02*
X110846000Y-148046000D01*
X110886000Y-135481000D02*
X110886000Y-148041000D01*
X110926000Y-135486000D02*
X110926000Y-148036000D01*
X110966000Y-135492000D02*
X110966000Y-148030000D01*
X111006000Y-135497000D02*
X111006000Y-148025000D01*
X111046000Y-135503000D02*
X111046000Y-148019000D01*
X111086000Y-135509000D02*
X111086000Y-148013000D01*
X111126000Y-135516000D02*
X111126000Y-148006000D01*
X111166000Y-135523000D02*
X111166000Y-140321000D01*
X111166000Y-143201000D02*
X111166000Y-147999000D01*
X111206000Y-135530000D02*
X111206000Y-140321000D01*
X111206000Y-143201000D02*
X111206000Y-147992000D01*
X111246000Y-135537000D02*
X111246000Y-140321000D01*
X111246000Y-143201000D02*
X111246000Y-147985000D01*
X111286000Y-135545000D02*
X111286000Y-140321000D01*
X111286000Y-143201000D02*
X111286000Y-147977000D01*
X111326000Y-135552000D02*
X111326000Y-140321000D01*
X111326000Y-143201000D02*
X111326000Y-147970000D01*
X111366000Y-135560000D02*
X111366000Y-140321000D01*
X111366000Y-143201000D02*
X111366000Y-147962000D01*
X111406000Y-135569000D02*
X111406000Y-140321000D01*
X111406000Y-143201000D02*
X111406000Y-147953000D01*
X111446000Y-135577000D02*
X111446000Y-140321000D01*
X111446000Y-143201000D02*
X111446000Y-147945000D01*
X111486000Y-135586000D02*
X111486000Y-140321000D01*
X111486000Y-143201000D02*
X111486000Y-147936000D01*
X111526000Y-135595000D02*
X111526000Y-140321000D01*
X111526000Y-143201000D02*
X111526000Y-147927000D01*
X111566000Y-135605000D02*
X111566000Y-140321000D01*
X111566000Y-143201000D02*
X111566000Y-147917000D01*
X111606000Y-135615000D02*
X111606000Y-140321000D01*
X111606000Y-143201000D02*
X111606000Y-147907000D01*
X111646000Y-135624000D02*
X111646000Y-140321000D01*
X111646000Y-143201000D02*
X111646000Y-147898000D01*
X111686000Y-135635000D02*
X111686000Y-140321000D01*
X111686000Y-143201000D02*
X111686000Y-147887000D01*
X111726000Y-135645000D02*
X111726000Y-140321000D01*
X111726000Y-143201000D02*
X111726000Y-147877000D01*
X111766000Y-135656000D02*
X111766000Y-140321000D01*
X111766000Y-143201000D02*
X111766000Y-147866000D01*
X111806000Y-135667000D02*
X111806000Y-140321000D01*
X111806000Y-143201000D02*
X111806000Y-147855000D01*
X111846000Y-135678000D02*
X111846000Y-140321000D01*
X111846000Y-143201000D02*
X111846000Y-147844000D01*
X111886000Y-135690000D02*
X111886000Y-140321000D01*
X111886000Y-143201000D02*
X111886000Y-147832000D01*
X111926000Y-135702000D02*
X111926000Y-140321000D01*
X111926000Y-143201000D02*
X111926000Y-147820000D01*
X111966000Y-135714000D02*
X111966000Y-140321000D01*
X111966000Y-143201000D02*
X111966000Y-147808000D01*
X112006000Y-135727000D02*
X112006000Y-140321000D01*
X112006000Y-143201000D02*
X112006000Y-147795000D01*
X112046000Y-135740000D02*
X112046000Y-140321000D01*
X112046000Y-143201000D02*
X112046000Y-147782000D01*
X112086000Y-135753000D02*
X112086000Y-140321000D01*
X112086000Y-143201000D02*
X112086000Y-147769000D01*
X112126000Y-135766000D02*
X112126000Y-140321000D01*
X112126000Y-143201000D02*
X112126000Y-147756000D01*
X112166000Y-135780000D02*
X112166000Y-140321000D01*
X112166000Y-143201000D02*
X112166000Y-147742000D01*
X112206000Y-135794000D02*
X112206000Y-140321000D01*
X112206000Y-143201000D02*
X112206000Y-147728000D01*
X112246000Y-135808000D02*
X112246000Y-140321000D01*
X112246000Y-143201000D02*
X112246000Y-147714000D01*
X112286000Y-135822000D02*
X112286000Y-140321000D01*
X112286000Y-143201000D02*
X112286000Y-147700000D01*
X112326000Y-135837000D02*
X112326000Y-140321000D01*
X112326000Y-143201000D02*
X112326000Y-147685000D01*
X112366000Y-135853000D02*
X112366000Y-140321000D01*
X112366000Y-143201000D02*
X112366000Y-147669000D01*
X112406000Y-135868000D02*
X112406000Y-140321000D01*
X112406000Y-143201000D02*
X112406000Y-147654000D01*
X112446000Y-135884000D02*
X112446000Y-140321000D01*
X112446000Y-143201000D02*
X112446000Y-147638000D01*
X112486000Y-135900000D02*
X112486000Y-140321000D01*
X112486000Y-143201000D02*
X112486000Y-147622000D01*
X112526000Y-135916000D02*
X112526000Y-140321000D01*
X112526000Y-143201000D02*
X112526000Y-147606000D01*
X112566000Y-135933000D02*
X112566000Y-140321000D01*
X112566000Y-143201000D02*
X112566000Y-147589000D01*
X112606000Y-135950000D02*
X112606000Y-140321000D01*
X112606000Y-143201000D02*
X112606000Y-147572000D01*
X112646000Y-135968000D02*
X112646000Y-140321000D01*
X112646000Y-143201000D02*
X112646000Y-147554000D01*
X112686000Y-135985000D02*
X112686000Y-140321000D01*
X112686000Y-143201000D02*
X112686000Y-147537000D01*
X112726000Y-136003000D02*
X112726000Y-140321000D01*
X112726000Y-143201000D02*
X112726000Y-147519000D01*
X112766000Y-136022000D02*
X112766000Y-140321000D01*
X112766000Y-143201000D02*
X112766000Y-147500000D01*
X112806000Y-136040000D02*
X112806000Y-140321000D01*
X112806000Y-143201000D02*
X112806000Y-147482000D01*
X112846000Y-136059000D02*
X112846000Y-140321000D01*
X112846000Y-143201000D02*
X112846000Y-147463000D01*
X112886000Y-136079000D02*
X112886000Y-140321000D01*
X112886000Y-143201000D02*
X112886000Y-147443000D01*
X112926000Y-136099000D02*
X112926000Y-140321000D01*
X112926000Y-143201000D02*
X112926000Y-147423000D01*
X112966000Y-136119000D02*
X112966000Y-140321000D01*
X112966000Y-143201000D02*
X112966000Y-147403000D01*
X113006000Y-136139000D02*
X113006000Y-140321000D01*
X113006000Y-143201000D02*
X113006000Y-147383000D01*
X113046000Y-136160000D02*
X113046000Y-140321000D01*
X113046000Y-143201000D02*
X113046000Y-147362000D01*
X113086000Y-136181000D02*
X113086000Y-140321000D01*
X113086000Y-143201000D02*
X113086000Y-147341000D01*
X113126000Y-136203000D02*
X113126000Y-140321000D01*
X113126000Y-143201000D02*
X113126000Y-147319000D01*
X113166000Y-136225000D02*
X113166000Y-140321000D01*
X113166000Y-143201000D02*
X113166000Y-147297000D01*
X113206000Y-136247000D02*
X113206000Y-140321000D01*
X113206000Y-143201000D02*
X113206000Y-147275000D01*
X113246000Y-136270000D02*
X113246000Y-140321000D01*
X113246000Y-143201000D02*
X113246000Y-147252000D01*
X113286000Y-136293000D02*
X113286000Y-140321000D01*
X113286000Y-143201000D02*
X113286000Y-147229000D01*
X113326000Y-136316000D02*
X113326000Y-140321000D01*
X113326000Y-143201000D02*
X113326000Y-147206000D01*
X113366000Y-136340000D02*
X113366000Y-140321000D01*
X113366000Y-143201000D02*
X113366000Y-147182000D01*
X113406000Y-136364000D02*
X113406000Y-140321000D01*
X113406000Y-143201000D02*
X113406000Y-147158000D01*
X113446000Y-136389000D02*
X113446000Y-140321000D01*
X113446000Y-143201000D02*
X113446000Y-147133000D01*
X113486000Y-136414000D02*
X113486000Y-140321000D01*
X113486000Y-143201000D02*
X113486000Y-147108000D01*
X113526000Y-136439000D02*
X113526000Y-140321000D01*
X113526000Y-143201000D02*
X113526000Y-147083000D01*
X113566000Y-136465000D02*
X113566000Y-140321000D01*
X113566000Y-143201000D02*
X113566000Y-147057000D01*
X113606000Y-136491000D02*
X113606000Y-140321000D01*
X113606000Y-143201000D02*
X113606000Y-147031000D01*
X113646000Y-136518000D02*
X113646000Y-140321000D01*
X113646000Y-143201000D02*
X113646000Y-147004000D01*
X113686000Y-136545000D02*
X113686000Y-140321000D01*
X113686000Y-143201000D02*
X113686000Y-146977000D01*
X113726000Y-136573000D02*
X113726000Y-140321000D01*
X113726000Y-143201000D02*
X113726000Y-146949000D01*
X113766000Y-136601000D02*
X113766000Y-140321000D01*
X113766000Y-143201000D02*
X113766000Y-146921000D01*
X113806000Y-136630000D02*
X113806000Y-140321000D01*
X113806000Y-143201000D02*
X113806000Y-146892000D01*
X113846000Y-136659000D02*
X113846000Y-140321000D01*
X113846000Y-143201000D02*
X113846000Y-146863000D01*
X113886000Y-136688000D02*
X113886000Y-140321000D01*
X113886000Y-143201000D02*
X113886000Y-146834000D01*
X113926000Y-136718000D02*
X113926000Y-140321000D01*
X113926000Y-143201000D02*
X113926000Y-146804000D01*
X113966000Y-136749000D02*
X113966000Y-140321000D01*
X113966000Y-143201000D02*
X113966000Y-146773000D01*
X114006000Y-136779000D02*
X114006000Y-140321000D01*
X114006000Y-143201000D02*
X114006000Y-146743000D01*
X114046000Y-136811000D02*
X114046000Y-146711000D01*
X114086000Y-136843000D02*
X114086000Y-146679000D01*
X114126000Y-136876000D02*
X114126000Y-146646000D01*
X114166000Y-136909000D02*
X114166000Y-146613000D01*
X114206000Y-136942000D02*
X114206000Y-146580000D01*
X114246000Y-136976000D02*
X114246000Y-146546000D01*
X114286000Y-137011000D02*
X114286000Y-146511000D01*
X114326000Y-137047000D02*
X114326000Y-146475000D01*
X114366000Y-137083000D02*
X114366000Y-146439000D01*
X114406000Y-137119000D02*
X114406000Y-146403000D01*
X114446000Y-137156000D02*
X114446000Y-146366000D01*
X114486000Y-137194000D02*
X114486000Y-146328000D01*
X114526000Y-137233000D02*
X114526000Y-146289000D01*
X114566000Y-137272000D02*
X114566000Y-146250000D01*
X114606000Y-137312000D02*
X114606000Y-146210000D01*
X114646000Y-137353000D02*
X114646000Y-146169000D01*
X114686000Y-137394000D02*
X114686000Y-146128000D01*
X114726000Y-137436000D02*
X114726000Y-146086000D01*
X114766000Y-137479000D02*
X114766000Y-146043000D01*
X114806000Y-137523000D02*
X114806000Y-145999000D01*
X114846000Y-137567000D02*
X114846000Y-145955000D01*
X114886000Y-137613000D02*
X114886000Y-145909000D01*
X114926000Y-137659000D02*
X114926000Y-145863000D01*
X114966000Y-137706000D02*
X114966000Y-145816000D01*
X115006000Y-137754000D02*
X115006000Y-145768000D01*
X115046000Y-137804000D02*
X115046000Y-145718000D01*
X115086000Y-137854000D02*
X115086000Y-145668000D01*
X115126000Y-137905000D02*
X115126000Y-145617000D01*
X115166000Y-137957000D02*
X115166000Y-145565000D01*
X115206000Y-138011000D02*
X115206000Y-145511000D01*
X115246000Y-138065000D02*
X115246000Y-145457000D01*
X115286000Y-138121000D02*
X115286000Y-145401000D01*
X115326000Y-138178000D02*
X115326000Y-145344000D01*
X115366000Y-138237000D02*
X115366000Y-145285000D01*
X115406000Y-138297000D02*
X115406000Y-145225000D01*
X115446000Y-138359000D02*
X115446000Y-145163000D01*
X115486000Y-138422000D02*
X115486000Y-145100000D01*
X115526000Y-138486000D02*
X115526000Y-145036000D01*
X115566000Y-138553000D02*
X115566000Y-144969000D01*
X115606000Y-138621000D02*
X115606000Y-144901000D01*
X115646000Y-138692000D02*
X115646000Y-144830000D01*
X115686000Y-138765000D02*
X115686000Y-144757000D01*
X115726000Y-138840000D02*
X115726000Y-144682000D01*
X115766000Y-138917000D02*
X115766000Y-144605000D01*
X115806000Y-138997000D02*
X115806000Y-144525000D01*
X115846000Y-139080000D02*
X115846000Y-144442000D01*
X115886000Y-139167000D02*
X115886000Y-144355000D01*
X115926000Y-139257000D02*
X115926000Y-144265000D01*
X115966000Y-139351000D02*
X115966000Y-144171000D01*
X116006000Y-139449000D02*
X116006000Y-144073000D01*
X116046000Y-139552000D02*
X116046000Y-143970000D01*
X116086000Y-139661000D02*
X116086000Y-143861000D01*
X116126000Y-139777000D02*
X116126000Y-143745000D01*
X116166000Y-139900000D02*
X116166000Y-143622000D01*
X116206000Y-140033000D02*
X116206000Y-143489000D01*
X116246000Y-140178000D02*
X116246000Y-143344000D01*
X116286000Y-140339000D02*
X116286000Y-143183000D01*
X116326000Y-140520000D02*
X116326000Y-143002000D01*
X116366000Y-140733000D02*
X116366000Y-142789000D01*
X116406000Y-141004000D02*
X116406000Y-142518000D01*
X116446000Y-141444000D02*
X116446000Y-142078000D01*
D13*
X116585000Y-141761000D02*
G75*
G02*
X103585000Y-141761000I-6500000J0D01*
G01*
X103585000Y-141761000D02*
G75*
G02*
X116585000Y-141761000I6500000J0D01*
G01*
D14*
%TO.C,R5*%
X46507936Y-88851000D02*
X50862064Y-88851000D01*
X46507936Y-92271000D02*
X50862064Y-92271000D01*
%TO.C,D3*%
X66135000Y-105901000D02*
X66135000Y-108561000D01*
X67835000Y-105901000D02*
X66135000Y-105901000D01*
X67835000Y-105901000D02*
X67835000Y-108561000D01*
%TO.C,U2*%
X81450000Y-103776000D02*
X81450000Y-111516000D01*
X81450000Y-111516000D02*
X82700000Y-111516000D01*
X84700000Y-111516000D02*
X85950000Y-111516000D01*
X85950000Y-103776000D02*
X81450000Y-103776000D01*
X85950000Y-111516000D02*
X85950000Y-103776000D01*
X82700000Y-111516000D02*
G75*
G02*
X84700000Y-111516000I1000000J0D01*
G01*
%TO.C,C11*%
X94185000Y-42311000D02*
X83185000Y-42311000D01*
X83185000Y-68311000D01*
X94185000Y-68311000D01*
X94185000Y-42311000D01*
%TO.C,C16*%
X105035000Y-75061000D02*
X106835000Y-75061000D01*
X105935000Y-75961000D02*
X105935000Y-74161000D01*
D13*
X107185000Y-77061000D02*
X104185000Y-77061000D01*
X107185000Y-84561000D02*
X104185000Y-84561000D01*
X54185000Y-89811000D02*
X104185000Y-89811000D01*
X104185000Y-71811000D01*
X54185000Y-71811000D01*
X54185000Y-89811000D01*
D14*
%TO.C,C27*%
X84150000Y-139349748D02*
X84150000Y-139872252D01*
X85620000Y-139349748D02*
X85620000Y-139872252D01*
%TO.C,D2*%
X57675000Y-100036000D02*
X57675000Y-101736000D01*
X57675000Y-100036000D02*
X60335000Y-100036000D01*
X57675000Y-101736000D02*
X60335000Y-101736000D01*
%TO.C,C6*%
X74955000Y-109311000D02*
G75*
G02*
X68415000Y-109311000I-3270000J0D01*
G01*
X68415000Y-109311000D02*
G75*
G02*
X74955000Y-109311000I3270000J0D01*
G01*
%TO.C,R20*%
X61305000Y-108561000D02*
X62265000Y-108561000D01*
X61305000Y-108561000D02*
G75*
G02*
X56065000Y-108561000I-2620000J0D01*
G01*
X56065000Y-108561000D02*
G75*
G02*
X61305000Y-108561000I2620000J0D01*
G01*
%TO.C,C23*%
X89110459Y-123678000D02*
X89110459Y-123044000D01*
X89150459Y-124118000D02*
X89150459Y-122604000D01*
X89190459Y-124389000D02*
X89190459Y-122333000D01*
X89230459Y-124602000D02*
X89230459Y-122120000D01*
X89270459Y-124783000D02*
X89270459Y-121939000D01*
X89310459Y-124944000D02*
X89310459Y-121778000D01*
X89350459Y-125089000D02*
X89350459Y-121633000D01*
X89390459Y-125222000D02*
X89390459Y-121500000D01*
X89430459Y-125345000D02*
X89430459Y-121377000D01*
X89470459Y-125461000D02*
X89470459Y-121261000D01*
X89510459Y-125570000D02*
X89510459Y-121152000D01*
X89550459Y-125673000D02*
X89550459Y-121049000D01*
X89590459Y-125771000D02*
X89590459Y-120951000D01*
X89630459Y-125865000D02*
X89630459Y-120857000D01*
X89670459Y-125955000D02*
X89670459Y-120767000D01*
X89710459Y-126042000D02*
X89710459Y-120680000D01*
X89750459Y-126125000D02*
X89750459Y-120597000D01*
X89790459Y-126205000D02*
X89790459Y-120517000D01*
X89830459Y-126282000D02*
X89830459Y-120440000D01*
X89870459Y-126357000D02*
X89870459Y-120365000D01*
X89910459Y-126430000D02*
X89910459Y-120292000D01*
X89950459Y-126501000D02*
X89950459Y-120221000D01*
X89990459Y-126569000D02*
X89990459Y-120153000D01*
X90030459Y-126636000D02*
X90030459Y-120086000D01*
X90070459Y-126700000D02*
X90070459Y-120022000D01*
X90110459Y-126763000D02*
X90110459Y-119959000D01*
X90150459Y-126825000D02*
X90150459Y-119897000D01*
X90190459Y-126885000D02*
X90190459Y-119837000D01*
X90230459Y-126944000D02*
X90230459Y-119778000D01*
X90270459Y-127001000D02*
X90270459Y-119721000D01*
X90310459Y-127057000D02*
X90310459Y-119665000D01*
X90350459Y-127111000D02*
X90350459Y-119611000D01*
X90390459Y-127165000D02*
X90390459Y-119557000D01*
X90430459Y-127217000D02*
X90430459Y-119505000D01*
X90470459Y-127268000D02*
X90470459Y-119454000D01*
X90510459Y-127318000D02*
X90510459Y-119404000D01*
X90550459Y-127368000D02*
X90550459Y-119354000D01*
X90590459Y-127416000D02*
X90590459Y-119306000D01*
X90630459Y-127463000D02*
X90630459Y-119259000D01*
X90670459Y-127509000D02*
X90670459Y-119213000D01*
X90710459Y-127555000D02*
X90710459Y-119167000D01*
X90750459Y-127599000D02*
X90750459Y-119123000D01*
X90790459Y-127643000D02*
X90790459Y-119079000D01*
X90830459Y-127686000D02*
X90830459Y-119036000D01*
X90870459Y-127728000D02*
X90870459Y-118994000D01*
X90910459Y-127769000D02*
X90910459Y-118953000D01*
X90950459Y-127810000D02*
X90950459Y-118912000D01*
X90990459Y-127850000D02*
X90990459Y-118872000D01*
X91030459Y-127889000D02*
X91030459Y-118833000D01*
X91070459Y-127928000D02*
X91070459Y-118794000D01*
X91110459Y-127966000D02*
X91110459Y-118756000D01*
X91150459Y-128003000D02*
X91150459Y-118719000D01*
X91190459Y-128039000D02*
X91190459Y-118683000D01*
X91230459Y-128075000D02*
X91230459Y-118647000D01*
X91270459Y-128111000D02*
X91270459Y-118611000D01*
X91310459Y-128146000D02*
X91310459Y-118576000D01*
X91350459Y-128180000D02*
X91350459Y-118542000D01*
X91390459Y-128213000D02*
X91390459Y-118509000D01*
X91430459Y-128246000D02*
X91430459Y-118476000D01*
X91470459Y-128279000D02*
X91470459Y-118443000D01*
X91510459Y-128311000D02*
X91510459Y-118411000D01*
X91550459Y-121921000D02*
X91550459Y-118379000D01*
X91550459Y-128343000D02*
X91550459Y-124801000D01*
X91590459Y-121921000D02*
X91590459Y-118349000D01*
X91590459Y-128373000D02*
X91590459Y-124801000D01*
X91630459Y-121921000D02*
X91630459Y-118318000D01*
X91630459Y-128404000D02*
X91630459Y-124801000D01*
X91670459Y-121921000D02*
X91670459Y-118288000D01*
X91670459Y-128434000D02*
X91670459Y-124801000D01*
X91710459Y-121921000D02*
X91710459Y-118259000D01*
X91710459Y-128463000D02*
X91710459Y-124801000D01*
X91750459Y-121921000D02*
X91750459Y-118230000D01*
X91750459Y-128492000D02*
X91750459Y-124801000D01*
X91790459Y-121921000D02*
X91790459Y-118201000D01*
X91790459Y-128521000D02*
X91790459Y-124801000D01*
X91830459Y-121921000D02*
X91830459Y-118173000D01*
X91830459Y-128549000D02*
X91830459Y-124801000D01*
X91870459Y-121921000D02*
X91870459Y-118145000D01*
X91870459Y-128577000D02*
X91870459Y-124801000D01*
X91910459Y-121921000D02*
X91910459Y-118118000D01*
X91910459Y-128604000D02*
X91910459Y-124801000D01*
X91950459Y-121921000D02*
X91950459Y-118091000D01*
X91950459Y-128631000D02*
X91950459Y-124801000D01*
X91990459Y-121921000D02*
X91990459Y-118065000D01*
X91990459Y-128657000D02*
X91990459Y-124801000D01*
X92030459Y-121921000D02*
X92030459Y-118039000D01*
X92030459Y-128683000D02*
X92030459Y-124801000D01*
X92070459Y-121921000D02*
X92070459Y-118014000D01*
X92070459Y-128708000D02*
X92070459Y-124801000D01*
X92110459Y-121921000D02*
X92110459Y-117989000D01*
X92110459Y-128733000D02*
X92110459Y-124801000D01*
X92150459Y-121921000D02*
X92150459Y-117964000D01*
X92150459Y-128758000D02*
X92150459Y-124801000D01*
X92190459Y-121921000D02*
X92190459Y-117940000D01*
X92190459Y-128782000D02*
X92190459Y-124801000D01*
X92230459Y-121921000D02*
X92230459Y-117916000D01*
X92230459Y-128806000D02*
X92230459Y-124801000D01*
X92270459Y-121921000D02*
X92270459Y-117893000D01*
X92270459Y-128829000D02*
X92270459Y-124801000D01*
X92310459Y-121921000D02*
X92310459Y-117870000D01*
X92310459Y-128852000D02*
X92310459Y-124801000D01*
X92350459Y-121921000D02*
X92350459Y-117847000D01*
X92350459Y-128875000D02*
X92350459Y-124801000D01*
X92390459Y-121921000D02*
X92390459Y-117825000D01*
X92390459Y-128897000D02*
X92390459Y-124801000D01*
X92430459Y-121921000D02*
X92430459Y-117803000D01*
X92430459Y-128919000D02*
X92430459Y-124801000D01*
X92470459Y-121921000D02*
X92470459Y-117781000D01*
X92470459Y-128941000D02*
X92470459Y-124801000D01*
X92510459Y-121921000D02*
X92510459Y-117760000D01*
X92510459Y-128962000D02*
X92510459Y-124801000D01*
X92550459Y-121921000D02*
X92550459Y-117739000D01*
X92550459Y-128983000D02*
X92550459Y-124801000D01*
X92590459Y-121921000D02*
X92590459Y-117719000D01*
X92590459Y-129003000D02*
X92590459Y-124801000D01*
X92630459Y-121921000D02*
X92630459Y-117699000D01*
X92630459Y-129023000D02*
X92630459Y-124801000D01*
X92670459Y-121921000D02*
X92670459Y-117679000D01*
X92670459Y-129043000D02*
X92670459Y-124801000D01*
X92710459Y-121921000D02*
X92710459Y-117659000D01*
X92710459Y-129063000D02*
X92710459Y-124801000D01*
X92750459Y-121921000D02*
X92750459Y-117640000D01*
X92750459Y-129082000D02*
X92750459Y-124801000D01*
X92790459Y-121921000D02*
X92790459Y-117622000D01*
X92790459Y-129100000D02*
X92790459Y-124801000D01*
X92830459Y-121921000D02*
X92830459Y-117603000D01*
X92830459Y-129119000D02*
X92830459Y-124801000D01*
X92870459Y-121921000D02*
X92870459Y-117585000D01*
X92870459Y-129137000D02*
X92870459Y-124801000D01*
X92910459Y-121921000D02*
X92910459Y-117568000D01*
X92910459Y-129154000D02*
X92910459Y-124801000D01*
X92950459Y-121921000D02*
X92950459Y-117550000D01*
X92950459Y-129172000D02*
X92950459Y-124801000D01*
X92990459Y-121921000D02*
X92990459Y-117533000D01*
X92990459Y-129189000D02*
X92990459Y-124801000D01*
X93030459Y-121921000D02*
X93030459Y-117516000D01*
X93030459Y-129206000D02*
X93030459Y-124801000D01*
X93070459Y-121921000D02*
X93070459Y-117500000D01*
X93070459Y-129222000D02*
X93070459Y-124801000D01*
X93110459Y-121921000D02*
X93110459Y-117484000D01*
X93110459Y-129238000D02*
X93110459Y-124801000D01*
X93150459Y-121921000D02*
X93150459Y-117468000D01*
X93150459Y-129254000D02*
X93150459Y-124801000D01*
X93190459Y-121921000D02*
X93190459Y-117453000D01*
X93190459Y-129269000D02*
X93190459Y-124801000D01*
X93230459Y-121921000D02*
X93230459Y-117437000D01*
X93230459Y-129285000D02*
X93230459Y-124801000D01*
X93270459Y-121921000D02*
X93270459Y-117422000D01*
X93270459Y-129300000D02*
X93270459Y-124801000D01*
X93310459Y-121921000D02*
X93310459Y-117408000D01*
X93310459Y-129314000D02*
X93310459Y-124801000D01*
X93350459Y-121921000D02*
X93350459Y-117394000D01*
X93350459Y-129328000D02*
X93350459Y-124801000D01*
X93390459Y-121921000D02*
X93390459Y-117380000D01*
X93390459Y-129342000D02*
X93390459Y-124801000D01*
X93430459Y-121921000D02*
X93430459Y-117366000D01*
X93430459Y-129356000D02*
X93430459Y-124801000D01*
X93470459Y-121921000D02*
X93470459Y-117353000D01*
X93470459Y-129369000D02*
X93470459Y-124801000D01*
X93510459Y-121921000D02*
X93510459Y-117340000D01*
X93510459Y-129382000D02*
X93510459Y-124801000D01*
X93550459Y-121921000D02*
X93550459Y-117327000D01*
X93550459Y-129395000D02*
X93550459Y-124801000D01*
X93590459Y-121921000D02*
X93590459Y-117314000D01*
X93590459Y-129408000D02*
X93590459Y-124801000D01*
X93630459Y-121921000D02*
X93630459Y-117302000D01*
X93630459Y-129420000D02*
X93630459Y-124801000D01*
X93670459Y-121921000D02*
X93670459Y-117290000D01*
X93670459Y-129432000D02*
X93670459Y-124801000D01*
X93710459Y-121921000D02*
X93710459Y-117278000D01*
X93710459Y-129444000D02*
X93710459Y-124801000D01*
X93750459Y-121921000D02*
X93750459Y-117267000D01*
X93750459Y-129455000D02*
X93750459Y-124801000D01*
X93790459Y-121921000D02*
X93790459Y-117256000D01*
X93790459Y-129466000D02*
X93790459Y-124801000D01*
X93830459Y-121921000D02*
X93830459Y-117245000D01*
X93830459Y-129477000D02*
X93830459Y-124801000D01*
X93870459Y-121921000D02*
X93870459Y-117235000D01*
X93870459Y-129487000D02*
X93870459Y-124801000D01*
X93910459Y-121921000D02*
X93910459Y-117224000D01*
X93910459Y-129498000D02*
X93910459Y-124801000D01*
X93950459Y-121921000D02*
X93950459Y-117215000D01*
X93950459Y-129507000D02*
X93950459Y-124801000D01*
X93990459Y-121921000D02*
X93990459Y-117205000D01*
X93990459Y-129517000D02*
X93990459Y-124801000D01*
X94030459Y-121921000D02*
X94030459Y-117195000D01*
X94030459Y-129527000D02*
X94030459Y-124801000D01*
X94070459Y-121921000D02*
X94070459Y-117186000D01*
X94070459Y-129536000D02*
X94070459Y-124801000D01*
X94110459Y-121921000D02*
X94110459Y-117177000D01*
X94110459Y-129545000D02*
X94110459Y-124801000D01*
X94150459Y-121921000D02*
X94150459Y-117169000D01*
X94150459Y-129553000D02*
X94150459Y-124801000D01*
X94190459Y-121921000D02*
X94190459Y-117160000D01*
X94190459Y-129562000D02*
X94190459Y-124801000D01*
X94230459Y-121921000D02*
X94230459Y-117152000D01*
X94230459Y-129570000D02*
X94230459Y-124801000D01*
X94270459Y-121921000D02*
X94270459Y-117145000D01*
X94270459Y-129577000D02*
X94270459Y-124801000D01*
X94310459Y-121921000D02*
X94310459Y-117137000D01*
X94310459Y-129585000D02*
X94310459Y-124801000D01*
X94350459Y-121921000D02*
X94350459Y-117130000D01*
X94350459Y-129592000D02*
X94350459Y-124801000D01*
X94390459Y-121921000D02*
X94390459Y-117123000D01*
X94390459Y-129599000D02*
X94390459Y-124801000D01*
X94430459Y-129606000D02*
X94430459Y-117116000D01*
X94470459Y-129613000D02*
X94470459Y-117109000D01*
X94510459Y-129619000D02*
X94510459Y-117103000D01*
X94550459Y-129625000D02*
X94550459Y-117097000D01*
X94590459Y-129630000D02*
X94590459Y-117092000D01*
X94630459Y-129636000D02*
X94630459Y-117086000D01*
X94670459Y-129641000D02*
X94670459Y-117081000D01*
X94710459Y-129646000D02*
X94710459Y-117076000D01*
X94750459Y-129651000D02*
X94750459Y-117071000D01*
X94791459Y-129655000D02*
X94791459Y-117067000D01*
X94831459Y-129659000D02*
X94831459Y-117063000D01*
X94871459Y-129663000D02*
X94871459Y-117059000D01*
X94911459Y-129667000D02*
X94911459Y-117055000D01*
X94951459Y-129670000D02*
X94951459Y-117052000D01*
X94991459Y-129673000D02*
X94991459Y-117049000D01*
X95031459Y-129676000D02*
X95031459Y-117046000D01*
X95071459Y-129679000D02*
X95071459Y-117043000D01*
X95111459Y-129681000D02*
X95111459Y-117041000D01*
X95151459Y-129683000D02*
X95151459Y-117039000D01*
X95191459Y-129685000D02*
X95191459Y-117037000D01*
X95231459Y-129687000D02*
X95231459Y-117035000D01*
X95271459Y-129688000D02*
X95271459Y-117034000D01*
X95311459Y-129689000D02*
X95311459Y-117033000D01*
X95351459Y-129690000D02*
X95351459Y-117032000D01*
X95391459Y-129691000D02*
X95391459Y-117031000D01*
X95431459Y-129691000D02*
X95431459Y-117031000D01*
X95471459Y-129691000D02*
X95471459Y-117031000D01*
X101663541Y-128361000D02*
X101663541Y-127111000D01*
X102288541Y-127736000D02*
X101038541Y-127736000D01*
D13*
X101971459Y-123361000D02*
G75*
G02*
X88971459Y-123361000I-6500000J0D01*
G01*
X88971459Y-123361000D02*
G75*
G02*
X101971459Y-123361000I6500000J0D01*
G01*
D14*
%TO.C,U3*%
X90950000Y-106761000D02*
X90950000Y-106111000D01*
X90950000Y-106761000D02*
X90950000Y-107411000D01*
X94070000Y-106761000D02*
X94070000Y-106111000D01*
X94070000Y-106761000D02*
X94070000Y-107411000D01*
X91000000Y-107923500D02*
X90670000Y-108163500D01*
X90670000Y-107683500D01*
X91000000Y-107923500D01*
G36*
X91000000Y-107923500D02*
G01*
X90670000Y-108163500D01*
X90670000Y-107683500D01*
X91000000Y-107923500D01*
G37*
%TO.C,FL1*%
X68685000Y-48061000D02*
X69185000Y-47561000D01*
X68935000Y-61311000D02*
X69435000Y-61311000D01*
X69185000Y-47561000D02*
X69185000Y-48561000D01*
X69185000Y-47561000D02*
X69685000Y-48061000D01*
X69185000Y-48561000D02*
X79185000Y-48561000D01*
X69185000Y-60311000D02*
X69185000Y-61311000D01*
X69185000Y-61811000D02*
X68935000Y-61311000D01*
X69435000Y-61311000D02*
X69185000Y-61811000D01*
X69685000Y-48061000D02*
X68685000Y-48061000D01*
X79185000Y-48561000D02*
X79185000Y-47561000D01*
X79185000Y-60311000D02*
X69185000Y-60311000D01*
X79185000Y-61311000D02*
X79185000Y-60311000D01*
X81935000Y-42061000D02*
X66435000Y-42061000D01*
X66435000Y-66561000D01*
X81935000Y-66561000D01*
X81935000Y-42061000D01*
%TO.C,C14*%
X92369420Y-103251000D02*
X92650580Y-103251000D01*
X92369420Y-104271000D02*
X92650580Y-104271000D01*
%TO.C,R8*%
X82707936Y-91901000D02*
X84162064Y-91901000D01*
X82707936Y-93721000D02*
X84162064Y-93721000D01*
%TO.C,C9*%
X43565000Y-35191000D02*
X48805000Y-35191000D01*
X43565000Y-45931000D02*
X43565000Y-35191000D01*
X43565000Y-45931000D02*
X48805000Y-45931000D01*
X48805000Y-45931000D02*
X48805000Y-35191000D01*
%TO.C,C26*%
X86100000Y-139872252D02*
X86100000Y-139349748D01*
X87570000Y-139872252D02*
X87570000Y-139349748D01*
%TO.C,HS2*%
X94660000Y-136661000D02*
X83110000Y-136661000D01*
X83110000Y-147861000D01*
X83110000Y-159661000D01*
X94660000Y-159661000D01*
X94660000Y-160861000D01*
X81910000Y-160861000D01*
X81910000Y-159661000D01*
X81910000Y-147861000D01*
X81910000Y-136661000D01*
X81910000Y-135461000D01*
X94660000Y-135461000D01*
X94660000Y-136661000D01*
%TO.C,C1*%
X74175000Y-93726580D02*
X74175000Y-93445420D01*
X75195000Y-93726580D02*
X75195000Y-93445420D01*
%TO.C,R22*%
X77315000Y-157961000D02*
X78275000Y-157961000D01*
X77315000Y-157961000D02*
G75*
G02*
X72075000Y-157961000I-2620000J0D01*
G01*
X72075000Y-157961000D02*
G75*
G02*
X77315000Y-157961000I2620000J0D01*
G01*
%TO.C,R17*%
X97148700Y-114653942D02*
X97148700Y-115128458D01*
X98193700Y-114653942D02*
X98193700Y-115128458D01*
D10*
%TO.C,TH1*%
X94985000Y-48411000D02*
X101385000Y-48411000D01*
X94985000Y-57711000D02*
X94985000Y-48411000D01*
X94985000Y-57711000D02*
X101385000Y-57711000D01*
X101385000Y-57711000D02*
X101385000Y-48411000D01*
D14*
%TO.C,R1*%
X68547742Y-93638500D02*
X69022258Y-93638500D01*
X68547742Y-94683500D02*
X69022258Y-94683500D01*
%TO.C,J1*%
X36025000Y-72501000D02*
X43045000Y-72501000D01*
X36025000Y-84541000D02*
X36025000Y-72501000D01*
X40635000Y-71701000D02*
X41235000Y-71701000D01*
X40935000Y-72301000D02*
X40635000Y-71701000D01*
X41235000Y-71701000D02*
X40935000Y-72301000D01*
X43045000Y-72501000D02*
X43045000Y-73701000D01*
X43045000Y-73701000D02*
X44745000Y-73701000D01*
X43045000Y-83341000D02*
X43045000Y-84541000D01*
X43045000Y-84541000D02*
X36025000Y-84541000D01*
X44745000Y-73701000D02*
X44745000Y-83341000D01*
X44745000Y-83341000D02*
X43045000Y-83341000D01*
%TO.C,C15*%
X96675620Y-108996200D02*
X96956780Y-108996200D01*
X96675620Y-110016200D02*
X96956780Y-110016200D01*
%TO.C,R7*%
X88707936Y-91901000D02*
X90162064Y-91901000D01*
X88707936Y-93721000D02*
X90162064Y-93721000D01*
%TO.C,C20*%
X105500000Y-108522252D02*
X105500000Y-107999748D01*
X106970000Y-108522252D02*
X106970000Y-107999748D01*
%TO.C,C8*%
X49315000Y-40181000D02*
X49315000Y-34941000D01*
X60055000Y-34941000D02*
X49315000Y-34941000D01*
X60055000Y-40181000D02*
X49315000Y-40181000D01*
X60055000Y-40181000D02*
X60055000Y-34941000D01*
%TO.C,R4*%
X55922742Y-103563500D02*
X56397258Y-103563500D01*
X55922742Y-104608500D02*
X56397258Y-104608500D01*
%TO.C,R12*%
X74162500Y-103998742D02*
X74162500Y-104473258D01*
X75207500Y-103998742D02*
X75207500Y-104473258D01*
%TO.C,J2*%
X107775000Y-100783500D02*
X114795000Y-100783500D01*
X107775000Y-116783500D02*
X107775000Y-100783500D01*
X112385000Y-99983500D02*
X112985000Y-99983500D01*
X112685000Y-100583500D02*
X112385000Y-99983500D01*
X112985000Y-99983500D02*
X112685000Y-100583500D01*
X114795000Y-100783500D02*
X114795000Y-101983500D01*
X114795000Y-101983500D02*
X116495000Y-101983500D01*
X114795000Y-115583500D02*
X114795000Y-116783500D01*
X114795000Y-116783500D02*
X107775000Y-116783500D01*
X116495000Y-101983500D02*
X116495000Y-115583500D01*
X116495000Y-115583500D02*
X114795000Y-115583500D01*
%TO.C,D5*%
X93701200Y-113406200D02*
X89841200Y-113406200D01*
X93701200Y-115406200D02*
X89841200Y-115406200D01*
X93701200Y-115406200D02*
X93701200Y-113406200D01*
%TO.C,C19*%
X48565000Y-97191000D02*
X49929000Y-97191000D01*
X48565000Y-104931000D02*
X48565000Y-97191000D01*
X48565000Y-104931000D02*
X49929000Y-104931000D01*
X52441000Y-97191000D02*
X53805000Y-97191000D01*
X52441000Y-104931000D02*
X53805000Y-104931000D01*
X53805000Y-104931000D02*
X53805000Y-97191000D01*
%TO.C,C13*%
X90900580Y-112001000D02*
X90619420Y-112001000D01*
X90900580Y-113021000D02*
X90619420Y-113021000D01*
%TO.C,R14*%
X90997258Y-108988500D02*
X90522742Y-108988500D01*
X90997258Y-110033500D02*
X90522742Y-110033500D01*
%TO.C,R10*%
X66462500Y-104598258D02*
X66462500Y-104123742D01*
X67507500Y-104598258D02*
X67507500Y-104123742D01*
%TO.C,R11*%
X72662500Y-103973742D02*
X72662500Y-104448258D01*
X73707500Y-103973742D02*
X73707500Y-104448258D01*
%TO.C,D8*%
X83110000Y-143041000D02*
X87751000Y-143041000D01*
X83110000Y-146310000D02*
X84620000Y-146310000D01*
X83110000Y-150011000D02*
X84620000Y-150011000D01*
X83110000Y-153281000D02*
X83110000Y-143041000D01*
X83110000Y-153281000D02*
X87751000Y-153281000D01*
X84620000Y-153281000D02*
X84620000Y-143041000D01*
X87751000Y-153281000D02*
X87751000Y-143041000D01*
%TO.C,C3*%
X68205000Y-104070420D02*
X68205000Y-104351580D01*
X69225000Y-104070420D02*
X69225000Y-104351580D01*
%TO.C,C18*%
X101500000Y-107999748D02*
X101500000Y-108522252D01*
X102970000Y-107999748D02*
X102970000Y-108522252D01*
%TO.C,C22*%
X103281459Y-121586000D02*
X104531459Y-121586000D01*
X103906459Y-120961000D02*
X103906459Y-122211000D01*
X110098541Y-119631000D02*
X110098541Y-132291000D01*
X110138541Y-119631000D02*
X110138541Y-132291000D01*
X110178541Y-119631000D02*
X110178541Y-132291000D01*
X110218541Y-119632000D02*
X110218541Y-132290000D01*
X110258541Y-119633000D02*
X110258541Y-132289000D01*
X110298541Y-119634000D02*
X110298541Y-132288000D01*
X110338541Y-119635000D02*
X110338541Y-132287000D01*
X110378541Y-119637000D02*
X110378541Y-132285000D01*
X110418541Y-119639000D02*
X110418541Y-132283000D01*
X110458541Y-119641000D02*
X110458541Y-132281000D01*
X110498541Y-119643000D02*
X110498541Y-132279000D01*
X110538541Y-119646000D02*
X110538541Y-132276000D01*
X110578541Y-119649000D02*
X110578541Y-132273000D01*
X110618541Y-119652000D02*
X110618541Y-132270000D01*
X110658541Y-119655000D02*
X110658541Y-132267000D01*
X110698541Y-119659000D02*
X110698541Y-132263000D01*
X110738541Y-119663000D02*
X110738541Y-132259000D01*
X110778541Y-119667000D02*
X110778541Y-132255000D01*
X110819541Y-119671000D02*
X110819541Y-132251000D01*
X110859541Y-119676000D02*
X110859541Y-132246000D01*
X110899541Y-119681000D02*
X110899541Y-132241000D01*
X110939541Y-119686000D02*
X110939541Y-132236000D01*
X110979541Y-119692000D02*
X110979541Y-132230000D01*
X111019541Y-119697000D02*
X111019541Y-132225000D01*
X111059541Y-119703000D02*
X111059541Y-132219000D01*
X111099541Y-119709000D02*
X111099541Y-132213000D01*
X111139541Y-119716000D02*
X111139541Y-132206000D01*
X111179541Y-119723000D02*
X111179541Y-124521000D01*
X111179541Y-127401000D02*
X111179541Y-132199000D01*
X111219541Y-119730000D02*
X111219541Y-124521000D01*
X111219541Y-127401000D02*
X111219541Y-132192000D01*
X111259541Y-119737000D02*
X111259541Y-124521000D01*
X111259541Y-127401000D02*
X111259541Y-132185000D01*
X111299541Y-119745000D02*
X111299541Y-124521000D01*
X111299541Y-127401000D02*
X111299541Y-132177000D01*
X111339541Y-119752000D02*
X111339541Y-124521000D01*
X111339541Y-127401000D02*
X111339541Y-132170000D01*
X111379541Y-119760000D02*
X111379541Y-124521000D01*
X111379541Y-127401000D02*
X111379541Y-132162000D01*
X111419541Y-119769000D02*
X111419541Y-124521000D01*
X111419541Y-127401000D02*
X111419541Y-132153000D01*
X111459541Y-119777000D02*
X111459541Y-124521000D01*
X111459541Y-127401000D02*
X111459541Y-132145000D01*
X111499541Y-119786000D02*
X111499541Y-124521000D01*
X111499541Y-127401000D02*
X111499541Y-132136000D01*
X111539541Y-119795000D02*
X111539541Y-124521000D01*
X111539541Y-127401000D02*
X111539541Y-132127000D01*
X111579541Y-119805000D02*
X111579541Y-124521000D01*
X111579541Y-127401000D02*
X111579541Y-132117000D01*
X111619541Y-119815000D02*
X111619541Y-124521000D01*
X111619541Y-127401000D02*
X111619541Y-132107000D01*
X111659541Y-119824000D02*
X111659541Y-124521000D01*
X111659541Y-127401000D02*
X111659541Y-132098000D01*
X111699541Y-119835000D02*
X111699541Y-124521000D01*
X111699541Y-127401000D02*
X111699541Y-132087000D01*
X111739541Y-119845000D02*
X111739541Y-124521000D01*
X111739541Y-127401000D02*
X111739541Y-132077000D01*
X111779541Y-119856000D02*
X111779541Y-124521000D01*
X111779541Y-127401000D02*
X111779541Y-132066000D01*
X111819541Y-119867000D02*
X111819541Y-124521000D01*
X111819541Y-127401000D02*
X111819541Y-132055000D01*
X111859541Y-119878000D02*
X111859541Y-124521000D01*
X111859541Y-127401000D02*
X111859541Y-132044000D01*
X111899541Y-119890000D02*
X111899541Y-124521000D01*
X111899541Y-127401000D02*
X111899541Y-132032000D01*
X111939541Y-119902000D02*
X111939541Y-124521000D01*
X111939541Y-127401000D02*
X111939541Y-132020000D01*
X111979541Y-119914000D02*
X111979541Y-124521000D01*
X111979541Y-127401000D02*
X111979541Y-132008000D01*
X112019541Y-119927000D02*
X112019541Y-124521000D01*
X112019541Y-127401000D02*
X112019541Y-131995000D01*
X112059541Y-119940000D02*
X112059541Y-124521000D01*
X112059541Y-127401000D02*
X112059541Y-131982000D01*
X112099541Y-119953000D02*
X112099541Y-124521000D01*
X112099541Y-127401000D02*
X112099541Y-131969000D01*
X112139541Y-119966000D02*
X112139541Y-124521000D01*
X112139541Y-127401000D02*
X112139541Y-131956000D01*
X112179541Y-119980000D02*
X112179541Y-124521000D01*
X112179541Y-127401000D02*
X112179541Y-131942000D01*
X112219541Y-119994000D02*
X112219541Y-124521000D01*
X112219541Y-127401000D02*
X112219541Y-131928000D01*
X112259541Y-120008000D02*
X112259541Y-124521000D01*
X112259541Y-127401000D02*
X112259541Y-131914000D01*
X112299541Y-120022000D02*
X112299541Y-124521000D01*
X112299541Y-127401000D02*
X112299541Y-131900000D01*
X112339541Y-120037000D02*
X112339541Y-124521000D01*
X112339541Y-127401000D02*
X112339541Y-131885000D01*
X112379541Y-120053000D02*
X112379541Y-124521000D01*
X112379541Y-127401000D02*
X112379541Y-131869000D01*
X112419541Y-120068000D02*
X112419541Y-124521000D01*
X112419541Y-127401000D02*
X112419541Y-131854000D01*
X112459541Y-120084000D02*
X112459541Y-124521000D01*
X112459541Y-127401000D02*
X112459541Y-131838000D01*
X112499541Y-120100000D02*
X112499541Y-124521000D01*
X112499541Y-127401000D02*
X112499541Y-131822000D01*
X112539541Y-120116000D02*
X112539541Y-124521000D01*
X112539541Y-127401000D02*
X112539541Y-131806000D01*
X112579541Y-120133000D02*
X112579541Y-124521000D01*
X112579541Y-127401000D02*
X112579541Y-131789000D01*
X112619541Y-120150000D02*
X112619541Y-124521000D01*
X112619541Y-127401000D02*
X112619541Y-131772000D01*
X112659541Y-120168000D02*
X112659541Y-124521000D01*
X112659541Y-127401000D02*
X112659541Y-131754000D01*
X112699541Y-120185000D02*
X112699541Y-124521000D01*
X112699541Y-127401000D02*
X112699541Y-131737000D01*
X112739541Y-120203000D02*
X112739541Y-124521000D01*
X112739541Y-127401000D02*
X112739541Y-131719000D01*
X112779541Y-120222000D02*
X112779541Y-124521000D01*
X112779541Y-127401000D02*
X112779541Y-131700000D01*
X112819541Y-120240000D02*
X112819541Y-124521000D01*
X112819541Y-127401000D02*
X112819541Y-131682000D01*
X112859541Y-120259000D02*
X112859541Y-124521000D01*
X112859541Y-127401000D02*
X112859541Y-131663000D01*
X112899541Y-120279000D02*
X112899541Y-124521000D01*
X112899541Y-127401000D02*
X112899541Y-131643000D01*
X112939541Y-120299000D02*
X112939541Y-124521000D01*
X112939541Y-127401000D02*
X112939541Y-131623000D01*
X112979541Y-120319000D02*
X112979541Y-124521000D01*
X112979541Y-127401000D02*
X112979541Y-131603000D01*
X113019541Y-120339000D02*
X113019541Y-124521000D01*
X113019541Y-127401000D02*
X113019541Y-131583000D01*
X113059541Y-120360000D02*
X113059541Y-124521000D01*
X113059541Y-127401000D02*
X113059541Y-131562000D01*
X113099541Y-120381000D02*
X113099541Y-124521000D01*
X113099541Y-127401000D02*
X113099541Y-131541000D01*
X113139541Y-120403000D02*
X113139541Y-124521000D01*
X113139541Y-127401000D02*
X113139541Y-131519000D01*
X113179541Y-120425000D02*
X113179541Y-124521000D01*
X113179541Y-127401000D02*
X113179541Y-131497000D01*
X113219541Y-120447000D02*
X113219541Y-124521000D01*
X113219541Y-127401000D02*
X113219541Y-131475000D01*
X113259541Y-120470000D02*
X113259541Y-124521000D01*
X113259541Y-127401000D02*
X113259541Y-131452000D01*
X113299541Y-120493000D02*
X113299541Y-124521000D01*
X113299541Y-127401000D02*
X113299541Y-131429000D01*
X113339541Y-120516000D02*
X113339541Y-124521000D01*
X113339541Y-127401000D02*
X113339541Y-131406000D01*
X113379541Y-120540000D02*
X113379541Y-124521000D01*
X113379541Y-127401000D02*
X113379541Y-131382000D01*
X113419541Y-120564000D02*
X113419541Y-124521000D01*
X113419541Y-127401000D02*
X113419541Y-131358000D01*
X113459541Y-120589000D02*
X113459541Y-124521000D01*
X113459541Y-127401000D02*
X113459541Y-131333000D01*
X113499541Y-120614000D02*
X113499541Y-124521000D01*
X113499541Y-127401000D02*
X113499541Y-131308000D01*
X113539541Y-120639000D02*
X113539541Y-124521000D01*
X113539541Y-127401000D02*
X113539541Y-131283000D01*
X113579541Y-120665000D02*
X113579541Y-124521000D01*
X113579541Y-127401000D02*
X113579541Y-131257000D01*
X113619541Y-120691000D02*
X113619541Y-124521000D01*
X113619541Y-127401000D02*
X113619541Y-131231000D01*
X113659541Y-120718000D02*
X113659541Y-124521000D01*
X113659541Y-127401000D02*
X113659541Y-131204000D01*
X113699541Y-120745000D02*
X113699541Y-124521000D01*
X113699541Y-127401000D02*
X113699541Y-131177000D01*
X113739541Y-120773000D02*
X113739541Y-124521000D01*
X113739541Y-127401000D02*
X113739541Y-131149000D01*
X113779541Y-120801000D02*
X113779541Y-124521000D01*
X113779541Y-127401000D02*
X113779541Y-131121000D01*
X113819541Y-120830000D02*
X113819541Y-124521000D01*
X113819541Y-127401000D02*
X113819541Y-131092000D01*
X113859541Y-120859000D02*
X113859541Y-124521000D01*
X113859541Y-127401000D02*
X113859541Y-131063000D01*
X113899541Y-120888000D02*
X113899541Y-124521000D01*
X113899541Y-127401000D02*
X113899541Y-131034000D01*
X113939541Y-120918000D02*
X113939541Y-124521000D01*
X113939541Y-127401000D02*
X113939541Y-131004000D01*
X113979541Y-120949000D02*
X113979541Y-124521000D01*
X113979541Y-127401000D02*
X113979541Y-130973000D01*
X114019541Y-120979000D02*
X114019541Y-124521000D01*
X114019541Y-127401000D02*
X114019541Y-130943000D01*
X114059541Y-121011000D02*
X114059541Y-130911000D01*
X114099541Y-121043000D02*
X114099541Y-130879000D01*
X114139541Y-121076000D02*
X114139541Y-130846000D01*
X114179541Y-121109000D02*
X114179541Y-130813000D01*
X114219541Y-121142000D02*
X114219541Y-130780000D01*
X114259541Y-121176000D02*
X114259541Y-130746000D01*
X114299541Y-121211000D02*
X114299541Y-130711000D01*
X114339541Y-121247000D02*
X114339541Y-130675000D01*
X114379541Y-121283000D02*
X114379541Y-130639000D01*
X114419541Y-121319000D02*
X114419541Y-130603000D01*
X114459541Y-121356000D02*
X114459541Y-130566000D01*
X114499541Y-121394000D02*
X114499541Y-130528000D01*
X114539541Y-121433000D02*
X114539541Y-130489000D01*
X114579541Y-121472000D02*
X114579541Y-130450000D01*
X114619541Y-121512000D02*
X114619541Y-130410000D01*
X114659541Y-121553000D02*
X114659541Y-130369000D01*
X114699541Y-121594000D02*
X114699541Y-130328000D01*
X114739541Y-121636000D02*
X114739541Y-130286000D01*
X114779541Y-121679000D02*
X114779541Y-130243000D01*
X114819541Y-121723000D02*
X114819541Y-130199000D01*
X114859541Y-121767000D02*
X114859541Y-130155000D01*
X114899541Y-121813000D02*
X114899541Y-130109000D01*
X114939541Y-121859000D02*
X114939541Y-130063000D01*
X114979541Y-121906000D02*
X114979541Y-130016000D01*
X115019541Y-121954000D02*
X115019541Y-129968000D01*
X115059541Y-122004000D02*
X115059541Y-129918000D01*
X115099541Y-122054000D02*
X115099541Y-129868000D01*
X115139541Y-122105000D02*
X115139541Y-129817000D01*
X115179541Y-122157000D02*
X115179541Y-129765000D01*
X115219541Y-122211000D02*
X115219541Y-129711000D01*
X115259541Y-122265000D02*
X115259541Y-129657000D01*
X115299541Y-122321000D02*
X115299541Y-129601000D01*
X115339541Y-122378000D02*
X115339541Y-129544000D01*
X115379541Y-122437000D02*
X115379541Y-129485000D01*
X115419541Y-122497000D02*
X115419541Y-129425000D01*
X115459541Y-122559000D02*
X115459541Y-129363000D01*
X115499541Y-122622000D02*
X115499541Y-129300000D01*
X115539541Y-122686000D02*
X115539541Y-129236000D01*
X115579541Y-122753000D02*
X115579541Y-129169000D01*
X115619541Y-122821000D02*
X115619541Y-129101000D01*
X115659541Y-122892000D02*
X115659541Y-129030000D01*
X115699541Y-122965000D02*
X115699541Y-128957000D01*
X115739541Y-123040000D02*
X115739541Y-128882000D01*
X115779541Y-123117000D02*
X115779541Y-128805000D01*
X115819541Y-123197000D02*
X115819541Y-128725000D01*
X115859541Y-123280000D02*
X115859541Y-128642000D01*
X115899541Y-123367000D02*
X115899541Y-128555000D01*
X115939541Y-123457000D02*
X115939541Y-128465000D01*
X115979541Y-123551000D02*
X115979541Y-128371000D01*
X116019541Y-123649000D02*
X116019541Y-128273000D01*
X116059541Y-123752000D02*
X116059541Y-128170000D01*
X116099541Y-123861000D02*
X116099541Y-128061000D01*
X116139541Y-123977000D02*
X116139541Y-127945000D01*
X116179541Y-124100000D02*
X116179541Y-127822000D01*
X116219541Y-124233000D02*
X116219541Y-127689000D01*
X116259541Y-124378000D02*
X116259541Y-127544000D01*
X116299541Y-124539000D02*
X116299541Y-127383000D01*
X116339541Y-124720000D02*
X116339541Y-127202000D01*
X116379541Y-124933000D02*
X116379541Y-126989000D01*
X116419541Y-125204000D02*
X116419541Y-126718000D01*
X116459541Y-125644000D02*
X116459541Y-126278000D01*
D13*
X116598541Y-125961000D02*
G75*
G02*
X103598541Y-125961000I-6500000J0D01*
G01*
X103598541Y-125961000D02*
G75*
G02*
X116598541Y-125961000I6500000J0D01*
G01*
D14*
%TO.C,R15*%
X94028458Y-108983700D02*
X93553942Y-108983700D01*
X94028458Y-110028700D02*
X93553942Y-110028700D01*
%TO.C,D7*%
X55095000Y-106911000D02*
X49285000Y-106911000D01*
X55095000Y-111211000D02*
X49285000Y-111211000D01*
X55095000Y-111211000D02*
X55095000Y-106911000D01*
%TO.C,D1*%
X60895000Y-101936000D02*
X58235000Y-101936000D01*
X60895000Y-103636000D02*
X58235000Y-103636000D01*
X60895000Y-103636000D02*
X60895000Y-101936000D01*
%TO.C,L1*%
X103485000Y-141461000D02*
G75*
G02*
X92485000Y-141461000I-5500000J0D01*
G01*
X92485000Y-141461000D02*
G75*
G02*
X103485000Y-141461000I5500000J0D01*
G01*
%TO.C,U1*%
X69655000Y-98936000D02*
X69655000Y-96986000D01*
X69655000Y-98936000D02*
X69655000Y-100886000D01*
X74775000Y-98936000D02*
X74775000Y-96986000D01*
X74775000Y-98936000D02*
X74775000Y-100886000D01*
X75010000Y-96476000D02*
X74680000Y-96236000D01*
X75010000Y-95996000D01*
X75010000Y-96476000D01*
G36*
X75010000Y-96476000D02*
G01*
X74680000Y-96236000D01*
X75010000Y-95996000D01*
X75010000Y-96476000D01*
G37*
D12*
%TO.C,Q1*%
X41395000Y-93856000D02*
X41395000Y-111266000D01*
X42415000Y-93676000D02*
X62995000Y-93676000D01*
X42415000Y-93676000D02*
X62995000Y-93676000D01*
X42415000Y-97542242D02*
X42415000Y-107579758D01*
X42415000Y-107579758D02*
X43115000Y-107641000D01*
D14*
X42415000Y-107681000D02*
X42415000Y-97441000D01*
D12*
X42415000Y-111446000D02*
X42415000Y-93676000D01*
X42415000Y-111446000D02*
X42415000Y-93676000D01*
X42595000Y-112466000D02*
X62995000Y-112466000D01*
X42595000Y-112466000D02*
X62995000Y-112466000D01*
X43115000Y-97481000D02*
X42415000Y-97542242D01*
X43115000Y-97481000D02*
X44955000Y-97641979D01*
X44955000Y-97641979D02*
X46215000Y-97752215D01*
X44955000Y-107480021D02*
X43115000Y-107641000D01*
X46215000Y-97752215D02*
X47215000Y-97839704D01*
X46215000Y-107369785D02*
X44955000Y-107480021D01*
X47215000Y-97839704D02*
X47215000Y-107282296D01*
X47215000Y-107282296D02*
X46215000Y-107369785D01*
X62995000Y-92656000D02*
X42595000Y-92656000D01*
X62995000Y-92656000D02*
X42595000Y-92656000D01*
X62995000Y-93676000D02*
X62995000Y-92656000D01*
X62995000Y-93676000D02*
X62995000Y-92656000D01*
X62995000Y-111446000D02*
X42415000Y-111446000D01*
X62995000Y-111446000D02*
X42415000Y-111446000D01*
X62995000Y-112466000D02*
X62995000Y-111446000D01*
X62995000Y-112466000D02*
X62995000Y-111446000D01*
X41395000Y-93856000D02*
G75*
G02*
X42595000Y-92656000I1200000J0D01*
G01*
X41395000Y-93856000D02*
G75*
G02*
X42595000Y-92656000I1200000J0D01*
G01*
X42595000Y-112466000D02*
G75*
G02*
X41395000Y-111266000I0J1200000D01*
G01*
X42595000Y-112466000D02*
G75*
G02*
X41395000Y-111266000I0J1200000D01*
G01*
%TD*%
M02*
