%TF.GenerationSoftware,KiCad,Pcbnew,8.99.0-1678-gcd3e85b0b3*%
%TF.CreationDate,2024-09-01T20:16:48+02:00*%
%TF.ProjectId,ACDC120W19O5V,41434443-3132-4305-9731-394f35562e6b,rev?*%
%TF.SameCoordinates,Original*%
%TF.FileFunction,Copper,L2,Bot*%
%TF.FilePolarity,Positive*%
%FSLAX46Y46*%
G04 Gerber Fmt 4.6, Leading zero omitted, Abs format (unit mm)*
G04 Created by KiCad (PCBNEW 8.99.0-1678-gcd3e85b0b3) date 2024-09-01 20:16:48*
%MOMM*%
%LPD*%
G01*
G04 APERTURE LIST*
G04 Aperture macros list*
%AMRoundRect*
0 Rectangle with rounded corners*
0 $1 Rounding radius*
0 $2 $3 $4 $5 $6 $7 $8 $9 X,Y pos of 4 corners*
0 Add a 4 corners polygon primitive as box body*
4,1,4,$2,$3,$4,$5,$6,$7,$8,$9,$2,$3,0*
0 Add four circle primitives for the rounded corners*
1,1,$1+$1,$2,$3*
1,1,$1+$1,$4,$5*
1,1,$1+$1,$6,$7*
1,1,$1+$1,$8,$9*
0 Add four rect primitives between the rounded corners*
20,1,$1+$1,$2,$3,$4,$5,0*
20,1,$1+$1,$4,$5,$6,$7,0*
20,1,$1+$1,$6,$7,$8,$9,0*
20,1,$1+$1,$8,$9,$2,$3,0*%
G04 Aperture macros list end*
%TA.AperFunction,EtchedComponent*%
%ADD10C,0.000000*%
%TD*%
%TA.AperFunction,ComponentPad*%
%ADD11C,2.400000*%
%TD*%
%TA.AperFunction,ComponentPad*%
%ADD12O,2.400000X2.400000*%
%TD*%
%TA.AperFunction,ComponentPad*%
%ADD13C,3.600000*%
%TD*%
%TA.AperFunction,ConnectorPad*%
%ADD14C,5.600000*%
%TD*%
%TA.AperFunction,ComponentPad*%
%ADD15R,3.200000X3.200000*%
%TD*%
%TA.AperFunction,ComponentPad*%
%ADD16C,3.200000*%
%TD*%
%TA.AperFunction,ComponentPad*%
%ADD17C,2.550000*%
%TD*%
%TA.AperFunction,ComponentPad*%
%ADD18C,1.800000*%
%TD*%
%TA.AperFunction,ComponentPad*%
%ADD19C,2.000000*%
%TD*%
%TA.AperFunction,ComponentPad*%
%ADD20R,2.400000X2.400000*%
%TD*%
%TA.AperFunction,ComponentPad*%
%ADD21C,1.700000*%
%TD*%
%TA.AperFunction,ComponentPad*%
%ADD22R,2.400000X1.600000*%
%TD*%
%TA.AperFunction,ComponentPad*%
%ADD23O,2.400000X1.600000*%
%TD*%
%TA.AperFunction,ComponentPad*%
%ADD24C,1.600000*%
%TD*%
%TA.AperFunction,ComponentPad*%
%ADD25C,2.300000*%
%TD*%
%TA.AperFunction,ComponentPad*%
%ADD26O,4.200000X3.000000*%
%TD*%
%TA.AperFunction,ComponentPad*%
%ADD27RoundRect,0.250001X-1.099999X1.099999X-1.099999X-1.099999X1.099999X-1.099999X1.099999X1.099999X0*%
%TD*%
%TA.AperFunction,ComponentPad*%
%ADD28C,2.700000*%
%TD*%
%TA.AperFunction,ComponentPad*%
%ADD29R,2.000000X1.905000*%
%TD*%
%TA.AperFunction,ComponentPad*%
%ADD30O,2.000000X1.905000*%
%TD*%
%TA.AperFunction,SMDPad,CuDef*%
%ADD31C,0.500000*%
%TD*%
%TA.AperFunction,SMDPad,CuDef*%
%ADD32C,2.000000*%
%TD*%
%TA.AperFunction,ViaPad*%
%ADD33C,0.800000*%
%TD*%
%TA.AperFunction,Conductor*%
%ADD34C,0.200000*%
%TD*%
%TA.AperFunction,Conductor*%
%ADD35C,0.500000*%
%TD*%
G04 APERTURE END LIST*
D10*
%TA.AperFunction,EtchedComponent*%
%TO.C,NT2*%
G36*
X74985000Y-91411000D02*
G01*
X73985000Y-91411000D01*
X73985000Y-90911000D01*
X74985000Y-90911000D01*
X74985000Y-91411000D01*
G37*
%TD.AperFunction*%
%TA.AperFunction,EtchedComponent*%
%TO.C,NT1*%
G36*
X76385000Y-90161000D02*
G01*
X72385000Y-90161000D01*
X72385000Y-88161000D01*
X76385000Y-88161000D01*
X76385000Y-90161000D01*
G37*
%TD.AperFunction*%
%TD*%
D11*
%TO.P,R21,1*%
%TO.N,Net-(C19-Pad2)*%
X56695000Y-96961000D03*
D12*
%TO.P,R21,2*%
%TO.N,/PS/AC_R_O*%
X61775000Y-96961000D03*
%TD*%
D13*
%TO.P,H2,1,1*%
%TO.N,unconnected-(H2-Pad1)_2*%
X113185000Y-157561000D03*
D14*
%TO.N,unconnected-(H2-Pad1)_1*%
X113185000Y-157561000D03*
%TD*%
D15*
%TO.P,D6,1,+*%
%TO.N,/PS/AC_R_O*%
X104685000Y-65721000D03*
D16*
%TO.P,D6,2*%
%TO.N,/PS/AC_R_I_2*%
X104685000Y-60641000D03*
%TO.P,D6,3*%
%TO.N,/PS/AC_R_I_1*%
X104685000Y-55561000D03*
%TO.P,D6,4,-*%
%TO.N,DCR_GND*%
X104685000Y-50481000D03*
%TD*%
D17*
%TO.P,TR1,1,1*%
%TO.N,DCR_GND*%
X73102000Y-120857000D03*
%TO.P,TR1,2*%
%TO.N,N/C*%
X68022000Y-120857000D03*
%TO.P,TR1,3*%
X62942000Y-120857000D03*
%TO.P,TR1,4,4*%
%TO.N,/PS/AC_R_O*%
X57862000Y-120857000D03*
%TO.P,TR1,5*%
%TO.N,N/C*%
X52782000Y-120857000D03*
%TO.P,TR1,6,6*%
%TO.N,/PS/TR_SW*%
X47702000Y-120857000D03*
%TO.P,TR1,7,7*%
%TO.N,/PS/AUX*%
X42622000Y-120857000D03*
%TO.P,TR1,8,8*%
%TO.N,OUT_GND*%
X42622000Y-146257000D03*
%TO.P,TR1,9,9*%
X47702000Y-146257000D03*
%TO.P,TR1,10*%
%TO.N,N/C*%
X52782000Y-146257000D03*
%TO.P,TR1,11*%
X57862000Y-146257000D03*
%TO.P,TR1,12*%
X62942000Y-146257000D03*
%TO.P,TR1,13,13*%
%TO.N,Net-(D8A-A)*%
X68022000Y-146257000D03*
%TO.P,TR1,14,14*%
X73102000Y-146257000D03*
%TD*%
D18*
%TO.P,F1,1*%
%TO.N,/PS/AC_L*%
X40385000Y-69601000D03*
%TO.P,F1,2*%
%TO.N,Net-(F1-Pad2)*%
X40385000Y-64521000D03*
%TD*%
%TO.P,RV1,1*%
%TO.N,/PS/AC_L_SW*%
X50185000Y-66561000D03*
%TO.P,RV1,2*%
%TO.N,/PS/AC_N*%
X48885000Y-74061000D03*
%TD*%
D19*
%TO.P,SW1,1,1*%
%TO.N,Net-(F1-Pad2)*%
X43185000Y-49061000D03*
%TO.P,SW1,2,2*%
%TO.N,/PS/AC_L_SW*%
X49185000Y-48061000D03*
%TO.P,SW1,3,3*%
%TO.N,Net-(F1-Pad2)*%
X43185000Y-59061000D03*
%TO.P,SW1,4,4*%
%TO.N,/PS/AC_L_SW*%
X49185000Y-60061000D03*
%TD*%
%TO.P,C12,1*%
%TO.N,OUT_GND*%
X103935000Y-100811000D03*
%TO.P,C12,2*%
%TO.N,DCR_GND*%
X103935000Y-93311000D03*
%TD*%
%TO.P,C28,1*%
%TO.N,Net-(C28-Pad1)*%
X70535000Y-157961000D03*
%TO.P,C28,2*%
%TO.N,Net-(D8A-A)*%
X63035000Y-157961000D03*
%TD*%
D20*
%TO.P,C25,1*%
%TO.N,/PS/19.5V*%
X96298541Y-154011000D03*
D11*
%TO.P,C25,2*%
%TO.N,OUT_GND*%
X101298541Y-154011000D03*
%TD*%
D21*
%TO.P,C7,1*%
%TO.N,/PS/AC_L_SW*%
X59685000Y-44561000D03*
%TO.P,C7,2*%
%TO.N,/PS/AC_N*%
X59685000Y-67061000D03*
%TD*%
D20*
%TO.P,C24,1*%
%TO.N,/PS/19.5V*%
X107585000Y-141761000D03*
D11*
%TO.P,C24,2*%
%TO.N,OUT_GND*%
X112585000Y-141761000D03*
%TD*%
D22*
%TO.P,U2,1*%
%TO.N,Net-(R13-Pad1)*%
X87510000Y-110186000D03*
D23*
%TO.P,U2,2*%
%TO.N,Net-(U3-K)*%
X87510000Y-107646000D03*
%TO.P,U2,3,NC*%
%TO.N,unconnected-(U2-NC-Pad3)*%
X87510000Y-105106000D03*
%TO.P,U2,4*%
%TO.N,GND_DC_S*%
X79890000Y-105106000D03*
%TO.P,U2,5*%
%TO.N,/PS/OPT_C*%
X79890000Y-107646000D03*
%TO.P,U2,6*%
%TO.N,unconnected-(U2-Pad6)*%
X79890000Y-110186000D03*
%TD*%
D21*
%TO.P,C11,1*%
%TO.N,Net-(C11-Pad1)*%
X88685000Y-44061000D03*
%TO.P,C11,2*%
%TO.N,/PS/AC_R_I_2*%
X88685000Y-66561000D03*
%TD*%
D20*
%TO.P,C16,1*%
%TO.N,/PS/AC_R_O*%
X109685000Y-77061000D03*
D11*
%TO.P,C16,2*%
%TO.N,DCR_GND*%
X109685000Y-84561000D03*
%TD*%
D24*
%TO.P,C6,1*%
%TO.N,Net-(D3-A)*%
X70435000Y-109311000D03*
%TO.P,C6,2*%
%TO.N,GND_DC_P*%
X72935000Y-109311000D03*
%TD*%
D11*
%TO.P,R20,1*%
%TO.N,Net-(D7-K)*%
X58685000Y-108561000D03*
D12*
%TO.P,R20,2*%
%TO.N,/PS/AC_R_O*%
X63765000Y-108561000D03*
%TD*%
D20*
%TO.P,C23,1*%
%TO.N,/PS/19.5V_FLT*%
X97971459Y-123361000D03*
D11*
%TO.P,C23,2*%
%TO.N,OUT_GND*%
X92971459Y-123361000D03*
%TD*%
D25*
%TO.P,FL1,1,1*%
%TO.N,/PS/AC_N*%
X69185000Y-63811000D03*
%TO.P,FL1,2,2*%
%TO.N,/PS/AC_R_I_2*%
X79185000Y-63811000D03*
%TO.P,FL1,3,3*%
%TO.N,/PS/AC_L_SW*%
X69185000Y-45061000D03*
%TO.P,FL1,4,4*%
%TO.N,Net-(C11-Pad1)*%
X79185000Y-45061000D03*
%TD*%
D13*
%TO.P,H4,1,1*%
%TO.N,unconnected-(H4-Pad1)_1*%
X113185000Y-39061000D03*
D14*
%TO.N,unconnected-(H4-Pad1)*%
X113185000Y-39061000D03*
%TD*%
D19*
%TO.P,C9,1*%
%TO.N,/PS/AC_R_I_2*%
X46185000Y-43061000D03*
%TO.P,C9,2*%
%TO.N,EARTH*%
X46185000Y-38061000D03*
%TD*%
D26*
%TO.P,HS2,1*%
%TO.N,N/C*%
X92110000Y-136061000D03*
X92110000Y-160261000D03*
%TD*%
D11*
%TO.P,R22,1*%
%TO.N,Net-(C28-Pad1)*%
X74695000Y-157961000D03*
D12*
%TO.P,R22,2*%
%TO.N,/PS/19.5V*%
X79775000Y-157961000D03*
%TD*%
D24*
%TO.P,TH1,1*%
%TO.N,/PS/AC_R_I_1*%
X97435000Y-55561000D03*
%TO.P,TH1,2*%
%TO.N,Net-(C11-Pad1)*%
X98935000Y-50561000D03*
%TD*%
D27*
%TO.P,J1,1,Pin_1*%
%TO.N,/PS/AC_L*%
X40935000Y-74561000D03*
D28*
%TO.P,J1,2,Pin_2*%
%TO.N,/PS/AC_N*%
X40935000Y-82481000D03*
%TD*%
D19*
%TO.P,C8,1*%
%TO.N,Net-(C11-Pad1)*%
X57185000Y-37561000D03*
%TO.P,C8,2*%
%TO.N,EARTH*%
X52185000Y-37561000D03*
%TD*%
D27*
%TO.P,J2,1,Pin_1*%
%TO.N,OUT_GND*%
X112685000Y-102843500D03*
D28*
%TO.P,J2,2,Pin_2*%
X112685000Y-106803500D03*
%TO.P,J2,3,Pin_3*%
%TO.N,/PS/19.5V_FLT*%
X112685000Y-110763500D03*
%TO.P,J2,4,Pin_4*%
X112685000Y-114723500D03*
%TD*%
D19*
%TO.P,C19,1*%
%TO.N,Net-(D7-K)*%
X51185000Y-104811000D03*
%TO.P,C19,2*%
%TO.N,Net-(C19-Pad2)*%
X51185000Y-97311000D03*
%TD*%
D29*
%TO.P,D8,1,A*%
%TO.N,Net-(D8A-A)*%
X86380000Y-150701000D03*
D30*
%TO.P,D8,2,K*%
%TO.N,/PS/19.5V*%
X86380000Y-148161000D03*
%TO.P,D8,3,K*%
%TO.N,Net-(D8A-A)*%
X86380000Y-145621000D03*
%TD*%
D13*
%TO.P,H3,1,1*%
%TO.N,unconnected-(H3-Pad1)_2*%
X38185000Y-157561000D03*
D14*
%TO.N,unconnected-(H3-Pad1)_1*%
X38185000Y-157561000D03*
%TD*%
D20*
%TO.P,C22,1*%
%TO.N,/PS/19.5V_FLT*%
X107598541Y-125961000D03*
D11*
%TO.P,C22,2*%
%TO.N,OUT_GND*%
X112598541Y-125961000D03*
%TD*%
D19*
%TO.P,L1,1*%
%TO.N,/PS/19.5V_FLT*%
X97985000Y-137461000D03*
%TO.P,L1,2*%
%TO.N,/PS/19.5V*%
X97985000Y-145461000D03*
%TD*%
D29*
%TO.P,Q1,1,G*%
%TO.N,Net-(Q1-G)*%
X45685000Y-105101000D03*
D30*
%TO.P,Q1,2,D*%
%TO.N,/PS/TR_SW*%
X45685000Y-102561000D03*
%TO.P,Q1,3,S*%
%TO.N,Net-(Q1-S)*%
X45685000Y-100021000D03*
%TD*%
D31*
%TO.P,NT2,1,1*%
%TO.N,GND_DC_S*%
X73985000Y-91161000D03*
%TO.P,NT2,2,2*%
%TO.N,DCR_GND*%
X74985000Y-91161000D03*
%TD*%
D13*
%TO.P,H1,1,1*%
%TO.N,EARTH*%
X38185000Y-39061000D03*
D14*
X38185000Y-39061000D03*
%TD*%
D32*
%TO.P,NT1,1,1*%
%TO.N,GND_DC_P*%
X72385000Y-89161000D03*
%TO.P,NT1,2,2*%
%TO.N,DCR_GND*%
X76385000Y-89161000D03*
%TD*%
D33*
%TO.N,/PS/TR_GAT*%
X66887000Y-101411000D03*
X60335000Y-101886000D03*
%TO.N,Net-(Q1-S)*%
X66633000Y-94161000D03*
X58685000Y-94761000D03*
%TO.N,DCR_GND*%
X114085000Y-74761000D03*
X114185000Y-67761000D03*
X114085000Y-76761000D03*
X114085000Y-72661000D03*
X114085000Y-70561000D03*
%TO.N,OUT_GND*%
X87485000Y-137011000D03*
X88941200Y-112506200D03*
X85985000Y-137011000D03*
X92491200Y-106906200D03*
X84335000Y-137011000D03*
X89091200Y-114506200D03*
X95291200Y-112756200D03*
%TO.N,GND_DC_S*%
X71685000Y-91561000D03*
X73185000Y-91561000D03*
X70685000Y-98061000D03*
%TO.N,GND_DC_P*%
X71785000Y-105961000D03*
X53585000Y-91361000D03*
X70185000Y-105961000D03*
X52785000Y-92961000D03*
X56985000Y-92961000D03*
X55585000Y-92961000D03*
X58160000Y-104086000D03*
X55385000Y-91361000D03*
X51385000Y-92961000D03*
X68785000Y-105961000D03*
X56985000Y-91361000D03*
X54185000Y-92961000D03*
%TD*%
D34*
%TO.N,/PS/AC_R_I_2*%
X74685000Y-53061000D02*
X79185000Y-57561000D01*
X79185000Y-57561000D02*
X79185000Y-63811000D01*
X46185000Y-43061000D02*
X48977000Y-40269000D01*
X72809000Y-40269000D02*
X74685000Y-42145000D01*
X48977000Y-40269000D02*
X72809000Y-40269000D01*
X74685000Y-42145000D02*
X74685000Y-53061000D01*
D35*
%TO.N,/PS/TR_GAT*%
X62385000Y-101411000D02*
X61910000Y-101886000D01*
X66887000Y-101411000D02*
X62385000Y-101411000D01*
X61910000Y-101886000D02*
X60335000Y-101886000D01*
D34*
%TO.N,Net-(Q1-S)*%
X66633000Y-94161000D02*
X59285000Y-94161000D01*
X59285000Y-94161000D02*
X58685000Y-94761000D01*
%TD*%
%TA.AperFunction,Conductor*%
%TO.N,/PS/AC_R_I_1*%
G36*
X104313134Y-53562752D02*
G01*
X104316837Y-53563381D01*
X104337307Y-53566859D01*
X104685000Y-53586385D01*
X105032693Y-53566859D01*
X105053554Y-53563314D01*
X105056866Y-53562752D01*
X105077637Y-53561000D01*
X107372789Y-53561000D01*
X107396971Y-53563381D01*
X107475618Y-53579024D01*
X107520308Y-53597535D01*
X107576626Y-53635166D01*
X107610833Y-53669373D01*
X107648462Y-53725688D01*
X107666976Y-53770387D01*
X107682617Y-53849019D01*
X107685000Y-53873210D01*
X107685000Y-57748789D01*
X107682617Y-57772980D01*
X107666976Y-57851612D01*
X107648462Y-57896311D01*
X107610836Y-57952623D01*
X107576623Y-57986836D01*
X107520311Y-58024462D01*
X107475612Y-58042976D01*
X107396980Y-58058617D01*
X107372789Y-58061000D01*
X106446317Y-58061000D01*
X106379278Y-58041315D01*
X106374562Y-58038130D01*
X106337164Y-58011595D01*
X106032374Y-57843144D01*
X105965741Y-57815544D01*
X105710644Y-57709879D01*
X105543328Y-57661676D01*
X105376017Y-57613474D01*
X105376009Y-57613472D01*
X105032700Y-57555142D01*
X105032688Y-57555140D01*
X104685000Y-57535615D01*
X104337311Y-57555140D01*
X104337299Y-57555142D01*
X103993990Y-57613472D01*
X103993982Y-57613474D01*
X103659359Y-57709878D01*
X103659356Y-57709879D01*
X103565419Y-57748789D01*
X103337625Y-57843144D01*
X103032835Y-58011595D01*
X102995438Y-58038130D01*
X102929372Y-58060869D01*
X102923683Y-58061000D01*
X95497211Y-58061000D01*
X95473020Y-58058617D01*
X95394387Y-58042976D01*
X95349689Y-58024462D01*
X95293373Y-57986833D01*
X95259166Y-57952626D01*
X95221535Y-57896308D01*
X95203024Y-57851618D01*
X95187381Y-57772971D01*
X95185000Y-57748789D01*
X95185000Y-53873210D01*
X95187381Y-53849029D01*
X95203025Y-53770379D01*
X95221534Y-53725693D01*
X95259168Y-53669370D01*
X95293370Y-53635168D01*
X95349693Y-53597534D01*
X95394379Y-53579025D01*
X95473028Y-53563381D01*
X95497211Y-53561000D01*
X104292363Y-53561000D01*
X104313134Y-53562752D01*
G37*
%TD.AperFunction*%
%TD*%
%TA.AperFunction,Conductor*%
%TO.N,/PS/AC_R_I_2*%
G36*
X94028967Y-58830685D02*
G01*
X94056380Y-58854659D01*
X94194601Y-59017157D01*
X94194609Y-59017166D01*
X94194617Y-59017175D01*
X94194625Y-59017183D01*
X94228818Y-59051377D01*
X94266987Y-59088224D01*
X94266992Y-59088229D01*
X94410320Y-59201688D01*
X94456964Y-59238612D01*
X94513280Y-59276241D01*
X94557916Y-59304941D01*
X94773573Y-59415368D01*
X94818271Y-59433882D01*
X94867624Y-59453313D01*
X95100680Y-59519549D01*
X95100695Y-59519552D01*
X95100699Y-59519553D01*
X95179308Y-59535189D01*
X95179313Y-59535190D01*
X95325431Y-59556865D01*
X95349622Y-59559248D01*
X95497211Y-59566500D01*
X95497225Y-59566500D01*
X102923667Y-59566500D01*
X102923683Y-59566500D01*
X102958341Y-59566101D01*
X102964030Y-59565970D01*
X103184638Y-59544570D01*
X103419335Y-59484409D01*
X103485401Y-59461670D01*
X103658399Y-59389801D01*
X103747275Y-59336940D01*
X103750679Y-59334988D01*
X103761071Y-59329244D01*
X103761072Y-59329245D01*
X103985782Y-59205051D01*
X103998300Y-59199023D01*
X104141547Y-59139690D01*
X104141549Y-59139690D01*
X104150952Y-59135794D01*
X104164066Y-59131205D01*
X104322837Y-59085463D01*
X104336384Y-59082371D01*
X104499275Y-59054695D01*
X104513073Y-59053141D01*
X104678054Y-59043877D01*
X104691944Y-59043877D01*
X104856922Y-59053141D01*
X104870724Y-59054696D01*
X105001007Y-59076832D01*
X105033604Y-59082371D01*
X105047161Y-59085465D01*
X105126548Y-59108336D01*
X105126547Y-59108336D01*
X105177746Y-59123085D01*
X105205921Y-59131203D01*
X105205932Y-59131206D01*
X105219057Y-59135799D01*
X105371700Y-59199025D01*
X105384230Y-59205059D01*
X105554482Y-59299155D01*
X105556145Y-59300091D01*
X105728895Y-59399082D01*
X105955118Y-59485828D01*
X106022157Y-59505513D01*
X106204818Y-59547004D01*
X106446317Y-59566500D01*
X106446326Y-59566500D01*
X107372775Y-59566500D01*
X107372789Y-59566500D01*
X107520378Y-59559248D01*
X107544569Y-59556865D01*
X107544635Y-59556855D01*
X107545757Y-59556717D01*
X107545876Y-59556736D01*
X107546085Y-59556716D01*
X107546090Y-59556771D01*
X107614708Y-59568012D01*
X107666607Y-59614791D01*
X107685000Y-59679777D01*
X107685000Y-62248789D01*
X107682617Y-62272980D01*
X107666976Y-62351612D01*
X107648462Y-62396311D01*
X107610836Y-62452623D01*
X107576623Y-62486836D01*
X107520311Y-62524462D01*
X107475612Y-62542976D01*
X107396980Y-62558617D01*
X107372789Y-62561000D01*
X96484995Y-62561000D01*
X96370197Y-62583834D01*
X96370196Y-62583835D01*
X96272868Y-62648868D01*
X96207835Y-62746196D01*
X96207834Y-62746197D01*
X96185000Y-62860995D01*
X96185000Y-68498789D01*
X96182617Y-68522980D01*
X96166976Y-68601612D01*
X96148462Y-68646311D01*
X96110836Y-68702623D01*
X96076623Y-68736836D01*
X96020311Y-68774462D01*
X95975612Y-68792976D01*
X95896980Y-68808617D01*
X95872789Y-68811000D01*
X75997211Y-68811000D01*
X75973020Y-68808617D01*
X75894387Y-68792976D01*
X75849689Y-68774462D01*
X75793373Y-68736833D01*
X75759166Y-68702626D01*
X75721535Y-68646308D01*
X75703024Y-68601618D01*
X75687381Y-68522971D01*
X75685000Y-68498789D01*
X75685000Y-59123210D01*
X75687381Y-59099029D01*
X75703025Y-59020379D01*
X75721534Y-58975693D01*
X75759168Y-58919370D01*
X75793370Y-58885168D01*
X75849693Y-58847534D01*
X75894379Y-58829025D01*
X75973028Y-58813381D01*
X75997211Y-58811000D01*
X93961928Y-58811000D01*
X94028967Y-58830685D01*
G37*
%TD.AperFunction*%
%TD*%
%TA.AperFunction,Conductor*%
%TO.N,Net-(C11-Pad1)*%
G36*
X100396971Y-41063381D02*
G01*
X100475618Y-41079024D01*
X100520308Y-41097535D01*
X100576626Y-41135166D01*
X100610833Y-41169373D01*
X100648462Y-41225688D01*
X100666976Y-41270387D01*
X100682617Y-41349019D01*
X100685000Y-41373210D01*
X100685000Y-51748789D01*
X100682617Y-51772980D01*
X100666976Y-51851612D01*
X100648462Y-51896311D01*
X100610836Y-51952623D01*
X100576623Y-51986836D01*
X100520311Y-52024462D01*
X100475612Y-52042976D01*
X100396980Y-52058617D01*
X100372789Y-52061000D01*
X76997211Y-52061000D01*
X76973020Y-52058617D01*
X76894387Y-52042976D01*
X76849689Y-52024462D01*
X76793373Y-51986833D01*
X76759166Y-51952626D01*
X76721535Y-51896308D01*
X76703024Y-51851618D01*
X76687381Y-51772971D01*
X76685000Y-51748789D01*
X76685000Y-41373210D01*
X76687381Y-41349029D01*
X76703025Y-41270379D01*
X76721534Y-41225693D01*
X76759168Y-41169370D01*
X76793370Y-41135168D01*
X76849693Y-41097534D01*
X76894379Y-41079025D01*
X76973028Y-41063381D01*
X76997211Y-41061000D01*
X100372789Y-41061000D01*
X100396971Y-41063381D01*
G37*
%TD.AperFunction*%
%TD*%
%TA.AperFunction,Conductor*%
%TO.N,/PS/TR_SW*%
G36*
X43473369Y-100580685D02*
G01*
X43519124Y-100633489D01*
X43526105Y-100652906D01*
X43546937Y-100730651D01*
X43657445Y-100997444D01*
X43657453Y-100997460D01*
X43744273Y-101147835D01*
X43801842Y-101247547D01*
X43801844Y-101247550D01*
X43801845Y-101247551D01*
X43977641Y-101476654D01*
X43977647Y-101476661D01*
X44181838Y-101680852D01*
X44181844Y-101680857D01*
X44410953Y-101856658D01*
X44571689Y-101949459D01*
X44661039Y-102001046D01*
X44661044Y-102001048D01*
X44661047Y-102001050D01*
X44794448Y-102056306D01*
X44927846Y-102111562D01*
X44927847Y-102111562D01*
X44927849Y-102111563D01*
X45206794Y-102186306D01*
X45493108Y-102224000D01*
X45493115Y-102224000D01*
X45876885Y-102224000D01*
X45876892Y-102224000D01*
X46163206Y-102186306D01*
X46442151Y-102111563D01*
X46708953Y-102001050D01*
X46959047Y-101856658D01*
X47188156Y-101680857D01*
X47392357Y-101476656D01*
X47568158Y-101247547D01*
X47712550Y-100997453D01*
X47823063Y-100730651D01*
X47843895Y-100652906D01*
X47880261Y-100593245D01*
X47943108Y-100562717D01*
X47963670Y-100561000D01*
X50676874Y-100561000D01*
X50693059Y-100562061D01*
X50798223Y-100575906D01*
X50829491Y-100584284D01*
X50919918Y-100621740D01*
X50947952Y-100637925D01*
X51025602Y-100697509D01*
X51048491Y-100720398D01*
X51108074Y-100798048D01*
X51124259Y-100826081D01*
X51161715Y-100916508D01*
X51170093Y-100947775D01*
X51183939Y-101052939D01*
X51185000Y-101069125D01*
X51185000Y-102439532D01*
X51165315Y-102506571D01*
X51112511Y-102552326D01*
X51069110Y-102563266D01*
X50890636Y-102574964D01*
X50890624Y-102574965D01*
X50890620Y-102574966D01*
X50890612Y-102574967D01*
X50890609Y-102574968D01*
X50601283Y-102632518D01*
X50601269Y-102632521D01*
X50321919Y-102727349D01*
X50057334Y-102857828D01*
X49812041Y-103021728D01*
X49590241Y-103216241D01*
X49395728Y-103438041D01*
X49231828Y-103683334D01*
X49101349Y-103947919D01*
X49006521Y-104227269D01*
X49006518Y-104227283D01*
X48948968Y-104516609D01*
X48948964Y-104516636D01*
X48929671Y-104810992D01*
X48929671Y-104811007D01*
X48948964Y-105105363D01*
X48948965Y-105105373D01*
X48948966Y-105105380D01*
X48948968Y-105105390D01*
X49006518Y-105394716D01*
X49006521Y-105394730D01*
X49101349Y-105674080D01*
X49231825Y-105938660D01*
X49231829Y-105938667D01*
X49395725Y-106183955D01*
X49590241Y-106405758D01*
X49812043Y-106600273D01*
X50057335Y-106764172D01*
X50321923Y-106894652D01*
X50601278Y-106989481D01*
X50890620Y-107047034D01*
X51069113Y-107058733D01*
X51134718Y-107082759D01*
X51176922Y-107138443D01*
X51185000Y-107182467D01*
X51185000Y-118838540D01*
X51165315Y-118905579D01*
X51145884Y-118928932D01*
X50937352Y-119124756D01*
X50734784Y-119369618D01*
X50564513Y-119637923D01*
X50564510Y-119637929D01*
X50429209Y-119925456D01*
X50429207Y-119925461D01*
X50331008Y-120227687D01*
X50271460Y-120539848D01*
X50271459Y-120539855D01*
X50251507Y-120856994D01*
X50251507Y-120857005D01*
X50271459Y-121174144D01*
X50271460Y-121174151D01*
X50331008Y-121486312D01*
X50429207Y-121788538D01*
X50429209Y-121788543D01*
X50564510Y-122076070D01*
X50564513Y-122076076D01*
X50734784Y-122344381D01*
X50734787Y-122344385D01*
X50734788Y-122344386D01*
X50937350Y-122589242D01*
X51142406Y-122781801D01*
X51177799Y-122842041D01*
X51180460Y-122888378D01*
X51170093Y-122967117D01*
X51161715Y-122998383D01*
X51124260Y-123088808D01*
X51108075Y-123116842D01*
X51043496Y-123201003D01*
X51032801Y-123213198D01*
X50337198Y-123908801D01*
X50325003Y-123919496D01*
X50240842Y-123984075D01*
X50212808Y-124000260D01*
X50122383Y-124037715D01*
X50091117Y-124046093D01*
X49997291Y-124058446D01*
X49985951Y-124059939D01*
X49969767Y-124061000D01*
X45900233Y-124061000D01*
X45884048Y-124059939D01*
X45871024Y-124058224D01*
X45778882Y-124046093D01*
X45747616Y-124037715D01*
X45657191Y-124000260D01*
X45629157Y-123984075D01*
X45544996Y-123919496D01*
X45532801Y-123908801D01*
X44837198Y-123213198D01*
X44826503Y-123201003D01*
X44761924Y-123116842D01*
X44745739Y-123088808D01*
X44708284Y-122998383D01*
X44699906Y-122967116D01*
X44686061Y-122861952D01*
X44685000Y-122845767D01*
X44685000Y-122355534D01*
X44704303Y-122289092D01*
X44748501Y-122219445D01*
X44839488Y-122076074D01*
X44974793Y-121788537D01*
X45072993Y-121486308D01*
X45132539Y-121174155D01*
X45152493Y-120857000D01*
X45132539Y-120539845D01*
X45072993Y-120227692D01*
X44974793Y-119925463D01*
X44839488Y-119637926D01*
X44669212Y-119369614D01*
X44466650Y-119124758D01*
X44234997Y-118907222D01*
X44234995Y-118907220D01*
X43977909Y-118720436D01*
X43977908Y-118720435D01*
X43977906Y-118720434D01*
X43699432Y-118567341D01*
X43699429Y-118567339D01*
X43699424Y-118567337D01*
X43699423Y-118567336D01*
X43403969Y-118450359D01*
X43281277Y-118418857D01*
X43224434Y-118386434D01*
X40337198Y-115499198D01*
X40326503Y-115487003D01*
X40261924Y-115402842D01*
X40245739Y-115374808D01*
X40208284Y-115284383D01*
X40199906Y-115253116D01*
X40186061Y-115147952D01*
X40185000Y-115131767D01*
X40185000Y-104084277D01*
X43434500Y-104084277D01*
X43434500Y-106117708D01*
X43434501Y-106117723D01*
X43444904Y-106249913D01*
X43444905Y-106249920D01*
X43499902Y-106468178D01*
X43499903Y-106468181D01*
X43592991Y-106673122D01*
X43592997Y-106673132D01*
X43721174Y-106858145D01*
X43721178Y-106858150D01*
X43721181Y-106858154D01*
X43880346Y-107017319D01*
X43880350Y-107017322D01*
X43880354Y-107017325D01*
X43974803Y-107082759D01*
X44065374Y-107145507D01*
X44270317Y-107238596D01*
X44270321Y-107238597D01*
X44488579Y-107293594D01*
X44488581Y-107293594D01*
X44488588Y-107293596D01*
X44620783Y-107304000D01*
X46749216Y-107303999D01*
X46881412Y-107293596D01*
X47099683Y-107238596D01*
X47304626Y-107145507D01*
X47489654Y-107017319D01*
X47648819Y-106858154D01*
X47777007Y-106673126D01*
X47870096Y-106468183D01*
X47925096Y-106249912D01*
X47935500Y-106117717D01*
X47935499Y-104084284D01*
X47925096Y-103952088D01*
X47924045Y-103947919D01*
X47870097Y-103733821D01*
X47870096Y-103733818D01*
X47847166Y-103683336D01*
X47777007Y-103528874D01*
X47648819Y-103343846D01*
X47489654Y-103184681D01*
X47489650Y-103184678D01*
X47489645Y-103184674D01*
X47304632Y-103056497D01*
X47304630Y-103056495D01*
X47304626Y-103056493D01*
X47099683Y-102963404D01*
X47099681Y-102963403D01*
X47099678Y-102963402D01*
X46881420Y-102908405D01*
X46881413Y-102908404D01*
X46837347Y-102904936D01*
X46749217Y-102898000D01*
X46749215Y-102898000D01*
X44620791Y-102898000D01*
X44620776Y-102898001D01*
X44488586Y-102908404D01*
X44488579Y-102908405D01*
X44270321Y-102963402D01*
X44270318Y-102963403D01*
X44065377Y-103056491D01*
X44065367Y-103056497D01*
X43880354Y-103184674D01*
X43880342Y-103184684D01*
X43721184Y-103343842D01*
X43721174Y-103343854D01*
X43592997Y-103528867D01*
X43592991Y-103528877D01*
X43499903Y-103733818D01*
X43499902Y-103733821D01*
X43444905Y-103952079D01*
X43444904Y-103952086D01*
X43434500Y-104084277D01*
X40185000Y-104084277D01*
X40185000Y-101069125D01*
X40186061Y-101052940D01*
X40199906Y-100947776D01*
X40208284Y-100916508D01*
X40245740Y-100826081D01*
X40261923Y-100798050D01*
X40321513Y-100720392D01*
X40344392Y-100697513D01*
X40422050Y-100637923D01*
X40450079Y-100621740D01*
X40540509Y-100584283D01*
X40571775Y-100575906D01*
X40676941Y-100562061D01*
X40693126Y-100561000D01*
X43406330Y-100561000D01*
X43473369Y-100580685D01*
G37*
%TD.AperFunction*%
%TD*%
%TA.AperFunction,Conductor*%
%TO.N,/PS/AC_N*%
G36*
X71896971Y-61063381D02*
G01*
X71975618Y-61079024D01*
X72020308Y-61097535D01*
X72076626Y-61135166D01*
X72110833Y-61169373D01*
X72148462Y-61225688D01*
X72166976Y-61270387D01*
X72182617Y-61349019D01*
X72185000Y-61373210D01*
X72185000Y-67174525D01*
X72182617Y-67198716D01*
X72166976Y-67277348D01*
X72148461Y-67322048D01*
X72103916Y-67388714D01*
X72088495Y-67407504D01*
X54031504Y-85464495D01*
X54012714Y-85479916D01*
X53946048Y-85524461D01*
X53901348Y-85542976D01*
X53822716Y-85558617D01*
X53798525Y-85561000D01*
X35497211Y-85561000D01*
X35473020Y-85558617D01*
X35394387Y-85542976D01*
X35349689Y-85524462D01*
X35293373Y-85486833D01*
X35259166Y-85452626D01*
X35221535Y-85396308D01*
X35203024Y-85351618D01*
X35187381Y-85272971D01*
X35185000Y-85248789D01*
X35185000Y-79373210D01*
X35187381Y-79349029D01*
X35203025Y-79270379D01*
X35221534Y-79225693D01*
X35259168Y-79169370D01*
X35293370Y-79135168D01*
X35349693Y-79097534D01*
X35394379Y-79079025D01*
X35473028Y-79063381D01*
X35497211Y-79061000D01*
X45635001Y-79061000D01*
X45635002Y-79060999D01*
X45673612Y-79053319D01*
X45749802Y-79038165D01*
X45749802Y-79038164D01*
X45749805Y-79038164D01*
X45847132Y-78973132D01*
X45912164Y-78875805D01*
X45935000Y-78761000D01*
X45935000Y-71623210D01*
X45937381Y-71599029D01*
X45953025Y-71520379D01*
X45971534Y-71475693D01*
X46009168Y-71419370D01*
X46043370Y-71385168D01*
X46099693Y-71347534D01*
X46144379Y-71329025D01*
X46223028Y-71313381D01*
X46247211Y-71311000D01*
X55885001Y-71311000D01*
X55885002Y-71310999D01*
X55923612Y-71303319D01*
X55999802Y-71288165D01*
X55999802Y-71288164D01*
X55999805Y-71288164D01*
X56097132Y-71223132D01*
X56162164Y-71125805D01*
X56185000Y-71011000D01*
X56185000Y-61373210D01*
X56187381Y-61349029D01*
X56203025Y-61270379D01*
X56221534Y-61225693D01*
X56259168Y-61169370D01*
X56293370Y-61135168D01*
X56349693Y-61097534D01*
X56394379Y-61079025D01*
X56473028Y-61063381D01*
X56497211Y-61061000D01*
X71872789Y-61061000D01*
X71896971Y-61063381D01*
G37*
%TD.AperFunction*%
%TD*%
%TA.AperFunction,Conductor*%
%TO.N,Net-(F1-Pad2)*%
G36*
X45396971Y-47063381D02*
G01*
X45475618Y-47079024D01*
X45520308Y-47097535D01*
X45576626Y-47135166D01*
X45610833Y-47169373D01*
X45648462Y-47225688D01*
X45666976Y-47270386D01*
X45677117Y-47321367D01*
X45679500Y-47345559D01*
X45679500Y-61936175D01*
X45677117Y-61960366D01*
X45666976Y-62011348D01*
X45648461Y-62056048D01*
X45603916Y-62122714D01*
X45588495Y-62141504D01*
X42265504Y-65464495D01*
X42246714Y-65479916D01*
X42180048Y-65524461D01*
X42135348Y-65542976D01*
X42056716Y-65558617D01*
X42032525Y-65561000D01*
X35497211Y-65561000D01*
X35473020Y-65558617D01*
X35394387Y-65542976D01*
X35349689Y-65524462D01*
X35293373Y-65486833D01*
X35259166Y-65452626D01*
X35221535Y-65396308D01*
X35203024Y-65351618D01*
X35187381Y-65272971D01*
X35185000Y-65248789D01*
X35185000Y-47373210D01*
X35187381Y-47349029D01*
X35203025Y-47270379D01*
X35221534Y-47225693D01*
X35259168Y-47169370D01*
X35293370Y-47135168D01*
X35349693Y-47097534D01*
X35394379Y-47079025D01*
X35473028Y-47063381D01*
X35497211Y-47061000D01*
X45372789Y-47061000D01*
X45396971Y-47063381D01*
G37*
%TD.AperFunction*%
%TD*%
%TA.AperFunction,Conductor*%
%TO.N,/PS/AC_L_SW*%
G36*
X72361228Y-42088685D02*
G01*
X72381870Y-42105319D01*
X72640681Y-42364130D01*
X72674166Y-42425453D01*
X72677000Y-42451811D01*
X72677000Y-50748789D01*
X72674617Y-50772980D01*
X72658976Y-50851612D01*
X72640462Y-50896311D01*
X72602836Y-50952623D01*
X72568623Y-50986836D01*
X72512311Y-51024462D01*
X72467612Y-51042976D01*
X72388980Y-51058617D01*
X72364789Y-51061000D01*
X53984995Y-51061000D01*
X53870197Y-51083834D01*
X53870196Y-51083835D01*
X53772868Y-51148868D01*
X53707835Y-51246196D01*
X53707834Y-51246197D01*
X53685000Y-51360995D01*
X53685000Y-69248789D01*
X53682617Y-69272980D01*
X53666976Y-69351612D01*
X53648462Y-69396311D01*
X53610836Y-69452623D01*
X53576623Y-69486836D01*
X53520311Y-69524462D01*
X53475612Y-69542976D01*
X53396980Y-69558617D01*
X53372789Y-69561000D01*
X47497211Y-69561000D01*
X47473020Y-69558617D01*
X47394387Y-69542976D01*
X47349689Y-69524462D01*
X47293373Y-69486833D01*
X47259166Y-69452626D01*
X47221535Y-69396308D01*
X47203024Y-69351618D01*
X47187381Y-69272971D01*
X47185000Y-69248789D01*
X47185000Y-46220602D01*
X47186478Y-46201514D01*
X47196244Y-46138827D01*
X47207856Y-46102463D01*
X47231885Y-46054405D01*
X47254008Y-46023299D01*
X47298300Y-45977872D01*
X47312677Y-45965242D01*
X52419672Y-42134995D01*
X52436518Y-42124362D01*
X52438450Y-42123349D01*
X52494975Y-42093733D01*
X52532659Y-42081171D01*
X52574184Y-42074433D01*
X52597802Y-42070601D01*
X52617663Y-42069000D01*
X72294189Y-42069000D01*
X72361228Y-42088685D01*
G37*
%TD.AperFunction*%
%TD*%
%TA.AperFunction,Conductor*%
%TO.N,DCR_GND*%
G36*
X107322707Y-46563381D02*
G01*
X107401354Y-46579024D01*
X107446046Y-46597537D01*
X107512714Y-46642083D01*
X107531504Y-46657504D01*
X116588495Y-55714495D01*
X116603916Y-55733285D01*
X116648461Y-55799951D01*
X116666976Y-55844651D01*
X116682617Y-55923283D01*
X116685000Y-55947474D01*
X116685000Y-72561000D01*
X115431000Y-71307000D01*
X112435000Y-71307000D01*
X112435000Y-56185264D01*
X112434794Y-56184230D01*
X112412165Y-56070461D01*
X112412163Y-56070457D01*
X112347135Y-55973136D01*
X112347129Y-55973128D01*
X109022871Y-52648870D01*
X109022863Y-52648864D01*
X108925542Y-52583836D01*
X108925538Y-52583834D01*
X108810740Y-52561000D01*
X108810736Y-52561000D01*
X108680544Y-52561000D01*
X108613505Y-52541315D01*
X108603580Y-52534224D01*
X108413049Y-52383397D01*
X108413045Y-52383394D01*
X108356727Y-52345763D01*
X108338468Y-52334023D01*
X108312091Y-52317062D01*
X108096447Y-52206639D01*
X108096440Y-52206636D01*
X108096432Y-52206632D01*
X108051742Y-52188121D01*
X108051741Y-52188120D01*
X108051713Y-52188109D01*
X108002371Y-52168683D01*
X108002360Y-52168680D01*
X107769312Y-52102449D01*
X107690682Y-52086808D01*
X107690668Y-52086806D01*
X107544508Y-52065127D01*
X107544489Y-52065125D01*
X107520317Y-52062745D01*
X107465960Y-52060075D01*
X107372789Y-52055500D01*
X105077637Y-52055500D01*
X105077630Y-52055500D01*
X104951101Y-52060826D01*
X104930331Y-52062578D01*
X104904116Y-52065902D01*
X104895471Y-52066692D01*
X104691951Y-52078121D01*
X104678046Y-52078121D01*
X104474499Y-52066690D01*
X104465849Y-52065899D01*
X104439681Y-52062579D01*
X104418891Y-52060825D01*
X104292370Y-52055500D01*
X104292363Y-52055500D01*
X102559000Y-52055500D01*
X102491961Y-52035815D01*
X102446206Y-51983011D01*
X102435000Y-51931500D01*
X102435000Y-46947474D01*
X102437381Y-46923293D01*
X102453025Y-46844643D01*
X102471536Y-46799955D01*
X102516088Y-46733278D01*
X102531499Y-46714500D01*
X102588500Y-46657499D01*
X102607278Y-46642088D01*
X102673955Y-46597536D01*
X102718643Y-46579025D01*
X102797292Y-46563381D01*
X102821475Y-46561000D01*
X107298525Y-46561000D01*
X107322707Y-46563381D01*
G37*
%TD.AperFunction*%
%TD*%
%TA.AperFunction,Conductor*%
%TO.N,/PS/AC_L*%
G36*
X44396971Y-68563381D02*
G01*
X44475618Y-68579024D01*
X44520308Y-68597535D01*
X44576626Y-68635166D01*
X44610833Y-68669373D01*
X44648462Y-68725688D01*
X44666976Y-68770387D01*
X44682617Y-68849019D01*
X44685000Y-68873210D01*
X44685000Y-70665843D01*
X44671372Y-70722359D01*
X44580622Y-70899586D01*
X44562130Y-70944232D01*
X44542688Y-70993614D01*
X44476452Y-71226676D01*
X44476451Y-71226680D01*
X44460803Y-71305348D01*
X44439127Y-71451494D01*
X44436746Y-71475675D01*
X44436746Y-71475683D01*
X44429500Y-71623210D01*
X44429500Y-71623223D01*
X44429500Y-76937000D01*
X44409815Y-77004039D01*
X44357011Y-77049794D01*
X44305500Y-77061000D01*
X35497211Y-77061000D01*
X35473020Y-77058617D01*
X35394387Y-77042976D01*
X35349689Y-77024462D01*
X35293373Y-76986833D01*
X35259166Y-76952626D01*
X35221535Y-76896308D01*
X35203024Y-76851618D01*
X35187381Y-76772971D01*
X35185000Y-76748789D01*
X35185000Y-68873210D01*
X35187381Y-68849029D01*
X35203025Y-68770379D01*
X35221534Y-68725693D01*
X35259168Y-68669370D01*
X35293370Y-68635168D01*
X35349693Y-68597534D01*
X35394379Y-68579025D01*
X35473028Y-68563381D01*
X35497211Y-68561000D01*
X44372789Y-68561000D01*
X44396971Y-68563381D01*
G37*
%TD.AperFunction*%
%TD*%
%TA.AperFunction,Conductor*%
%TO.N,DCR_GND*%
G36*
X116685000Y-72561000D02*
G01*
X116685000Y-90187000D01*
X116665315Y-90254039D01*
X116612511Y-90299794D01*
X116561000Y-90311000D01*
X78935000Y-90311000D01*
X78935000Y-103844235D01*
X78915315Y-103911274D01*
X78867296Y-103954719D01*
X78804195Y-103986871D01*
X78637576Y-104107926D01*
X78637571Y-104107930D01*
X78491930Y-104253571D01*
X78491926Y-104253576D01*
X78370873Y-104420193D01*
X78277367Y-104603705D01*
X78213719Y-104799591D01*
X78181500Y-105003019D01*
X78181500Y-105208980D01*
X78213719Y-105412408D01*
X78277367Y-105608294D01*
X78370873Y-105791806D01*
X78491926Y-105958423D01*
X78491930Y-105958428D01*
X78637571Y-106104069D01*
X78637576Y-106104073D01*
X78802113Y-106223615D01*
X78804197Y-106225129D01*
X78867295Y-106257279D01*
X78918091Y-106305252D01*
X78935000Y-106367763D01*
X78935000Y-106384235D01*
X78915315Y-106451274D01*
X78867296Y-106494719D01*
X78804195Y-106526871D01*
X78637576Y-106647926D01*
X78637571Y-106647930D01*
X78491930Y-106793571D01*
X78491926Y-106793576D01*
X78370873Y-106960193D01*
X78277367Y-107143705D01*
X78213719Y-107339591D01*
X78181500Y-107543019D01*
X78181500Y-107748980D01*
X78213719Y-107952408D01*
X78277367Y-108148294D01*
X78370873Y-108331806D01*
X78491926Y-108498423D01*
X78491930Y-108498428D01*
X78637571Y-108644069D01*
X78637576Y-108644073D01*
X78802113Y-108763615D01*
X78804197Y-108765129D01*
X78867295Y-108797279D01*
X78918091Y-108845252D01*
X78935000Y-108907763D01*
X78935000Y-108924235D01*
X78915315Y-108991274D01*
X78867296Y-109034719D01*
X78804195Y-109066871D01*
X78637576Y-109187926D01*
X78637571Y-109187930D01*
X78491930Y-109333571D01*
X78491926Y-109333576D01*
X78370873Y-109500193D01*
X78277367Y-109683705D01*
X78213719Y-109879591D01*
X78181500Y-110083019D01*
X78181500Y-110288980D01*
X78213719Y-110492408D01*
X78277367Y-110688294D01*
X78370873Y-110871806D01*
X78491926Y-111038423D01*
X78491930Y-111038428D01*
X78637571Y-111184069D01*
X78637576Y-111184073D01*
X78781222Y-111288437D01*
X78804197Y-111305129D01*
X78867295Y-111337279D01*
X78918091Y-111385252D01*
X78935000Y-111447763D01*
X78935000Y-125759638D01*
X78915315Y-125826677D01*
X78898681Y-125847319D01*
X77971319Y-126774681D01*
X77909996Y-126808166D01*
X77883638Y-126811000D01*
X60809000Y-126811000D01*
X60741961Y-126791315D01*
X60696206Y-126738511D01*
X60685000Y-126687000D01*
X60685000Y-120856995D01*
X61153499Y-120856995D01*
X61153499Y-120857004D01*
X61173474Y-121123559D01*
X61173475Y-121123562D01*
X61232957Y-121384170D01*
X61330616Y-121633002D01*
X61464271Y-121864498D01*
X61630936Y-122073490D01*
X61826888Y-122255306D01*
X62047750Y-122405887D01*
X62288587Y-122521869D01*
X62544021Y-122600660D01*
X62544022Y-122600660D01*
X62544025Y-122600661D01*
X62808337Y-122640499D01*
X62808342Y-122640499D01*
X62808345Y-122640500D01*
X62808346Y-122640500D01*
X63075654Y-122640500D01*
X63075655Y-122640500D01*
X63075662Y-122640499D01*
X63339974Y-122600661D01*
X63339975Y-122600660D01*
X63339979Y-122600660D01*
X63595413Y-122521869D01*
X63836251Y-122405887D01*
X64057112Y-122255306D01*
X64253064Y-122073490D01*
X64419729Y-121864498D01*
X64553384Y-121633002D01*
X64651043Y-121384170D01*
X64710525Y-121123562D01*
X64730501Y-120857000D01*
X64730501Y-120856995D01*
X66233499Y-120856995D01*
X66233499Y-120857004D01*
X66253474Y-121123559D01*
X66253475Y-121123562D01*
X66312957Y-121384170D01*
X66410616Y-121633002D01*
X66544271Y-121864498D01*
X66710936Y-122073490D01*
X66906888Y-122255306D01*
X67127750Y-122405887D01*
X67368587Y-122521869D01*
X67624021Y-122600660D01*
X67624022Y-122600660D01*
X67624025Y-122600661D01*
X67888337Y-122640499D01*
X67888342Y-122640499D01*
X67888345Y-122640500D01*
X67888346Y-122640500D01*
X68155654Y-122640500D01*
X68155655Y-122640500D01*
X68155662Y-122640499D01*
X68419974Y-122600661D01*
X68419975Y-122600660D01*
X68419979Y-122600660D01*
X68675413Y-122521869D01*
X68916251Y-122405887D01*
X69137112Y-122255306D01*
X69333064Y-122073490D01*
X69499729Y-121864498D01*
X69633384Y-121633002D01*
X69731043Y-121384170D01*
X69790525Y-121123562D01*
X69810501Y-120857000D01*
X69790525Y-120590438D01*
X69731043Y-120329830D01*
X69633384Y-120080998D01*
X69499729Y-119849502D01*
X69333064Y-119640510D01*
X69137112Y-119458694D01*
X68916251Y-119308113D01*
X68916248Y-119308112D01*
X68916246Y-119308110D01*
X68675413Y-119192131D01*
X68419980Y-119113340D01*
X68419974Y-119113338D01*
X68155662Y-119073500D01*
X68155655Y-119073500D01*
X67888345Y-119073500D01*
X67888337Y-119073500D01*
X67624025Y-119113338D01*
X67624019Y-119113340D01*
X67466437Y-119161948D01*
X67368587Y-119192131D01*
X67368585Y-119192132D01*
X67368581Y-119192133D01*
X67127754Y-119308110D01*
X66906887Y-119458694D01*
X66710938Y-119640508D01*
X66710936Y-119640510D01*
X66544271Y-119849502D01*
X66410616Y-120080997D01*
X66312959Y-120329824D01*
X66312954Y-120329841D01*
X66253474Y-120590440D01*
X66233499Y-120856995D01*
X64730501Y-120856995D01*
X64710525Y-120590438D01*
X64651043Y-120329830D01*
X64553384Y-120080998D01*
X64419729Y-119849502D01*
X64253064Y-119640510D01*
X64057112Y-119458694D01*
X63836251Y-119308113D01*
X63836248Y-119308112D01*
X63836246Y-119308110D01*
X63595413Y-119192131D01*
X63339980Y-119113340D01*
X63339974Y-119113338D01*
X63075662Y-119073500D01*
X63075655Y-119073500D01*
X62808345Y-119073500D01*
X62808337Y-119073500D01*
X62544025Y-119113338D01*
X62544019Y-119113340D01*
X62386437Y-119161948D01*
X62288587Y-119192131D01*
X62288585Y-119192132D01*
X62288581Y-119192133D01*
X62047754Y-119308110D01*
X61826887Y-119458694D01*
X61630938Y-119640508D01*
X61630936Y-119640510D01*
X61464271Y-119849502D01*
X61330616Y-120080997D01*
X61232959Y-120329824D01*
X61232954Y-120329841D01*
X61173474Y-120590440D01*
X61153499Y-120856995D01*
X60685000Y-120856995D01*
X60685000Y-116362362D01*
X60704685Y-116295323D01*
X60721319Y-116274681D01*
X63898681Y-113097319D01*
X63960004Y-113063834D01*
X63986362Y-113061000D01*
X73185000Y-113061000D01*
X74935000Y-111311000D01*
X74935000Y-75796777D01*
X107234500Y-75796777D01*
X107234500Y-78325208D01*
X107234501Y-78325223D01*
X107244904Y-78457413D01*
X107244905Y-78457420D01*
X107299902Y-78675678D01*
X107299903Y-78675681D01*
X107392991Y-78880622D01*
X107392997Y-78880632D01*
X107521174Y-79065645D01*
X107521178Y-79065650D01*
X107521181Y-79065654D01*
X107680346Y-79224819D01*
X107680350Y-79224822D01*
X107680354Y-79224825D01*
X107819603Y-79321297D01*
X107865374Y-79353007D01*
X108070317Y-79446096D01*
X108070321Y-79446097D01*
X108288579Y-79501094D01*
X108288581Y-79501094D01*
X108288588Y-79501096D01*
X108420783Y-79511500D01*
X110949216Y-79511499D01*
X111081412Y-79501096D01*
X111299683Y-79446096D01*
X111504626Y-79353007D01*
X111689654Y-79224819D01*
X111848819Y-79065654D01*
X111977007Y-78880626D01*
X112070096Y-78675683D01*
X112125096Y-78457412D01*
X112135500Y-78325217D01*
X112135499Y-75796784D01*
X112125096Y-75664588D01*
X112070096Y-75446317D01*
X111977007Y-75241374D01*
X111848819Y-75056346D01*
X111689654Y-74897181D01*
X111689650Y-74897178D01*
X111689645Y-74897174D01*
X111504632Y-74768997D01*
X111504630Y-74768995D01*
X111504626Y-74768993D01*
X111299683Y-74675904D01*
X111299681Y-74675903D01*
X111299678Y-74675902D01*
X111081420Y-74620905D01*
X111081413Y-74620904D01*
X111037347Y-74617436D01*
X110949217Y-74610500D01*
X110949215Y-74610500D01*
X108420791Y-74610500D01*
X108420776Y-74610501D01*
X108288586Y-74620904D01*
X108288579Y-74620905D01*
X108070321Y-74675902D01*
X108070318Y-74675903D01*
X107865377Y-74768991D01*
X107865367Y-74768997D01*
X107680354Y-74897174D01*
X107680342Y-74897184D01*
X107521184Y-75056342D01*
X107521174Y-75056354D01*
X107392997Y-75241367D01*
X107392991Y-75241377D01*
X107299903Y-75446318D01*
X107299902Y-75446321D01*
X107244905Y-75664579D01*
X107244904Y-75664586D01*
X107234500Y-75796777D01*
X74935000Y-75796777D01*
X74935000Y-72754362D01*
X74954685Y-72687323D01*
X74971319Y-72666681D01*
X76294681Y-71343319D01*
X76356004Y-71309834D01*
X76382362Y-71307000D01*
X112435000Y-71307000D01*
X115431000Y-71307000D01*
X116685000Y-72561000D01*
G37*
%TD.AperFunction*%
%TD*%
%TA.AperFunction,Conductor*%
%TO.N,OUT_GND*%
G36*
X114693059Y-99562061D02*
G01*
X114798223Y-99575906D01*
X114829491Y-99584284D01*
X114919918Y-99621740D01*
X114947952Y-99637925D01*
X115025602Y-99697509D01*
X115048491Y-99720398D01*
X115108074Y-99798048D01*
X115124259Y-99826081D01*
X115161715Y-99916508D01*
X115170093Y-99947775D01*
X115183939Y-100052939D01*
X115185000Y-100069125D01*
X115185000Y-148052874D01*
X115183939Y-148069060D01*
X115170093Y-148174224D01*
X115161715Y-148205491D01*
X115124259Y-148295918D01*
X115108074Y-148323951D01*
X115048491Y-148401601D01*
X115025601Y-148424491D01*
X114947951Y-148484074D01*
X114919918Y-148500259D01*
X114829491Y-148537715D01*
X114798224Y-148546093D01*
X114704398Y-148558446D01*
X114693058Y-148559939D01*
X114676874Y-148561000D01*
X108392107Y-148561000D01*
X108392101Y-148561000D01*
X108392097Y-148561001D01*
X108262698Y-148578036D01*
X108262693Y-148578038D01*
X108142111Y-148627984D01*
X108142106Y-148627987D01*
X108038554Y-148707445D01*
X108038547Y-148707451D01*
X104331451Y-152414547D01*
X104331445Y-152414554D01*
X104251987Y-152518106D01*
X104251984Y-152518111D01*
X104202038Y-152638693D01*
X104202036Y-152638698D01*
X104185001Y-152768097D01*
X104185000Y-152768113D01*
X104185000Y-159052874D01*
X104183939Y-159069060D01*
X104170093Y-159174224D01*
X104161715Y-159205491D01*
X104124259Y-159295918D01*
X104108074Y-159323951D01*
X104048491Y-159401601D01*
X104025601Y-159424491D01*
X103947951Y-159484074D01*
X103919918Y-159500259D01*
X103829491Y-159537715D01*
X103798224Y-159546093D01*
X103704398Y-159558446D01*
X103693058Y-159559939D01*
X103676874Y-159561000D01*
X94676889Y-159561000D01*
X94609850Y-159541315D01*
X94564095Y-159488511D01*
X94562328Y-159484452D01*
X94562171Y-159484074D01*
X94540839Y-159432573D01*
X94515239Y-159370768D01*
X94515232Y-159370753D01*
X94383590Y-159142743D01*
X94223312Y-158933863D01*
X94223306Y-158933856D01*
X94037143Y-158747693D01*
X94037136Y-158747687D01*
X93828256Y-158587409D01*
X93600250Y-158455769D01*
X93600234Y-158455761D01*
X93356995Y-158355009D01*
X93102678Y-158286865D01*
X92841653Y-158252501D01*
X92841650Y-158252500D01*
X92841644Y-158252500D01*
X91378356Y-158252500D01*
X91378350Y-158252500D01*
X91378346Y-158252501D01*
X91117321Y-158286865D01*
X90863004Y-158355009D01*
X90619765Y-158455761D01*
X90619749Y-158455769D01*
X90391743Y-158587409D01*
X90182863Y-158747687D01*
X90182856Y-158747693D01*
X89996693Y-158933856D01*
X89996687Y-158933863D01*
X89836409Y-159142743D01*
X89704767Y-159370753D01*
X89704760Y-159370768D01*
X89668637Y-159457979D01*
X89657829Y-159484074D01*
X89657672Y-159484452D01*
X89613832Y-159538856D01*
X89547538Y-159560921D01*
X89543111Y-159561000D01*
X80863141Y-159561000D01*
X80796102Y-159541315D01*
X80750347Y-159488511D01*
X80740403Y-159419353D01*
X80769428Y-159355797D01*
X80793284Y-159334549D01*
X80843219Y-159300505D01*
X81030931Y-159126334D01*
X81190587Y-158926131D01*
X81318622Y-158704369D01*
X81412174Y-158466001D01*
X81469155Y-158216353D01*
X81488291Y-157961000D01*
X81485161Y-157919237D01*
X81469156Y-157705656D01*
X81469155Y-157705651D01*
X81469155Y-157705647D01*
X81412174Y-157455999D01*
X81318622Y-157217631D01*
X81190587Y-156995869D01*
X81030931Y-156795666D01*
X81030930Y-156795665D01*
X81030927Y-156795661D01*
X80909989Y-156683448D01*
X80843219Y-156621495D01*
X80830407Y-156612760D01*
X80631649Y-156477248D01*
X80631638Y-156477241D01*
X80400940Y-156366144D01*
X80400921Y-156366137D01*
X80156248Y-156290666D01*
X80156238Y-156290663D01*
X79903041Y-156252500D01*
X79903034Y-156252500D01*
X79646966Y-156252500D01*
X79646958Y-156252500D01*
X79393761Y-156290663D01*
X79393755Y-156290665D01*
X79149061Y-156366143D01*
X78918362Y-156477241D01*
X78918361Y-156477242D01*
X78706780Y-156621495D01*
X78519072Y-156795661D01*
X78359413Y-156995869D01*
X78231378Y-157217630D01*
X78137828Y-157455993D01*
X78137822Y-157456012D01*
X78080844Y-157705651D01*
X78080843Y-157705656D01*
X78061709Y-157960995D01*
X78061709Y-157961004D01*
X78080843Y-158216343D01*
X78080844Y-158216348D01*
X78137822Y-158465987D01*
X78137824Y-158465996D01*
X78137826Y-158466001D01*
X78231378Y-158704369D01*
X78359413Y-158926131D01*
X78443018Y-159030969D01*
X78519072Y-159126338D01*
X78673058Y-159269215D01*
X78706781Y-159300505D01*
X78756712Y-159334547D01*
X78801013Y-159388575D01*
X78809072Y-159457979D01*
X78778329Y-159520721D01*
X78718545Y-159556883D01*
X78686859Y-159561000D01*
X75783141Y-159561000D01*
X75716102Y-159541315D01*
X75670347Y-159488511D01*
X75660403Y-159419353D01*
X75689428Y-159355797D01*
X75713284Y-159334549D01*
X75763219Y-159300505D01*
X75950931Y-159126334D01*
X76110587Y-158926131D01*
X76238622Y-158704369D01*
X76332174Y-158466001D01*
X76389155Y-158216353D01*
X76408291Y-157961000D01*
X76405161Y-157919237D01*
X76389156Y-157705656D01*
X76389155Y-157705651D01*
X76389155Y-157705647D01*
X76332174Y-157455999D01*
X76238622Y-157217631D01*
X76110587Y-156995869D01*
X75950931Y-156795666D01*
X75950930Y-156795665D01*
X75950927Y-156795661D01*
X75829989Y-156683448D01*
X75763219Y-156621495D01*
X75750407Y-156612760D01*
X75551649Y-156477248D01*
X75551638Y-156477241D01*
X75320940Y-156366144D01*
X75320921Y-156366137D01*
X75076248Y-156290666D01*
X75076238Y-156290663D01*
X74823041Y-156252500D01*
X74823034Y-156252500D01*
X74566966Y-156252500D01*
X74566958Y-156252500D01*
X74313761Y-156290663D01*
X74313755Y-156290665D01*
X74069061Y-156366143D01*
X73838362Y-156477241D01*
X73838361Y-156477242D01*
X73626780Y-156621495D01*
X73439072Y-156795661D01*
X73279413Y-156995869D01*
X73151378Y-157217630D01*
X73057828Y-157455993D01*
X73057822Y-157456012D01*
X73000844Y-157705651D01*
X73000843Y-157705656D01*
X72981709Y-157960995D01*
X72981709Y-157961004D01*
X73000843Y-158216343D01*
X73000844Y-158216348D01*
X73057822Y-158465987D01*
X73057824Y-158465996D01*
X73057826Y-158466001D01*
X73151378Y-158704369D01*
X73279413Y-158926131D01*
X73363018Y-159030969D01*
X73439072Y-159126338D01*
X73593058Y-159269215D01*
X73626781Y-159300505D01*
X73676712Y-159334547D01*
X73721013Y-159388575D01*
X73729072Y-159457979D01*
X73698329Y-159520721D01*
X73638545Y-159556883D01*
X73606859Y-159561000D01*
X71237551Y-159561000D01*
X71170512Y-159541315D01*
X71124757Y-159488511D01*
X71114813Y-159419353D01*
X71143838Y-159355797D01*
X71190099Y-159322439D01*
X71212657Y-159313094D01*
X71221963Y-159309240D01*
X71424416Y-159185176D01*
X71604969Y-159030969D01*
X71759176Y-158850416D01*
X71883240Y-158647963D01*
X71943828Y-158501691D01*
X71974104Y-158428597D01*
X71974104Y-158428596D01*
X71974105Y-158428594D01*
X72029535Y-158197711D01*
X72048165Y-157961000D01*
X72029535Y-157724289D01*
X71974105Y-157493406D01*
X71974104Y-157493403D01*
X71974104Y-157493402D01*
X71883242Y-157274040D01*
X71883240Y-157274037D01*
X71759179Y-157071589D01*
X71759178Y-157071586D01*
X71694509Y-156995869D01*
X71604969Y-156891031D01*
X71485596Y-156789076D01*
X71424413Y-156736821D01*
X71424410Y-156736820D01*
X71221962Y-156612759D01*
X71221959Y-156612757D01*
X71002596Y-156521895D01*
X70771714Y-156466465D01*
X70535000Y-156447835D01*
X70298285Y-156466465D01*
X70067404Y-156521895D01*
X70067402Y-156521895D01*
X69848040Y-156612757D01*
X69848037Y-156612759D01*
X69645589Y-156736820D01*
X69645586Y-156736821D01*
X69465031Y-156891031D01*
X69310821Y-157071586D01*
X69310820Y-157071589D01*
X69186759Y-157274037D01*
X69186757Y-157274040D01*
X69095895Y-157493402D01*
X69095895Y-157493404D01*
X69040465Y-157724285D01*
X69021835Y-157961000D01*
X69040465Y-158197714D01*
X69095895Y-158428595D01*
X69095895Y-158428597D01*
X69186757Y-158647959D01*
X69186759Y-158647962D01*
X69310820Y-158850410D01*
X69310821Y-158850413D01*
X69310824Y-158850416D01*
X69465031Y-159030969D01*
X69566696Y-159117799D01*
X69645586Y-159185178D01*
X69645588Y-159185178D01*
X69826298Y-159295918D01*
X69848037Y-159309240D01*
X69848039Y-159309241D01*
X69879901Y-159322439D01*
X69934305Y-159366279D01*
X69956370Y-159432573D01*
X69939091Y-159500273D01*
X69887954Y-159547884D01*
X69832449Y-159561000D01*
X63737551Y-159561000D01*
X63670512Y-159541315D01*
X63624757Y-159488511D01*
X63614813Y-159419353D01*
X63643838Y-159355797D01*
X63690099Y-159322439D01*
X63712657Y-159313094D01*
X63721963Y-159309240D01*
X63924416Y-159185176D01*
X64104969Y-159030969D01*
X64259176Y-158850416D01*
X64383240Y-158647963D01*
X64443828Y-158501691D01*
X64474104Y-158428597D01*
X64474104Y-158428596D01*
X64474105Y-158428594D01*
X64529535Y-158197711D01*
X64548165Y-157961000D01*
X64529535Y-157724289D01*
X64474105Y-157493406D01*
X64474104Y-157493403D01*
X64474104Y-157493402D01*
X64383242Y-157274040D01*
X64383240Y-157274037D01*
X64259179Y-157071589D01*
X64259178Y-157071586D01*
X64194509Y-156995869D01*
X64104969Y-156891031D01*
X63985596Y-156789076D01*
X63924413Y-156736821D01*
X63924410Y-156736820D01*
X63721962Y-156612759D01*
X63721959Y-156612757D01*
X63502596Y-156521895D01*
X63271714Y-156466465D01*
X63035000Y-156447835D01*
X62798285Y-156466465D01*
X62567404Y-156521895D01*
X62567402Y-156521895D01*
X62348040Y-156612757D01*
X62348037Y-156612759D01*
X62145589Y-156736820D01*
X62145586Y-156736821D01*
X61965031Y-156891031D01*
X61810821Y-157071586D01*
X61810820Y-157071589D01*
X61686759Y-157274037D01*
X61686757Y-157274040D01*
X61595895Y-157493402D01*
X61595895Y-157493404D01*
X61540465Y-157724285D01*
X61521835Y-157961000D01*
X61540465Y-158197714D01*
X61595895Y-158428595D01*
X61595895Y-158428597D01*
X61686757Y-158647959D01*
X61686759Y-158647962D01*
X61810820Y-158850410D01*
X61810821Y-158850413D01*
X61810824Y-158850416D01*
X61965031Y-159030969D01*
X62066696Y-159117799D01*
X62145586Y-159185178D01*
X62145588Y-159185178D01*
X62326298Y-159295918D01*
X62348037Y-159309240D01*
X62348039Y-159309241D01*
X62379901Y-159322439D01*
X62434305Y-159366279D01*
X62456370Y-159432573D01*
X62439091Y-159500273D01*
X62387954Y-159547884D01*
X62332449Y-159561000D01*
X48693126Y-159561000D01*
X48676941Y-159559939D01*
X48663917Y-159558224D01*
X48571775Y-159546093D01*
X48540508Y-159537715D01*
X48450081Y-159500259D01*
X48422048Y-159484074D01*
X48344398Y-159424491D01*
X48321508Y-159401601D01*
X48297837Y-159370753D01*
X48261925Y-159323951D01*
X48245740Y-159295918D01*
X48208284Y-159205491D01*
X48199906Y-159174223D01*
X48186061Y-159069059D01*
X48185000Y-159052874D01*
X48185000Y-152768113D01*
X48185000Y-152768107D01*
X48184241Y-152762345D01*
X94590041Y-152762345D01*
X94590041Y-155259654D01*
X94596552Y-155320202D01*
X94596552Y-155320204D01*
X94647652Y-155457204D01*
X94735280Y-155574261D01*
X94852337Y-155661889D01*
X94989340Y-155712989D01*
X95016591Y-155715918D01*
X95049886Y-155719499D01*
X95049903Y-155719500D01*
X97547179Y-155719500D01*
X97547195Y-155719499D01*
X97574233Y-155716591D01*
X97607742Y-155712989D01*
X97744745Y-155661889D01*
X97861802Y-155574261D01*
X97949430Y-155457204D01*
X98000530Y-155320201D01*
X98004593Y-155282405D01*
X98007040Y-155259654D01*
X98007041Y-155259637D01*
X98007041Y-152762362D01*
X98007040Y-152762345D01*
X98003698Y-152731270D01*
X98000530Y-152701799D01*
X97949430Y-152564796D01*
X97861802Y-152447739D01*
X97744745Y-152360111D01*
X97723972Y-152352363D01*
X97607744Y-152309011D01*
X97547195Y-152302500D01*
X97547179Y-152302500D01*
X95049903Y-152302500D01*
X95049886Y-152302500D01*
X94989338Y-152309011D01*
X94989336Y-152309011D01*
X94852336Y-152360111D01*
X94735280Y-152447739D01*
X94647652Y-152564795D01*
X94596552Y-152701795D01*
X94596552Y-152701797D01*
X94590041Y-152762345D01*
X48184241Y-152762345D01*
X48167963Y-152638697D01*
X48118013Y-152518107D01*
X48038553Y-152414553D01*
X48038548Y-152414547D01*
X44331452Y-148707451D01*
X44331445Y-148707445D01*
X44227893Y-148627987D01*
X44227888Y-148627984D01*
X44107306Y-148578038D01*
X44107301Y-148578036D01*
X43977902Y-148561001D01*
X43977899Y-148561000D01*
X43977893Y-148561000D01*
X43977886Y-148561000D01*
X37693126Y-148561000D01*
X37676941Y-148559939D01*
X37663917Y-148558224D01*
X37571775Y-148546093D01*
X37540508Y-148537715D01*
X37450081Y-148500259D01*
X37422048Y-148484074D01*
X37344398Y-148424491D01*
X37321508Y-148401601D01*
X37261925Y-148323951D01*
X37245740Y-148295918D01*
X37208284Y-148205491D01*
X37199906Y-148174223D01*
X37186061Y-148069059D01*
X37185000Y-148052874D01*
X37185000Y-146256995D01*
X50993499Y-146256995D01*
X50993499Y-146257004D01*
X51013474Y-146523559D01*
X51061823Y-146735389D01*
X51072957Y-146784170D01*
X51170616Y-147033002D01*
X51304271Y-147264498D01*
X51470936Y-147473490D01*
X51666888Y-147655306D01*
X51887750Y-147805887D01*
X52128587Y-147921869D01*
X52384021Y-148000660D01*
X52384022Y-148000660D01*
X52384025Y-148000661D01*
X52648337Y-148040499D01*
X52648342Y-148040499D01*
X52648345Y-148040500D01*
X52648346Y-148040500D01*
X52915654Y-148040500D01*
X52915655Y-148040500D01*
X52915662Y-148040499D01*
X53179974Y-148000661D01*
X53179975Y-148000660D01*
X53179979Y-148000660D01*
X53435413Y-147921869D01*
X53676251Y-147805887D01*
X53897112Y-147655306D01*
X54093064Y-147473490D01*
X54259729Y-147264498D01*
X54393384Y-147033002D01*
X54491043Y-146784170D01*
X54550525Y-146523562D01*
X54560779Y-146386731D01*
X54570501Y-146257004D01*
X54570501Y-146256995D01*
X56073499Y-146256995D01*
X56073499Y-146257004D01*
X56093474Y-146523559D01*
X56141823Y-146735389D01*
X56152957Y-146784170D01*
X56250616Y-147033002D01*
X56384271Y-147264498D01*
X56550936Y-147473490D01*
X56746888Y-147655306D01*
X56967750Y-147805887D01*
X57208587Y-147921869D01*
X57464021Y-148000660D01*
X57464022Y-148000660D01*
X57464025Y-148000661D01*
X57728337Y-148040499D01*
X57728342Y-148040499D01*
X57728345Y-148040500D01*
X57728346Y-148040500D01*
X57995654Y-148040500D01*
X57995655Y-148040500D01*
X57995662Y-148040499D01*
X58259974Y-148000661D01*
X58259975Y-148000660D01*
X58259979Y-148000660D01*
X58515413Y-147921869D01*
X58756251Y-147805887D01*
X58977112Y-147655306D01*
X59173064Y-147473490D01*
X59339729Y-147264498D01*
X59473384Y-147033002D01*
X59571043Y-146784170D01*
X59630525Y-146523562D01*
X59640779Y-146386731D01*
X59650501Y-146257004D01*
X59650501Y-146256995D01*
X61153499Y-146256995D01*
X61153499Y-146257004D01*
X61173474Y-146523559D01*
X61221823Y-146735389D01*
X61232957Y-146784170D01*
X61330616Y-147033002D01*
X61464271Y-147264498D01*
X61630936Y-147473490D01*
X61826888Y-147655306D01*
X62047750Y-147805887D01*
X62288587Y-147921869D01*
X62544021Y-148000660D01*
X62544022Y-148000660D01*
X62544025Y-148000661D01*
X62808337Y-148040499D01*
X62808342Y-148040499D01*
X62808345Y-148040500D01*
X62808346Y-148040500D01*
X63075654Y-148040500D01*
X63075655Y-148040500D01*
X63075662Y-148040499D01*
X63339974Y-148000661D01*
X63339975Y-148000660D01*
X63339979Y-148000660D01*
X63595413Y-147921869D01*
X63836251Y-147805887D01*
X64057112Y-147655306D01*
X64253064Y-147473490D01*
X64419729Y-147264498D01*
X64553384Y-147033002D01*
X64651043Y-146784170D01*
X64710525Y-146523562D01*
X64720779Y-146386731D01*
X64730501Y-146257004D01*
X64730501Y-146256995D01*
X66233499Y-146256995D01*
X66233499Y-146257004D01*
X66253474Y-146523559D01*
X66301823Y-146735389D01*
X66312957Y-146784170D01*
X66410616Y-147033002D01*
X66544271Y-147264498D01*
X66710936Y-147473490D01*
X66906888Y-147655306D01*
X67127750Y-147805887D01*
X67368587Y-147921869D01*
X67624021Y-148000660D01*
X67624022Y-148000660D01*
X67624025Y-148000661D01*
X67888337Y-148040499D01*
X67888342Y-148040499D01*
X67888345Y-148040500D01*
X67888346Y-148040500D01*
X68155654Y-148040500D01*
X68155655Y-148040500D01*
X68155662Y-148040499D01*
X68419974Y-148000661D01*
X68419975Y-148000660D01*
X68419979Y-148000660D01*
X68675413Y-147921869D01*
X68916251Y-147805887D01*
X69137112Y-147655306D01*
X69333064Y-147473490D01*
X69499729Y-147264498D01*
X69633384Y-147033002D01*
X69731043Y-146784170D01*
X69790525Y-146523562D01*
X69800779Y-146386731D01*
X69810501Y-146257004D01*
X69810501Y-146256995D01*
X71313499Y-146256995D01*
X71313499Y-146257004D01*
X71333474Y-146523559D01*
X71381823Y-146735389D01*
X71392957Y-146784170D01*
X71490616Y-147033002D01*
X71624271Y-147264498D01*
X71790936Y-147473490D01*
X71986888Y-147655306D01*
X72207750Y-147805887D01*
X72448587Y-147921869D01*
X72704021Y-148000660D01*
X72704022Y-148000660D01*
X72704025Y-148000661D01*
X72968337Y-148040499D01*
X72968342Y-148040499D01*
X72968345Y-148040500D01*
X72968346Y-148040500D01*
X73235654Y-148040500D01*
X73235655Y-148040500D01*
X73235662Y-148040499D01*
X73499974Y-148000661D01*
X73499975Y-148000660D01*
X73499979Y-148000660D01*
X73755413Y-147921869D01*
X73996251Y-147805887D01*
X74217112Y-147655306D01*
X74413064Y-147473490D01*
X74579729Y-147264498D01*
X74713384Y-147033002D01*
X74811043Y-146784170D01*
X74870525Y-146523562D01*
X74880779Y-146386731D01*
X74890501Y-146257004D01*
X74890501Y-146256995D01*
X74870525Y-145990440D01*
X74856410Y-145928597D01*
X74811043Y-145729830D01*
X74723201Y-145506011D01*
X84871500Y-145506011D01*
X84871500Y-145735988D01*
X84907473Y-145963118D01*
X84978539Y-146181833D01*
X85064435Y-146350413D01*
X85082940Y-146386731D01*
X85218111Y-146572778D01*
X85380722Y-146735389D01*
X85434222Y-146774259D01*
X85456826Y-146790682D01*
X85499491Y-146846013D01*
X85505470Y-146915626D01*
X85472864Y-146977421D01*
X85456826Y-146991318D01*
X85380720Y-147046612D01*
X85218113Y-147209219D01*
X85082940Y-147395268D01*
X84978539Y-147600166D01*
X84907473Y-147818881D01*
X84871500Y-148046011D01*
X84871500Y-148275988D01*
X84907473Y-148503118D01*
X84978539Y-148721833D01*
X85082942Y-148926734D01*
X85209863Y-149101426D01*
X85233343Y-149167232D01*
X85217518Y-149235286D01*
X85167412Y-149283981D01*
X85152883Y-149290491D01*
X85133796Y-149297610D01*
X85016739Y-149385239D01*
X84929111Y-149502295D01*
X84878011Y-149639295D01*
X84878011Y-149639297D01*
X84871500Y-149699845D01*
X84871500Y-151702154D01*
X84878011Y-151762702D01*
X84878011Y-151762704D01*
X84929111Y-151899704D01*
X85016739Y-152016761D01*
X85133796Y-152104389D01*
X85270799Y-152155489D01*
X85298050Y-152158418D01*
X85331345Y-152161999D01*
X85331362Y-152162000D01*
X87428638Y-152162000D01*
X87428654Y-152161999D01*
X87455692Y-152159091D01*
X87489201Y-152155489D01*
X87626204Y-152104389D01*
X87743261Y-152016761D01*
X87830889Y-151899704D01*
X87881989Y-151762701D01*
X87885591Y-151729192D01*
X87888499Y-151702154D01*
X87888500Y-151702137D01*
X87888500Y-149699862D01*
X87888499Y-149699845D01*
X87885157Y-149668770D01*
X87881989Y-149639299D01*
X87830889Y-149502296D01*
X87743261Y-149385239D01*
X87626204Y-149297611D01*
X87626202Y-149297610D01*
X87626203Y-149297610D01*
X87607117Y-149290491D01*
X87551185Y-149248618D01*
X87526770Y-149183153D01*
X87541624Y-149114881D01*
X87550126Y-149101440D01*
X87677060Y-148926731D01*
X87781462Y-148721829D01*
X87852526Y-148503118D01*
X87864979Y-148424491D01*
X87888500Y-148275988D01*
X87888500Y-148046011D01*
X87852526Y-147818881D01*
X87819553Y-147717404D01*
X87781462Y-147600171D01*
X87781460Y-147600168D01*
X87781460Y-147600166D01*
X87677059Y-147395268D01*
X87582049Y-147264498D01*
X87541889Y-147209222D01*
X87379278Y-147046611D01*
X87303172Y-146991316D01*
X87260508Y-146935988D01*
X87254529Y-146866375D01*
X87287135Y-146804580D01*
X87303169Y-146790685D01*
X87379278Y-146735389D01*
X87541889Y-146572778D01*
X87677060Y-146386731D01*
X87781462Y-146181829D01*
X87852526Y-145963118D01*
X87888500Y-145735988D01*
X87888500Y-145506011D01*
X87881371Y-145461000D01*
X96471835Y-145461000D01*
X96490465Y-145697714D01*
X96545895Y-145928595D01*
X96545895Y-145928597D01*
X96636757Y-146147959D01*
X96636759Y-146147962D01*
X96760820Y-146350410D01*
X96760821Y-146350413D01*
X96760824Y-146350416D01*
X96915031Y-146530969D01*
X97054797Y-146650340D01*
X97095586Y-146685178D01*
X97095588Y-146685178D01*
X97177524Y-146735389D01*
X97298037Y-146809240D01*
X97298040Y-146809242D01*
X97517403Y-146900104D01*
X97517404Y-146900104D01*
X97517406Y-146900105D01*
X97748289Y-146955535D01*
X97985000Y-146974165D01*
X98221711Y-146955535D01*
X98452594Y-146900105D01*
X98452596Y-146900104D01*
X98452597Y-146900104D01*
X98671959Y-146809242D01*
X98671960Y-146809241D01*
X98671963Y-146809240D01*
X98874416Y-146685176D01*
X99054969Y-146530969D01*
X99209176Y-146350416D01*
X99333240Y-146147963D01*
X99424105Y-145928594D01*
X99479535Y-145697711D01*
X99498165Y-145461000D01*
X99479535Y-145224289D01*
X99424105Y-144993406D01*
X99424104Y-144993403D01*
X99424104Y-144993402D01*
X99333242Y-144774040D01*
X99333240Y-144774037D01*
X99209178Y-144571588D01*
X99209178Y-144571586D01*
X99125404Y-144473500D01*
X99054969Y-144391031D01*
X98909792Y-144267038D01*
X98874413Y-144236821D01*
X98874410Y-144236820D01*
X98671962Y-144112759D01*
X98671959Y-144112757D01*
X98452596Y-144021895D01*
X98221714Y-143966465D01*
X97985000Y-143947835D01*
X97748285Y-143966465D01*
X97517404Y-144021895D01*
X97517402Y-144021895D01*
X97298040Y-144112757D01*
X97298037Y-144112759D01*
X97095589Y-144236820D01*
X97095586Y-144236821D01*
X96915031Y-144391031D01*
X96760821Y-144571586D01*
X96760820Y-144571589D01*
X96636759Y-144774037D01*
X96636757Y-144774040D01*
X96545895Y-144993402D01*
X96545895Y-144993404D01*
X96490465Y-145224285D01*
X96471835Y-145461000D01*
X87881371Y-145461000D01*
X87852526Y-145278881D01*
X87781460Y-145060166D01*
X87677059Y-144855268D01*
X87541889Y-144669222D01*
X87379278Y-144506611D01*
X87193231Y-144371440D01*
X86988333Y-144267039D01*
X86769618Y-144195973D01*
X86542488Y-144160000D01*
X86542483Y-144160000D01*
X86217517Y-144160000D01*
X86217512Y-144160000D01*
X85990381Y-144195973D01*
X85771666Y-144267039D01*
X85566768Y-144371440D01*
X85380719Y-144506613D01*
X85218113Y-144669219D01*
X85082940Y-144855268D01*
X84978539Y-145060166D01*
X84907473Y-145278881D01*
X84871500Y-145506011D01*
X74723201Y-145506011D01*
X74713384Y-145480998D01*
X74579729Y-145249502D01*
X74413064Y-145040510D01*
X74217112Y-144858694D01*
X73996251Y-144708113D01*
X73996248Y-144708112D01*
X73996246Y-144708110D01*
X73755413Y-144592131D01*
X73499980Y-144513340D01*
X73499974Y-144513338D01*
X73235662Y-144473500D01*
X73235655Y-144473500D01*
X72968345Y-144473500D01*
X72968337Y-144473500D01*
X72704025Y-144513338D01*
X72704019Y-144513340D01*
X72546437Y-144561948D01*
X72448587Y-144592131D01*
X72448585Y-144592132D01*
X72448581Y-144592133D01*
X72207754Y-144708110D01*
X71986887Y-144858694D01*
X71790938Y-145040508D01*
X71790936Y-145040510D01*
X71624271Y-145249502D01*
X71490616Y-145480997D01*
X71392959Y-145729824D01*
X71392954Y-145729841D01*
X71333474Y-145990440D01*
X71313499Y-146256995D01*
X69810501Y-146256995D01*
X69790525Y-145990440D01*
X69776410Y-145928597D01*
X69731043Y-145729830D01*
X69633384Y-145480998D01*
X69499729Y-145249502D01*
X69333064Y-145040510D01*
X69137112Y-144858694D01*
X68916251Y-144708113D01*
X68916248Y-144708112D01*
X68916246Y-144708110D01*
X68675413Y-144592131D01*
X68419980Y-144513340D01*
X68419974Y-144513338D01*
X68155662Y-144473500D01*
X68155655Y-144473500D01*
X67888345Y-144473500D01*
X67888337Y-144473500D01*
X67624025Y-144513338D01*
X67624019Y-144513340D01*
X67466437Y-144561948D01*
X67368587Y-144592131D01*
X67368585Y-144592132D01*
X67368581Y-144592133D01*
X67127754Y-144708110D01*
X66906887Y-144858694D01*
X66710938Y-145040508D01*
X66710936Y-145040510D01*
X66544271Y-145249502D01*
X66410616Y-145480997D01*
X66312959Y-145729824D01*
X66312954Y-145729841D01*
X66253474Y-145990440D01*
X66233499Y-146256995D01*
X64730501Y-146256995D01*
X64710525Y-145990440D01*
X64696410Y-145928597D01*
X64651043Y-145729830D01*
X64553384Y-145480998D01*
X64419729Y-145249502D01*
X64253064Y-145040510D01*
X64057112Y-144858694D01*
X63836251Y-144708113D01*
X63836248Y-144708112D01*
X63836246Y-144708110D01*
X63595413Y-144592131D01*
X63339980Y-144513340D01*
X63339974Y-144513338D01*
X63075662Y-144473500D01*
X63075655Y-144473500D01*
X62808345Y-144473500D01*
X62808337Y-144473500D01*
X62544025Y-144513338D01*
X62544019Y-144513340D01*
X62386437Y-144561948D01*
X62288587Y-144592131D01*
X62288585Y-144592132D01*
X62288581Y-144592133D01*
X62047754Y-144708110D01*
X61826887Y-144858694D01*
X61630938Y-145040508D01*
X61630936Y-145040510D01*
X61464271Y-145249502D01*
X61330616Y-145480997D01*
X61232959Y-145729824D01*
X61232954Y-145729841D01*
X61173474Y-145990440D01*
X61153499Y-146256995D01*
X59650501Y-146256995D01*
X59630525Y-145990440D01*
X59616410Y-145928597D01*
X59571043Y-145729830D01*
X59473384Y-145480998D01*
X59339729Y-145249502D01*
X59173064Y-145040510D01*
X58977112Y-144858694D01*
X58756251Y-144708113D01*
X58756248Y-144708112D01*
X58756246Y-144708110D01*
X58515413Y-144592131D01*
X58259980Y-144513340D01*
X58259974Y-144513338D01*
X57995662Y-144473500D01*
X57995655Y-144473500D01*
X57728345Y-144473500D01*
X57728337Y-144473500D01*
X57464025Y-144513338D01*
X57464019Y-144513340D01*
X57306437Y-144561948D01*
X57208587Y-144592131D01*
X57208585Y-144592132D01*
X57208581Y-144592133D01*
X56967754Y-144708110D01*
X56746887Y-144858694D01*
X56550938Y-145040508D01*
X56550936Y-145040510D01*
X56384271Y-145249502D01*
X56250616Y-145480997D01*
X56152959Y-145729824D01*
X56152954Y-145729841D01*
X56093474Y-145990440D01*
X56073499Y-146256995D01*
X54570501Y-146256995D01*
X54550525Y-145990440D01*
X54536410Y-145928597D01*
X54491043Y-145729830D01*
X54393384Y-145480998D01*
X54259729Y-145249502D01*
X54093064Y-145040510D01*
X53897112Y-144858694D01*
X53676251Y-144708113D01*
X53676248Y-144708112D01*
X53676246Y-144708110D01*
X53435413Y-144592131D01*
X53179980Y-144513340D01*
X53179974Y-144513338D01*
X52915662Y-144473500D01*
X52915655Y-144473500D01*
X52648345Y-144473500D01*
X52648337Y-144473500D01*
X52384025Y-144513338D01*
X52384019Y-144513340D01*
X52226437Y-144561948D01*
X52128587Y-144592131D01*
X52128585Y-144592132D01*
X52128581Y-144592133D01*
X51887754Y-144708110D01*
X51666887Y-144858694D01*
X51470938Y-145040508D01*
X51470936Y-145040510D01*
X51304271Y-145249502D01*
X51170616Y-145480997D01*
X51072959Y-145729824D01*
X51072954Y-145729841D01*
X51013474Y-145990440D01*
X50993499Y-146256995D01*
X37185000Y-146256995D01*
X37185000Y-140512345D01*
X105876500Y-140512345D01*
X105876500Y-143009654D01*
X105883011Y-143070202D01*
X105883011Y-143070204D01*
X105934111Y-143207204D01*
X106021739Y-143324261D01*
X106138796Y-143411889D01*
X106275799Y-143462989D01*
X106303050Y-143465918D01*
X106336345Y-143469499D01*
X106336362Y-143469500D01*
X108833638Y-143469500D01*
X108833654Y-143469499D01*
X108860692Y-143466591D01*
X108894201Y-143462989D01*
X109031204Y-143411889D01*
X109148261Y-143324261D01*
X109235889Y-143207204D01*
X109286989Y-143070201D01*
X109290591Y-143036692D01*
X109293499Y-143009654D01*
X109293500Y-143009637D01*
X109293500Y-140512362D01*
X109293499Y-140512345D01*
X109290157Y-140481270D01*
X109286989Y-140451799D01*
X109235889Y-140314796D01*
X109148261Y-140197739D01*
X109031204Y-140110111D01*
X108894203Y-140059011D01*
X108833654Y-140052500D01*
X108833638Y-140052500D01*
X106336362Y-140052500D01*
X106336345Y-140052500D01*
X106275797Y-140059011D01*
X106275795Y-140059011D01*
X106138795Y-140110111D01*
X106021739Y-140197739D01*
X105934111Y-140314795D01*
X105883011Y-140451795D01*
X105883011Y-140451797D01*
X105876500Y-140512345D01*
X37185000Y-140512345D01*
X37185000Y-138069125D01*
X37186061Y-138052940D01*
X37197377Y-137966990D01*
X37199906Y-137947775D01*
X37208284Y-137916508D01*
X37245740Y-137826079D01*
X37261923Y-137798050D01*
X37321513Y-137720392D01*
X37344392Y-137697513D01*
X37422050Y-137637923D01*
X37450079Y-137621740D01*
X37540509Y-137584283D01*
X37571775Y-137575906D01*
X37676941Y-137562061D01*
X37693126Y-137561000D01*
X81489514Y-137561000D01*
X81489514Y-137560999D01*
X81538733Y-137554852D01*
X81612465Y-137545646D01*
X81612467Y-137545645D01*
X81612470Y-137545645D01*
X81670175Y-137523083D01*
X81727878Y-137500522D01*
X81727878Y-137500521D01*
X81727880Y-137500521D01*
X81828648Y-137428402D01*
X83452608Y-135929362D01*
X89501500Y-135929362D01*
X89501500Y-136192637D01*
X89501501Y-136192653D01*
X89535865Y-136453678D01*
X89604009Y-136707995D01*
X89704761Y-136951234D01*
X89704769Y-136951250D01*
X89836409Y-137179256D01*
X89996687Y-137388136D01*
X89996693Y-137388143D01*
X90182856Y-137574306D01*
X90182863Y-137574312D01*
X90391743Y-137734590D01*
X90619749Y-137866230D01*
X90619765Y-137866238D01*
X90741129Y-137916508D01*
X90863003Y-137966990D01*
X91117320Y-138035134D01*
X91378356Y-138069500D01*
X91378363Y-138069500D01*
X92841637Y-138069500D01*
X92841644Y-138069500D01*
X93102680Y-138035134D01*
X93356997Y-137966990D01*
X93540099Y-137891146D01*
X93600234Y-137866238D01*
X93600237Y-137866236D01*
X93600243Y-137866234D01*
X93828257Y-137734590D01*
X94037138Y-137574311D01*
X94150449Y-137461000D01*
X96471835Y-137461000D01*
X96490465Y-137697714D01*
X96545895Y-137928595D01*
X96545895Y-137928597D01*
X96636757Y-138147959D01*
X96636759Y-138147962D01*
X96760820Y-138350410D01*
X96760821Y-138350413D01*
X96760824Y-138350416D01*
X96915031Y-138530969D01*
X97054797Y-138650340D01*
X97095586Y-138685178D01*
X97095589Y-138685179D01*
X97298037Y-138809240D01*
X97298040Y-138809242D01*
X97517403Y-138900104D01*
X97517404Y-138900104D01*
X97517406Y-138900105D01*
X97748289Y-138955535D01*
X97985000Y-138974165D01*
X98221711Y-138955535D01*
X98452594Y-138900105D01*
X98452596Y-138900104D01*
X98452597Y-138900104D01*
X98671959Y-138809242D01*
X98671960Y-138809241D01*
X98671963Y-138809240D01*
X98874416Y-138685176D01*
X99054969Y-138530969D01*
X99209176Y-138350416D01*
X99333240Y-138147963D01*
X99365741Y-138069500D01*
X99424104Y-137928597D01*
X99424104Y-137928596D01*
X99424105Y-137928594D01*
X99479535Y-137697711D01*
X99498165Y-137461000D01*
X99479535Y-137224289D01*
X99424105Y-136993406D01*
X99424104Y-136993403D01*
X99424104Y-136993402D01*
X99333242Y-136774040D01*
X99333240Y-136774037D01*
X99209179Y-136571589D01*
X99209178Y-136571586D01*
X99108476Y-136453680D01*
X99054969Y-136391031D01*
X98935596Y-136289076D01*
X98874413Y-136236821D01*
X98874410Y-136236820D01*
X98671962Y-136112759D01*
X98671959Y-136112757D01*
X98452596Y-136021895D01*
X98221714Y-135966465D01*
X97985000Y-135947835D01*
X97748285Y-135966465D01*
X97517404Y-136021895D01*
X97517402Y-136021895D01*
X97298040Y-136112757D01*
X97298037Y-136112759D01*
X97095589Y-136236820D01*
X97095586Y-136236821D01*
X96915031Y-136391031D01*
X96760821Y-136571586D01*
X96760820Y-136571589D01*
X96636759Y-136774037D01*
X96636757Y-136774040D01*
X96545895Y-136993402D01*
X96545895Y-136993404D01*
X96490465Y-137224285D01*
X96471835Y-137461000D01*
X94150449Y-137461000D01*
X94223311Y-137388138D01*
X94383590Y-137179257D01*
X94515234Y-136951243D01*
X94615990Y-136707997D01*
X94684134Y-136453680D01*
X94718500Y-136192644D01*
X94718500Y-135929356D01*
X94684134Y-135668320D01*
X94615990Y-135414003D01*
X94578068Y-135322451D01*
X94515238Y-135170765D01*
X94515230Y-135170749D01*
X94383590Y-134942743D01*
X94223312Y-134733863D01*
X94223306Y-134733856D01*
X94037143Y-134547693D01*
X94037136Y-134547687D01*
X93828256Y-134387409D01*
X93600250Y-134255769D01*
X93600234Y-134255761D01*
X93356995Y-134155009D01*
X93102678Y-134086865D01*
X92841653Y-134052501D01*
X92841650Y-134052500D01*
X92841644Y-134052500D01*
X91378356Y-134052500D01*
X91378350Y-134052500D01*
X91378346Y-134052501D01*
X91117321Y-134086865D01*
X90863004Y-134155009D01*
X90619765Y-134255761D01*
X90619749Y-134255769D01*
X90391743Y-134387409D01*
X90182863Y-134547687D01*
X90182856Y-134547693D01*
X89996693Y-134733856D01*
X89996687Y-134733863D01*
X89836409Y-134942743D01*
X89704769Y-135170749D01*
X89704761Y-135170765D01*
X89604009Y-135414004D01*
X89535865Y-135668321D01*
X89501501Y-135929346D01*
X89501500Y-135929362D01*
X83452608Y-135929362D01*
X88027549Y-131706340D01*
X88113238Y-131602605D01*
X88168163Y-131479776D01*
X88188348Y-131346749D01*
X88332635Y-122112345D01*
X96262959Y-122112345D01*
X96262959Y-124609654D01*
X96269470Y-124670202D01*
X96269470Y-124670204D01*
X96285195Y-124712362D01*
X96320570Y-124807204D01*
X96408198Y-124924261D01*
X96525255Y-125011889D01*
X96662258Y-125062989D01*
X96689509Y-125065918D01*
X96722804Y-125069499D01*
X96722821Y-125069500D01*
X99220097Y-125069500D01*
X99220113Y-125069499D01*
X99247151Y-125066591D01*
X99280660Y-125062989D01*
X99417663Y-125011889D01*
X99534720Y-124924261D01*
X99622348Y-124807204D01*
X99657729Y-124712345D01*
X105890041Y-124712345D01*
X105890041Y-127209654D01*
X105896552Y-127270202D01*
X105896552Y-127270204D01*
X105947652Y-127407204D01*
X106035280Y-127524261D01*
X106152337Y-127611889D01*
X106289340Y-127662989D01*
X106316591Y-127665918D01*
X106349886Y-127669499D01*
X106349903Y-127669500D01*
X108847179Y-127669500D01*
X108847195Y-127669499D01*
X108874233Y-127666591D01*
X108907742Y-127662989D01*
X109044745Y-127611889D01*
X109161802Y-127524261D01*
X109249430Y-127407204D01*
X109300530Y-127270201D01*
X109304132Y-127236692D01*
X109307040Y-127209654D01*
X109307041Y-127209637D01*
X109307041Y-124712362D01*
X109307040Y-124712345D01*
X109303698Y-124681270D01*
X109300530Y-124651799D01*
X109249430Y-124514796D01*
X109161802Y-124397739D01*
X109044745Y-124310111D01*
X108907744Y-124259011D01*
X108847195Y-124252500D01*
X108847179Y-124252500D01*
X106349903Y-124252500D01*
X106349886Y-124252500D01*
X106289338Y-124259011D01*
X106289336Y-124259011D01*
X106152336Y-124310111D01*
X106035280Y-124397739D01*
X105947652Y-124514795D01*
X105896552Y-124651795D01*
X105896552Y-124651797D01*
X105890041Y-124712345D01*
X99657729Y-124712345D01*
X99673448Y-124670201D01*
X99677050Y-124636692D01*
X99679958Y-124609654D01*
X99679959Y-124609637D01*
X99679959Y-122112362D01*
X99679958Y-122112345D01*
X99675780Y-122073490D01*
X99673448Y-122051799D01*
X99622348Y-121914796D01*
X99534720Y-121797739D01*
X99417663Y-121710111D01*
X99280662Y-121659011D01*
X99220113Y-121652500D01*
X99220097Y-121652500D01*
X96722821Y-121652500D01*
X96722804Y-121652500D01*
X96662256Y-121659011D01*
X96662254Y-121659011D01*
X96525254Y-121710111D01*
X96408198Y-121797739D01*
X96320570Y-121914795D01*
X96269470Y-122051795D01*
X96269470Y-122051797D01*
X96262959Y-122112345D01*
X88332635Y-122112345D01*
X88448086Y-114723498D01*
X110821753Y-114723498D01*
X110821753Y-114723501D01*
X110840718Y-114988673D01*
X110897226Y-115248430D01*
X110897228Y-115248437D01*
X110954909Y-115403088D01*
X110990131Y-115497522D01*
X110990133Y-115497526D01*
X111117533Y-115730841D01*
X111117538Y-115730849D01*
X111276845Y-115943659D01*
X111276861Y-115943677D01*
X111464822Y-116131638D01*
X111464840Y-116131654D01*
X111677650Y-116290961D01*
X111677658Y-116290966D01*
X111910973Y-116418366D01*
X111910977Y-116418368D01*
X111910979Y-116418369D01*
X112160063Y-116511272D01*
X112289947Y-116539527D01*
X112419826Y-116567781D01*
X112419828Y-116567781D01*
X112419832Y-116567782D01*
X112655476Y-116584635D01*
X112684999Y-116586747D01*
X112685000Y-116586747D01*
X112685001Y-116586747D01*
X112711566Y-116584846D01*
X112950168Y-116567782D01*
X113209937Y-116511272D01*
X113459021Y-116418369D01*
X113692347Y-116290963D01*
X113905167Y-116131648D01*
X114093148Y-115943667D01*
X114252463Y-115730847D01*
X114379869Y-115497521D01*
X114472772Y-115248437D01*
X114529282Y-114988668D01*
X114548247Y-114723500D01*
X114529282Y-114458332D01*
X114472772Y-114198563D01*
X114379869Y-113949479D01*
X114252463Y-113716153D01*
X114252461Y-113716150D01*
X114093154Y-113503340D01*
X114093138Y-113503322D01*
X113905177Y-113315361D01*
X113905159Y-113315345D01*
X113692349Y-113156038D01*
X113692341Y-113156033D01*
X113459026Y-113028633D01*
X113459022Y-113028631D01*
X113364588Y-112993409D01*
X113209937Y-112935728D01*
X113209933Y-112935727D01*
X113209930Y-112935726D01*
X112950173Y-112879218D01*
X112781909Y-112867184D01*
X112716445Y-112842767D01*
X112684152Y-112799630D01*
X112666925Y-112831181D01*
X112605602Y-112864666D01*
X112588090Y-112867184D01*
X112419826Y-112879218D01*
X112160069Y-112935726D01*
X112160064Y-112935727D01*
X112160063Y-112935728D01*
X112099843Y-112958188D01*
X111910977Y-113028631D01*
X111910973Y-113028633D01*
X111677658Y-113156033D01*
X111677650Y-113156038D01*
X111464840Y-113315345D01*
X111464822Y-113315361D01*
X111276861Y-113503322D01*
X111276845Y-113503340D01*
X111117538Y-113716150D01*
X111117533Y-113716158D01*
X110990133Y-113949473D01*
X110990131Y-113949477D01*
X110897226Y-114198569D01*
X110840718Y-114458326D01*
X110821753Y-114723498D01*
X88448086Y-114723498D01*
X88496632Y-111616562D01*
X88517362Y-111549839D01*
X88570874Y-111504915D01*
X88620617Y-111494500D01*
X88758638Y-111494500D01*
X88758654Y-111494499D01*
X88785692Y-111491591D01*
X88819201Y-111487989D01*
X88956204Y-111436889D01*
X89073261Y-111349261D01*
X89160889Y-111232204D01*
X89211989Y-111095201D01*
X89215591Y-111061692D01*
X89218499Y-111034654D01*
X89218500Y-111034637D01*
X89218500Y-110763498D01*
X110821753Y-110763498D01*
X110821753Y-110763501D01*
X110840718Y-111028673D01*
X110897226Y-111288430D01*
X110897228Y-111288437D01*
X110903454Y-111305129D01*
X110990131Y-111537522D01*
X110990133Y-111537526D01*
X111117533Y-111770841D01*
X111117538Y-111770849D01*
X111276845Y-111983659D01*
X111276861Y-111983677D01*
X111464822Y-112171638D01*
X111464840Y-112171654D01*
X111677650Y-112330961D01*
X111677658Y-112330966D01*
X111910973Y-112458366D01*
X111910977Y-112458368D01*
X111910979Y-112458369D01*
X112160063Y-112551272D01*
X112289947Y-112579527D01*
X112419826Y-112607781D01*
X112419828Y-112607781D01*
X112419832Y-112607782D01*
X112569552Y-112618490D01*
X112588090Y-112619816D01*
X112653554Y-112644233D01*
X112685846Y-112687369D01*
X112703074Y-112655819D01*
X112764397Y-112622334D01*
X112781909Y-112619816D01*
X112950168Y-112607782D01*
X113209937Y-112551272D01*
X113459021Y-112458369D01*
X113692347Y-112330963D01*
X113905167Y-112171648D01*
X114093148Y-111983667D01*
X114252463Y-111770847D01*
X114379869Y-111537521D01*
X114472772Y-111288437D01*
X114529282Y-111028668D01*
X114548247Y-110763500D01*
X114529282Y-110498332D01*
X114527993Y-110492408D01*
X114472773Y-110238569D01*
X114472772Y-110238563D01*
X114379869Y-109989479D01*
X114368003Y-109967749D01*
X114252466Y-109756158D01*
X114252461Y-109756150D01*
X114093154Y-109543340D01*
X114093138Y-109543322D01*
X113905177Y-109355361D01*
X113905159Y-109355345D01*
X113692349Y-109196038D01*
X113692341Y-109196033D01*
X113459026Y-109068633D01*
X113459022Y-109068631D01*
X113335979Y-109022739D01*
X113209937Y-108975728D01*
X113209933Y-108975727D01*
X113209930Y-108975726D01*
X112950173Y-108919218D01*
X112685001Y-108900253D01*
X112684999Y-108900253D01*
X112419826Y-108919218D01*
X112160069Y-108975726D01*
X112160064Y-108975727D01*
X112160063Y-108975728D01*
X112099843Y-108998188D01*
X111910977Y-109068631D01*
X111910973Y-109068633D01*
X111677658Y-109196033D01*
X111677650Y-109196038D01*
X111464840Y-109355345D01*
X111464822Y-109355361D01*
X111276861Y-109543322D01*
X111276845Y-109543340D01*
X111117538Y-109756150D01*
X111117533Y-109756158D01*
X110990133Y-109989473D01*
X110990131Y-109989477D01*
X110897226Y-110238569D01*
X110840718Y-110498326D01*
X110821753Y-110763498D01*
X89218500Y-110763498D01*
X89218500Y-109337362D01*
X89218499Y-109337345D01*
X89215157Y-109306270D01*
X89211989Y-109276799D01*
X89160889Y-109139796D01*
X89073261Y-109022739D01*
X88956204Y-108935111D01*
X88819204Y-108884011D01*
X88802101Y-108882172D01*
X88737551Y-108855432D01*
X88697705Y-108798038D01*
X88695214Y-108728212D01*
X88730869Y-108668125D01*
X88742475Y-108658565D01*
X88762430Y-108644068D01*
X88908068Y-108498430D01*
X89029129Y-108331803D01*
X89122634Y-108148290D01*
X89186280Y-107952408D01*
X89218500Y-107748981D01*
X89218500Y-107543019D01*
X89186280Y-107339592D01*
X89122634Y-107143710D01*
X89122632Y-107143707D01*
X89122632Y-107143705D01*
X89073375Y-107047034D01*
X89029129Y-106960197D01*
X88963234Y-106869500D01*
X88908073Y-106793576D01*
X88908069Y-106793571D01*
X88762428Y-106647930D01*
X88762423Y-106647926D01*
X88628484Y-106550614D01*
X88585818Y-106495284D01*
X88577385Y-106448365D01*
X88579733Y-106298055D01*
X88600463Y-106231335D01*
X88630832Y-106199679D01*
X88762430Y-106104068D01*
X88908068Y-105958430D01*
X89029129Y-105791803D01*
X89122634Y-105608290D01*
X89186280Y-105412408D01*
X89218500Y-105208981D01*
X89218500Y-105003019D01*
X89186280Y-104799592D01*
X89122634Y-104603710D01*
X89122632Y-104603707D01*
X89122632Y-104603705D01*
X89048164Y-104457556D01*
X89029129Y-104420197D01*
X88924312Y-104275928D01*
X88908073Y-104253576D01*
X88908069Y-104253571D01*
X88762432Y-104107934D01*
X88762430Y-104107932D01*
X88667725Y-104039125D01*
X88625061Y-103983796D01*
X88616627Y-103936871D01*
X88677159Y-100062844D01*
X88678953Y-100043678D01*
X88700379Y-99919710D01*
X88712702Y-99883339D01*
X88766499Y-99780550D01*
X88789365Y-99749690D01*
X88872040Y-99668298D01*
X88903248Y-99645920D01*
X89006867Y-99593733D01*
X89043427Y-99581980D01*
X89149312Y-99565379D01*
X89167708Y-99562496D01*
X89186913Y-99561000D01*
X114676874Y-99561000D01*
X114693059Y-99562061D01*
G37*
%TD.AperFunction*%
%TD*%
%TA.AperFunction,Conductor*%
%TO.N,GND_DC_S*%
G36*
X74128039Y-90830685D02*
G01*
X74173794Y-90883489D01*
X74185000Y-90935000D01*
X74185000Y-98509638D01*
X74165315Y-98576677D01*
X74148681Y-98597319D01*
X73721319Y-99024681D01*
X73659996Y-99058166D01*
X73633638Y-99061000D01*
X70309000Y-99061000D01*
X70241961Y-99041315D01*
X70196206Y-98988511D01*
X70185000Y-98937000D01*
X70185000Y-90935000D01*
X70204685Y-90867961D01*
X70257489Y-90822206D01*
X70309000Y-90811000D01*
X74061000Y-90811000D01*
X74128039Y-90830685D01*
G37*
%TD.AperFunction*%
%TD*%
%TA.AperFunction,Conductor*%
%TO.N,GND_DC_P*%
G36*
X74110185Y-73437749D02*
G01*
X74163917Y-73482410D01*
X74184974Y-73549031D01*
X74185000Y-73551577D01*
X74185000Y-90037000D01*
X74165315Y-90104039D01*
X74112511Y-90149794D01*
X74061000Y-90161000D01*
X69385000Y-90161000D01*
X69385000Y-99761000D01*
X73661000Y-99761000D01*
X73728039Y-99780685D01*
X73773794Y-99833489D01*
X73785000Y-99885000D01*
X73785000Y-111309638D01*
X73765315Y-111376677D01*
X73748681Y-111397319D01*
X73021319Y-112124681D01*
X72959996Y-112158166D01*
X72933638Y-112161000D01*
X52909000Y-112161000D01*
X52841961Y-112141315D01*
X52796206Y-112088511D01*
X52785000Y-112037000D01*
X52785000Y-108560994D01*
X56229655Y-108560994D01*
X56229655Y-108561005D01*
X56249014Y-108868725D01*
X56249015Y-108868732D01*
X56249016Y-108868736D01*
X56289872Y-109082913D01*
X56306795Y-109171623D01*
X56402078Y-109464874D01*
X56402080Y-109464879D01*
X56533362Y-109743867D01*
X56533366Y-109743873D01*
X56698577Y-110004206D01*
X56698579Y-110004209D01*
X56698584Y-110004216D01*
X56823576Y-110155304D01*
X56895132Y-110241800D01*
X57119902Y-110452874D01*
X57119912Y-110452882D01*
X57369348Y-110634108D01*
X57369353Y-110634110D01*
X57369360Y-110634116D01*
X57639565Y-110782663D01*
X57639570Y-110782665D01*
X57639572Y-110782666D01*
X57639573Y-110782667D01*
X57926253Y-110896171D01*
X57926256Y-110896172D01*
X58224910Y-110972853D01*
X58224914Y-110972854D01*
X58289091Y-110980961D01*
X58530816Y-111011499D01*
X58530825Y-111011499D01*
X58530828Y-111011500D01*
X58530830Y-111011500D01*
X58839170Y-111011500D01*
X58839172Y-111011500D01*
X58839175Y-111011499D01*
X58839183Y-111011499D01*
X59021722Y-110988438D01*
X59145086Y-110972854D01*
X59443743Y-110896172D01*
X59443746Y-110896171D01*
X59730426Y-110782667D01*
X59730427Y-110782666D01*
X59730425Y-110782666D01*
X59730435Y-110782663D01*
X60000640Y-110634116D01*
X60250096Y-110452876D01*
X60474869Y-110241799D01*
X60671416Y-110004216D01*
X60836635Y-109743871D01*
X60967922Y-109464873D01*
X61063206Y-109171619D01*
X61103196Y-108961979D01*
X61135094Y-108899817D01*
X61195537Y-108864767D01*
X61265333Y-108867959D01*
X61322325Y-108908379D01*
X61346803Y-108961978D01*
X61386794Y-109171619D01*
X61386795Y-109171623D01*
X61482078Y-109464874D01*
X61482080Y-109464879D01*
X61613362Y-109743867D01*
X61613366Y-109743873D01*
X61778577Y-110004206D01*
X61778579Y-110004209D01*
X61778584Y-110004216D01*
X61903576Y-110155304D01*
X61975132Y-110241800D01*
X62199902Y-110452874D01*
X62199912Y-110452882D01*
X62449348Y-110634108D01*
X62449353Y-110634110D01*
X62449360Y-110634116D01*
X62719565Y-110782663D01*
X62719570Y-110782665D01*
X62719572Y-110782666D01*
X62719573Y-110782667D01*
X63006253Y-110896171D01*
X63006256Y-110896172D01*
X63304910Y-110972853D01*
X63304914Y-110972854D01*
X63369091Y-110980961D01*
X63610816Y-111011499D01*
X63610825Y-111011499D01*
X63610828Y-111011500D01*
X63610830Y-111011500D01*
X63919170Y-111011500D01*
X63919172Y-111011500D01*
X63919175Y-111011499D01*
X63919183Y-111011499D01*
X64101722Y-110988438D01*
X64225086Y-110972854D01*
X64523743Y-110896172D01*
X64523746Y-110896171D01*
X64810426Y-110782667D01*
X64810427Y-110782666D01*
X64810425Y-110782666D01*
X64810435Y-110782663D01*
X65080640Y-110634116D01*
X65330096Y-110452876D01*
X65554869Y-110241799D01*
X65751416Y-110004216D01*
X65916635Y-109743871D01*
X66047922Y-109464873D01*
X66097919Y-109310998D01*
X69121502Y-109310998D01*
X69121502Y-109311001D01*
X69141456Y-109539081D01*
X69141457Y-109539089D01*
X69200714Y-109760238D01*
X69200718Y-109760249D01*
X69297475Y-109967745D01*
X69297477Y-109967749D01*
X69428802Y-110155300D01*
X69590700Y-110317198D01*
X69778251Y-110448523D01*
X69903091Y-110506736D01*
X69985750Y-110545281D01*
X69985752Y-110545281D01*
X69985757Y-110545284D01*
X70206913Y-110604543D01*
X70369832Y-110618796D01*
X70434998Y-110624498D01*
X70435000Y-110624498D01*
X70435002Y-110624498D01*
X70492021Y-110619509D01*
X70663087Y-110604543D01*
X70884243Y-110545284D01*
X71091749Y-110448523D01*
X71279300Y-110317198D01*
X71441198Y-110155300D01*
X71572523Y-109967749D01*
X71669284Y-109760243D01*
X71728543Y-109539087D01*
X71748498Y-109311000D01*
X71728543Y-109082913D01*
X71669284Y-108861757D01*
X71572523Y-108654251D01*
X71441198Y-108466700D01*
X71279300Y-108304802D01*
X71091749Y-108173477D01*
X71062886Y-108160018D01*
X70884249Y-108076718D01*
X70884238Y-108076714D01*
X70663089Y-108017457D01*
X70663081Y-108017456D01*
X70435002Y-107997502D01*
X70434998Y-107997502D01*
X70206918Y-108017456D01*
X70206910Y-108017457D01*
X69985761Y-108076714D01*
X69985750Y-108076718D01*
X69778254Y-108173475D01*
X69778252Y-108173476D01*
X69778251Y-108173477D01*
X69590700Y-108304802D01*
X69590698Y-108304803D01*
X69590695Y-108304806D01*
X69428806Y-108466695D01*
X69428803Y-108466698D01*
X69428802Y-108466700D01*
X69362772Y-108561000D01*
X69297476Y-108654252D01*
X69297475Y-108654254D01*
X69200718Y-108861750D01*
X69200714Y-108861761D01*
X69141457Y-109082910D01*
X69141456Y-109082918D01*
X69121502Y-109310998D01*
X66097919Y-109310998D01*
X66143206Y-109171619D01*
X66200984Y-108868736D01*
X66220345Y-108561000D01*
X66214412Y-108466700D01*
X66200985Y-108253274D01*
X66200984Y-108253267D01*
X66200984Y-108253264D01*
X66143206Y-107950381D01*
X66047922Y-107657127D01*
X66047919Y-107657120D01*
X65916637Y-107378132D01*
X65916633Y-107378126D01*
X65751422Y-107117793D01*
X65751420Y-107117791D01*
X65751416Y-107117784D01*
X65554869Y-106880201D01*
X65330096Y-106669124D01*
X65330093Y-106669122D01*
X65330087Y-106669117D01*
X65080651Y-106487891D01*
X65080644Y-106487886D01*
X65080640Y-106487884D01*
X64810435Y-106339337D01*
X64810432Y-106339335D01*
X64810427Y-106339333D01*
X64810426Y-106339332D01*
X64523746Y-106225828D01*
X64523743Y-106225827D01*
X64225089Y-106149146D01*
X64225076Y-106149144D01*
X63919183Y-106110500D01*
X63919172Y-106110500D01*
X63610828Y-106110500D01*
X63610816Y-106110500D01*
X63304923Y-106149144D01*
X63304910Y-106149146D01*
X63006256Y-106225827D01*
X63006253Y-106225828D01*
X62719573Y-106339332D01*
X62719572Y-106339333D01*
X62449360Y-106487884D01*
X62449348Y-106487891D01*
X62199912Y-106669117D01*
X62199902Y-106669125D01*
X61975132Y-106880199D01*
X61778577Y-107117793D01*
X61613366Y-107378126D01*
X61613362Y-107378132D01*
X61482080Y-107657120D01*
X61482078Y-107657125D01*
X61386795Y-107950376D01*
X61386794Y-107950380D01*
X61386794Y-107950381D01*
X61362695Y-108076716D01*
X61346804Y-108160018D01*
X61314906Y-108222182D01*
X61254463Y-108257232D01*
X61184667Y-108254040D01*
X61127675Y-108213620D01*
X61103196Y-108160018D01*
X61063206Y-107950381D01*
X60967922Y-107657127D01*
X60967919Y-107657120D01*
X60836637Y-107378132D01*
X60836633Y-107378126D01*
X60671422Y-107117793D01*
X60671420Y-107117791D01*
X60671416Y-107117784D01*
X60474869Y-106880201D01*
X60250096Y-106669124D01*
X60250093Y-106669122D01*
X60250087Y-106669117D01*
X60000651Y-106487891D01*
X60000644Y-106487886D01*
X60000640Y-106487884D01*
X59730435Y-106339337D01*
X59730432Y-106339335D01*
X59730427Y-106339333D01*
X59730426Y-106339332D01*
X59443746Y-106225828D01*
X59443743Y-106225827D01*
X59145089Y-106149146D01*
X59145076Y-106149144D01*
X58839183Y-106110500D01*
X58839172Y-106110500D01*
X58530828Y-106110500D01*
X58530816Y-106110500D01*
X58224923Y-106149144D01*
X58224910Y-106149146D01*
X57926256Y-106225827D01*
X57926253Y-106225828D01*
X57639573Y-106339332D01*
X57639572Y-106339333D01*
X57369360Y-106487884D01*
X57369348Y-106487891D01*
X57119912Y-106669117D01*
X57119902Y-106669125D01*
X56895132Y-106880199D01*
X56698577Y-107117793D01*
X56533366Y-107378126D01*
X56533362Y-107378132D01*
X56402080Y-107657120D01*
X56402078Y-107657125D01*
X56306795Y-107950376D01*
X56249015Y-108253267D01*
X56249014Y-108253274D01*
X56229655Y-108560994D01*
X52785000Y-108560994D01*
X52785000Y-106446450D01*
X52804685Y-106379411D01*
X52815766Y-106364698D01*
X52974273Y-106183957D01*
X53138172Y-105938665D01*
X53268652Y-105674077D01*
X53363481Y-105394722D01*
X53421034Y-105105380D01*
X53440329Y-104811000D01*
X53440329Y-104810992D01*
X53421035Y-104516636D01*
X53421034Y-104516620D01*
X53363481Y-104227278D01*
X53268652Y-103947923D01*
X53138172Y-103683336D01*
X52974273Y-103438043D01*
X52827474Y-103270651D01*
X52815772Y-103257307D01*
X52786369Y-103193925D01*
X52785000Y-103175548D01*
X52785000Y-101886000D01*
X59421496Y-101886000D01*
X59441458Y-102075928D01*
X59441459Y-102075931D01*
X59500470Y-102257549D01*
X59500473Y-102257556D01*
X59595960Y-102422944D01*
X59642979Y-102475164D01*
X59717721Y-102558174D01*
X59723747Y-102564866D01*
X59878248Y-102677118D01*
X60052712Y-102754794D01*
X60239513Y-102794500D01*
X60430487Y-102794500D01*
X60617288Y-102754794D01*
X60791752Y-102677118D01*
X60804051Y-102668181D01*
X60869858Y-102644702D01*
X60876937Y-102644500D01*
X61984706Y-102644500D01*
X62057976Y-102629925D01*
X62057977Y-102629925D01*
X62076419Y-102626256D01*
X62131247Y-102615351D01*
X62269284Y-102558174D01*
X62393515Y-102475166D01*
X62662862Y-102205819D01*
X62724185Y-102172334D01*
X62750543Y-102169500D01*
X66345063Y-102169500D01*
X66412102Y-102189185D01*
X66417949Y-102193182D01*
X66430249Y-102202119D01*
X66497220Y-102231935D01*
X66604712Y-102279794D01*
X66791513Y-102319500D01*
X66982487Y-102319500D01*
X67169288Y-102279794D01*
X67343752Y-102202118D01*
X67498253Y-102089866D01*
X67626040Y-101947944D01*
X67721527Y-101782556D01*
X67780542Y-101600928D01*
X67800504Y-101411000D01*
X67780542Y-101221072D01*
X67721527Y-101039444D01*
X67626040Y-100874056D01*
X67504281Y-100738829D01*
X67498254Y-100732135D01*
X67448182Y-100695755D01*
X67343752Y-100619882D01*
X67169288Y-100542206D01*
X67169286Y-100542205D01*
X66982487Y-100502500D01*
X66791513Y-100502500D01*
X66604714Y-100542205D01*
X66430249Y-100619880D01*
X66417949Y-100628818D01*
X66352142Y-100652298D01*
X66345063Y-100652500D01*
X62310290Y-100652500D01*
X62237024Y-100667074D01*
X62163759Y-100681647D01*
X62163751Y-100681649D01*
X62129698Y-100695755D01*
X62025718Y-100738824D01*
X62025709Y-100738829D01*
X61901484Y-100821834D01*
X61901480Y-100821837D01*
X61632138Y-101091181D01*
X61570815Y-101124666D01*
X61544457Y-101127500D01*
X60876937Y-101127500D01*
X60809898Y-101107815D01*
X60804051Y-101103818D01*
X60791750Y-101094880D01*
X60657807Y-101035246D01*
X60617288Y-101017206D01*
X60617286Y-101017205D01*
X60430487Y-100977500D01*
X60239513Y-100977500D01*
X60052714Y-101017205D01*
X60052712Y-101017206D01*
X59878253Y-101094880D01*
X59878246Y-101094883D01*
X59723745Y-101207135D01*
X59595959Y-101349057D01*
X59500473Y-101514443D01*
X59500470Y-101514450D01*
X59472372Y-101600928D01*
X59441458Y-101696072D01*
X59421496Y-101886000D01*
X52785000Y-101886000D01*
X52785000Y-99361001D01*
X52785000Y-99361000D01*
X52784998Y-99360999D01*
X46948953Y-99129410D01*
X46882747Y-99107083D01*
X46853552Y-99078393D01*
X46846889Y-99069222D01*
X46684278Y-98906611D01*
X46498231Y-98771440D01*
X46293333Y-98667039D01*
X46074618Y-98595973D01*
X45847488Y-98560000D01*
X45847483Y-98560000D01*
X45522517Y-98560000D01*
X45522512Y-98560000D01*
X45295381Y-98595973D01*
X45076666Y-98667039D01*
X44871765Y-98771442D01*
X44685728Y-98906605D01*
X44685723Y-98906609D01*
X44596179Y-98996152D01*
X44534856Y-99029636D01*
X44503582Y-99032372D01*
X40304083Y-98865725D01*
X40237877Y-98843398D01*
X40194252Y-98788821D01*
X40185000Y-98741823D01*
X40185000Y-97311000D01*
X49671835Y-97311000D01*
X49690465Y-97547714D01*
X49745895Y-97778595D01*
X49745895Y-97778597D01*
X49836757Y-97997959D01*
X49836759Y-97997962D01*
X49960820Y-98200410D01*
X49960821Y-98200413D01*
X49960824Y-98200416D01*
X50115031Y-98380969D01*
X50254797Y-98500340D01*
X50295586Y-98535178D01*
X50295589Y-98535179D01*
X50498037Y-98659240D01*
X50498040Y-98659242D01*
X50717403Y-98750104D01*
X50717404Y-98750104D01*
X50717406Y-98750105D01*
X50948289Y-98805535D01*
X51185000Y-98824165D01*
X51421711Y-98805535D01*
X51652594Y-98750105D01*
X51652596Y-98750104D01*
X51652597Y-98750104D01*
X51871959Y-98659242D01*
X51871960Y-98659241D01*
X51871963Y-98659240D01*
X52074416Y-98535176D01*
X52254969Y-98380969D01*
X52409176Y-98200416D01*
X52533240Y-97997963D01*
X52588368Y-97864873D01*
X52624104Y-97778597D01*
X52624104Y-97778596D01*
X52624105Y-97778594D01*
X52679535Y-97547711D01*
X52698165Y-97311000D01*
X52679535Y-97074289D01*
X52652336Y-96960995D01*
X54981709Y-96960995D01*
X54981709Y-96961004D01*
X55000843Y-97216343D01*
X55000844Y-97216348D01*
X55057822Y-97465987D01*
X55057824Y-97465996D01*
X55057826Y-97466001D01*
X55151378Y-97704369D01*
X55279413Y-97926131D01*
X55336697Y-97997963D01*
X55439072Y-98126338D01*
X55616271Y-98290753D01*
X55626781Y-98300505D01*
X55838355Y-98444754D01*
X55838360Y-98444756D01*
X55838361Y-98444757D01*
X55838362Y-98444758D01*
X55960890Y-98503764D01*
X56069061Y-98555856D01*
X56069062Y-98555856D01*
X56069065Y-98555858D01*
X56313757Y-98631335D01*
X56313758Y-98631335D01*
X56313761Y-98631336D01*
X56566958Y-98669499D01*
X56566963Y-98669499D01*
X56566966Y-98669500D01*
X56566967Y-98669500D01*
X56823033Y-98669500D01*
X56823034Y-98669500D01*
X56839362Y-98667039D01*
X57076238Y-98631336D01*
X57076239Y-98631335D01*
X57076243Y-98631335D01*
X57320935Y-98555858D01*
X57551646Y-98444754D01*
X57763219Y-98300505D01*
X57923845Y-98151466D01*
X57950927Y-98126338D01*
X57950927Y-98126336D01*
X57950931Y-98126334D01*
X58110587Y-97926131D01*
X58238622Y-97704369D01*
X58332174Y-97466001D01*
X58389155Y-97216353D01*
X58399801Y-97074289D01*
X58408291Y-96961004D01*
X58408291Y-96960995D01*
X58389156Y-96705656D01*
X58389155Y-96705651D01*
X58389155Y-96705647D01*
X58332174Y-96455999D01*
X58238622Y-96217631D01*
X58110587Y-95995869D01*
X57950931Y-95795666D01*
X57950930Y-95795665D01*
X57950927Y-95795661D01*
X57772163Y-95629794D01*
X57763219Y-95621495D01*
X57661462Y-95552118D01*
X57551649Y-95477248D01*
X57551638Y-95477241D01*
X57320940Y-95366144D01*
X57320921Y-95366137D01*
X57076248Y-95290666D01*
X57076238Y-95290663D01*
X56823041Y-95252500D01*
X56823034Y-95252500D01*
X56566966Y-95252500D01*
X56566958Y-95252500D01*
X56313761Y-95290663D01*
X56313755Y-95290665D01*
X56069061Y-95366143D01*
X55838362Y-95477241D01*
X55838361Y-95477242D01*
X55626780Y-95621495D01*
X55439072Y-95795661D01*
X55279413Y-95995869D01*
X55151378Y-96217630D01*
X55057828Y-96455993D01*
X55057822Y-96456012D01*
X55000844Y-96705651D01*
X55000843Y-96705656D01*
X54981709Y-96960995D01*
X52652336Y-96960995D01*
X52624105Y-96843406D01*
X52624104Y-96843403D01*
X52624104Y-96843402D01*
X52533242Y-96624040D01*
X52533240Y-96624037D01*
X52409179Y-96421589D01*
X52409178Y-96421586D01*
X52348363Y-96350381D01*
X52254969Y-96241031D01*
X52135596Y-96139076D01*
X52074413Y-96086821D01*
X52074410Y-96086820D01*
X51871962Y-95962759D01*
X51871959Y-95962757D01*
X51652596Y-95871895D01*
X51421714Y-95816465D01*
X51185000Y-95797835D01*
X50948285Y-95816465D01*
X50717404Y-95871895D01*
X50717402Y-95871895D01*
X50498040Y-95962757D01*
X50498037Y-95962759D01*
X50295589Y-96086820D01*
X50295586Y-96086821D01*
X50115031Y-96241031D01*
X49960821Y-96421586D01*
X49960820Y-96421589D01*
X49836759Y-96624037D01*
X49836757Y-96624040D01*
X49745895Y-96843402D01*
X49745895Y-96843404D01*
X49690465Y-97074285D01*
X49671835Y-97311000D01*
X40185000Y-97311000D01*
X40185000Y-94761000D01*
X57771496Y-94761000D01*
X57791458Y-94950928D01*
X57791459Y-94950931D01*
X57850470Y-95132549D01*
X57850473Y-95132556D01*
X57945960Y-95297944D01*
X58073747Y-95439866D01*
X58228248Y-95552118D01*
X58402712Y-95629794D01*
X58589513Y-95669500D01*
X58780487Y-95669500D01*
X58967288Y-95629794D01*
X59141752Y-95552118D01*
X59296253Y-95439866D01*
X59424040Y-95297944D01*
X59519527Y-95132556D01*
X59578542Y-94950928D01*
X59585940Y-94880536D01*
X59612525Y-94815923D01*
X59669823Y-94775939D01*
X59709261Y-94769500D01*
X60240668Y-94769500D01*
X60307707Y-94789185D01*
X60353462Y-94841989D01*
X60363406Y-94911147D01*
X60334381Y-94974703D01*
X60313553Y-94993818D01*
X60209912Y-95069117D01*
X60209902Y-95069125D01*
X59985132Y-95280199D01*
X59914038Y-95366137D01*
X59822124Y-95477242D01*
X59788577Y-95517793D01*
X59623366Y-95778126D01*
X59623362Y-95778132D01*
X59492080Y-96057120D01*
X59492078Y-96057125D01*
X59396795Y-96350376D01*
X59339015Y-96653267D01*
X59339014Y-96653274D01*
X59319655Y-96960994D01*
X59319655Y-96961005D01*
X59339014Y-97268725D01*
X59339015Y-97268732D01*
X59347078Y-97311000D01*
X59392233Y-97547711D01*
X59396795Y-97571623D01*
X59492078Y-97864874D01*
X59492080Y-97864879D01*
X59623362Y-98143867D01*
X59623366Y-98143873D01*
X59788577Y-98404206D01*
X59788579Y-98404209D01*
X59788584Y-98404216D01*
X59976475Y-98631336D01*
X59985132Y-98641800D01*
X60209902Y-98852874D01*
X60209912Y-98852882D01*
X60459348Y-99034108D01*
X60459353Y-99034110D01*
X60459360Y-99034116D01*
X60729565Y-99182663D01*
X60729570Y-99182665D01*
X60729572Y-99182666D01*
X60729573Y-99182667D01*
X61016253Y-99296171D01*
X61016256Y-99296172D01*
X61314910Y-99372853D01*
X61314914Y-99372854D01*
X61379091Y-99380961D01*
X61620816Y-99411499D01*
X61620825Y-99411499D01*
X61620828Y-99411500D01*
X61620830Y-99411500D01*
X61929170Y-99411500D01*
X61929172Y-99411500D01*
X61929175Y-99411499D01*
X61929183Y-99411499D01*
X62111722Y-99388438D01*
X62235086Y-99372854D01*
X62533743Y-99296172D01*
X62637053Y-99255269D01*
X62820426Y-99182667D01*
X62820427Y-99182666D01*
X62820425Y-99182666D01*
X62820435Y-99182663D01*
X63090640Y-99034116D01*
X63340096Y-98852876D01*
X63564869Y-98641799D01*
X63761416Y-98404216D01*
X63926635Y-98143871D01*
X63934886Y-98126338D01*
X64029096Y-97926131D01*
X64057922Y-97864873D01*
X64153206Y-97571619D01*
X64210984Y-97268736D01*
X64214280Y-97216348D01*
X64230345Y-96961005D01*
X64230345Y-96960994D01*
X64210985Y-96653274D01*
X64210984Y-96653267D01*
X64210984Y-96653264D01*
X64153206Y-96350381D01*
X64057922Y-96057127D01*
X64013515Y-95962757D01*
X63926637Y-95778132D01*
X63926633Y-95778126D01*
X63761422Y-95517793D01*
X63761420Y-95517791D01*
X63761416Y-95517784D01*
X63564869Y-95280201D01*
X63340096Y-95069124D01*
X63340093Y-95069122D01*
X63340087Y-95069117D01*
X63236447Y-94993818D01*
X63193781Y-94938488D01*
X63187802Y-94868875D01*
X63220408Y-94807080D01*
X63281246Y-94772723D01*
X63309332Y-94769500D01*
X65903180Y-94769500D01*
X65970219Y-94789185D01*
X65995330Y-94810528D01*
X66021741Y-94839861D01*
X66021744Y-94839863D01*
X66021747Y-94839866D01*
X66176248Y-94952118D01*
X66350712Y-95029794D01*
X66537513Y-95069500D01*
X66728487Y-95069500D01*
X66915288Y-95029794D01*
X67089752Y-94952118D01*
X67244253Y-94839866D01*
X67372040Y-94697944D01*
X67467527Y-94532556D01*
X67526542Y-94350928D01*
X67546504Y-94161000D01*
X67526542Y-93971072D01*
X67467527Y-93789444D01*
X67372040Y-93624056D01*
X67244253Y-93482134D01*
X67089752Y-93369882D01*
X66915288Y-93292206D01*
X66915286Y-93292205D01*
X66728487Y-93252500D01*
X66537513Y-93252500D01*
X66350714Y-93292205D01*
X66176246Y-93369883D01*
X66021744Y-93482136D01*
X66021741Y-93482138D01*
X65995330Y-93511472D01*
X65935843Y-93548121D01*
X65903180Y-93552500D01*
X59204889Y-93552500D01*
X59127508Y-93573233D01*
X59127508Y-93573234D01*
X59050127Y-93593968D01*
X59050125Y-93593968D01*
X59050125Y-93593969D01*
X58911372Y-93674079D01*
X58911369Y-93674081D01*
X58769270Y-93816181D01*
X58707947Y-93849666D01*
X58681589Y-93852500D01*
X58589513Y-93852500D01*
X58402714Y-93892205D01*
X58228246Y-93969883D01*
X58073745Y-94082135D01*
X57945959Y-94224057D01*
X57850473Y-94389443D01*
X57850470Y-94389450D01*
X57791459Y-94571068D01*
X57791458Y-94571072D01*
X57771496Y-94761000D01*
X40185000Y-94761000D01*
X40185000Y-87688061D01*
X40204685Y-87621022D01*
X40257489Y-87575267D01*
X40312022Y-87564098D01*
X59923000Y-88042415D01*
X59923000Y-88042414D01*
X59923000Y-86207776D01*
X59942685Y-86140737D01*
X59963887Y-86115753D01*
X73977890Y-73459550D01*
X74040837Y-73429227D01*
X74110185Y-73437749D01*
G37*
%TD.AperFunction*%
%TD*%
M02*
