%TF.GenerationSoftware,KiCad,Pcbnew,8.99.0-1678-gcd3e85b0b3*%
%TF.CreationDate,2024-09-01T20:16:48+02:00*%
%TF.ProjectId,ACDC120W19O5V,41434443-3132-4305-9731-394f35562e6b,rev?*%
%TF.SameCoordinates,Original*%
%TF.FileFunction,Soldermask,Bot*%
%TF.FilePolarity,Negative*%
%FSLAX46Y46*%
G04 Gerber Fmt 4.6, Leading zero omitted, Abs format (unit mm)*
G04 Created by KiCad (PCBNEW 8.99.0-1678-gcd3e85b0b3) date 2024-09-01 20:16:48*
%MOMM*%
%LPD*%
G01*
G04 APERTURE LIST*
G04 Aperture macros list*
%AMRoundRect*
0 Rectangle with rounded corners*
0 $1 Rounding radius*
0 $2 $3 $4 $5 $6 $7 $8 $9 X,Y pos of 4 corners*
0 Add a 4 corners polygon primitive as box body*
4,1,4,$2,$3,$4,$5,$6,$7,$8,$9,$2,$3,0*
0 Add four circle primitives for the rounded corners*
1,1,$1+$1,$2,$3*
1,1,$1+$1,$4,$5*
1,1,$1+$1,$6,$7*
1,1,$1+$1,$8,$9*
0 Add four rect primitives between the rounded corners*
20,1,$1+$1,$2,$3,$4,$5,0*
20,1,$1+$1,$4,$5,$6,$7,0*
20,1,$1+$1,$6,$7,$8,$9,0*
20,1,$1+$1,$8,$9,$2,$3,0*%
G04 Aperture macros list end*
%ADD10C,1.000000*%
%ADD11C,3.000000*%
%ADD12C,2.000000*%
%ADD13C,2.400000*%
%ADD14O,2.400000X2.400000*%
%ADD15C,3.600000*%
%ADD16C,5.600000*%
%ADD17R,3.200000X3.200000*%
%ADD18C,3.200000*%
%ADD19C,2.550000*%
%ADD20C,1.800000*%
%ADD21C,2.000000*%
%ADD22R,2.400000X2.400000*%
%ADD23C,1.700000*%
%ADD24R,2.400000X1.600000*%
%ADD25O,2.400000X1.600000*%
%ADD26C,1.600000*%
%ADD27C,2.300000*%
%ADD28O,4.200000X3.000000*%
%ADD29RoundRect,0.250001X-1.099999X1.099999X-1.099999X-1.099999X1.099999X-1.099999X1.099999X1.099999X0*%
%ADD30C,2.700000*%
%ADD31R,2.000000X1.905000*%
%ADD32O,2.000000X1.905000*%
G04 APERTURE END LIST*
D10*
X107185000Y-159561000D02*
X107185000Y-159561000D01*
X37185000Y-152561000D02*
X39770786Y-152561000D01*
X40477893Y-152853893D02*
X42892107Y-155268107D01*
X108185000Y-40646786D02*
X108185000Y-38061000D01*
X40770786Y-150561000D02*
G75*
G02*
X41477879Y-150853907I14J-999900D01*
G01*
X108185000Y-158561000D02*
X108185000Y-155975214D01*
X107185000Y-37061000D02*
G75*
G02*
X108185000Y-38061000I0J-1000000D01*
G01*
X40770786Y-150561000D02*
X37185000Y-150561000D01*
X110892107Y-152853893D02*
G75*
G02*
X111599214Y-152561027I707193J-707407D01*
G01*
X44892107Y-154268107D02*
X41477893Y-150853893D01*
X106477893Y-42353893D02*
X109892107Y-45768107D01*
X107185000Y-159561000D02*
G75*
G02*
X106185000Y-158561000I0J1000000D01*
G01*
D11*
X87185000Y-97061000D02*
X118185000Y-97061000D01*
D10*
X111599214Y-44061000D02*
G75*
G02*
X110892121Y-43768093I-14J999900D01*
G01*
X106185000Y-154975214D02*
X106185000Y-158561000D01*
D11*
X83685000Y-130061000D02*
G75*
G02*
X80185000Y-133561000I-3500000J0D01*
G01*
D10*
X109892107Y-150853893D02*
X106477893Y-154268107D01*
X33185000Y-36061000D02*
G75*
G02*
X35185000Y-34061000I2000000J0D01*
G01*
X45185000Y-158561000D02*
G75*
G02*
X44185000Y-159561000I-1000000J0D01*
G01*
X36185000Y-151561000D02*
X36185000Y-151561000D01*
X108185000Y-155975214D02*
G75*
G02*
X108477907Y-155268121I999900J14D01*
G01*
X44892107Y-154268107D02*
G75*
G02*
X45184973Y-154975214I-707407J-707193D01*
G01*
X37185000Y-152561000D02*
G75*
G02*
X36185000Y-151561000I0J1000000D01*
G01*
X109892107Y-150853893D02*
G75*
G02*
X110599214Y-150561039I707093J-707207D01*
G01*
X118185000Y-160561000D02*
G75*
G02*
X116185000Y-162561000I-2000000J0D01*
G01*
X115185000Y-45061000D02*
X115185000Y-45061000D01*
X110599214Y-46061000D02*
X114185000Y-46061000D01*
X44185000Y-159561000D02*
G75*
G02*
X43185000Y-158561000I0J1000000D01*
G01*
D11*
X83685000Y-100561000D02*
G75*
G02*
X87185000Y-97061000I3500000J0D01*
G01*
D10*
X110599214Y-46061000D02*
G75*
G02*
X109892121Y-45768093I-14J999900D01*
G01*
X106477893Y-42353893D02*
G75*
G02*
X106185027Y-41646786I707407J707193D01*
G01*
D11*
X83685000Y-100561000D02*
X83685000Y-130061000D01*
D10*
X106185000Y-38061000D02*
X106185000Y-41646786D01*
X106185000Y-154975214D02*
G75*
G02*
X106477886Y-154268100I1000000J14D01*
G01*
X108477893Y-41353893D02*
G75*
G02*
X108185027Y-40646786I707407J707193D01*
G01*
X108477893Y-155268107D02*
X110892107Y-152853893D01*
X115185000Y-45061000D02*
G75*
G02*
X114185000Y-46061000I-1000000J0D01*
G01*
X35185000Y-34061000D02*
X116185000Y-34061000D01*
X36185000Y-151561000D02*
G75*
G02*
X37185000Y-150561000I1000000J0D01*
G01*
X114185000Y-44061000D02*
G75*
G02*
X115185000Y-45061000I0J-1000000D01*
G01*
X114185000Y-150561000D02*
G75*
G02*
X115185000Y-151561000I0J-1000000D01*
G01*
X111599214Y-152561000D02*
X114185000Y-152561000D01*
X115185000Y-151561000D02*
G75*
G02*
X114185000Y-152561000I-1000000J0D01*
G01*
X118185000Y-36061000D02*
X118185000Y-160561000D01*
D11*
X33185000Y-133561000D02*
X80185000Y-133561000D01*
D10*
X42892107Y-155268107D02*
G75*
G02*
X43184973Y-155975214I-707407J-707193D01*
G01*
X114185000Y-44061000D02*
X111599214Y-44061000D01*
X107185000Y-37061000D02*
X107185000Y-37061000D01*
X43185000Y-155975214D02*
X43185000Y-158561000D01*
X33185000Y-160561000D02*
X33185000Y-36061000D01*
X116185000Y-34061000D02*
G75*
G02*
X118185000Y-36061000I0J-2000000D01*
G01*
X110892107Y-43768107D02*
X108477893Y-41353893D01*
X39770786Y-152561000D02*
G75*
G02*
X40477879Y-152853907I14J-999900D01*
G01*
X115185000Y-151561000D02*
X115185000Y-151561000D01*
X114185000Y-150561000D02*
X110599214Y-150561000D01*
X116185000Y-162561000D02*
X35185000Y-162561000D01*
X44185000Y-159561000D02*
X44185000Y-159561000D01*
X106185000Y-38061000D02*
G75*
G02*
X107185000Y-37061000I1000000J0D01*
G01*
X108185000Y-158561000D02*
G75*
G02*
X107185000Y-159561000I-1000000J0D01*
G01*
D12*
X36385000Y-67061000D02*
X44385000Y-67061000D01*
D10*
X45185000Y-158561000D02*
X45185000Y-154975214D01*
X35185000Y-162561000D02*
G75*
G02*
X33185000Y-160561000I0J2000000D01*
G01*
D13*
%TO.C,R21*%
X56695000Y-96961000D03*
D14*
X61775000Y-96961000D03*
%TD*%
D15*
%TO.C,H2*%
X113185000Y-157561000D03*
D16*
X113185000Y-157561000D03*
%TD*%
D17*
%TO.C,D6*%
X104685000Y-65721000D03*
D18*
X104685000Y-60641000D03*
X104685000Y-55561000D03*
X104685000Y-50481000D03*
%TD*%
D19*
%TO.C,TR1*%
X73102000Y-120857000D03*
X68022000Y-120857000D03*
X62942000Y-120857000D03*
X57862000Y-120857000D03*
X52782000Y-120857000D03*
X47702000Y-120857000D03*
X42622000Y-120857000D03*
X42622000Y-146257000D03*
X47702000Y-146257000D03*
X52782000Y-146257000D03*
X57862000Y-146257000D03*
X62942000Y-146257000D03*
X68022000Y-146257000D03*
X73102000Y-146257000D03*
%TD*%
D20*
%TO.C,F1*%
X40385000Y-69601000D03*
X40385000Y-64521000D03*
%TD*%
%TO.C,RV1*%
X50185000Y-66561000D03*
X48885000Y-74061000D03*
%TD*%
D21*
%TO.C,SW1*%
X43185000Y-49061000D03*
X49185000Y-48061000D03*
X43185000Y-59061000D03*
X49185000Y-60061000D03*
%TD*%
%TO.C,C12*%
X103935000Y-100811000D03*
X103935000Y-93311000D03*
%TD*%
%TO.C,C28*%
X70535000Y-157961000D03*
X63035000Y-157961000D03*
%TD*%
D22*
%TO.C,C25*%
X96298541Y-154011000D03*
D13*
X101298541Y-154011000D03*
%TD*%
D23*
%TO.C,C7*%
X59685000Y-44561000D03*
X59685000Y-67061000D03*
%TD*%
D22*
%TO.C,C24*%
X107585000Y-141761000D03*
D13*
X112585000Y-141761000D03*
%TD*%
D24*
%TO.C,U2*%
X87510000Y-110186000D03*
D25*
X87510000Y-107646000D03*
X87510000Y-105106000D03*
X79890000Y-105106000D03*
X79890000Y-107646000D03*
X79890000Y-110186000D03*
%TD*%
D23*
%TO.C,C11*%
X88685000Y-44061000D03*
X88685000Y-66561000D03*
%TD*%
D22*
%TO.C,C16*%
X109685000Y-77061000D03*
D13*
X109685000Y-84561000D03*
%TD*%
D26*
%TO.C,C6*%
X70435000Y-109311000D03*
X72935000Y-109311000D03*
%TD*%
D13*
%TO.C,R20*%
X58685000Y-108561000D03*
D14*
X63765000Y-108561000D03*
%TD*%
D22*
%TO.C,C23*%
X97971459Y-123361000D03*
D13*
X92971459Y-123361000D03*
%TD*%
D27*
%TO.C,FL1*%
X69185000Y-63811000D03*
X79185000Y-63811000D03*
X69185000Y-45061000D03*
X79185000Y-45061000D03*
%TD*%
D15*
%TO.C,H4*%
X113185000Y-39061000D03*
D16*
X113185000Y-39061000D03*
%TD*%
D21*
%TO.C,C9*%
X46185000Y-43061000D03*
X46185000Y-38061000D03*
%TD*%
D28*
%TO.C,HS2*%
X92110000Y-136061000D03*
X92110000Y-160261000D03*
%TD*%
D13*
%TO.C,R22*%
X74695000Y-157961000D03*
D14*
X79775000Y-157961000D03*
%TD*%
D26*
%TO.C,TH1*%
X97435000Y-55561000D03*
X98935000Y-50561000D03*
%TD*%
D29*
%TO.C,J1*%
X40935000Y-74561000D03*
D30*
X40935000Y-82481000D03*
%TD*%
D21*
%TO.C,C8*%
X57185000Y-37561000D03*
X52185000Y-37561000D03*
%TD*%
D29*
%TO.C,J2*%
X112685000Y-102843500D03*
D30*
X112685000Y-106803500D03*
X112685000Y-110763500D03*
X112685000Y-114723500D03*
%TD*%
D21*
%TO.C,C19*%
X51185000Y-104811000D03*
X51185000Y-97311000D03*
%TD*%
D31*
%TO.C,D8*%
X86380000Y-150701000D03*
D32*
X86380000Y-148161000D03*
X86380000Y-145621000D03*
%TD*%
D15*
%TO.C,H3*%
X38185000Y-157561000D03*
D16*
X38185000Y-157561000D03*
%TD*%
D22*
%TO.C,C22*%
X107598541Y-125961000D03*
D13*
X112598541Y-125961000D03*
%TD*%
D21*
%TO.C,L1*%
X97985000Y-137461000D03*
X97985000Y-145461000D03*
%TD*%
D31*
%TO.C,Q1*%
X45685000Y-105101000D03*
D32*
X45685000Y-102561000D03*
X45685000Y-100021000D03*
%TD*%
D15*
%TO.C,H1*%
X38185000Y-39061000D03*
D16*
X38185000Y-39061000D03*
%TD*%
M02*
